<?xml version="1.0" encoding="UTF-8"?>
<svg width="73px" height="78px" viewBox="0 0 73 78" version="1.1" xmlns="http://www.w3.org/2000/svg" xmlns:xlink="http://www.w3.org/1999/xlink">
    <g id="KYC_private_manual_3_upload" stroke="none" stroke-width="1" fill="none" fill-rule="evenodd" transform="translate(-882.000000, -449.000000)">
        <g id="file" transform="translate(882.000000, 449.000000)" fill="#AABCCA" fill-rule="nonzero">
            <path d="M13.5792759,30.3483146 L45.4769039,30.3483146 C46.1812035,30.3483146 46.752809,29.7971236 46.752809,29.1179775 C46.752809,28.4388315 46.1812035,27.8876404 45.4769039,27.8876404 L13.5792759,27.8876404 C12.8749763,27.8876404 12.3033708,28.4388315 12.3033708,29.1179775 C12.3033708,29.7971236 12.8749763,30.3483146 13.5792759,30.3483146 Z" id="Shape"></path>
            <path d="M13.6020599,20.505618 L26.5889513,20.505618 C27.3058277,20.505618 27.8876404,19.954427 27.8876404,19.2752809 C27.8876404,18.5961348 27.3058277,18.0449438 26.5889513,18.0449438 L13.6020599,18.0449438 C12.8851835,18.0449438 12.3033708,18.5961348 12.3033708,19.2752809 C12.3033708,19.954427 12.8851835,20.505618 13.6020599,20.505618 Z" id="Shape"></path>
            <path d="M13.5792759,41.011236 L45.4769039,41.011236 C46.1812035,41.011236 46.752809,40.4600449 46.752809,39.7808989 C46.752809,39.1017528 46.1812035,38.5505618 45.4769039,38.5505618 L13.5792759,38.5505618 C12.8749763,38.5505618 12.3033708,39.1017528 12.3033708,39.7808989 C12.3033708,40.4600449 12.8749763,41.011236 13.5792759,41.011236 Z" id="Shape"></path>
            <path d="M35.6150207,49.2134831 L13.5984624,49.2134831 C12.8835719,49.2134831 12.3033708,49.7646742 12.3033708,50.4438202 C12.3033708,51.1229663 12.8835719,51.6741573 13.5984624,51.6741573 L35.6150207,51.6741573 C36.3299113,51.6741573 36.9101124,51.1229663 36.9101124,50.4438202 C36.9101124,49.7646742 36.3299113,49.2134831 35.6150207,49.2134831 Z" id="Shape"></path>
            <path d="M31.5273876,59.0561798 L13.5849719,59.0561798 C12.8775281,59.0561798 12.3033708,59.6073708 12.3033708,60.2865169 C12.3033708,60.9656629 12.8775281,61.5168539 13.5849719,61.5168539 L31.5273876,61.5168539 C32.2348315,61.5168539 32.8089888,60.9656629 32.8089888,60.2865169 C32.8089888,59.6073708 32.2348315,59.0561798 31.5273876,59.0561798 Z" id="Shape"></path>
            <path d="M60.1929825,44.1570985 L60.1929825,18.7432831 L41.5126667,0 L0,0 L0,77.1011236 L56.3508772,77.1011236 C65.5309474,77.1011236 73,69.6068944 73,60.3958801 C73,52.5135753 67.5237193,45.904724 60.1929825,44.1570985 Z M42.2631579,4.38705393 L55.8206667,17.9902622 L42.2631579,17.9902622 L42.2631579,4.38705393 Z M47.4858596,74.5310861 L2.56140351,74.5310861 L2.56140351,2.57003745 L39.7017544,2.57003745 L39.7017544,20.5602996 L57.6315789,20.5602996 L57.6315789,43.7471775 C57.1935789,43.709912 56.768386,43.6906367 56.3508772,43.6906367 C47.170807,43.6906367 39.7017544,51.1848659 39.7017544,60.3958801 C39.7017544,60.9086026 39.7337719,61.413615 39.7785965,61.9160573 C39.7888421,62.032994 39.8003684,62.1486457 39.8131754,62.2655824 C39.8682456,62.7564596 39.9386842,63.2421966 40.0347368,63.7189386 C40.0462632,63.7754794 40.0616316,63.8307352 40.0731579,63.887276 C40.1653684,64.3216124 40.2767895,64.7482386 40.4022982,65.1697247 C40.4343158,65.2750963 40.4637719,65.3817528 40.4970702,65.4858393 C40.6417895,65.9381659 40.8031579,66.3827824 40.9837368,66.8184037 C41.0183158,66.9006449 41.0567368,66.9803161 41.0913158,67.0612723 C41.2565263,67.4416378 41.4358246,67.8130082 41.6279298,68.1779536 C41.6740351,68.2653348 41.7175789,68.3540011 41.7649649,68.4413824 C41.9890877,68.8487333 42.2298596,69.2458041 42.4872807,69.6325948 C42.546193,69.721261 42.6076667,69.8060723 42.6678596,69.8934536 C42.9022281,70.2326985 43.1481228,70.5629483 43.4055439,70.882918 C43.4542105,70.9433139 43.5003158,71.0062798 43.5502632,71.0666757 C43.8461053,71.4239109 44.1585965,71.7657258 44.482614,72.0959757 C44.5620175,72.1769318 44.6427018,72.255318 44.7246667,72.3349891 C45.0384386,72.6421086 45.3598947,72.940233 45.6967193,73.2216521 C45.7261754,73.2473524 45.7543509,73.2743378 45.7850877,73.2987532 C46.1462456,73.5968775 46.5240526,73.8757266 46.9108246,74.1442955 C47.0043158,74.2098315 47.0990877,74.2727974 47.1938596,74.3357633 C47.2924737,74.3987292 47.3872456,74.4681202 47.4858596,74.5310861 Z M56.3508772,74.5310861 C48.5834211,74.5310861 42.2631579,68.1895187 42.2631579,60.3958801 C42.2631579,52.6022416 48.5834211,46.2606742 56.3508772,46.2606742 C56.7504561,46.2606742 57.1449123,46.2876596 57.536807,46.32107 C57.9094912,46.3570506 58.2949825,46.4058813 58.7009649,46.4739873 L59.2683158,46.5690787 C65.639807,47.9222034 70.4385965,53.6058412 70.4385965,60.3958801 C70.4385965,68.1895187 64.1183333,74.5310861 56.3508772,74.5310861 Z" id="Shape"></path>
            <path d="M64.329053,59.4077047 L57.8844302,59.4077047 L57.8844302,52.9630819 C57.8844302,52.2515955 57.306992,51.6741573 56.5955056,51.6741573 C55.8840193,51.6741573 55.3065811,52.2515955 55.3065811,52.9630819 L55.3065811,59.4077047 L48.8619583,59.4077047 C48.1504719,59.4077047 47.5730337,59.9851429 47.5730337,60.6966292 C47.5730337,61.4081156 48.1504719,61.9855538 48.8619583,61.9855538 L55.3065811,61.9855538 L55.3065811,68.4301766 C55.3065811,69.1416629 55.8840193,69.7191011 56.5955056,69.7191011 C57.306992,69.7191011 57.8844302,69.1416629 57.8844302,68.4301766 L57.8844302,61.9855538 L64.329053,61.9855538 C65.0405393,61.9855538 65.6179775,61.4081156 65.6179775,60.6966292 C65.6179775,59.9851429 65.0405393,59.4077047 64.329053,59.4077047 Z" id="Shape"></path>
        </g>
    </g>
</svg>
