<svg xmlns="http://www.w3.org/2000/svg" width="25" height="25" viewBox="0 0 25 25">
  <path fill="#D5E20F" d="M23.9188446,2.56456427 C23.8598775,2.49587881 23.7755014,2.45297847 23.6843038,2.44534176 L18.5829162,2.01782078 L18.4904368,1.29646615 C18.4666302,1.11089411 18.2936203,0.979363012 18.104953,1.00267744 L13.3726135,1.58648144 C13.3539802,1.58171973 13.3348892,1.57812598 13.3150198,1.57646387 L6.81050797,1.03129264 C6.62321415,1.01512078 6.4531801,1.15644484 6.43724799,1.33986063 L6.34028189,2.45392182 L1.30202756,3.07546016 C1.11560359,3.09846013 0.979219253,3.27064547 1.00261381,3.4537019 L3.57436729,23.5251314 C3.58604168,23.6166821 3.56603499,23.704639 3.60417132,23.7931799 C3.6576446,23.9172091 3.78491834,24 3.92221831,24 L20.8573619,24 C21.0480436,24 21.2025118,23.8484338 21.2025118,23.6613344 L21.2025118,23.220247 L21.8709736,23.2762645 C22.0582674,23.2922118 22.2283015,23.1512022 22.2442336,22.9676965 L23.998734,2.81167922 C24.0065628,2.72215002 23.9778575,2.63329466 23.9188446,2.56456427 Z M3.57706843,18.1162296 L1.73063788,3.70521918 L3.57706843,3.47746554 L3.57706843,18.1162296 Z M7.09568354,1.73499298 L10.1163745,1.98812745 L7.04065368,2.36758208 L7.09568354,1.73499298 Z M17.84862,1.71697933 L18.024972,3.0932492 L6.69161233,3.0932492 L17.84862,1.71697933 Z M21.5858438,22.5725642 L21.2025118,22.5404451 L21.2025118,12.6434938 C21.2025118,12.4564394 21.0480436,12.3048282 20.8573619,12.3048282 C20.6666803,12.3048282 20.5122121,12.4563944 20.5122121,12.6434938 L20.5122121,23.3226238 L4.26736819,23.3226238 L4.26736819,3.77058043 L20.5122578,3.77058043 L20.5122578,11.0630992 C20.5122578,11.2501986 20.666726,11.4017648 20.8574077,11.4017648 C21.0480894,11.4017648 21.2025576,11.2501986 21.2025576,11.0630992 L21.2025576,3.43191482 C21.2025576,3.24486035 21.0480894,3.0932492 20.8574077,3.0932492 L18.7207198,3.0932492 L18.6709549,2.70498989 L23.2816061,3.0914074 L21.5858438,22.5725642 Z M19.0571117,4.91237113 L17.2286168,4.91237113 C17.113972,4.91237113 17.0069218,4.96849423 16.943392,5.06201787 L16.1673912,6.20302408 C15.3321354,5.61651764 14.3095189,5.27081897 13.2060007,5.27081897 C13.0166391,5.27081897 12.8631579,5.42122353 12.8631579,5.6068889 L12.8631579,10.2670229 C12.8631579,10.4526437 13.0165936,10.6030928 13.2060007,10.6030928 L17.9600511,10.6030928 C18.1494583,10.6030928 18.3028939,10.4526882 18.3028939,10.2670229 C18.3028939,8.83621819 17.6859679,7.54418335 16.6994138,6.63248391 L17.4121575,5.58451098 L19.0571572,5.58451098 C19.2465188,5.58451098 19.4,5.43410643 19.4,5.24844106 C19.4,5.06277569 19.2464734,4.91237113 19.0571117,4.91237113 Z M17.6040203,9.93095293 L13.5488435,9.93095293 L13.5488435,5.9558863 C14.3802794,6.01882976 15.1473213,6.30947519 15.7865306,6.76305146 L15.4806142,7.21288322 C15.3850693,7.35330241 15.4130825,7.54779413 15.5450535,7.65642954 C15.6995806,7.78365379 15.9392841,7.75008691 16.0511093,7.5857296 L16.3129141,7.20075813 C17.0418473,7.91052141 17.5201628,8.8673333 17.6040203,9.93095293 Z M7.31018743,21.5103093 C7.50223587,21.5103093 7.65789474,21.6694857 7.65789474,21.8659794 C7.65789474,22.0624731 7.50223587,22.2216495 7.31018743,22.2216495 L5.82665468,22.2216495 C5.63460623,22.2216495 5.47894737,22.0624731 5.47894737,21.8659794 C5.47894737,21.6694857 5.63465235,21.5103093 5.82665468,21.5103093 L7.31018743,21.5103093 Z M8.76575269,17.8350515 C8.95618078,17.8350515 9.11052632,17.994228 9.11052632,18.1907216 C9.11052632,18.3872153 8.95618078,18.5463918 8.76575269,18.5463918 L5.82372099,18.5463918 C5.6332929,18.5463918 5.47894737,18.3872153 5.47894737,18.1907216 C5.47894737,17.994228 5.63333864,17.8350515 5.82372099,17.8350515 L8.76575269,17.8350515 Z M13.1236474,17.8350515 C13.3140755,17.8350515 13.4684211,17.994228 13.4684211,18.1907216 C13.4684211,18.3872153 13.3140755,18.5463918 13.1236474,18.5463918 L10.1816157,18.5463918 C9.99118764,18.5463918 9.83684211,18.3872153 9.83684211,18.1907216 C9.83684211,17.994228 9.99118764,17.8350515 10.1816157,17.8350515 L13.1236474,17.8350515 Z M10.582992,19.7319588 C10.7725737,19.7319588 10.9263158,19.8911352 10.9263158,20.0876289 C10.9263158,20.2841226 10.7726193,20.443299 10.582992,20.443299 L5.8222712,20.443299 C5.63264387,20.443299 5.47894737,20.2841226 5.47894737,20.0876289 C5.47894737,19.8911352 5.63268941,19.7319588 5.8222712,19.7319588 L10.582992,19.7319588 Z M13.2402852,19.7319588 C13.4331517,19.7319588 13.5894274,19.8911352 13.5894737,20.0876289 C13.5894737,20.2841226 13.4331517,20.443299 13.2402852,20.443299 L12.1228727,20.443299 C11.9300062,20.443299 11.7736842,20.2841226 11.7736842,20.0876289 C11.7736842,19.8911352 11.9300525,19.7319588 12.1228727,19.7319588 L13.2402852,19.7319588 Z M13.1248896,21.5103093 C13.3146316,21.5103093 13.4684211,21.6694857 13.4684211,21.8659794 C13.4684211,22.0624731 13.3146316,22.2216495 13.1248896,22.2216495 L8.72774196,22.2216495 C8.53799997,22.2216495 8.38421053,22.0624731 8.38421053,21.8659794 C8.38421053,21.6694857 8.53804553,21.5103093 8.72774196,21.5103093 L13.1248896,21.5103093 Z M19.0550629,16.0901448 L15.9348894,16.0901448 L15.385113,15.2258595 C16.2757087,14.3190905 16.8244786,13.0860284 16.8244786,11.7293814 C16.8244786,11.5421384 16.6701056,11.3904557 16.4795414,11.3904557 L12.0413869,11.3904557 L12.0413869,7.02964737 C12.0413869,6.84244924 11.8869682,6.69072165 11.6964498,6.69072165 C8.86887125,6.69072165 6.56842105,8.95108064 6.56842105,11.7293814 C6.56842105,14.5076822 8.86887125,16.7680412 11.6964498,16.7680412 C12.8916737,16.7680412 13.9925992,16.3641536 14.865534,15.6880555 L15.4511813,16.608761 C15.5142299,16.7078447 15.6247708,16.7680412 15.7436847,16.7680412 L19.0550629,16.7680412 C19.2455813,16.7680412 19.4,16.6163586 19.4,16.4291155 C19.4,16.2418724 19.2455813,16.0901448 19.0550629,16.0901448 Z M14.1966149,13.3573398 C14.0956822,13.1985091 13.8827903,13.150316 13.7212797,13.2495346 C13.5597234,13.3487082 13.5105839,13.557845 13.6115624,13.7165858 L14.497537,15.1094226 C13.7330384,15.7222223 12.7577068,16.0902347 11.6964956,16.0902347 C9.24931325,16.0902347 7.25834107,14.1339603 7.25834107,11.7294264 C7.25834107,9.43890171 9.06492585,7.5551868 11.3515584,7.38165539 L11.3515584,11.7294264 C11.3515584,11.9166245 11.5059772,12.0683521 11.6964956,12.0683521 L16.1213815,12.0683521 C16.0443323,13.0484449 15.6360263,13.938715 15.0067299,14.6310424 L14.1966149,13.3573398 Z"/>
</svg>
