<?xml version="1.0" encoding="UTF-8"?>
<svg width="22px" height="21px" viewBox="0 0 22 21" version="1.1" xmlns="http://www.w3.org/2000/svg" xmlns:xlink="http://www.w3.org/1999/xlink">
    <g stroke="none" stroke-width="1" fill="none" fill-rule="evenodd">
        <g transform="translate(-25.000000, -245.000000)" fill="#D5E20F" fill-rule="nonzero">
            <g transform="translate(0.000000, 59.000000)">
                <g>
                    <g transform="translate(25.000000, 186.000000)">
                        <path d="M2.79296875,12.4609375 C2.60312054,12.4609375 2.44921875,12.6148393 2.44921875,12.8046875 C2.44921875,12.9945357 2.60312054,13.1484375 2.79296875,13.1484375 C2.98281696,13.1484375 3.13671875,12.9945357 3.13671875,12.8046875 C3.13651209,12.6149252 2.98273103,12.4611442 2.79296875,12.4609375 Z M2.79296875,12.4936756 C2.89408036,12.4937554 2.98883054,12.5430344 3.04695089,12.6257738 L3.00602827,12.6666964 C2.99606975,12.6606706 2.98466871,12.6574459 2.97302827,12.6573661 C2.936867,12.6573661 2.90755208,12.686681 2.90755208,12.7228423 C2.90760937,12.734495 2.91081566,12.7459144 2.91683333,12.7558914 L2.80964881,12.8630759 C2.78935324,12.8507009 2.76384617,12.8507009 2.7435506,12.8630759 L2.66910417,12.7886295 C2.67512184,12.7786525 2.67832813,12.7672331 2.67838542,12.7555804 C2.67843043,12.7194907 2.64921168,12.6901983 2.61312202,12.6901533 C2.58327511,12.6901164 2.55719717,12.7103056 2.54975744,12.7392113 L2.48902827,12.7392113 C2.52002102,12.5960906 2.64653125,12.4938904 2.79296875,12.4936756 Z M3.04505208,12.7424851 C3.04505208,12.7714158 3.02160179,12.7948661 2.99267113,12.7948661 C2.96374048,12.7948661 2.94029018,12.7714158 2.94029018,12.7424851 C2.94029018,12.7135545 2.96374048,12.6901042 2.99267113,12.6901042 C3.02160179,12.6901042 3.04505208,12.7135545 3.04505208,12.7424851 Z M2.84862351,12.9389137 C2.84862351,12.9678443 2.82517321,12.9912946 2.79624256,12.9912946 C2.7673119,12.9912946 2.74386161,12.9678443 2.74386161,12.9389137 C2.74386161,12.909983 2.7673119,12.8865327 2.79624256,12.8865327 C2.82517321,12.8865327 2.84862351,12.909983 2.84862351,12.9389137 Z M2.68493304,12.7752232 C2.68493304,12.8041539 2.66148274,12.8276042 2.63255208,12.8276042 C2.60362143,12.8276042 2.58017113,12.8041539 2.58017113,12.7752232 C2.58017113,12.7462926 2.60362143,12.7228423 2.63255208,12.7228423 C2.66148274,12.7228423 2.68493304,12.7462926 2.68493304,12.7752232 Z M2.94408371,13.0766306 C2.89785751,13.1022972 2.84584487,13.1157444 2.79296875,13.1156974 C2.62131882,13.115814 2.48207347,12.976761 2.48195685,12.805111 C2.48194866,12.7940333 2.48253385,12.7829617 2.48370833,12.7719474 L2.54975744,12.7719474 C2.55719922,12.8007671 2.58314416,12.820942 2.61290923,12.8210545 C2.62456194,12.8209972 2.6359814,12.8177909 2.64595833,12.8117733 L2.72040476,12.8862197 C2.71438709,12.8961966 2.7111808,12.9076161 2.71112351,12.9192688 C2.71112351,12.9554301 2.74043843,12.984745 2.7765997,12.984745 C2.81276097,12.984745 2.84207589,12.9554301 2.84207589,12.9192688 C2.8420186,12.9076161 2.83881231,12.8961966 2.83279464,12.8862197 L2.93997917,12.7790352 C2.9499561,12.7850528 2.96137556,12.7882591 2.97302827,12.7883164 C3.00918955,12.7883164 3.03850446,12.7590015 3.03850446,12.7228402 C3.03844717,12.7111875 3.03524089,12.699768 3.02922321,12.6897911 L3.06490774,12.654123 C3.14821596,12.8041616 3.09412035,12.9933244 2.94408371,13.0766306 Z" id="Shape"></path>
                        <path d="M3.18691128,12.5397589 C3.21685105,12.5396457 3.24294827,12.5193477 3.25043372,12.4903471 L3.3515625,12.4903471 L3.3515625,12.4574059 L3.25043372,12.4574059 C3.24294827,12.4284053 3.21685105,12.4081073 3.18691128,12.4079941 C3.15053777,12.4079941 3.1210508,12.4374909 3.1210508,12.4738765 C3.12110843,12.4856015 3.12433353,12.4970918 3.13038652,12.5071307 L3.1014573,12.5360695 C2.96303708,12.3556732 2.70463347,12.321682 2.52429716,12.4601483 C2.34396086,12.5986145 2.30998097,12.8571062 2.44840119,13.0375025 C2.57906016,13.2077818 2.81856799,13.249088 2.99868201,13.1324041 L3.04837375,13.1821124 L3.07165543,13.2054018 L3.20419966,13.3379901 C3.23790994,13.3717116 3.2925618,13.3717116 3.32627207,13.3379901 C3.35998235,13.3042686 3.35998235,13.2495986 3.32627207,13.2158771 L3.19372784,13.0832888 L3.17044616,13.0599993 L3.12075443,13.010291 C3.20896426,12.8743756 3.20896426,12.6992623 3.12075443,12.5633448 L3.15368467,12.5304036 C3.16371399,12.5364607 3.17519635,12.539693 3.18691128,12.5397589 Z M3.20636199,12.4409353 C3.23529265,12.4409353 3.25874295,12.4643856 3.25874295,12.4933163 C3.25874295,12.5222469 3.23529265,12.5456972 3.20636199,12.5456972 C3.17743134,12.5456972 3.15398104,12.5222469 3.15398104,12.4933163 C3.15398104,12.4643856 3.17743461,12.4409353 3.20636199,12.4409353 Z M3.30299039,13.2391665 C3.3240781,13.2597877 3.32446297,13.293606 3.30384864,13.3147007 C3.2832343,13.3357954 3.24942729,13.3361804 3.22833959,13.3155592 C3.22804939,13.3152772 3.22776537,13.314991 3.22748134,13.3147007 L3.09493712,13.1821124 L3.17044616,13.1065782 L3.30299039,13.2391665 Z M3.14716448,13.0832888 L3.07165543,13.1588229 L3.02607998,13.1132323 C3.02840156,13.1114535 3.03057496,13.1094935 3.03286361,13.1076652 C3.03515226,13.105837 3.03780314,13.1036464 3.04025645,13.1015876 C3.04386231,13.098557 3.04741877,13.0954935 3.05090938,13.0923476 C3.05270408,13.0907005 3.05441645,13.0890535 3.05617822,13.0874064 C3.06292892,13.0810817 3.06946557,13.0745429 3.07578818,13.0677899 C3.07743469,13.0660276 3.0790812,13.0643146 3.08072772,13.0625193 C3.08387255,13.0590276 3.08693507,13.0554699 3.08996465,13.0518628 C3.09202896,13.0494252 3.09405417,13.0469608 3.09604028,13.0444675 C3.09785144,13.0421946 3.09981079,13.0400205 3.10158902,13.0376981 L3.14716448,13.0832888 Z M3.08331274,13.0067828 C3.07812623,13.0140299 3.07277506,13.0211287 3.06712752,13.027964 C3.06548101,13.0299569 3.06371924,13.031884 3.06202334,13.033844 C3.05698501,13.0397075 3.05178203,13.0453961 3.0464144,13.0509075 C3.04407635,13.0533226 3.0416992,13.0557005 3.039285,13.0580393 C3.03379594,13.0634087 3.02811136,13.0686134 3.02222714,13.0736535 C3.02026779,13.0753005 3.01834137,13.0770958 3.01634909,13.0787593 C3.00951606,13.0844088 3.0024196,13.0897617 2.99517494,13.0949499 C2.82472801,13.2167603 2.58783813,13.1772865 2.46606826,13.0067828 C2.3442984,12.8362791 2.38375912,12.5993104 2.55420606,12.4775 C2.724653,12.3556897 2.96154287,12.3951614 3.08331274,12.5656672 C3.17753646,12.6976008 3.17753646,12.8748492 3.08331274,13.0067828 Z" id="Shape"></path>
                        <g id="briefcase">
                            <path d="M12.7691523,7.02775391 L9.23080469,7.02775391 C9.05278516,7.02775391 8.90853906,7.172 8.90853906,7.35001953 C8.90853906,7.52803906 9.05278516,7.67228516 9.23080469,7.67228516 L12.7691523,7.67228516 C12.9471719,7.67228516 13.091418,7.52803906 13.091418,7.35001953 C13.091418,7.172 12.9471719,7.02775391 12.7691523,7.02775391 Z" id="Shape"></path>
                            <path d="M21.6777344,15.7395391 C21.4997148,15.7395391 21.3554688,15.8837852 21.3554688,16.0618047 L21.3554688,19.2028633 C21.3554688,19.7525195 20.908293,20.1996523 20.3586797,20.1996523 L11.7520391,20.1996523 C11.5740195,20.1996523 11.4297734,20.3438984 11.4297734,20.521918 C11.4297734,20.6999375 11.5740195,20.8441836 11.7520391,20.8441836 L20.3585938,20.8441836 C21.2636875,20.8441836 21.999957,20.1078711 21.999957,19.2028203 L21.999957,16.0617617 C22,15.8838711 21.8557109,15.7395391 21.6777344,15.7395391 Z" id="Shape"></path>
                            <path d="M20.3585938,4.90690234 L16.5212266,4.90690234 L16.5212266,3.96906641 C16.5212266,1.80172266 14.7580469,0.0385 12.5907031,0.0385 L9.40921094,0.0385 C7.24191016,0.0385 5.4786875,1.80167969 5.4786875,3.96906641 L5.4786875,4.90690234 L1.64136328,4.90690234 C0.736226562,4.90690234 0,5.64334375 0,6.54835156 L0,19.2029062 C0,20.108 0.7363125,20.8442695 1.64136328,20.8442695 L10.2479609,20.8442695 C10.4259805,20.8442695 10.5702266,20.7000234 10.5702266,20.5220039 C10.5702266,20.3439844 10.4259805,20.1997383 10.2479609,20.1997383 L1.64136328,20.1997383 C1.09170703,20.1997383 0.644574219,19.7525625 0.644574219,19.2029492 L0.644574219,11.3169375 C1.37070312,12.4474883 2.63926953,13.1979375 4.07979687,13.1979375 L9.70165625,13.1979375 L9.70165625,13.9115195 C9.70165625,14.3735625 10.0775898,14.7494531 10.5395898,14.7494531 L11.4604531,14.7494531 C11.9224961,14.7494531 12.2983867,14.3735195 12.2983867,13.9115195 L12.2983867,13.1979375 L17.9202031,13.1979375 C19.3607305,13.1979375 20.6292969,12.4474453 21.3554258,11.3169375 L21.3554258,14.5578984 C21.3554258,14.735918 21.4996719,14.8801641 21.6776914,14.8801641 C21.8557109,14.8801641 21.999957,14.735918 21.999957,14.5578984 C21.999957,14.2696641 21.999957,6.83680078 21.999957,6.54839453 C22,5.64338672 21.2638164,4.90690234 20.3585938,4.90690234 Z M9.40925391,0.683074219 L12.5907461,0.683074219 C14.4026094,0.683074219 15.8766953,2.15716016 15.8766953,3.96906641 C15.8766953,4.76596484 15.8766953,4.871625 15.8766953,5.38209375 C15.8766953,5.53927344 15.7488203,5.66714844 15.5915977,5.66719141 C15.434375,5.66719141 15.3065,5.53927344 15.3065,5.38209375 C15.3065,5.05858203 15.3065,4.47433594 15.3065,3.96906641 C15.3065,2.47160547 14.088207,1.25335547 12.590832,1.25335547 L9.40929688,1.25335547 C7.91187891,1.25335547 6.69362891,2.47164844 6.69362891,3.96906641 C6.69362891,5.51194531 6.69895703,5.40851953 6.68078125,5.46678516 C6.64464453,5.58275781 6.53623438,5.66719141 6.40853125,5.66719141 C6.25135156,5.66719141 6.12343359,5.53931641 6.12343359,5.38209375 C6.12334766,4.86152734 6.12334766,4.48292969 6.12334766,3.96906641 C6.12334766,2.15716016 7.59743359,0.683074219 9.40925391,0.683074219 Z M14.6618398,3.96906641 L14.6618398,4.90690234 L7.33816016,4.90690234 L7.33816016,3.96906641 C7.33816016,2.82704297 8.26723047,1.89792969 9.40925391,1.89792969 L12.5907461,1.89792969 C13.7327266,1.89792969 14.6618398,2.82704297 14.6618398,3.96906641 Z M11.4604102,14.1048789 L10.5395469,14.1048789 C10.4347461,14.1048789 10.3461875,14.0163203 10.3461875,13.9115195 C10.3461875,13.5369609 10.3461875,13.2966367 10.3461875,13.14775 C10.3461875,12.9872617 10.3461875,12.9330352 10.3461875,12.9325625 C10.3461875,12.7835469 10.3461875,12.5429219 10.3461875,12.1677617 C10.3461875,12.0239453 10.4631914,11.9069844 10.6069648,11.9069844 L11.3929492,11.9069844 C11.5367656,11.9069844 11.6537266,12.0239883 11.6537266,12.1677617 C11.6537266,12.918125 11.6537266,13.1310781 11.6537695,13.1465898 C11.6537695,13.1122148 11.6537695,12.3538594 11.6537695,13.9115195 C11.6537695,14.0163203 11.5652109,14.1048789 11.4604102,14.1048789 Z M17.9202031,12.5533203 L12.2983438,12.5533203 C12.2983438,12.3816172 12.2983438,12.27325 12.2983438,12.1002578 C12.2983438,11.6382148 11.9224531,11.2623242 11.4604102,11.2623242 C11.3551797,11.2623242 10.6281914,11.2623242 10.5395469,11.2623242 C10.0775039,11.2623242 9.70161328,11.6382578 9.70161328,12.1002578 C9.70161328,12.273207 9.70161328,12.3815313 9.70161328,12.5533203 L4.07979687,12.5533203 C2.18560547,12.5533633 0.644574219,11.012332 0.644574219,9.11809766 L0.644574219,6.54830859 C0.644574219,5.99865234 1.09175,5.55151953 1.64136328,5.55151953 L5.49419922,5.55151953 C5.57416406,5.9874375 5.95886328,6.31163672 6.40831641,6.31172266 L6.40835938,6.31172266 C6.86223828,6.31172266 7.24289844,5.98305469 7.32251953,5.55151953 L14.6771367,5.55151953 C14.7613125,5.99598828 15.1475156,6.31163672 15.5912539,6.31172266 L15.5912969,6.31172266 C16.0302656,6.31172266 16.4197773,6.00148828 16.505457,5.55151953 L20.358293,5.55151953 C20.9079492,5.55151953 21.355082,5.99869531 21.355082,6.54830859 L21.355082,9.11809766 L21.3552969,9.11809766 C21.3554258,11.0122891 19.8143945,12.5533203 17.9202031,12.5533203 Z" id="Shape"></path>
                        </g>
                    </g>
                </g>
            </g>
        </g>
    </g>
</svg>
