<svg xmlns="http://www.w3.org/2000/svg" width="25" height="25" viewBox="0 0 25 25">
  <path fill="#D5E20F" fill-rule="evenodd" d="M6.88638584,16.6934559 C6.95873992,16.6934559 7.03205233,16.7094746 7.09961475,16.7424545 C8.11928018,17.2413922 9.21704968,17.4943946 10.3622566,17.4943946 C14.4203142,17.4943946 17.7217685,14.2303338 17.7217685,10.2185733 C17.7217685,6.20634155 14.4203142,2.94228081 10.3622566,2.94228081 C6.30419905,2.94228081 3.00274472,6.20634155 3.00274472,10.2185733 C3.00274472,11.2753412 3.22603612,12.2930045 3.66734808,13.2447081 C3.68220223,13.2767456 3.69322305,13.3101966 3.70088971,13.345061 C3.71861885,13.4298663 4.07751425,15.2691984 2.4195996,17.3196015 C2.87001572,17.3775517 3.45603584,17.432204 4.05930594,17.432204 C5.25674199,17.432204 6.1211576,17.220662 6.56007374,16.8197215 C6.65111529,16.7368008 6.76803182,16.6934559 6.88638584,16.6934559 M10.3622566,18.4366754 C9.17104974,18.4366754 8.02440529,18.1945092 6.9505941,17.7163017 C6.30659488,18.15352 5.33676272,18.3744848 4.05978511,18.3744848 L4.05930594,18.3744848 C2.68314094,18.3744848 1.43299663,18.1191267 1.38076752,18.1082905 C1.20826773,18.072955 1.06978873,17.9471605 1.01995546,17.7817902 C0.969643021,17.6154776 1.01612213,17.4364443 1.14070531,17.3139478 C2.94764062,15.5372773 2.81155745,13.8779208 2.76891167,13.5778044 C2.28782892,12.519623 2.04441255,11.3893572 2.04441255,10.2185733 C2.04441255,5.68714482 5.77567886,2 10.3622566,2 C14.9488344,2 18.6801007,5.68714482 18.6801007,10.2185733 C18.6801007,14.7500017 14.9488344,18.4366754 10.3622566,18.4366754 Z M15.0555926,23 C12.5576998,23 10.1767235,21.8249758 8.68412116,19.8410036 L9.45462023,19.2770485 C10.7867019,21.0466519 12.8274703,22.0577192 15.0551134,22.0577192 L15.0699676,22.0577192 C16.1557579,22.0577192 17.1960275,21.8212067 18.1615472,21.3462972 C18.3397969,21.2591362 18.5554217,21.2925872 18.7010882,21.4259199 C19.4639206,22.1189674 21.3393766,22.0577192 22.5847293,21.8984737 C21.0236062,19.9540773 21.3599808,18.2113289 21.3767516,18.1298216 C21.3839391,18.0954284 21.3949599,18.0624485 21.4098141,18.0299399 C21.8266885,17.1262926 22.0365633,16.1609259 22.0341675,15.1597525 C22.0303341,13.2327882 21.2425851,11.4471661 19.817066,10.1312709 L20.4730444,9.44387708 C22.0696258,10.9176043 22.9881871,13.000516 22.9924996,15.1583391 C22.9948955,16.2739996 22.7653749,17.3514977 22.3092088,18.3616227 C22.2703963,18.6438358 22.1458132,20.2132045 23.8593111,21.8904643 C23.9838943,22.0124897 24.0298942,22.1915231 23.9805401,22.3578356 C23.9307068,22.5232059 23.792707,22.6490004 23.6206864,22.6852782 C23.2311243,22.7667855 19.94117,23.4037673 18.3144011,22.3192021 C17.2937774,22.7738526 16.2041537,23 15.0718842,23 L15.0555926,23 Z"/>
</svg>
