<?xml version="1.0"?>
<svg xmlns="http://www.w3.org/2000/svg" height="512px" viewBox="-74 0 511 512" width="512px">
  <g>
    <path
      d="m288.5 42.667969c-1.46875 0-2.984375-.300781-4.414062-.960938-29.695313-13.527343-64.085938-20.375-102.25-20.375-38.421876 0-72.8125 6.847657-102.207032 20.351563-5.355468 2.496094-11.691406.128906-14.144531-5.226563-2.453125-5.351562-.109375-11.6875 5.226563-14.140625 32.210937-14.808594 69.589843-22.316406 111.125-22.316406 41.238281 0 78.613281 7.507812 111.082031 22.292969 5.355469 2.433593 7.722656 8.769531 5.289062 14.121093-1.769531 3.925782-5.652343 6.253907-9.707031 6.253907zm0 0"/>
    <path
      d="m331.167969 128c-2.75 0-5.503907-1.066406-7.59375-3.179688-39.148438-39.785156-88.171875-60.820312-141.78125-60.820312-53.398438 0-102.378907 21.035156-141.695313 60.84375-4.140625 4.160156-10.882812 4.222656-15.082031.085938-4.183594-4.140626-4.226563-10.902344-.085937-15.105469 43.390624-43.925781 97.640624-67.15625 156.863281-67.15625 59.476562 0 113.769531 23.230469 156.992187 67.175781 4.136719 4.203125 4.074219 10.945312-.128906 15.085938-2.070312 2.046874-4.777344 3.070312-7.488281 3.070312zm0 0"
    />
    <path
      d="m352.460938 277.332031c-5.890626 0-10.667969-4.777343-10.667969-10.664062 0-88.234375-71.765625-160-160-160-13.441407 0-26.773438 1.664062-39.660157 4.925781-5.671874 1.472656-11.519531-1.984375-12.96875-7.699219-1.453124-5.71875 2.003907-11.519531 7.722657-12.972656 14.570312-3.710937 29.695312-5.589844 44.90625-5.589844 99.988281 0 181.332031 81.34375 181.332031 181.335938 0 5.886719-4.777344 10.664062-10.664062 10.664062zm0 0"
    />
    <path
      d="m11.167969 277.332031c-.042969 0-.105469 0-.171875 0-5.886719-.085937-10.601563-4.949219-10.496094-10.835937.769531-48.617188 19.480469-93.867188 52.695312-127.445313 11.285157-11.433593 23.9375-21.269531 37.546876-29.226562 5.140624-2.945313 11.625-1.238281 14.613281 3.839843 2.964843 5.097657 1.257812 11.625-3.820313 14.59375-12.03125 7.015626-23.1875 15.699219-33.171875 25.8125-29.332031 29.652344-45.84375 69.695313-46.527343 112.789063-.085938 5.824219-4.84375 10.472656-10.667969 10.472656zm0 0"
    />
    <path
      d="m26.507812 373.332031c-1.769531 0-3.5625-.445312-5.226562-1.363281-5.140625-2.878906-6.957031-9.386719-4.074219-14.527344l5.992188-10.667968c12.84375-26.453126 20.011719-53.972657 19.949219-76.90625 0-38.871094 14.335937-74.476563 40.382812-100.800782 26.15625-26.472656 61.054688-41.066406 98.261719-41.066406 40.019531 0 78.144531 17.367188 104.53125 47.636719 3.863281 4.4375 3.414062 11.179687-1.023438 15.0625-4.4375 3.839843-11.175781 3.390625-15.058593-1.023438-22.359376-25.644531-54.59375-40.34375-88.449219-40.34375-31.445313 0-60.949219 12.332031-83.09375 34.730469-22.058594 22.316406-34.21875 52.566406-34.21875 85.226562.085937 27.007813-7.660157 57.046876-22.378907 87.382813l-6.292968 11.222656c-1.960938 3.476563-5.566406 5.4375-9.300782 5.4375zm0 0"
    />
    <path
      d="m330.058594 403.414062c-4.585938 0-8.808594-2.964843-10.21875-7.550781l-12.203125-40.195312c-7.421875-33.726563-8.019531-64.511719-8.402344-82.898438l-.128906-5.804687c0-13.652344-2.242188-26.792969-6.679688-39.316406-1.960937-5.570313.941407-11.648438 6.488281-13.609376 5.566407-1.984374 11.667969.9375 13.609376 6.484376 5.246093 14.824218 7.914062 30.355468 7.914062 46.164062l.128906 5.652344c.363282 17.621094.9375 47.085937 7.699219 77.953125l11.992187 39.382812c1.707032 5.652344-1.472656 11.582031-7.105468 13.3125-1.023438.277344-2.070313.425781-3.09375.425781zm0 0"
    />
    <path
      d="m298.957031 452.714844c-4.546875 0-8.769531-2.921875-10.199219-7.488282l-9.855468-31.636718c-17.75-55.425782-21.695313-115.667969-22.464844-146.667969 0-41.429687-33.492188-74.921875-74.667969-74.921875-41.152343 0-74.621093 34.175781-74.621093 76.160156.0625 17.621094-3.414063 79.550782-50.902344 148.011719-3.351563 4.820313-10.003906 6.035156-14.847656 2.664063-4.84375-3.347657-6.039063-10.003907-2.667969-14.847657 45.054687-64.957031 47.125-124.265625 47.082031-135.488281 0-54.101562 43.050781-97.832031 95.980469-97.832031 52.925781 0 96 43.070312 96 96 .597656 23.742187 3.882812 85.546875 21.460937 140.480469l9.898438 31.722656c1.75 5.628906-1.386719 11.605468-7.019532 13.351562-1.066406.34375-2.109374.492188-3.175781.492188zm0 0"
    />
    <path
      d="m139.316406 512c-2.261718 0-4.542968-.726562-6.503906-2.21875-4.671875-3.582031-5.527344-10.28125-1.941406-14.953125 83.285156-108.203125 83.199218-215.980469 82.921875-227.925781 0-17.878906-14.378907-32.234375-32.023438-32.234375-17.640625 0-32 14.355469-32 32 .128907 3.433593 2.710938 94.675781-69.652343 188.882812-3.582032 4.671875-10.261719 5.570313-14.953126 1.964844-4.671874-3.585937-5.546874-10.285156-1.964843-14.957031 67.734375-88.167969 65.386719-171.964844 65.261719-175.488282 0-29.800781 23.914062-53.738281 53.332031-53.738281s53.332031 23.9375 53.332031 53.335938c.320312 12.4375.554688 126.996093-87.339844 241.171875-2.089844 2.730468-5.265625 4.160156-8.46875 4.160156zm0 0"
    />
    <path
      d="m178.292969 319.957031c-.554688 0-1.128907-.042969-1.707031-.128906-5.800782-.9375-9.769532-6.398437-8.832032-12.222656 3.96875-24.703125 3.371094-40.296875 3.371094-40.449219-.253906-5.886719 4.308594-10.859375 10.199219-11.113281 6.398437-.128907 10.859375 4.289062 11.113281 10.175781.023438.703125.746094 17.726562-3.605469 44.800781-.851562 5.203125-5.375 8.9375-10.539062 8.9375zm0 0"
    />
    <path
      d="m100.660156 491.796875c-2.324218 0-4.671875-.765625-6.65625-2.324219-4.605468-3.671875-5.351562-10.390625-1.683594-14.996094 30.378907-38.039062 52.566407-80.152343 65.898438-125.207031 1.6875-5.632812 7.617188-8.894531 13.269531-7.191406 5.652344 1.6875 8.875 7.617187 7.191407 13.269531-14.125 47.683594-37.570313 92.246094-69.699219 132.4375-2.089844 2.625-5.183594 4.011719-8.320313 4.011719zm0 0"
    />
    <path
      d="m189.792969 512c-1.964844 0-3.945313-.535156-5.71875-1.664062-4.96875-3.15625-6.441407-9.75-3.285157-14.71875 27.242188-42.882813 51.007813-98.730469 51.242188-99.308594 1.773438-4.136719 5.890625-6.699219 10.433594-6.484375 4.5.253906 8.339844 3.304687 9.621094 7.636719.019531.0625 4.800781 16.257812 9.917968 31.574218l12.84375 40.851563c1.769532 5.632812-1.363281 11.605469-6.976562 13.378906-5.671875 1.746094-11.625-1.367187-13.375-6.976563l-12.777344-40.664062c-.578125-1.703125-1.132812-3.433594-1.707031-5.140625-9.769531 20.757813-24.726563 50.605469-41.238281 76.566406-2.003907 3.199219-5.460938 4.949219-8.980469 4.949219zm0 0"
    />
  </g>
</svg>
