<svg xmlns="http://www.w3.org/2000/svg" width="20" height="20" viewBox="0 0 20 20">
  <path fill-rule="evenodd" d="M1.90101077,9.99950372 C1.90101077,8.29032258 3.29046647,6.89975186 5.00071181,6.89975186 L9.00014236,6.89975186 L9.00014236,5 L5.00071181,5 C2.24078204,5 0,7.24019851 0,9.99950372 C0,12.7588089 2.23983296,14.9990074 5.00071181,14.9990074 L9.00014236,14.9990074 L9.00014236,13.1002481 L5.00071181,13.1002481 C3.29046647,13.1002481 1.90006169,11.71067 1.90006169,10.0004963 L1.90101077,9.99950372 Z M6.00104399,11 L14.0008542,11 L14.0008542,9 L6.00009491,9 L6.00009491,11 L6.00104399,11 Z M15.0002373,5 L10.9998576,5 L10.9998576,6.89975186 L15.0002373,6.89975186 C16.7095335,6.89975186 18.0999383,8.28933002 18.0999383,10.0004963 C18.0999383,11.71067 16.7095335,13.1002481 15.0002373,13.1002481 L10.9998576,13.1002481 L10.9998576,15 L15.0002373,15 C17.760167,15 20,12.760794 20,10.0004963 C20,7.24019851 17.760167,5 15.0011864,5 L15.0002373,5 Z"/>
</svg>
