<svg xmlns="http://www.w3.org/2000/svg" width="21" height="19" viewBox="0 0 21 19">
  <g>
    <path d="M20.0771913,7.93371033 L19.7697387,7.93371033 L19.7697387,6.99398812 L19.7697387,3.6533475 C19.7697387,2.55962175 18.8957385,1.66980036 17.8215003,1.66980036 L9.37315943,1.66980036 L3.67351626,0.0118404186 C3.67187564,0.0113810805 3.670194,0.0111305324 3.66855338,0.0106711943 C3.66687174,0.0102118563 3.66527214,0.00954372813 3.6635905,0.00912614805 C3.6601452,0.00824922988 3.6567409,0.00783164981 3.65333661,0.00708000566 C3.64804561,0.00595253945 3.6427546,0.00478331523 3.6374636,0.00390639707 C3.63266478,0.00311299492 3.62794799,0.00261189882 3.62314917,0.00202728671 C3.61757106,0.00135915859 3.61203396,0.000774546476 3.60649686,0.000440482413 C3.60198515,0.000189934365 3.59751446,0.000148176357 3.59300275,6.46603417e-05 C3.58726057,-1.8855674e-05 3.58155941,-6.06136819e-05 3.57585825,0.000189934365 C3.57163365,0.000356966397 3.56740905,0.000774546476 3.56322546,0.00110861054 C3.55736024,0.00160970663 3.55149502,0.00215256074 3.54571182,0.0030294789 C3.54177433,0.00361409101 3.53787786,0.00436573515 3.53398138,0.00507562129 C3.52799311,0.00616132949 3.52208687,0.00733055371 3.51622165,0.00879208399 C3.51257126,0.00971076016 3.50900291,0.0107547104 3.50539354,0.0117986606 C3.49940527,0.0135524969 3.49349904,0.0153480912 3.4875928,0.0174359916 C3.48427054,0.0186469738 3.48098929,0.0199414721 3.47766704,0.0212777283 C3.47171978,0.0236161768 3.46581354,0.0260798992 3.46003035,0.0287941698 C3.45695419,0.0302557 3.45396005,0.0318425043 3.4509249,0.0333875506 C3.44514171,0.0363523692 3.43944055,0.0393589457 3.43386243,0.0427413444 C3.43095033,0.0444534227 3.42816127,0.0462907751 3.42529018,0.0481281274 C3.4197941,0.0516358001 3.41438005,0.0552269887 3.40913006,0.0591104835 C3.40638202,0.0611148679 3.40371601,0.0632862843 3.40100898,0.0654159427 C3.39596407,0.0693829534 3.39096017,0.0734334802 3.38616136,0.077734555 C3.38345433,0.0801565194 3.38087035,0.0827037579 3.37824535,0.0852092384 C3.37373365,0.0895520712 3.36926295,0.093894904 3.36499733,0.0984882849 C3.36233132,0.101369587 3.35982938,0.104376164 3.3572454,0.107382741 C3.35334892,0.111934363 3.34949346,0.116527744 3.34584307,0.121329915 C3.34321808,0.12479583 3.34075715,0.128345261 3.3382552,0.131894691 C3.33501497,0.13652983 3.33181576,0.141206727 3.32886264,0.146008898 C3.32631968,0.150101183 3.32398179,0.154360499 3.3216439,0.158578058 C3.31905992,0.163213197 3.31647594,0.167890094 3.31413806,0.172692265 C3.31184119,0.177369162 3.30979041,0.182171333 3.30769862,0.186973504 C3.30564784,0.191692158 3.30363808,0.196410813 3.30183339,0.201254742 C3.29994668,0.206349219 3.29830606,0.21156897 3.29662442,0.216830479 C3.29555802,0.220212878 3.29424552,0.223386486 3.29326115,0.226810643 C3.29276896,0.228522721 3.29256388,0.230193042 3.29211271,0.231863362 C3.29166154,0.23357544 3.29100529,0.235204003 3.29059514,0.236916081 L2.93884582,1.66971685 L1.94844346,1.66971685 C0.876338132,1.66971685 0.00385546122,2.55594705 0.000328124359,3.64666621 C0.000287108814,3.64892115 0,3.6510508 0,3.65326398 L0,14.510346 C0,14.6832242 0.138222386,14.8235311 0.307616587,14.8235311 C0.477420943,14.8235311 0.615233173,14.6832242 0.615233173,14.510346 L0.615233173,5.09779875 C0.964029367,5.43169578 1.43300111,5.63689463 1.94844346,5.63689463 L17.8215003,5.63689463 C17.8218695,5.63689463 17.8221976,5.63685287 17.8225668,5.63685287 C18.5570731,5.63743748 19.1545056,6.24601869 19.1545056,6.99402988 L19.1545056,9.18649233 L15.7702309,9.18649233 C15.7700258,9.18649233 15.7698618,9.18653409 15.7696567,9.18653409 C15.7607563,9.18653409 15.751897,9.18707694 15.7430786,9.18787034 C15.7332759,9.18874726 15.7235962,9.19016703 15.7140806,9.19196263 C15.7126451,9.19221318 15.7112506,9.19233845 15.709815,9.19263076 C15.701776,9.19425932 15.693901,9.19643073 15.686067,9.19868567 C15.6843444,9.19918676 15.6825807,9.19952083 15.6808991,9.20006368 C15.6739264,9.2022351 15.6671589,9.20482409 15.6603913,9.20745485 C15.6578073,9.20845704 15.6551823,9.2092922 15.6525983,9.21037791 C15.6469382,9.21275812 15.6414831,9.2155559 15.6360281,9.21827017 C15.6324187,9.22002401 15.6287683,9.22165257 15.625241,9.22353168 C15.6209753,9.22582837 15.6169558,9.22845913 15.6128543,9.23096461 C15.6083015,9.23372063 15.6036668,9.23639315 15.5992371,9.23939972 C15.596243,9.24140411 15.5934949,9.2437008 15.5906238,9.24583046 C15.5853739,9.24967219 15.5800829,9.25347217 15.575079,9.25768973 C15.5729051,9.25952708 15.5708954,9.26157323 15.5688036,9.26345234 C15.5634305,9.26821275 15.5580575,9.2729314 15.5529716,9.2781094 C15.5499774,9.28115773 15.5472704,9.28449837 15.5444403,9.28767198 C15.5404618,9.29205657 15.5363603,9.29635765 15.5325869,9.30103454 C15.5262294,9.30892681 15.5202822,9.31711138 15.5147041,9.32558825 C15.514581,9.32571353 15.514458,9.32588056 15.5143759,9.32604759 L13.8738362,11.8315698 C13.8623928,11.8490247 13.8527132,11.8675235 13.8450433,11.8867739 C13.8421312,11.8939563 13.8397933,11.9012639 13.8374554,11.9085298 C13.8367581,11.910743 13.8358558,11.9128727 13.8351995,11.9150858 C13.8329027,11.9228111 13.831139,11.9306198 13.8294574,11.9383868 C13.8290062,11.9404329 13.828432,11.9424373 13.8280218,11.9444835 C13.8266683,11.9514988 13.825766,11.9585559 13.8249046,11.965613 C13.8245355,11.9686196 13.8239613,11.9716262 13.8236742,11.9746745 C13.8231,11.9804789 13.8229769,11.9862415 13.8227718,11.9920458 C13.8225668,11.9964722 13.8221976,12.0008985 13.8221976,12.0053666 C13.8221976,12.0096677 13.8225668,12.0139688 13.8227308,12.0182699 C13.8229359,12.0241995 13.8231,12.0301709 13.8236742,12.0361005 C13.8239613,12.0389818 13.8244945,12.0418631 13.8248636,12.0447445 C13.825766,12.0519268 13.8266683,12.0591092 13.8280628,12.0662498 C13.828432,12.0682125 13.8290062,12.0701333 13.8294574,12.0720959 C13.831139,12.0799465 13.8329437,12.087797 13.8352406,12.0956057 C13.8358968,12.0978189 13.8367991,12.0999485 13.8374964,12.1022035 C13.8398343,12.1094694 13.8421722,12.116777 13.8450843,12.1239594 C13.8527952,12.1431681 13.8624749,12.1617086 13.8739592,12.1792052 L15.514458,14.6843516 C15.51454,14.6844769 15.514622,14.6845604 15.5147041,14.6846857 C15.5213076,14.6946659 15.5285263,14.7041867 15.5361552,14.7133317 C15.5386572,14.7163383 15.5413232,14.7191361 15.5439071,14.7219756 C15.5491161,14.72778 15.5545302,14.7333755 15.5601493,14.7387623 C15.5634716,14.7419359 15.5667528,14.745026 15.5701161,14.7479908 C15.5761043,14.7532106 15.5822977,14.7580963 15.5886551,14.7628567 C15.5915262,14.7649864 15.5942742,14.7673248 15.5971863,14.7693292 C15.6064148,14.7757182 15.6159715,14.781606 15.6258562,14.7869511 C15.6283581,14.7882873 15.6309421,14.7894148 15.6334441,14.7906675 C15.6413191,14.7946763 15.6493581,14.7983928 15.6576022,14.8016916 C15.6608014,14.8029861 15.6640007,14.8041554 15.6672409,14.8053246 C15.6750749,14.8081641 15.6830319,14.8106696 15.6911529,14.8128828 C15.6944752,14.8137597 15.6977564,14.8146784 15.7011197,14.8155135 C15.7094459,14.8174762 15.7178951,14.8189795 15.7264673,14.8202322 C15.7295845,14.8206915 15.7326607,14.8213179 15.7357779,14.8216937 C15.7463599,14.8229047 15.7571059,14.8235728 15.7680161,14.8236564 C15.7688774,14.8236564 15.7697387,14.8238234 15.7706411,14.8238234 C15.7708051,14.8238234 15.7710102,14.8237816 15.7712153,14.8237816 L19.1546286,14.8237816 L19.1546286,17.0164111 C19.1546286,17.7647981 18.556622,18.3736299 17.8216234,18.3736299 L1.94860752,18.3736299 C1.21360896,18.3736299 0.615602313,17.7647981 0.615602313,17.0164111 C0.615602313,17.0147825 0.615397236,17.0131957 0.61535622,17.0115672 L0.61535622,15.7632533 C0.61535622,15.5907927 0.477543989,15.4500682 0.307739633,15.4500682 C0.138345433,15.4500682 0.000123046635,15.5907927 0.000123046635,15.7632533 L0.000123046635,17.0164111 C0.000123046635,17.0196682 0.000492186539,17.0228418 0.000615233173,17.0260572 C0.00574217628,18.1153566 0.877527583,19 1.94860752,19 L17.8216234,19 C18.8957795,19 19.7696977,18.1103456 19.7698618,17.0167452 C19.7698618,17.0167034 19.7698618,17.0166617 19.7698618,17.0165781 L19.7698618,14.8237816 L20.0773143,14.8237816 C20.5860711,14.8237816 21,14.4023598 21,13.8843935 L21,8.87309848 C20.999877,8.35513215 20.5859481,7.93371033 20.0771913,7.93371033 Z M3.81034412,0.703060723 L9.23830032,2.28205627 C9.23854641,2.28213979 9.23883352,2.28218155 9.23907961,2.28226506 L12.8769944,3.3404965 L3.16287273,3.3404965 L3.81034412,0.703060723 Z M19.1544645,5.5494116 C18.8057094,5.21559809 18.3368197,5.01044099 17.8215003,5.01044099 C17.8209671,5.01044099 17.820475,5.01052451 17.8199007,5.01052451 L1.94844346,5.01052451 C1.21340388,5.01052451 0.615397236,4.40169275 0.615397236,3.6533475 C0.615397236,2.90500224 1.21340388,2.29617048 1.94844346,2.29617048 L2.78507854,2.29617048 L2.52873139,3.3404965 L1.94852549,3.3404965 C1.7786391,3.3404965 1.6409089,3.48071989 1.6409089,3.65368156 C1.6409089,3.82664323 1.7786391,3.96686662 1.94852549,3.96686662 L2.76785202,3.96686662 C2.76826217,3.96686662 2.76871334,3.96695013 2.76916451,3.96695013 C2.76949264,3.96695013 2.76982076,3.96686662 2.77010787,3.96686662 L15.0723514,3.96686662 C15.0727616,3.96686662 15.0731307,3.96695013 15.0734999,3.96695013 C15.073828,3.96695013 15.0741561,3.96686662 15.0744842,3.96686662 L17.4109758,3.96686662 C17.5808621,3.96686662 17.7185923,3.82664323 17.7185923,3.65368156 C17.7185923,3.48071989 17.5808621,3.3404965 17.4109758,3.3404965 L15.1164431,3.3404965 L11.5263935,2.29617048 L17.8214593,2.29617048 C18.5564579,2.29617048 19.1544645,2.90500224 19.1544645,3.6533475 L19.1544645,5.5494116 Z M20.3846438,13.8842265 C20.3846438,14.0568123 20.2467085,14.1972445 20.0771913,14.1972445 L15.9348673,14.1972445 L14.4993643,12.0051996 L15.9348673,9.81282069 L20.0771913,9.81282069 C20.0814979,9.81282069 20.0856815,9.81231959 20.0899471,9.81215256 C20.1931422,9.81069103 20.2922358,9.79198344 20.3846438,9.75866055 L20.3846438,13.8842265 Z M20.0771913,9.18611651 C20.0750584,9.18611651 20.0729667,9.18640881 20.0708338,9.18645057 L19.7697387,9.18645057 L19.7697387,8.56008045 L20.0771913,8.56008045 C20.2467085,8.56008045 20.3846438,8.70051263 20.3846438,8.87309848 C20.3846438,9.04568433 20.2467085,9.18611651 20.0771913,9.18611651 Z"/>
    <path d="M17,11 C16.4485818,11 16,11.44861 16,12.0000182 C16,12.5514263 16.4485818,13 17,13 C17.5514182,13 18,12.5514263 18,12.0000182 C18,11.44861 17.5514182,11 17,11 Z M17,12.4545554 C16.7493455,12.4545554 16.5454545,12.2506682 16.5454545,12.0000182 C16.5454545,11.7493682 16.7493455,11.5454446 17,11.5454446 C17.2506545,11.5454446 17.4545455,11.7493682 17.4545455,12.0000182 C17.4545455,12.2506682 17.2506545,12.4545554 17,12.4545554 Z"/>
  </g>
</svg>
