
<svg width="20px" height="20px" viewBox="0 0 20 20" version="1.1" xmlns="http://www.w3.org/2000/svg" xmlns:xlink="http://www.w3.org/1999/xlink">
    <g id="Page-1" stroke="none" stroke-width="1" fill="none" fill-rule="evenodd">
        <path d="M0.5,0.5 L19.5,0.5 L19.5,19.5 L0.5,19.5 L0.5,0.5 Z M1.5,1.5 L18.5,1.5 L18.5,18.5 L1.5,18.5 L1.5,1.5 Z M9.69401102,9.69401102 L6.30363386,9.69401102 L6,9.69401102 L6,10.3012787 L6.30363386,10.3012787 L9.69401102,10.3012787 L9.69401102,13.6963661 L9.69401102,14 L10.3012787,14 L10.3012787,13.6963661 L10.3012787,10.3012787 L13.6963661,10.3012787 L14,10.3012787 L14,9.69401102 L13.6963661,9.69401102 L10.3012787,9.69401102 L10.3012787,6.30363386 L10.3012787,6 L9.69401102,6 L9.69401102,6.30363386 L9.69401102,9.69401102 Z" id="Rectangle-6" fill="#000000"></path>
    </g>
</svg>
