<svg xmlns="http://www.w3.org/2000/svg" width="26" height="26" viewBox="0 0 26 26">
  <path fill-rule="evenodd" d="M3.353259,13.15144 L7.961665,14.83061 L9.745401,20.43091 C9.859535,20.78959 10.308802,20.92217 10.607002,20.68416 L13.175806,18.63973 C13.445073,18.42554 13.828606,18.41486 14.110007,18.61428 L18.743213,21.89824 C19.062213,22.1246 19.514147,21.95395 19.594147,21.57763 L22.988218,5.63909 C23.075552,5.22802 22.661818,4.88509 22.260884,5.03648 L3.347859,12.15936 C2.881125,12.33509 2.885192,12.9802 3.353259,13.15144 Z M9.457934,13.93674 L18.464479,8.52128 C18.626346,8.42424 18.79288,8.63791 18.653879,8.76379 L11.22087,15.50911 C10.959603,15.74654 10.791069,16.06428 10.743336,16.40916 L10.490135,18.24102 C10.456602,18.48561 10.104668,18.50989 10.035535,18.27318 L9.061734,14.93273 C8.9502,14.55173 9.112734,14.14475 9.457934,13.93674 Z"/>
</svg>
