<?xml version="1.0" encoding="UTF-8"?>
<svg width="22px" height="20px" viewBox="0 0 22 20" version="1.1" xmlns="http://www.w3.org/2000/svg" xmlns:xlink="http://www.w3.org/1999/xlink">
    <!-- Generator: sketchtool 48.1 (47250) - http://www.bohemiancoding.com/sketch -->
    <title>01C98B25-658B-4770-9E00-F4D51AE84F88</title>
    <desc>Created with sketchtool.</desc>
    <defs></defs>
    <g id="ETO_Form_media" stroke="none" stroke-width="1" fill="none" fill-rule="evenodd" transform="translate(-667.000000, -337.000000)">
        <g id="social" transform="translate(471.000000, 293.000000)" fill="#AABCCA" fill-rule="nonzero">
            <path d="M217.903751,54.7252511 C217.569627,53.7889792 216.464132,53.2777172 215.434262,53.5814743 L213.45977,54.165238 C213.022522,52.9402093 212.556399,51.6376788 212.119151,50.4151501 C213.319521,50.0601418 214.093642,49.8313864 214.093642,49.8313864 C215.123513,49.5276293 215.685885,48.5226058 215.351762,47.5863338 C215.017638,46.6500619 213.912143,46.1387999 212.882273,46.442557 L210.907781,47.0263207 C210.517283,45.9350451 210.265659,45.2312786 210.265659,45.2312786 C209.932911,44.2962567 208.827416,43.7837447 207.797545,44.0875018 C206.767675,44.391259 206.205302,45.3962825 206.539426,46.3325545 L207.181548,48.1275965 L203.056566,49.3463751 C202.667443,48.2550995 202.415819,47.551333 202.415819,47.551333 C202.08032,46.6150611 200.974825,46.1025491 199.94633,46.4075562 C198.916459,46.7113133 198.352712,47.7163369 198.68821,48.6513588 L199.330332,50.4476509 L197.292591,51.050165 C196.330096,51.3664224 195.789723,52.3101945 196.077097,53.2177158 C196.376845,54.162738 197.480966,54.7390015 198.502586,54.4377444 C198.510836,54.4352443 199.312458,54.1989888 200.540327,53.8352303 L201.880946,57.5853182 L199.843205,58.1878323 C198.882084,58.5040897 198.341712,59.4478618 198.627711,60.3553831 C198.927459,61.3004052 200.031579,61.8779188 201.0532,61.5754117 C201.06145,61.5729116 201.863071,61.3366561 203.092316,60.9728976 L203.755063,62.825441 C204.102936,63.6992114 205.141057,64.190473 206.139302,63.9304669 C207.178798,63.6579605 207.814045,62.654187 207.481297,61.7254152 C207.478547,61.717915 207.218673,60.990398 206.819924,59.8728718 C208.167419,59.4753625 209.600162,59.0516025 210.944906,58.6540932 L211.607653,60.5066366 C211.955527,61.3804071 212.993647,61.8716686 213.991893,61.6116625 C215.031388,61.3391561 215.666636,60.3353826 215.333887,59.4066108 C215.331137,59.3991107 215.071263,58.6715936 214.67114,57.5540674 C215.87151,57.1990591 216.645631,56.9703038 216.645631,56.9703038 C217.674127,56.6665466 218.237874,55.6615231 217.903751,54.7252511 Z M205.608555,56.4852924 C205.169932,55.2602637 204.705184,53.9577332 204.267936,52.7352045 C205.61543,52.3376952 207.048173,51.9139353 208.392918,51.5164259 L209.733537,55.2665138 L205.608555,56.4852924 Z" id="Shape"></path>
        </g>
    </g>
</svg>