<svg xmlns="http://www.w3.org/2000/svg" width="26" height="26" viewBox="0 0 26 26">
  <path fill-rule="evenodd" d="M23,14.64888 L23,22 L18.7133524,22 L18.7133524,15.14122 C18.7133524,13.41824 18.0933351,12.24237 16.5417107,12.24237 C15.3572423,12.24237 14.6523644,13.03482 14.3422627,13.80138 C14.2291772,14.07542 14.2000688,14.45685 14.2000688,14.84046 L14.2000688,22 L9.9119798,22 C9.9119798,22 9.9697315,10.38348 9.9119798,9.17992 L14.1996503,9.17992 L14.1996503,10.99711 C14.190955,11.0107 14.1796558,11.02536 14.1714719,11.03853 L14.1996503,11.03853 L14.1996503,10.99711 C14.7693093,10.12483 15.7866604,8.87874 18.0638082,8.87874 C20.8850406,8.87869 23,10.71105 23,14.64888 Z M5.4264561,3 C3.9595064,3 3,3.95661 3,5.21458 C3,6.44513 3.9317465,7.43077 5.3695413,7.43077 L5.3981847,7.43077 C6.8935452,7.43077 7.8235248,6.44532 7.8235248,5.21458 C7.7953464,3.95661 6.8935452,3 5.4264561,3 Z M3.2546749,22 L3.2546749,9.17992 L7.5411365,9.17992 L7.5411365,22 L3.2546749,22 Z"/>
</svg>
