<svg xmlns="http://www.w3.org/2000/svg" width="31" height="19" viewBox="0 0 31 19">
  <path d="M9.5,7.6 L19,7.6 L19,9.5 C19,14.7383 14.7383,19 9.5,19 C4.2617,19 0,14.7383 0,9.5 C0,4.2617 4.2617,0 9.5,0 C11.7819,0 13.9783,0.8208 15.6883,2.3104 L13.1917,5.1756 C12.1733,4.2883 10.8623,3.8 9.5,3.8 C6.3574,3.8 3.8,6.3574 3.8,9.5 C3.8,12.6426 6.3574,15.2 9.5,15.2 C11.9776,15.2 14.0904,13.6116 14.8751,11.4 L9.5,11.4 L9.5,7.6 Z M26.6,7.6 L30.4,7.6 L30.4,9.5 L26.6,9.5 L26.6,13.3 L24.7,13.3 L24.7,9.5 L20.9,9.5 L20.9,7.6 L24.7,7.6 L24.7,3.8 L26.6,3.8 L26.6,7.6 Z"/>
</svg>
