<?xml version="1.0" encoding="UTF-8"?>
<svg width="25px" height="21px" viewBox="0 0 25 21" version="1.1" xmlns="http://www.w3.org/2000/svg" xmlns:xlink="http://www.w3.org/1999/xlink">
    <g id="Investor-Views" stroke="none" stroke-width="1" fill="none" fill-rule="evenodd">
        <g id="Private-key" transform="translate(-842.000000, -631.000000)" fill="#FF6D00" fill-rule="nonzero">
            <g id="blind" transform="translate(842.000000, 631.000000)">
                <path d="M2.31554404,21 C2.23480514,21 2.15406623,20.9690919 2.09225051,20.9079065 C1.96924983,20.7849049 1.96924983,20.5849484 2.09225051,20.4619468 L22.4617932,0.0922511996 C22.5847939,-0.0307503999 22.7847488,-0.0307503999 22.9077495,0.0922511996 C23.0307502,0.215252799 23.0307502,0.415209245 22.9077495,0.538210845 L2.5382068,20.9072757 C2.47702185,20.9690919 2.39628295,21 2.31554404,21 Z" id="Shape"></path>
                <path d="M6.03575144,17 C5.97850774,17 5.92126403,16.984958 5.86905273,16.952367 C2.00919126,14.5456483 0.111342158,10.7776292 0.0327106905,10.6184348 C0.0113229313,10.5751891 0,10.5275561 0,10.4799231 L0,10.3965654 C0,10.3483057 0.0113229313,10.3012995 0.0327106905,10.2580537 C0.0735990536,10.1753228 4.21842097,2 12.4608859,2 C14.711004,2 16.8598447,2.60481344 18.8476482,3.79689132 C18.9967335,3.88588978 19.0445414,4.07892868 18.954587,4.2268416 C18.8646326,4.37538127 18.6715137,4.4223875 18.5230575,4.33338904 C16.6340152,3.20085238 14.5940004,2.62612293 12.4602569,2.62612293 C5.08273806,2.62612293 1.13292218,9.53165086 0.64729424,10.4373041 C0.971255886,11.0414908 2.83387809,14.3200184 6.20245015,16.4202565 C6.34964826,16.511762 6.39431094,16.7054277 6.30246938,16.8520871 C6.24270947,16.9479798 6.14017403,17 6.03575144,17 Z" id="Shape"></path>
                <path d="M12.3623003,19 C10.93784,19 9.54080998,18.7733986 8.21139874,18.3261746 C8.04554129,18.2705705 7.959423,18.0989753 8.01874893,17.9435231 C8.07807487,17.7880709 8.26115597,17.7067575 8.42701342,17.7629594 C9.68689212,18.1868655 11.0112,18.402107 12.3623003,18.402107 C19.8450229,18.402107 23.8504803,11.8157178 24.3429493,10.9517624 C24.0788532,10.4877974 22.8055784,8.37006045 20.5448138,6.52436478 C20.4121278,6.41614614 20.3980937,6.22721196 20.5141939,6.10225232 C20.6302941,5.97789058 20.8325127,5.96533483 20.9645607,6.07355346 C23.6080733,8.23194717 24.9126059,10.6767316 24.9668285,10.7801671 C24.9885176,10.8214217 25,10.8668616 25,10.9123015 L25,10.9918212 C25,11.037859 24.9885176,11.082701 24.9668285,11.1239556 C24.9247262,11.2028775 20.7215157,19 12.3623003,19 Z" id="Shape"></path>
                <path d="M12.7392276,15 C12.5896339,15 12.442026,14.9930806 12.2970658,14.980395 C12.1150381,14.9636731 11.9826543,14.8224016 12.0018499,14.6638316 C12.0210456,14.5052616 12.1792442,14.3933977 12.3652434,14.4066599 C12.4890223,14.4181923 12.613463,14.4233819 12.7398896,14.4233819 C14.7236607,14.4233819 16.338081,13.0170102 16.338081,11.2883091 C16.338081,11.1291625 16.4863509,11 16.6690405,11 C16.8517302,11 17,11.1291625 17,11.2883091 C16.9986762,13.3353034 15.0877161,15 12.7392276,15 Z" id="Shape"></path>
                <path d="M9.32137095,14 C9.23612121,14 9.15023528,13.965533 9.08788845,13.8972372 C8.38616859,13.1364092 8,12.1451628 8,11.107322 C8,8.84270995 9.83605034,7 12.0932598,7 C13.1410682,7 14.1379812,7.39700921 14.9001393,8.11698733 C15.0280139,8.23762196 15.0337396,8.43995623 14.9134993,8.56825021 C14.793259,8.69654418 14.5922223,8.70228868 14.4637115,8.58165405 C13.8198851,7.97337467 12.978203,7.63827847 12.0926236,7.63827847 C10.1865922,7.63827847 8.63555589,9.19440139 8.63555589,11.107322 C8.63555589,11.9836783 8.96192242,12.8210997 9.55485344,13.4638461 C9.67445755,13.5934166 9.66618705,13.7951126 9.53704006,13.915109 C9.47596562,13.9719157 9.39835019,14 9.32137095,14 Z" id="Shape"></path>
            </g>
        </g>
    </g>
</svg>
