<?xml version="1.0" encoding="UTF-8"?>
<svg width="13px" height="14px" viewBox="0 0 13 14" version="1.1" xmlns="http://www.w3.org/2000/svg" xmlns:xlink="http://www.w3.org/1999/xlink">
    <g id="Issuer-Views" stroke="none" stroke-width="1" fill="none" fill-rule="evenodd">
        <g id="Issuer_dashboard_step_9" transform="translate(-484.000000, -402.000000)" fill="#D5E20F">
            <g id="Group" transform="translate(230.000000, 219.000000)">
                <g id="calendar-input" transform="translate(30.000000, 167.000000)">
                    <g id="Calendar" transform="translate(224.000000, 16.000000)">
                        <path d="M2.55737705,7.75406154 L3.40983607,7.75406154 L3.40983607,6.89252308 L2.55737705,6.89252308 L2.55737705,7.75406154 Z M1.70513115,8.61538462 L4.2625082,8.61538462 L4.2625082,6.0312 L1.70513115,6.0312 L1.70513115,8.61538462 Z M2.55737705,11.2004308 L3.40983607,11.2004308 L3.40983607,10.3384615 L2.55737705,10.3384615 L2.55737705,11.2004308 Z M1.70513115,12.0617538 L4.2625082,12.0617538 L4.2625082,9.47692308 L1.70513115,9.47692308 L1.70513115,12.0617538 Z M5.96721311,7.75406154 L6.81967213,7.75406154 L6.81967213,6.89252308 L5.96721311,6.89252308 L5.96721311,7.75406154 Z M5.1147541,8.61538462 L7.67213115,8.61538462 L7.67213115,6.0312 L5.1147541,6.0312 L5.1147541,8.61538462 Z M5.96721311,11.2004308 L6.81967213,11.2004308 L6.81967213,10.3384615 L5.96721311,10.3384615 L5.96721311,11.2004308 Z M5.1147541,12.0617538 L7.67213115,12.0617538 L7.67213115,9.47692308 L5.1147541,9.47692308 L5.1147541,12.0617538 Z M9.37704918,7.75406154 L10.2295082,7.75406154 L10.2295082,6.89252308 L9.37704918,6.89252308 L9.37704918,7.75406154 Z M8.52459016,8.61538462 L11.0819672,8.61538462 L11.0819672,6.0312 L8.52459016,6.0312 L8.52459016,8.61538462 Z M9.37704918,11.2004308 L10.2295082,11.2004308 L10.2295082,10.3384615 L9.37704918,10.3384615 L9.37704918,11.2004308 Z M8.52459016,12.0617538 L11.0819672,12.0617538 L11.0819672,9.47692308 L8.52459016,9.47692308 L8.52459016,12.0617538 Z M11.9344262,4.30812308 L0.852459016,4.30812308 L0.852459016,12.4925231 C0.852459016,12.7305231 1.04340984,12.9232923 1.27890164,12.9232923 L11.5081967,12.9232923 C11.7436885,12.9232923 11.9344262,12.7305231 11.9344262,12.4925231 L11.9344262,4.30812308 Z M11.9344262,2.15427692 C11.9344262,1.91606154 11.7436885,1.72329231 11.5081967,1.72329231 L9.37704918,1.72329231 L9.37704918,2.58526154 L8.52459016,2.58526154 L8.52459016,1.72329231 L4.26229508,1.72329231 L4.26229508,2.58526154 L3.40983607,2.58526154 L3.40983607,1.72329231 L1.27890164,1.72329231 C1.04340984,1.72329231 0.852459016,1.91606154 0.852459016,2.15427692 L0.852459016,3.44658462 L11.9344262,3.44658462 L11.9344262,2.15427692 Z M0.852459016,13.7848308 C0.381688525,13.7848308 0,13.3992923 0,12.9232923 L0,4.30812308 L0,3.44658462 L0,1.72329231 C0,1.24750769 0.381688525,0.861753846 0.852459016,0.861753846 L3.40983607,0.861753846 L3.40983607,0 L4.26229508,0 L4.26229508,0.861753846 L8.52459016,0.861753846 L8.52459016,0 L9.37704918,0 L9.37704918,0.861753846 L12.3606557,0.861753846 C12.8314262,0.861753846 12.7868852,1.24750769 12.7868852,1.72329231 L12.7868852,3.44658462 L12.7868852,4.30812308 L12.7868852,12.9232923 C12.7868852,13.3992923 12.4051967,13.7848308 11.9344262,13.7848308 L0.852459016,13.7848308 Z" id="calendar-icon"></path>
                    </g>
                </g>
            </g>
        </g>
    </g>
</svg>
