<svg xmlns="http://www.w3.org/2000/svg" width="20" height="20" viewBox="0 0 20 20">
  <path fill="#2B2B2B" d="M0.5,0.5 L19.5,0.5 L19.5,19.5 L0.5,19.5 L0.5,0.5 Z M1.5,1.5 L1.5,18.5 L18.5,18.5 L18.5,1.5 L1.5,1.5 Z M8.53746314,13.6563051 C8.53746314,13.2945472 8.63436111,13.0210796 8.82815995,12.8358941 C9.0219588,12.6507085 9.30403955,12.5581171 9.67441067,12.5581171 C10.0318619,12.5581171 10.3085594,12.6528618 10.5045116,12.842354 C10.7004637,13.0318462 10.7984384,13.3031605 10.7984384,13.6563051 C10.7984384,13.9965297 10.6993871,14.2646141 10.5012816,14.4605663 C10.3031761,14.6565184 10.0275552,14.754493 9.67441067,14.754493 C9.31265283,14.754493 9.03272537,14.6586717 8.83461988,14.4670262 C8.6365144,14.2753807 8.53746314,14.005143 8.53746314,13.6563051 Z M8.74418087,11.4470093 L8.74418087,10.9689745 C8.74418087,10.555537 8.83246569,10.1959379 9.00903797,9.89016638 C9.18561025,9.58439487 9.50860348,9.25924835 9.97802734,8.91471707 C10.4302246,8.591719 10.7284551,8.32901784 10.8727275,8.12660571 C11.017,7.92419359 11.0891352,7.69809833 11.0891352,7.44831315 C11.0891352,7.16838149 10.9857773,6.95520596 10.7790586,6.80878017 C10.5723398,6.66235437 10.2837992,6.58914257 9.91342805,6.58914257 C9.26743191,6.58914257 8.53100735,6.80016482 7.70413228,7.22221563 L7,5.80749115 C7.96038094,5.26916102 8.97888625,5 10.0555465,5 C10.9427145,5 11.6479164,5.21317553 12.1711733,5.63953299 C12.6944302,6.06589044 12.9560547,6.63435853 12.9560547,7.34495429 C12.9560547,7.81868479 12.8483903,8.22780955 12.6330582,8.57234083 C12.4177262,8.9168721 12.0086014,9.30446398 11.4056717,9.73512808 C10.9922342,10.0408996 10.7306096,10.2734547 10.6207903,10.4328004 C10.5109709,10.5921461 10.4560621,10.8010151 10.4560621,11.0594135 L10.4560621,11.4470093 L8.74418087,11.4470093 Z"/>
</svg>
