<svg xmlns="http://www.w3.org/2000/svg" width="21" height="21" viewBox="0 0 21 21">
  <path d="M17.5013244,3.50096414 C18.1375148,3.498558 18.6920549,3.06724647 18.8511134,2.45101214 L21,2.45101214 L21,1.75104415 L18.8511134,1.75104415 C18.6920549,1.13480982 18.1375148,0.703498292 17.5013244,0.701092152 C16.7284232,0.701092152 16.1018541,1.32786974 16.1018541,2.10102814 C16.1030786,2.350173 16.171609,2.59433059 16.300229,2.80764584 L15.6855117,3.42256772 C12.7442188,-0.410675767 7.2533973,-1.13295524 3.42142908,1.80931648 C-0.410539141,4.75158821 -1.13257832,10.2442808 1.80871455,14.0775243 C4.5850886,17.6957901 9.67439337,18.5735063 13.5016384,16.0940884 L14.5575387,17.1503401 L15.0522514,17.6452174 L17.8686853,20.4625886 C18.5849954,21.1791371 19.7462933,21.1791371 20.4626034,20.4625886 C21.1789135,19.7460401 21.1789135,18.5843558 20.4626034,17.8678073 L17.6461695,15.0504361 L17.1514568,14.5555587 L16.0955565,13.499307 C17.9699282,10.611239 17.9699282,6.89025293 16.0955565,4.00214122 L16.7952916,3.30217323 C17.0084047,3.43087984 17.2523936,3.4995642 17.5013244,3.50096414 Z M17.5013244,1.40106015 C17.8877968,1.40106015 18.2010595,1.71442707 18.2010595,2.10102814 C18.2010595,2.48762922 17.8877968,2.80099614 17.5013244,2.80099614 C17.1148519,2.80099614 16.8015892,2.48762922 16.8015892,2.10102814 C16.8015892,1.71442707 17.1148956,1.40106015 17.5013244,1.40106015 Z M19.9678907,18.3626846 C20.4159836,18.8008646 20.4241617,19.5194693 19.9861275,19.9677113 C19.5480933,20.4159533 18.8297278,20.4241341 18.3816349,19.9859542 C18.3754685,19.9799607 18.3694333,19.9738797 18.363398,19.9677113 L15.5469642,17.1503401 L17.1514568,15.5453135 L19.9678907,18.3626846 Z M16.6567441,15.0504361 L15.0522514,16.6554627 L14.083818,15.686707 C14.1331493,15.6489087 14.1793319,15.6072606 14.2279634,15.5684124 C14.276595,15.5295642 14.3329237,15.4830163 14.385054,15.4392683 C14.461675,15.3748712 14.5372464,15.3097742 14.6114183,15.2429273 C14.6495539,15.2079289 14.6859401,15.1729305 14.7233759,15.1379321 C14.8668216,15.0035382 15.005719,14.8645946 15.1400682,14.7211011 C15.1750549,14.6836529 15.2100417,14.6472545 15.2450285,14.6091063 C15.3118532,14.5349097 15.3769285,14.4593131 15.4413042,14.3826666 C15.4851688,14.330869 15.5282025,14.2785026 15.5704053,14.2255238 C15.6088907,14.177226 15.650525,14.1310281 15.6883107,14.0816804 L16.6567441,15.0504361 Z M15.2999577,13.4247604 C15.1897494,13.5787534 15.0760424,13.7295965 14.9560378,13.8748398 C14.9210511,13.9171879 14.8836153,13.958136 14.8475789,13.9997841 C14.7405194,14.1243784 14.6299613,14.2452541 14.5159044,14.3623675 C14.4662233,14.4136839 14.4157111,14.4642129 14.3644118,14.5139106 C14.2477747,14.6280054 14.1269829,14.7386003 14.001949,14.8456954 C13.9603148,14.8806938 13.9193803,14.9188421 13.8770463,14.9541905 C13.7318512,15.074235 13.5810583,15.1879798 13.4271166,15.2982248 C9.80528758,17.8865752 4.77161174,17.0477948 2.18412244,13.4247604 C-0.403366856,9.80172606 0.435134493,4.76637503 4.05696351,2.17802462 C7.67879253,-0.410325783 12.7124684,0.428410869 15.2999577,4.05148897 C17.3021185,6.85494829 17.3021185,10.6213011 15.2999577,13.4247604 Z M8.5,1 C4.35785714,1 1,4.35785714 1,8.5 C1,12.6421429 4.35785714,16 8.5,16 C12.6421429,16 16,12.6421429 16,8.5 C15.9954911,4.35973214 12.6402679,1.00450893 8.5,1 Z M8.5,1.71428571 C10.7060714,1.71602679 12.7733482,2.79120536 14.0414286,4.59642857 L13.1485714,5.48928571 C12.9312946,5.3578125 12.6825446,5.28745536 12.4285714,5.28571429 C11.6395982,5.28571429 11,5.9253125 11,6.71428571 C11.00125,6.96852679 11.0712054,7.21767857 11.2025,7.43535714 L8.86392857,9.77392857 C8.42111607,9.50392857 7.86459821,9.50392857 7.42178571,9.77392857 L5.7975,8.14964286 C5.92879464,7.93196429 5.99875,7.6828125 6,7.42857143 C6.00098214,6.64116071 5.36348214,6.00205357 4.57607143,6.00107143 C3.92486607,6.00026786 3.35589286,6.44075893 3.19357143,7.07142857 L1.86857143,7.07142857 C2.54477679,3.94879464 5.305,1.71897321 8.5,1.71428571 Z M13.1428571,6.71428571 C13.1428571,7.10879464 12.8230804,7.42857143 12.4285714,7.42857143 C12.0340625,7.42857143 11.7142857,7.10879464 11.7142857,6.71428571 C11.7142857,6.31977679 12.0340625,6 12.4285714,6 C12.8230804,6 13.1428571,6.31977679 13.1428571,6.71428571 Z M8.85714286,11 C8.85714286,11.3945089 8.53736607,11.7142857 8.14285714,11.7142857 C7.74834821,11.7142857 7.42857143,11.3945089 7.42857143,11 C7.42857143,10.6054911 7.74834821,10.2857143 8.14285714,10.2857143 C8.53736607,10.2857143 8.85714286,10.6054911 8.85714286,11 Z M5.28571429,7.42857143 C5.28571429,7.82308036 4.9659375,8.14285714 4.57142857,8.14285714 C4.17691964,8.14285714 3.85714286,7.82308036 3.85714286,7.42857143 C3.85714286,7.0340625 4.17691964,6.71428571 4.57142857,6.71428571 C4.9659375,6.71428571 5.28571429,7.0340625 5.28571429,7.42857143 Z M11.7970536,14.4333036 C10.7884821,14.9933036 9.65366071,15.2866964 8.5,15.2856696 C4.75491071,15.2882143 1.71683036,12.2543304 1.71428571,8.50924107 C1.71410714,8.26754464 1.726875,8.02598214 1.7525,7.78566964 L3.19357143,7.78566964 C3.3559375,8.41446429 3.92200893,8.85464286 4.57142857,8.85709821 C4.82566964,8.85584821 5.07482143,8.78589286 5.2925,8.65459821 L6.91678571,10.2788839 C6.78549107,10.4965625 6.71553571,10.7457143 6.71428571,10.9999554 C6.71428571,11.7889286 7.35388393,12.4285268 8.14285714,12.4285268 C8.93183036,12.4285268 9.57142857,11.7889286 9.57142857,10.9999554 C9.57017857,10.7457143 9.50022321,10.4965625 9.36892857,10.2788839 L11.7075,7.9403125 C11.9251786,8.07160714 12.1743304,8.1415625 12.4285714,8.1428125 C13.2175446,8.1428125 13.8571429,7.50321429 13.8571429,6.71424107 C13.8558929,6.46 13.7859375,6.21084821 13.6546429,5.99316964 L14.4332143,5.21495536 C16.2508482,8.48852679 15.0705804,12.6157143 11.7970536,14.4333036 Z"/>
</svg>
