<svg xmlns="http://www.w3.org/2000/svg" width="25" height="25" viewBox="0 0 25 25">
  <path fill="#D5E20F" d="M20.1681172,4.83438929 C20.8648972,4.831754 21.4722506,4.35936518 21.6464576,3.68444187 L24,3.68444187 L24,2.91781026 L21.6464576,2.91781026 C21.4722506,2.24288695 20.8648972,1.77049813 20.1681172,1.76786283 C19.3216063,1.76786283 18.635364,2.45433353 18.635364,3.30112606 C18.6367052,3.573999 18.7117622,3.84140969 18.8526318,4.07504068 L18.17937,4.74852655 C14.957954,0.550212255 8.94419704,-0.240855743 4.74727947,2.98163234 C0.550361893,6.20412042 -0.240442927,12.2199266 2.98097308,16.4182409 C6.0217637,20.3811035 11.5957642,21.3424116 15.7875087,18.6268587 L16.9439709,19.7837058 L17.4857992,20.3257143 L20.5704649,23.4114066 C21.354995,24.1961978 22.6268927,24.1961978 23.4114228,23.4114066 C24.1959529,22.6266154 24.1959529,21.3542944 23.4114228,20.5695032 L20.3267571,17.4838109 L19.7849289,16.9418024 L18.6284666,15.7849553 C20.68135,12.6218332 20.68135,8.54646749 18.6284666,5.38329753 L19.3948432,4.61666592 C19.6282528,4.7576303 19.8954787,4.83285603 20.1681172,4.83438929 Z M20.1681172,2.53449445 C20.5913965,2.53449445 20.9344937,2.87770584 20.9344937,3.30112606 C20.9344937,3.72454629 20.5913965,4.06775768 20.1681172,4.06775768 C19.7448378,4.06775768 19.4017406,3.72454629 19.4017406,3.30112606 C19.4017406,2.87770584 19.7448857,2.53449445 20.1681172,2.53449445 Z M22.8695946,21.1115118 C23.360363,21.5914231 23.36932,22.3784663 22.8895683,22.869398 C22.4098165,23.3603298 21.6230352,23.3692898 21.1322668,22.8893784 C21.1255131,22.8828141 21.1189031,22.876154 21.1122931,22.869398 L18.0276274,19.7837058 L19.7849289,18.0258195 L22.8695946,21.1115118 Z M19.2431006,17.4838109 L17.4857992,19.2416972 L16.425134,18.1806791 C16.4791636,18.139281 16.5297444,18.0936664 16.5830076,18.0511183 C16.6362708,18.0085703 16.6979641,17.9575893 16.7550591,17.9096748 C16.8389774,17.8391447 16.921746,17.767848 17.0029819,17.6946346 C17.0447495,17.6563031 17.084601,17.6179715 17.1256022,17.5796399 C17.2827094,17.4324466 17.4348351,17.2802703 17.5819794,17.1231108 C17.6202983,17.082096 17.6586171,17.0422311 17.6969359,17.0004497 C17.7701249,16.9191868 17.8413979,16.8363905 17.9119045,16.7524444 C17.9599468,16.6957136 18.0070789,16.63836 18.053301,16.5803356 C18.0954517,16.527438 18.1410511,16.4768403 18.1824355,16.4227928 L19.2431006,17.4838109 Z M17.7570965,15.703309 C17.6363922,15.871968 17.511856,16.0371771 17.3804224,16.1962532 C17.3421036,16.2426344 17.3011024,16.2874823 17.261634,16.3330969 C17.1443784,16.4695573 17.0232909,16.601945 16.8983715,16.7302121 C16.8439588,16.7864158 16.788636,16.841757 16.732451,16.8961878 C16.6047056,17.0211488 16.4724099,17.1422766 16.3354679,17.2595712 C16.2898685,17.2979028 16.2450355,17.3396842 16.1986697,17.3783991 C16.0396466,17.5098764 15.8744924,17.6344541 15.7058896,17.7551985 C11.7391245,20.5900585 6.22605095,19.6713943 3.3921341,15.703309 C0.558217253,11.7352238 1.47657587,6.22031551 5.44334099,3.38545554 C9.4101061,0.550595571 14.9231796,1.4692119 17.7570965,5.43734506 C19.9499393,8.50780051 19.9499393,12.6328536 17.7570965,15.703309 Z M11,3 C6.58171429,3 3,6.58171429 3,11 C3,15.4182857 6.58171429,19 11,19 C15.4182857,19 19,15.4182857 19,11 C18.9951905,6.58371429 15.4162857,3.00480952 11,3 Z M11,3.76190476 C13.3531429,3.7637619 15.5582381,4.91061905 16.9108571,6.83619048 L15.9584762,7.78857143 C15.7267143,7.64833333 15.461381,7.57328571 15.1904762,7.57142857 C14.3489048,7.57142857 13.6666667,8.25366667 13.6666667,9.0952381 C13.668,9.36642857 13.742619,9.63219048 13.8826667,9.86438095 L11.3881905,12.3588571 C10.9158571,12.0708571 10.3222381,12.0708571 9.84990476,12.3588571 L8.11733333,10.6262857 C8.25738095,10.3940952 8.332,10.1283333 8.33333333,9.85714286 C8.33438095,9.0172381 7.65438095,8.33552381 6.81447619,8.33447619 C6.11985714,8.33361905 5.51295238,8.80347619 5.33980952,9.47619048 L3.92647619,9.47619048 C4.6477619,6.14538095 7.592,3.76690476 11,3.76190476 Z M15.952381,9.0952381 C15.952381,9.51604762 15.6112857,9.85714286 15.1904762,9.85714286 C14.7696667,9.85714286 14.4285714,9.51604762 14.4285714,9.0952381 C14.4285714,8.67442857 14.7696667,8.33333333 15.1904762,8.33333333 C15.6112857,8.33333333 15.952381,8.67442857 15.952381,9.0952381 Z M11.3809524,13.6666667 C11.3809524,14.0874762 11.0398571,14.4285714 10.6190476,14.4285714 C10.1982381,14.4285714 9.85714286,14.0874762 9.85714286,13.6666667 C9.85714286,13.2458571 10.1982381,12.9047619 10.6190476,12.9047619 C11.0398571,12.9047619 11.3809524,13.2458571 11.3809524,13.6666667 Z M7.57142857,9.85714286 C7.57142857,10.2779524 7.23033333,10.6190476 6.80952381,10.6190476 C6.38871429,10.6190476 6.04761905,10.2779524 6.04761905,9.85714286 C6.04761905,9.43633333 6.38871429,9.0952381 6.80952381,9.0952381 C7.23033333,9.0952381 7.57142857,9.43633333 7.57142857,9.85714286 Z M14.5168571,17.3288571 C13.4410476,17.9261905 12.2305714,18.2391429 11,18.2380476 C7.0052381,18.2407619 3.76461905,15.004619 3.76190476,11.0098571 C3.76171429,10.7520476 3.77533333,10.494381 3.80266667,10.2380476 L5.33980952,10.2380476 C5.513,10.9087619 6.11680952,11.3782857 6.80952381,11.3809048 C7.08071429,11.3795714 7.34647619,11.3049524 7.57866667,11.1649048 L9.3112381,12.8974762 C9.17119048,13.1296667 9.09657143,13.3954286 9.0952381,13.666619 C9.0952381,14.5081905 9.77747619,15.1904286 10.6190476,15.1904286 C11.460619,15.1904286 12.1428571,14.5081905 12.1428571,13.666619 C12.1415238,13.3954286 12.0669048,13.1296667 11.9268571,12.8974762 L14.4213333,10.403 C14.6535238,10.5430476 14.9192857,10.6176667 15.1904762,10.619 C16.0320476,10.619 16.7142857,9.9367619 16.7142857,9.09519048 C16.7129524,8.824 16.6383333,8.5582381 16.4982857,8.32604762 L17.3287619,7.49595238 C19.2675714,10.9877619 18.008619,15.3900952 14.5168571,17.3288571 Z"/>
</svg>
