<svg xmlns="http://www.w3.org/2000/svg" width="25" height="25" viewBox="0 0 25 25">
  <path fill="#D5E20F" fill-rule="evenodd" d="M19.4512267,10.4985149 L23.6659773,12.0375049 C23.8672273,12.111513 24,12.2940665 24,12.4978357 C24,12.7016049 23.8672273,12.8841584 23.6659773,12.9581666 L19.5709216,14.4536348 L23.6659773,15.9713657 C23.8672273,16.0463603 24,16.2313468 24,16.4378318 C24,16.6443168 23.8672273,16.8293033 23.6659773,16.9042979 L12.6887045,20.9665024 C12.6280682,20.9890008 12.5637727,21 12.5,21 C12.4362273,21 12.3719318,20.9890008 12.3112955,20.9665024 L1.33402273,16.9042979 C1.13277273,16.8293033 1,16.6443168 1,16.4378318 C1,16.2313468 1.13277273,16.0463603 1.33402273,15.9713657 L5.42907839,14.4536348 L1.33402273,12.9581666 C1.13277273,12.8841584 1,12.7016049 1,12.4978357 C1,12.2940665 1.13277273,12.111513 1.33402273,12.0375049 L5.54851194,10.4986103 L1.3335,8.96005425 C1.13225,8.88608063 1,8.70361238 1,8.49993836 C1,8.29626433 1.13225,8.11379608 1.3335,8.03982246 L12.3107727,4.03291826 C12.4325682,3.98902725 12.5669091,3.98902725 12.6887045,4.03291826 L23.6659773,8.03982246 C23.8672273,8.11379608 24,8.29626433 24,8.49993836 C24,8.70361238 23.8672273,8.88608063 23.6659773,8.96005425 L19.4512267,10.4985149 Z M18.0022542,11.0274162 L12.6887045,12.9669585 C12.6280682,12.9891505 12.5637727,13 12.5,13 C12.4357045,13 12.3714091,12.9891505 12.3107727,12.9669585 L6.99748447,11.0275116 L2.97120455,12.4978357 L12.5,15.9777003 L22.0287955,12.4978357 L18.0022542,11.0274162 Z M6.88706397,14.9860747 L2.97068182,16.4373318 L12.5,19.9640753 L22.0293182,16.4373318 L18.112936,14.9860747 L12.6887045,16.966943 C12.6280682,16.9891455 12.5637727,17 12.5,17 C12.4362273,17 12.3719318,16.9891455 12.3112955,16.966943 L6.88706397,14.9860747 Z M2.97120455,8.49993836 L12.5,11.9781778 L22.0282727,8.49993836 L12.5,5.02169893 L2.97120455,8.49993836 Z"/>
</svg>
