<?xml version="1.0" encoding="UTF-8"?>
<svg width="19px" height="17px" viewBox="0 0 19 17" version="1.1" xmlns="http://www.w3.org/2000/svg" xmlns:xlink="http://www.w3.org/1999/xlink">
    <g id="Dashboard_Side" stroke="none" stroke-width="1" fill="none" fill-rule="evenodd" transform="translate(-23.000000, -143.000000)">
        <path d="M40.6428571,145.714286 L36.5714286,145.714286 L36.5714286,143.678571 C36.5714286,143.304 36.2674286,143 35.8928571,143 L29.1071429,143 C28.7325714,143 28.4285714,143.304 28.4285714,143.678571 L28.4285714,145.714286 L24.3571429,145.714286 C23.608,145.714286 23,146.322286 23,147.071429 L23,157.928571 C23,158.677714 23.608,159.285714 24.3571429,159.285714 L40.6428571,159.285714 C41.392,159.285714 42,158.677714 42,157.928571 L42,147.071429 C42,146.322286 41.392,145.714286 40.6428571,145.714286 Z M35.2142857,145.714286 L29.7857143,145.714286 L29.7857143,144.357143 L35.2142857,144.357143 L35.2142857,145.714286 Z" id="portfolio" fill="#394651" fill-rule="nonzero"></path>
    </g>
</svg>
