<?xml version="1.0" encoding="UTF-8"?>
<svg width="19px" height="19px" viewBox="0 0 19 19" version="1.1" xmlns="http://www.w3.org/2000/svg" xmlns:xlink="http://www.w3.org/1999/xlink">
    <g id="Dashboard_Side" stroke="none" stroke-width="1" fill="none" fill-rule="evenodd" transform="translate(-23.000000, -236.000000)">
        <path d="M25.1045848,247.582318 C25.2730919,248.160056 25.5069385,248.717161 25.8026856,249.239877 L24.9601502,250.302504 C24.6850365,250.649835 24.7159868,251.145039 25.0254896,251.457981 L26.476714,252.909205 C26.7896557,253.222147 27.2848602,253.249624 27.6321912,252.97451 L28.6879397,252.138853 C29.2312891,252.451829 29.8090277,252.695958 30.4108388,252.867904 L30.5690291,254.226277 C30.6206129,254.666459 30.9920163,254.996595 31.4321981,254.996595 L33.4852335,254.996595 C33.9254152,254.996595 34.2968186,254.666425 34.3484024,254.226277 L34.4997149,252.916049 C35.1462319,252.747542 35.7652376,252.4965 36.3464151,252.169803 L37.3677744,252.977949 C37.7151054,253.253063 38.2103099,253.222113 38.5232516,252.91261 L39.974476,251.461385 C40.2874177,251.148444 40.3149291,250.653239 40.0398155,250.305908 L39.2454249,249.298305 C39.5755612,248.727409 39.8334802,248.118755 40.0054263,247.482555 L41.2296819,247.341559 C41.669898,247.289975 42,246.918572 42,246.47839 L42,244.425355 C42,243.985173 41.6698637,243.613769 41.2296819,243.562186 L40.0226209,243.42119 C39.8575183,242.791867 39.6099504,242.190056 39.2936042,241.626074 L40.0364109,240.687248 C40.3115245,240.339917 40.2805743,239.844713 39.9710714,239.531771 L38.523286,238.083986 C38.2103443,237.771044 37.7151398,237.743533 37.3678088,238.018646 L36.4564949,238.740819 C35.8650007,238.393488 35.2322049,238.128692 34.5685277,237.949868 L34.4309709,236.770318 C34.3793871,236.330136 34.0079837,236 33.5678019,236 L31.5147665,236 C31.0745848,236 30.7031814,236.330136 30.6515976,236.770318 L30.5140407,237.949868 C29.8331345,238.132131 29.1831786,238.407244 28.5779286,238.768331 L27.6322256,238.018646 C27.2848946,237.743533 26.7896901,237.774483 26.4767484,238.083986 L25.025524,239.53521 C24.7125823,239.848152 24.6850709,240.343356 24.9601845,240.690687 L25.7511362,241.691413 C25.4347555,242.262274 25.1940311,242.870963 25.0358408,243.503724 L23.7703181,243.648159 C23.3301363,243.699742 23,244.071146 23,244.511328 L23,246.564363 C23,247.004545 23.3301363,247.375948 23.7703181,247.427532 L25.1045848,247.582318 Z M32.5429693,242.028462 C34.4137419,242.028462 35.9371836,243.551903 35.9371836,245.422676 C35.9371836,247.293448 34.4137419,248.81689 32.5429693,248.81689 C30.6722311,248.81689 29.148755,247.293448 29.148755,245.422676 C29.148755,243.551903 30.6721967,242.028462 32.5429693,242.028462 Z" id="Settings" fill="#394651" fill-rule="nonzero"></path>
    </g>
</svg>
