<?xml version="1.0" encoding="UTF-8"?>
<svg width="19px" height="14px" viewBox="0 0 19 14" version="1.1" xmlns="http://www.w3.org/2000/svg" xmlns:xlink="http://www.w3.org/1999/xlink">
    <g id="Dashboard_Side" stroke="none" stroke-width="1" fill="none" fill-rule="evenodd" transform="translate(-22.000000, -192.000000)">
        <g id="005-wallet" transform="translate(22.000000, 192.000000)" fill="#354653" fill-rule="nonzero">
            <path d="M15.5725199,6.93112652 C14.9418635,6.93112652 14.4300265,7.44296355 14.4300265,8.0736199 C14.4300265,8.70427625 14.9418635,9.21611328 15.5725199,9.21611328 L19,9.21611328 L19,6.93112652 L15.5725199,6.93112652 Z" id="Shape"></path>
            <path d="M15.5522089,5.74420284 L17.8575066,5.74420284 L17.8575066,2.87210142 C17.8575066,2.55502142 17.5993133,2.29768113 17.2811822,2.29768113 L15.5522089,2.29768113 L15.5522089,0.574420284 C15.5522089,0.257340287 15.2940155,0 14.9758844,0 L2.29674676,0 C1.34350613,0 0.567773437,0.773169702 0.567773437,1.72326085 L0.567773437,12.062826 C0.567773437,13.0129171 1.34350613,13.7860868 2.29674676,13.7860868 L17.2811822,13.7860868 C17.5993133,13.7860868 17.8575066,13.5287465 17.8575066,13.2116665 L17.8575066,10.3395651 L15.5522089,10.3395651 C14.2808371,10.3395651 13.2469111,9.30905512 13.2469111,8.04188397 C13.2469111,6.77471283 14.2808371,5.74420284 15.5522089,5.74420284 Z M2.29674676,2.29768113 C1.97861567,2.29768113 1.72042232,2.04034085 1.72042232,1.72326085 C1.72042232,1.40618085 1.97861567,1.14884057 2.29674676,1.14884057 L14.39956,1.14884057 L14.39956,2.29768113 L2.29674676,2.29768113 Z" id="Shape"></path>
        </g>
    </g>
</svg>
