
<svg width="20px" height="20px" viewBox="0 0 20 20" version="1.1" xmlns="http://www.w3.org/2000/svg" xmlns:xlink="http://www.w3.org/1999/xlink">
    <g id="Page-1" stroke="none" stroke-width="1" fill="none" fill-rule="evenodd">
        <path d="M0.5,0.5 L19.5,0.5 L19.5,19.5 L0.5,19.5 L0.5,0.5 Z M1.5,1.5 L18.5,1.5 L18.5,18.5 L1.5,18.5 L1.5,1.5 Z M15.4999712,4 C15.7761107,4 15.9999785,4.22386731 16,4.50000614 L16,8.50001228 C16,8.7761511 15.7761322,9.00001842 15.4999927,9.00001842 C15.2238532,9.00001842 14.9999854,8.7761511 14.9999854,8.50001228 L14.9999854,5.70710642 L9.85347461,10.8535409 C9.7558923,10.951166 9.62790951,11 9.49994821,11 C9.3719869,11 9.2440256,10.951166 9.14642181,10.8535624 C8.95119273,10.6582908 8.95119273,10.3416969 9.14642181,10.1464683 L14.2928682,5.00001228 L11.4999559,5.00001228 C11.2238164,5.00001228 10.9999486,4.77614496 10.9999486,4.50000614 C10.9999486,4.22386731 11.2238164,4 11.4999559,4 L15.4999712,4 Z M13.4999737,8.99999284 C13.7761118,8.99999284 13.9999785,9.22386007 14,9.49999881 L14,14.499994 C14,14.7761328 13.7761333,15 13.4999952,15 L5.50000477,15 C5.2238667,15 5,14.7761328 5,14.5000155 L5,6.50000597 C5,6.22386724 5.2238667,6 5.50000477,6 L10.4999881,6 C10.7761261,6 10.9999928,6.22384575 10.9999928,6.49998448 C10.9999928,6.77612322 10.7761261,6.99999045 10.4999881,6.99999045 L5.99998806,6.99999045 L5.99998806,14.0000095 L12.999969,14.0000095 L12.999969,9.49999881 C12.999969,9.22386007 13.2238357,8.99999284 13.4999737,8.99999284 Z" id="Rectangle-6-Copy" fill="#000000"></path>
    </g>
</svg>
