<svg width="16" height="12" xmlns="http://www.w3.org/2000/svg">
  <path d="M5.625 0c.104 0 .193.036.266.11.073.072.109.16.109.265v.25a.362.362 0 0 1-.11.266.362.362 0 0 1-.265.109H1.5a.487.487 0 0 0-.36.14.487.487 0 0 0-.14.36v9c0 .146.047.266.14.36.094.093.214.14.36.14h4.125c.104 0 .193.036.266.11.073.072.109.16.109.265v.25a.362.362 0 0 1-.11.266.362.362 0 0 1-.265.109H1.5c-.417 0-.77-.146-1.063-.437A1.447 1.447 0 0 1 0 10.5v-9C0 1.083.146.73.437.438A1.447 1.447 0 0 1 1.5 0h4.125zm4.594.594A.435.435 0 0 1 10.484.5c.094 0 .183.031.266.094l5.156 5.125A.457.457 0 0 1 16 6a.338.338 0 0 1-.094.25l-5.156 5.156a.338.338 0 0 1-.25.094.389.389 0 0 1-.281-.125L10 11.156a.297.297 0 0 1-.125-.25c0-.104.042-.198.125-.281l4.125-4.094h-8.75a.362.362 0 0 1-.266-.11A.362.362 0 0 1 5 6.157v-.312c0-.104.036-.193.11-.266a.362.362 0 0 1 .265-.11h8.75L10 1.376a.389.389 0 0 1-.125-.281c0-.104.042-.188.125-.25l.219-.25z" fill="#142431" fill-rule="nonzero"/>
</svg>
