<?xml version="1.0" encoding="UTF-8"?>
<svg width="16px" height="16px" viewBox="0 0 16 16" version="1.1" xmlns="http://www.w3.org/2000/svg" xmlns:xlink="http://www.w3.org/1999/xlink">
    <g id="ETO-form" stroke="none" stroke-width="1" fill="none" fill-rule="evenodd">
        <g id="ETO_Form_legal" transform="translate(-890.000000, -1181.000000)" fill="#656B72" fill-rule="nonzero">
            <g id="Group-10" transform="translate(427.000000, 1060.000000)">
                <g id="plus" transform="translate(463.000000, 121.000000)">
                    <path d="M8,0 C3.58892308,0 0,3.58861538 0,8 C0,12.4113846 3.58892308,16 8,16 C12.4110769,16 16,12.4113846 16,8 C16,3.58861538 12.4110769,0 8,0 Z M8,15.3846154 C3.92830769,15.3846154 0.615384615,12.0716923 0.615384615,8 C0.615384615,3.92830769 3.92830769,0.615384615 8,0.615384615 C12.0716923,0.615384615 15.3846154,3.92830769 15.3846154,8 C15.3846154,12.0716923 12.0716923,15.3846154 8,15.3846154 Z" id="Shape"></path>
                    <path d="M11.8461538,7.69230769 L8.30769231,7.69230769 L8.30769231,4.30769231 C8.30769231,4.13753846 8.16984615,4 8,4 C7.83015385,4 7.69230769,4.13753846 7.69230769,4.30769231 L7.69230769,7.69230769 L4.15384615,7.69230769 C3.984,7.69230769 3.84615385,7.82984615 3.84615385,8 C3.84615385,8.17015385 3.984,8.30769231 4.15384615,8.30769231 L7.69230769,8.30769231 L7.69230769,12 C7.69230769,12.1701538 7.83015385,12.3076923 8,12.3076923 C8.16984615,12.3076923 8.30769231,12.1701538 8.30769231,12 L8.30769231,8.30769231 L11.8461538,8.30769231 C12.016,8.30769231 12.1538462,8.17015385 12.1538462,8 C12.1538462,7.82984615 12.016,7.69230769 11.8461538,7.69230769 Z" id="Shape" transform="translate(8.000000, 8.153846) rotate(45.000000) translate(-8.000000, -8.153846) "></path>
                </g>
            </g>
        </g>
    </g>
</svg>
