<svg xmlns="http://www.w3.org/2000/svg" width="26" height="26" viewBox="0 0 26 26">
  <path fill-rule="evenodd" d="M23,6.89305 C22.451339,7.70297 21.753985,8.41439 20.947905,8.98063 L20.961663,9.50374 C20.961663,14.84321 16.836166,21 9.288834,21 C6.971771,21 4.815918,20.33041 3,19.182 C3.321177,19.2177 3.647387,19.2374 3.978564,19.2374 C5.900691,19.2374 7.670367,18.59365 9.073866,17.51049 C7.27919,17.47846 5.764449,16.31039 5.242062,14.70411 C5.493272,14.75335 5.749482,14.7792 6.014417,14.7792 C6.389352,14.7792 6.751771,14.72873 7.095464,14.63764 C5.219579,14.2659 3.804838,12.63255 3.804838,10.67549 L3.804838,10.62502 C4.358466,10.92782 4.990853,11.10999 5.66324,11.13213 C4.563434,10.40841 3.838563,9.1714 3.838563,7.76943 C3.838563,7.02842 4.039773,6.33425 4.393466,5.7385 C6.416836,8.18301 9.440011,9.79174 12.849362,9.96039 C12.779362,9.66496 12.74312,9.35601 12.74312,9.03969 C12.74312,6.80937 14.58028,5 16.846101,5 C18.027149,5 19.091954,5.48989 19.84055,6.27641 C20.775389,6.09424 21.652743,5.75819 22.447581,5.2954 C22.140162,6.23702 21.491533,7.02968 20.644179,7.52942 C21.47405,7.43216 22.263888,7.21429 23,6.89305 Z"/>
</svg>
