<svg xmlns="http://www.w3.org/2000/svg" width="26" height="26" viewBox="0 0 26 26">
  <path fill-rule="evenodd" d="M16.6610864,4.00354 C16.8482942,4.00389 17,4.15899 17,4.35018 L17,6.94537 C17,7.13673 16.848121,7.29201 16.6607401,7.29201 L15.2065462,7.29254 C14.2040062,7.29254 14.0206084,7.69153 14.0206084,8.47748 L14.0206084,10.1127 L16.5592565,10.1127 C16.6493102,10.1127 16.7359003,10.14931 16.7994574,10.21439 C16.8630145,10.27948 16.8988628,10.36755 16.8988628,10.45952 L16.8978237,13.25438 C16.8978237,13.44592 16.7459447,13.60102 16.5583906,13.60102 L14.0206084,13.60102 L14.0206084,20.65336 C14.0206084,20.84472 13.8687294,21 13.6811753,21 L10.8493333,21 C10.6617791,21 10.5099001,20.8449 10.5099001,20.65336 L10.5099001,13.60102 L8.33943312,13.60102 C8.15205218,13.60102 8,13.44592 8,13.25438 L8,10.45952 C8,10.26798 8.151879,10.1127 8.33943312,10.1127 L10.5099001,10.1127 L10.5099001,8.18372 C10.5099001,5.64211 12.0771806,4 14.5023957,4 L16.6610864,4.00354 Z"/>
</svg>
