<?xml version="1.0" encoding="UTF-8"?>
<svg width="22px" height="21px" viewBox="0 0 22 21" version="1.1" xmlns="http://www.w3.org/2000/svg" xmlns:xlink="http://www.w3.org/1999/xlink">
    <!-- Generator: sketchtool 48.1 (47250) - http://www.bohemiancoding.com/sketch -->
    <title>4F11C6B8-F3A9-4A5D-A657-975267801FDC</title>
    <desc>Created with sketchtool.</desc>
    <defs></defs>
    <g id="ETO_Form_media" stroke="none" stroke-width="1" fill="none" fill-rule="evenodd" transform="translate(-874.000000, -337.000000)">
        <g id="social" transform="translate(471.000000, 293.000000)" fill="#AABCCA" fill-rule="nonzero">
            <path d="M423.524424,49.3606099 C422.540773,47.7115086 421.206514,46.4059129 419.521295,45.4435281 C417.835826,44.4810942 415.995795,44 413.9999,44 C412.004255,44 410.163623,44.4812415 408.478504,45.4435281 C406.793135,46.4058638 405.458926,47.7115086 404.475275,49.3606099 C403.491775,51.0096621 403,52.8104398 403,54.762894 C403,57.1082345 403.699311,59.2172247 405.098284,61.0904046 C406.497106,62.9637318 408.304178,64.2600012 410.519348,64.97936 C410.7772,65.0261883 410.968081,64.9932514 411.092191,64.8813839 C411.216351,64.7693691 411.278356,64.6290806 411.278356,64.4611075 C411.278356,64.4330793 411.275898,64.1809232 411.271132,63.704345 C411.266216,63.2277667 411.263908,62.8120062 411.263908,62.45726 L410.93447,62.513022 C410.724426,62.5506711 410.45945,62.5666241 410.139543,62.5621082 C409.819786,62.5577395 409.487839,62.5249499 409.144154,62.4639848 C408.800317,62.4035597 408.480511,62.2634184 408.184482,62.0438557 C407.888605,61.824293 407.678561,61.536893 407.5544,61.1820977 L407.411177,60.8596011 C407.315711,60.6448979 407.165415,60.4063879 406.960086,60.1449546 C406.754758,59.8832758 406.547122,59.7058782 406.337078,59.6124671 L406.236796,59.5422247 C406.169975,59.4955436 406.10797,59.4392417 406.050631,59.3739079 C405.993342,59.3085742 405.95045,59.2431913 405.921805,59.1777103 C405.89311,59.1121801 405.916889,59.0584307 405.993392,59.0162656 C406.069895,58.9741005 406.208151,58.9536316 406.408764,58.9536316 L406.695111,58.9955021 C406.886092,59.0329549 407.122322,59.1448225 407.404104,59.331792 C407.685734,59.5186142 407.917249,59.7614929 408.098699,60.0603299 C408.318425,60.4434971 408.58315,60.735462 408.893626,60.936372 C409.203851,61.137282 409.516635,61.2375652 409.831676,61.2375652 C410.146717,61.2375652 410.418816,61.2142001 410.648073,61.1677154 C410.87708,61.1209853 411.09194,61.0507429 411.292553,60.9573809 C411.378487,60.3311387 411.61246,59.8500445 411.994272,59.5137546 C411.450074,59.4577963 410.960807,59.3735153 410.526221,59.2614514 C410.091885,59.1492402 409.643052,58.9671303 409.180022,58.7146307 C408.716741,58.4624747 408.332421,58.1493536 408.026962,57.7758073 C407.721452,57.4020647 407.470724,56.9113986 407.275127,56.304251 C407.079431,55.6968579 406.981557,54.9962009 406.981557,54.2020837 C406.981557,53.0713822 407.358804,52.1091938 408.113147,51.3149785 C407.759779,50.464903 407.793139,49.5119428 408.213328,48.456196 C408.490243,48.3720131 408.9009,48.435187 409.445098,48.6453252 C409.989397,48.8555616 410.387914,49.035659 410.64105,49.1849793 C410.894187,49.3342506 411.097007,49.4607458 411.249812,49.5633361 C412.137997,49.3205064 413.054576,49.1990671 413.999799,49.1990671 C414.945023,49.1990671 415.861802,49.3205064 416.750038,49.5633361 L417.294286,49.2271444 C417.666466,49.0028203 418.105968,48.7972471 418.61174,48.6103758 C419.117812,48.4236027 419.504791,48.3721603 419.772275,48.4563432 C420.201794,49.5121391 420.240071,50.4650502 419.886603,51.3151257 C420.640895,52.1093411 421.018292,53.0717749 421.018292,54.202231 C421.018292,54.9963481 420.920068,55.699214 420.724672,56.3112703 C420.529025,56.9234248 420.27614,57.4135999 419.965915,57.7828266 C419.655338,58.1520042 419.26856,58.462671 418.80553,58.7147779 C418.3424,58.9670812 417.893416,59.1491912 417.459081,59.2614023 C417.024545,59.3736134 416.535278,59.4579436 415.99108,59.5140001 C416.48742,59.9342764 416.73564,60.597677 416.73564,61.5039071 L416.73564,64.4607148 C416.73564,64.6286879 416.795337,64.7689273 416.914832,64.8809912 C417.034177,64.9928587 417.222649,65.0257956 417.480501,64.9789182 C419.695973,64.2596576 421.503044,62.9633391 422.901816,61.0900119 C424.300438,59.216832 425,57.1078418 425,54.7625013 C424.999498,52.8102925 424.507472,51.0096621 423.524424,49.3606099 Z" id="Shape"></path>
        </g>
    </g>
</svg>