<?xml version="1.0" encoding="UTF-8"?>
<svg width="31px" height="19px" viewBox="0 0 31 19" version="1.1" xmlns="http://www.w3.org/2000/svg" xmlns:xlink="http://www.w3.org/1999/xlink">
    <!-- Generator: sketchtool 48.1 (47250) - http://www.bohemiancoding.com/sketch -->
    <title>8E0ECBC8-0A39-416E-9D43-AA5EB32425BC</title>
    <desc>Created with sketchtool.</desc>
    <defs></defs>
    <g id="ETO_Form_media" stroke="none" stroke-width="1" fill="none" fill-rule="evenodd" transform="translate(-511.000000, -376.000000)">
        <g id="social" transform="translate(471.000000, 293.000000)" fill="#AABCCA" fill-rule="nonzero">
            <g id="google-plus" transform="translate(40.000000, 83.000000)">
                <polygon id="Shape" points="26.6 7.6 26.6 3.8 24.7 3.8 24.7 7.6 20.9 7.6 20.9 9.5 24.7 9.5 24.7 13.3 26.6 13.3 26.6 9.5 30.4 9.5 30.4 7.6"></polygon>
                <path d="M9.5,7.6 L9.5,11.4 L14.8751,11.4 C14.0904,13.6116 11.9776,15.2 9.5,15.2 C6.3574,15.2 3.8,12.6426 3.8,9.5 C3.8,6.3574 6.3574,3.8 9.5,3.8 C10.8623,3.8 12.1733,4.2883 13.1917,5.1756 L15.6883,2.3104 C13.9783,0.8208 11.7819,0 9.5,0 C4.2617,0 0,4.2617 0,9.5 C0,14.7383 4.2617,19 9.5,19 C14.7383,19 19,14.7383 19,9.5 L19,7.6 L9.5,7.6 Z" id="Shape"></path>
            </g>
        </g>
    </g>
</svg>