<svg xmlns="http://www.w3.org/2000/svg" width="17" height="21" viewBox="0 0 17 21">
    <g fill="#AABCCA" fill-rule="nonzero">
        <path d="M16.057.205c-.143-.248-.43-.204-1.498-.199-.64.004-1.262-.014-1.575.005-.282.017-.485.176-.647.396l-.525 1.027L9.532 5.9c-1.157 2.24-2.32 4.482-3.37 6.6l3.162 6.342.883 1.771c.091.175.189.202.288.235.458.156 1.127.111 1.85.111.615 0 1.414.012 1.545-.305.066-.158.009-.371-.083-.585 0 0-.506-1.009-1.169-2.34l.93 1.856-3.513-7.117.24.499-.24-.5 2.66-5.226c.923-1.794 1.848-3.592 2.754-5.412l.003-.007.001-.002v.002l.616-1.213c.085-.193.033-.292-.032-.404zM5.225 5.188c-.231-.446-.406-1.028-.936-1.036H1.478c-.153.025-.29.067-.322.227-.05.336.209.798.352 1.068.332.63 1.501 2.685 1.492 2.912-.006.152-1.838 3.61-2.634 5.177-.119.233-.373.652-.293.841.084.198.25.272.351.26h2.84c.58-.079.606-.418 1.141-1.49.82-1.64 1.694-3.306 2.46-4.82-.474-.973-1.103-2.106-1.64-3.14z"/>
    </g>
</svg>
