<svg xmlns="http://www.w3.org/2000/svg" width="26" height="26" viewBox="0 0 26 26">
  <path fill-rule="evenodd" d="M23,7.14306 L21.896416,7.14306 C21.60906,7.14306 20.857149,7.45525 20.857149,7.72102 L20.857149,17.37232 C20.857149,17.63875 21.60906,17.85719 21.896416,17.85719 L23,17.85719 L23,20 L15.857107,20 L15.857107,17.85719 L17.286033,17.85719 L17.286033,7.85698 L17.037366,7.85698 L13.598934,19.99996 L10.936759,19.99996 L7.542802,7.85698 L7.285744,7.85698 L7.285744,17.85715 L8.71405,17.85715 L8.71405,19.99996 L3,20 L3,17.85715 L3.792502,17.85715 C4.103625,17.85715 4.428347,17.63875 4.428347,17.37228 L4.428347,7.72102 C4.428347,7.45521 4.103666,7.14306 3.792502,7.14306 L3,7.14306 L3,5 L10.405241,5 L12.823131,13.57132 L12.888191,13.57132 L15.32993,5 L23,5 L23,7.14306 Z"/>
</svg>
