<?xml version="1.0" encoding="UTF-8"?>
<svg width="11px" height="15px" viewBox="0 0 11 15" version="1.1" xmlns="http://www.w3.org/2000/svg" xmlns:xlink="http://www.w3.org/1999/xlink">
    <g id="KYC_private_manual_3_upload_done" stroke="none" stroke-width="1" fill="none" fill-rule="evenodd" transform="translate(-958.000000, -415.000000)">
        <g id="Group-5" transform="translate(471.000000, 360.000000)" fill="#AABCCA" fill-rule="nonzero">
            <path d="M488.47655,68.524358 C488.47655,68.524358 488.692666,69.5091209 489.805077,69.5091209 L494.834923,69.5091209 C495.94728,69.5091209 496.163396,68.524358 496.163396,68.524358 L497.156374,58.8691205 L487.483627,58.8691205 L488.47655,68.524358 Z M494.25456,60.3200542 C494.25456,60.052922 494.471055,59.8364277 494.738187,59.8364277 C495.005319,59.8364277 495.221868,60.052922 495.221868,60.3200542 L494.738187,67.5746146 C494.738187,67.8417468 494.521639,68.0582412 494.25456,68.0582412 C493.987482,68.0582412 493.770934,67.8416928 493.770934,67.5746146 L494.25456,60.3200542 Z M491.836374,60.3200542 C491.836374,60.052922 492.052922,59.8364277 492.32,59.8364277 C492.587132,59.8364277 492.803627,60.052922 492.803627,60.3200542 L492.803627,67.5746146 C492.803627,67.8417468 492.587132,68.0582412 492.32,68.0582412 C492.052868,68.0582412 491.836374,67.8416928 491.836374,67.5746146 L491.836374,60.3200542 Z M489.901813,59.8363736 C490.168946,59.8363736 490.38544,60.052868 490.38544,60.3200002 L490.869121,67.5745606 C490.869121,67.8416928 490.652572,68.0581872 490.38544,68.0581872 C490.118362,68.0581872 489.901813,67.8416388 489.901813,67.5745606 L489.418187,60.3200542 C489.418187,60.052922 489.634735,59.8363736 489.901813,59.8363736 Z M496.866165,56.9353169 L494.738187,56.9353169 L494.738187,55.9673071 C494.738187,55.2335718 494.500886,55 493.770934,55 L490.869066,55 C490.199534,55 489.901813,55.3243092 489.901813,55.9673071 L489.901813,56.9353709 L487.773835,56.9353709 C487.346142,56.9353709 487,57.2600043 487,57.661162 C487,58.0623737 487.346142,58.3870071 487.773835,58.3870071 L496.866165,58.3870071 C497.293858,58.3870071 497.64,58.0623737 497.64,57.661162 C497.64,57.2600043 497.293858,56.9353169 496.866165,56.9353169 Z M493.770934,56.9353169 L490.869121,56.9353169 L490.869175,55.9672531 L493.770988,55.9672531 L493.770988,56.9353169 L493.770934,56.9353169 Z" id="Shape"></path>
        </g>
    </g>
</svg>
