<svg xmlns="http://www.w3.org/2000/svg" width="20" height="20" viewBox="0 0 20 20">
  <path fill-rule="evenodd" d="M0.5,0.5 L19.5,0.5 L19.5,19.5 L0.5,19.5 L0.5,0.5 Z M1.5,1.5 L18.5,1.5 L18.5,18.5 L1.5,18.5 L1.5,1.5 Z M14.5973469,9.25918367 L13.3628571,9.25918367 C13.2497959,9.25918367 13.1587755,9.35040816 13.1587755,9.46326531 L13.1587755,13.1242857 L6.79183673,13.1242857 L6.79183673,9.46326531 C6.79183673,9.35040816 6.70061224,9.25918367 6.5877551,9.25918367 L5.35326531,9.25918367 C5.24040816,9.25918367 5.14918367,9.35040816 5.14918367,9.46326531 L5.14918367,13.6395918 C5.14918367,14.2610204 5.65510204,14.7665306 6.27653061,14.7665306 L13.6740816,14.7665306 C14.2957143,14.7665306 14.8012245,14.2606122 14.8012245,13.6395918 L14.8012245,9.46326531 C14.8014286,9.35040816 14.7104082,9.25918367 14.5973469,9.25918367 Z M9.92,4 L7.77244898,6.1477551 C7.55857143,6.35673469 7.60612245,6.50408163 7.90489796,6.50408163 L9.10346939,6.50408163 L9.10326531,9.11387755 C9.10326531,9.5644898 9.46857143,9.93020408 9.91959184,9.93020408 C10.3704082,9.93020408 10.7359184,9.56469388 10.7359184,9.11387755 L10.7361224,6.50387755 L11.9353061,6.50387755 C12.2336735,6.50408163 12.2808163,6.35632653 12.0671429,6.14734694 L9.92,4 Z"/>
</svg>
