<?xml version="1.0" encoding="UTF-8"?>
<svg width="80px" height="76px" viewBox="0 0 80 76" version="1.1" xmlns="http://www.w3.org/2000/svg" xmlns:xlink="http://www.w3.org/1999/xlink">
    <g stroke="none" stroke-width="1" fill="none" fill-rule="evenodd">
        <g transform="translate(-611.000000, -377.000000)">
            <g transform="translate(444.000000, 257.000000)">
                <g transform="translate(167.000000, 120.000000)">
                    <polygon id="XMLID_116_" fill="#BDAA91" points="66 23 40 8 14 23"></polygon>
                    <path d="M76,32.1538462 L76,28 L71.875,28 L69.125,28 L65,28 L65,32.1538462 C65,32.9181538 65.616,33.5384615 66.375,33.5384615 C67.134,33.5384615 67.75,34.1587692 67.75,34.9230769 L67.75,57.0769231 C67.75,57.8412308 67.134,58.4615385 66.375,58.4615385 C65.616,58.4615385 65,59.0818462 65,59.8461538 L65,64 L69.125,64 L71.875,64 L76,64 L76,59.8461538 C76,59.0818462 75.384,58.4615385 74.625,58.4615385 C73.866,58.4615385 73.25,57.8412308 73.25,57.0769231 L73.25,34.9230769 C73.25,34.1587692 73.866,33.5384615 74.625,33.5384615 C75.384,33.5384615 76,32.9181538 76,32.1538462" id="XMLID_115_" fill="#DBCDB8"></path>
                    <path d="M61,32.1538462 L61,28 L56.875,28 L54.125,28 L50,28 L50,32.1538462 C50,32.9181538 50.616,33.5384615 51.375,33.5384615 C52.134,33.5384615 52.75,34.1587692 52.75,34.9230769 L52.75,57.0769231 C52.75,57.8412308 52.134,58.4615385 51.375,58.4615385 C50.616,58.4615385 50,59.0818462 50,59.8461538 L50,64 L54.125,64 L56.875,64 L61,64 L61,59.8461538 C61,59.0818462 60.384,58.4615385 59.625,58.4615385 C58.866,58.4615385 58.25,57.8412308 58.25,57.0769231 L58.25,34.9230769 C58.25,34.1587692 58.866,33.5384615 59.625,33.5384615 C60.384,33.5384615 61,32.9181538 61,32.1538462" id="XMLID_114_" fill="#DBCDB8"></path>
                    <path d="M46,32.1538462 L46,28 L41.875,28 L39.125,28 L35,28 L35,32.1538462 C35,32.9181538 35.616,33.5384615 36.375,33.5384615 C37.134,33.5384615 37.75,34.1587692 37.75,34.9230769 L37.75,57.0769231 C37.75,57.8412308 37.134,58.4615385 36.375,58.4615385 C35.616,58.4615385 35,59.0818462 35,59.8461538 L35,64 L39.125,64 L41.875,64 L46,64 L46,59.8461538 C46,59.0818462 45.384,58.4615385 44.625,58.4615385 C43.866,58.4615385 43.25,57.8412308 43.25,57.0769231 L43.25,34.9230769 C43.25,34.1587692 43.866,33.5384615 44.625,33.5384615 C45.384,33.5384615 46,32.9181538 46,32.1538462" id="XMLID_113_" fill="#DBCDB8"></path>
                    <path d="M30,32.1538462 L30,28 L25.875,28 L23.125,28 L19,28 L19,32.1538462 C19,32.9181538 19.616,33.5384615 20.375,33.5384615 C21.134,33.5384615 21.75,34.1587692 21.75,34.9230769 L21.75,57.0769231 C21.75,57.8412308 21.134,58.4615385 20.375,58.4615385 C19.616,58.4615385 19,59.0818462 19,59.8461538 L19,64 L23.125,64 L25.875,64 L30,64 L30,59.8461538 C30,59.0818462 29.384,58.4615385 28.625,58.4615385 C27.866,58.4615385 27.25,57.8412308 27.25,57.0769231 L27.25,34.9230769 C27.25,34.1587692 27.866,33.5384615 28.625,33.5384615 C29.384,33.5384615 30,32.9181538 30,32.1538462" id="XMLID_112_" fill="#DBCDB8"></path>
                    <path d="M15,32.1538462 L15,28 L10.875,28 L8.125,28 L4,28 L4,32.1538462 C4,32.9181538 4.616,33.5384615 5.375,33.5384615 C6.134,33.5384615 6.75,34.1587692 6.75,34.9230769 L6.75,57.0769231 C6.75,57.8412308 6.134,58.4615385 5.375,58.4615385 C4.616,58.4615385 4,59.0818462 4,59.8461538 L4,64 L8.125,64 L10.875,64 L15,64 L15,59.8461538 C15,59.0818462 14.384,58.4615385 13.625,58.4615385 C12.866,58.4615385 12.25,57.8412308 12.25,57.0769231 L12.25,34.9230769 C12.25,34.1587692 12.866,33.5384615 13.625,33.5384615 C14.384,33.5384615 15,32.9181538 15,32.1538462" id="XMLID_111_" fill="#DBCDB8"></path>
                    <rect id="XMLID_110_" fill="#DBCDB8" x="0" y="70" width="80" height="6"></rect>
                    <rect id="XMLID_109_" fill="#FFF2DC" x="2" y="64" width="77" height="6"></rect>
                    <polygon id="XMLID_108_" fill="#FFF2DC" points="79 29 2 29 4.75 23 76.25 23"></polygon>
                    <path d="M16.7016596,15 L14,22.9466778 C14,22.9882133 14.0445774,23.0136706 14.0810498,22.9922329 L28,15 L16.7016596,15 Z" id="XMLID_107_" fill="#DBCDB8"></path>
                    <path d="M52,15 L65.9189502,22.9922329 C65.9554226,23.0136706 66,22.9882133 66,22.9466778 L63.2969896,15 L52,15 Z" id="XMLID_106_" fill="#DBCDB8"></path>
                    <path d="M39.5863454,8.18181818 L51.5172048,15 L61,15 C61,6.81818182 51.4591807,0 39.5863454,0 C27.7121285,0 18,6.81818182 18,15 L27.6554859,15 L39.5863454,8.18181818 Z" id="XMLID_105_" fill="#FFF2DC"></path>
                </g>
            </g>
        </g>
    </g>
</svg>
