<?xml version="1.0" encoding="UTF-8"?>
<svg version="1.1" viewBox="0 0 30 30" xmlns="http://www.w3.org/2000/svg">
    <g fill="none" fill-rule="evenodd">
        <g transform="translate(-816 -355)" fill="#4C4C4C" fill-rule="nonzero">
            <g transform="translate(791 183)">
                <g transform="translate(25 172)">
                    <path d="m29.631 9.3131l-9.9168-6.4223c-0.19799-0.12822-0.46166-0.070537-0.58899 0.12863-0.12732 0.19923-0.070137 0.46463 0.12779 0.59284l9.7719 6.3284h-2.278l-11.124-7.2039c-0.37869-0.24523-0.86813-0.24517-1.2469 0l-11.124 7.2039h-2.278l14.025-9.0833 1.9863 1.2863c0.19799 0.12816 0.4616 0.070596 0.58899-0.12863 0.12732-0.19923 0.070137-0.46463-0.12779-0.59284l-1.9863-1.2863c-0.27984-0.18124-0.64143-0.18124-0.92127 0l-14.171 9.1772c-0.30176 0.19545-0.43652 0.55958-0.33533 0.90613 0.10119 0.34655 0.41027 0.5794 0.7691 0.5794h2.1495v1.4786 1.2949c0 0.34142 0.24059 0.62735 0.56004 0.69499v0.75497c0 0.39161 0.31652 0.71021 0.70559 0.71021h0.058594v5.2556c0 0.23691 0.19078 0.42894 0.42615 0.42894s0.42615-0.19203 0.42615-0.42894v-5.6846c0-0.23691-0.19078-0.42894-0.42615-0.42894h-0.33797v-0.59214h3.0183v0.59202h-0.33797c-0.23537 0-0.42615 0.19203-0.42615 0.42894v9.4775c0 0.23691 0.19078 0.42894 0.42615 0.42894h0.33797v0.64374h-3.0183v-0.64374h0.33797c0.23537 0 0.42615-0.19203 0.42615-0.42894v-1.0964c0-0.23691-0.19078-0.42894-0.42615-0.42894s-0.42615 0.19203-0.42615 0.42894v0.66745h-0.058594c-0.38906 0-0.70559 0.31854-0.70559 0.71015v0.75497c-0.31951 0.067647-0.56004 0.35357-0.56004 0.69499v0.86591h-1.5096c-0.47109 0-0.85436 0.38577-0.85436 0.85995v0.9023c0 0.47418 0.38326 0.85995 0.85436 0.85995h27.116c0.47109 0 0.85436-0.38577 0.85436-0.85995v-0.9023c0-0.47418-0.38326-0.85995-0.85436-0.85995h-1.5096v-0.86591c0-0.34142-0.24059-0.62735-0.56004-0.69499v-0.75497c0-0.39161-0.31652-0.71015-0.70559-0.71015h-0.058594v-8.6196h0.058594c0.38906 0 0.70559-0.3186 0.70559-0.71021v-0.75497c0.31951-0.067648 0.56004-0.35357 0.56004-0.69499v-1.2949-1.4786h2.1495c0.35883 0 0.66791-0.23284 0.7691-0.5794 0.10119-0.34644-0.033574-0.71062-0.33533-0.90602zm-14.794-5.8548c0.098613-0.063873 0.226-0.063814 0.32461 0l10.01 6.4825h-20.344l10.01-6.4825zm-11.034 7.3403h22.392v1.0496h-4.5646-4.1358-4.9908-4.1358-4.5646v-1.0496zm13.557 15.018v-0.75497c0-0.39161-0.31652-0.71015-0.70559-0.71015h-0.058594v-8.6196h0.058594c0.38906 0 0.70559-0.3186 0.70559-0.71021v-0.75497c0.31951-0.067647 0.56004-0.35357 0.56004-0.69499v-0.86597h3.2835v0.86597c0 0.34142 0.24059 0.62735 0.56004 0.69499v0.75497c0 0.39161 0.31652 0.71021 0.70559 0.71021h0.058594v8.6196h-0.058594c-0.38906 0-0.70559 0.31854-0.70559 0.71015v0.75497c-0.31945 0.067648-0.56004 0.35357-0.56004 0.69499v0.86591h-3.2835v-0.86591c0-0.34142-0.24059-0.62735-0.56004-0.69499zm-9.1267 0v-0.75497c0-0.39161-0.31652-0.71015-0.70559-0.71015h-0.058594v-8.6196h0.058594c0.38906 0 0.70559-0.3186 0.70559-0.71021v-0.75497c0.31945-0.067647 0.56004-0.35357 0.56004-0.69499v-0.86597h3.2835v0.86597c0 0.34142 0.24059 0.62735 0.56004 0.69499v0.75497c0 0.39161 0.31652 0.71021 0.70559 0.71021h0.058594v8.6196h-0.058594c-0.38906 0-0.70559 0.31854-0.70559 0.71015v0.75497c-0.31945 0.067648-0.56004 0.35357-0.56004 0.69499v0.86591h-3.2835v-0.86591c0-0.34142-0.24059-0.62735-0.56004-0.69499zm7.9364-0.60735h0.33797v0.64374h-3.0183v-0.64374h0.33797c0.23537 0 0.42615-0.19203 0.42615-0.42894v-9.4774c0-0.23691-0.19078-0.429-0.42615-0.429h-0.33797v-0.59202h3.0183v0.59202h-0.33797c-0.23537 0-0.42615 0.19203-0.42615 0.42894v9.4775c0 0.23691 0.19078 0.42894 0.42615 0.42894zm-3.1066-11.785h-0.001875-0.13201v-0.71823h4.1385v0.71823h-0.13389c-2.929e-4 0-6.445e-4 5.9e-5 -9.375e-4 5.9e-5 -2.929e-4 0-6.445e-4 -5.9e-5 -9.375e-4 -5.9e-5h-3.8688zm-0.13389 13.266c0.041602 0.013624 0.085898 0.021232 0.13201 0.021232h3.8706c0.04752 0 0.093106-0.0081979 0.13582-0.022647v0.6891h-4.1385v-0.68768zm-8.9927-13.266h-0.13389v-0.71823h4.1385v0.71823h-5.86e-5 -0.13389-3.8706zm-0.13395 13.265c0.042129 0.014037 0.08707 0.02194 0.13389 0.02194h3.8707c0.046816 0 0.091758-0.007903 0.13389-0.02194v0.68839h-4.1385v-0.68839zm24.756 1.5483l-0.0011719 0.90431s-2.344e-4 5.9e-5 -8.789e-4 5.9e-5l-27.118-0.0020052 0.0020508-0.90436 27.118 0.0020052zm-2.4991-1.5265c0.047285 0 0.092578-0.0080799 0.13512-0.022352v0.68886h-4.1385v-0.68798c0.041777 0.013801 0.086309 0.021468 0.13272 0.021468h3.8706zm-3.1054-11.837h-0.33797v-0.59208h3.0183v0.59202h-0.33797c-0.23537 0-0.42615 0.19203-0.42615 0.42894v9.4775c0 0.23691 0.19078 0.429 0.42615 0.429h0.33797v0.64374h-3.0183v-0.64374h0.33797c0.23537 0 0.42615-0.19203 0.42615-0.42894v-9.4775c0-0.23691-0.19078-0.42894-0.42615-0.42894zm3.2405-1.45h-0.13395c-1.758e-4 0-4.102e-4 5.9e-5 -5.859e-4 5.9e-5 -1.758e-4 0-4.102e-4 -5.9e-5 -5.86e-4 -5.9e-5h-3.8695-0.0011718-0.13272v-0.71823h4.1385v0.71823z" />
                </g>
            </g>
        </g>
    </g>
</svg>
