<?xml version="1.0" encoding="UTF-8"?>
<svg width="157px" height="156px" viewBox="0 0 157 156" version="1.1" xmlns="http://www.w3.org/2000/svg" xmlns:xlink="http://www.w3.org/1999/xlink">
    <g stroke="none" stroke-width="1" fill="none" fill-rule="evenodd">
        <g transform="translate(-605.000000, -263.000000)">
            <g transform="translate(470.000000, 215.000000)">
                <g>
                    <g transform="translate(135.000000, 34.000000)">
                        <g id="bank" opacity="0.515206473" transform="translate(0.000000, 24.000000)">
                            <polygon id="XMLID_116_" fill="#BDAA91" points="66 23 40 8 14 23"></polygon>
                            <path d="M76,32.1538462 L76,28 L71.875,28 L69.125,28 L65,28 L65,32.1538462 C65,32.9181538 65.616,33.5384615 66.375,33.5384615 C67.134,33.5384615 67.75,34.1587692 67.75,34.9230769 L67.75,57.0769231 C67.75,57.8412308 67.134,58.4615385 66.375,58.4615385 C65.616,58.4615385 65,59.0818462 65,59.8461538 L65,64 L69.125,64 L71.875,64 L76,64 L76,59.8461538 C76,59.0818462 75.384,58.4615385 74.625,58.4615385 C73.866,58.4615385 73.25,57.8412308 73.25,57.0769231 L73.25,34.9230769 C73.25,34.1587692 73.866,33.5384615 74.625,33.5384615 C75.384,33.5384615 76,32.9181538 76,32.1538462" id="XMLID_115_" fill="#DBCDB8"></path>
                            <path d="M61,32.1538462 L61,28 L56.875,28 L54.125,28 L50,28 L50,32.1538462 C50,32.9181538 50.616,33.5384615 51.375,33.5384615 C52.134,33.5384615 52.75,34.1587692 52.75,34.9230769 L52.75,57.0769231 C52.75,57.8412308 52.134,58.4615385 51.375,58.4615385 C50.616,58.4615385 50,59.0818462 50,59.8461538 L50,64 L54.125,64 L56.875,64 L61,64 L61,59.8461538 C61,59.0818462 60.384,58.4615385 59.625,58.4615385 C58.866,58.4615385 58.25,57.8412308 58.25,57.0769231 L58.25,34.9230769 C58.25,34.1587692 58.866,33.5384615 59.625,33.5384615 C60.384,33.5384615 61,32.9181538 61,32.1538462" id="XMLID_114_" fill="#DBCDB8"></path>
                            <path d="M46,32.1538462 L46,28 L41.875,28 L39.125,28 L35,28 L35,32.1538462 C35,32.9181538 35.616,33.5384615 36.375,33.5384615 C37.134,33.5384615 37.75,34.1587692 37.75,34.9230769 L37.75,57.0769231 C37.75,57.8412308 37.134,58.4615385 36.375,58.4615385 C35.616,58.4615385 35,59.0818462 35,59.8461538 L35,64 L39.125,64 L41.875,64 L46,64 L46,59.8461538 C46,59.0818462 45.384,58.4615385 44.625,58.4615385 C43.866,58.4615385 43.25,57.8412308 43.25,57.0769231 L43.25,34.9230769 C43.25,34.1587692 43.866,33.5384615 44.625,33.5384615 C45.384,33.5384615 46,32.9181538 46,32.1538462" id="XMLID_113_" fill="#DBCDB8"></path>
                            <path d="M30,32.1538462 L30,28 L25.875,28 L23.125,28 L19,28 L19,32.1538462 C19,32.9181538 19.616,33.5384615 20.375,33.5384615 C21.134,33.5384615 21.75,34.1587692 21.75,34.9230769 L21.75,57.0769231 C21.75,57.8412308 21.134,58.4615385 20.375,58.4615385 C19.616,58.4615385 19,59.0818462 19,59.8461538 L19,64 L23.125,64 L25.875,64 L30,64 L30,59.8461538 C30,59.0818462 29.384,58.4615385 28.625,58.4615385 C27.866,58.4615385 27.25,57.8412308 27.25,57.0769231 L27.25,34.9230769 C27.25,34.1587692 27.866,33.5384615 28.625,33.5384615 C29.384,33.5384615 30,32.9181538 30,32.1538462" id="XMLID_112_" fill="#DBCDB8"></path>
                            <path d="M15,32.1538462 L15,28 L10.875,28 L8.125,28 L4,28 L4,32.1538462 C4,32.9181538 4.616,33.5384615 5.375,33.5384615 C6.134,33.5384615 6.75,34.1587692 6.75,34.9230769 L6.75,57.0769231 C6.75,57.8412308 6.134,58.4615385 5.375,58.4615385 C4.616,58.4615385 4,59.0818462 4,59.8461538 L4,64 L8.125,64 L10.875,64 L15,64 L15,59.8461538 C15,59.0818462 14.384,58.4615385 13.625,58.4615385 C12.866,58.4615385 12.25,57.8412308 12.25,57.0769231 L12.25,34.9230769 C12.25,34.1587692 12.866,33.5384615 13.625,33.5384615 C14.384,33.5384615 15,32.9181538 15,32.1538462" id="XMLID_111_" fill="#DBCDB8"></path>
                            <rect id="XMLID_110_" fill="#DBCDB8" x="0" y="70" width="80" height="6"></rect>
                            <rect id="XMLID_109_" fill="#FFF2DC" x="2" y="64" width="77" height="6"></rect>
                            <polygon id="XMLID_108_" fill="#FFF2DC" points="79 29 2 29 4.75 23 76.25 23"></polygon>
                            <path d="M16.7016596,15 L14,22.9466778 C14,22.9882133 14.0445774,23.0136706 14.0810498,22.9922329 L28,15 L16.7016596,15 Z" id="XMLID_107_" fill="#DBCDB8"></path>
                            <path d="M52,15 L65.9189502,22.9922329 C65.9554226,23.0136706 66,22.9882133 66,22.9466778 L63.2969896,15 L52,15 Z" id="XMLID_106_" fill="#DBCDB8"></path>
                            <path d="M39.5863454,8.18181818 L51.5172048,15 L61,15 C61,6.81818182 51.4591807,0 39.5863454,0 C27.7121285,0 18,6.81818182 18,15 L27.6554859,15 L39.5863454,8.18181818 Z" id="XMLID_105_" fill="#FFF2DC"></path>
                        </g>
                        <g id="link" opacity="0.818103609" transform="translate(106.872760, 37.030943) rotate(35.000000) translate(-106.872760, -37.030943) translate(75.872760, 13.530943)">
                            <g id="Group" transform="translate(23.000000, 0.000000)" fill="#EEBC5A">
                                <polygon id="Path" points="10.625 0 10.625 10.3333333 17 2.06666667"></polygon>
                                <polygon id="Path" points="6.375 0 6.375 10.3333333 0 2.06666667"></polygon>
                            </g>
                            <path d="M21,27.5 L27.15,27.5 C27.15,30.9520467 29.903186,33.75 33.3,33.75 L49.7,33.75 C53.096814,33.75 55.85,30.9520467 55.85,27.5 C55.85,24.0479533 53.096814,21.25 49.7,21.25 L33.3,21.25 C32.7139282,21.25 32.1458741,21.3334147 31.6088501,21.489563 C30.8295898,21.3323974 30.0243042,21.25 29.2,21.25 L22.645105,21.25 C24.7721801,17.5136312 28.7470581,15 33.3,15 L49.7,15 C56.492627,15 62,20.5969238 62,27.5 C62,34.4030762 56.492627,40 49.7,40 L33.3,40 C26.507373,40 21,34.4030762 21,27.5 Z" id="Path" fill="#999999"></path>
                            <path d="M41,34.5 L34.85,34.5 C34.85,31.0479533 32.096814,28.25 28.7,28.25 L12.3,28.25 C8.903186,28.25 6.15,31.0479533 6.15,34.5 C6.15,37.9520467 8.903186,40.75 12.3,40.75 L28.7,40.75 C29.2860718,40.75 29.8541259,40.6665853 30.3911499,40.510437 C31.1704102,40.6676026 31.9756958,40.75 32.8,40.75 L39.354895,40.75 C37.2278199,44.4863687 33.2529419,47 28.7,47 L12.3,47 C5.50737305,47 0,41.4030762 0,34.5 C0,27.5969238 5.50737305,22 12.3,22 L28.7,22 C35.492627,22 41,27.5969238 41,34.5 Z" id="Path" fill="#BAB8B9"></path>
                        </g>
                        <g id="safebox-(1)" transform="translate(48.000000, 65.000000)">
                            <rect id="Rectangle" fill="#B5C3C6" x="54.0677966" y="3.88355932" width="14.9152542" height="96.9491525"></rect>
                            <g id="Group" transform="translate(0.000000, 9.322034)" fill="#B6C8CC">
                                <path d="M54.0677966,0.154745763 L1.76,0.154745763 C0.786779661,0.154745763 0,0.943389831 0,1.91474576 L0,84.159322 C0,85.130678 0.786779661,85.919322 1.76,85.919322 L54.0677966,85.919322 L54.0677966,0.154745763 Z" id="Path"></path>
                                <path d="M85.5557627,0.154745763 L98.8135593,7.61237288 L98.8135593,78.4598305 L85.5557627,85.9174576 L106.377458,85.9174576 C107.348814,85.9174576 108.137458,85.130678 108.137458,84.1574576 L108.137458,1.91474576 C108.137458,0.943389831 107.350678,0.154745763 106.377458,0.154745763 L85.5557627,0.154745763 Z" id="Path"></path>
                            </g>
                            <path d="M68.9830508,0.374745763 L68.9830508,104.032034 C68.9830508,104.199831 69.1638983,104.304237 69.309322,104.222203 L98.8135593,87.6271186 L98.8135593,16.779661 L69.309322,0.182711864 C69.1638983,0.100677966 68.9830508,0.206949153 68.9830508,0.374745763 Z" id="Path" fill="#E3E9EC"></path>
                            <path d="M54.0677966,16.9344068 L9.96525424,16.9344068 C8.58,16.9344068 7.45762712,18.0586441 7.45762712,19.4438983 L7.45762712,85.2742373 C7.45762712,86.6594915 8.58,87.7818644 9.96525424,87.7818644 L54.0677966,87.7818644 L54.0677966,16.9344068 Z" id="Path" fill="#556080"></path>
                            <g id="Group" transform="translate(95.084746, 24.237288)" fill="#A3B8BE">
                                <path d="M1.86440678,3.88355932 L7.45762712,3.88355932 C8.48864407,3.88355932 9.3220339,3.05016949 9.3220339,2.01915254 C9.3220339,0.988135593 8.48864407,0.154745763 7.45762712,0.154745763 L1.86440678,0.154745763 C0.833389831,0.154745763 0,0.988135593 0,2.01915254 C0,3.05016949 0.833389831,3.88355932 1.86440678,3.88355932 Z" id="Path"></path>
                                <path d="M7.45762712,5.7479661 L1.86440678,5.7479661 C0.833389831,5.7479661 0,6.58135593 0,7.61237288 C0,8.64338983 0.833389831,9.47677966 1.86440678,9.47677966 L7.45762712,9.47677966 C8.48864407,9.47677966 9.3220339,8.64338983 9.3220339,7.61237288 C9.3220339,6.58135593 8.48864407,5.7479661 7.45762712,5.7479661 Z" id="Path"></path>
                                <path d="M7.45762712,46.7649153 L1.86440678,46.7649153 C0.833389831,46.7649153 0,47.5983051 0,48.629322 C0,49.660339 0.833389831,50.4937288 1.86440678,50.4937288 L7.45762712,50.4937288 C8.48864407,50.4937288 9.3220339,49.660339 9.3220339,48.629322 C9.3220339,47.5983051 8.48864407,46.7649153 7.45762712,46.7649153 Z" id="Path"></path>
                                <path d="M7.45762712,52.3581356 L1.86440678,52.3581356 C0.833389831,52.3581356 0,53.1915254 0,54.2225424 C0,55.2535593 0.833389831,56.0869492 1.86440678,56.0869492 L7.45762712,56.0869492 C8.48864407,56.0869492 9.3220339,55.2535593 9.3220339,54.2225424 C9.3220339,53.1915254 8.48864407,52.3581356 7.45762712,52.3581356 Z" id="Path"></path>
                            </g>
                            <rect id="Rectangle" fill="#556080" x="3.72881356" y="95.2394915" width="14.9152542" height="7.45762712"></rect>
                            <rect id="Rectangle" fill="#556080" x="89.4915254" y="95.2394915" width="14.9152542" height="7.45762712"></rect>
                            <g id="Group" transform="translate(59.661017, 7.457627)" fill="#556080">
                                <circle id="Oval" cx="1.86440678" cy="1.86440678" r="1.86440678"></circle>
                                <circle id="Oval" cx="1.86440678" cy="13.0508475" r="1.86440678"></circle>
                                <circle id="Oval" cx="1.86440678" cy="76.440678" r="1.86440678"></circle>
                                <circle id="Oval" cx="1.86440678" cy="65.2542373" r="1.86440678"></circle>
                                <circle id="Oval" cx="1.86440678" cy="24.2372881" r="1.86440678"></circle>
                                <circle id="Oval" cx="1.86440678" cy="87.6271186" r="1.86440678"></circle>
                            </g>
                            <path d="M74.5762712,33.559322 L74.5762712,41.0169492 C77.6711864,41.0169492 80.19,43.5357627 80.19,46.630678 L80.19,57.7779661 C80.19,60.8710169 77.6711864,63.3898305 74.5762712,63.3898305 L74.5762712,70.8474576 C81.7840678,70.8474576 87.6476271,64.9838983 87.6476271,57.7761017 L87.6476271,46.6288136 C87.6476271,39.4210169 81.7840678,33.559322 74.5762712,33.559322 Z" id="Path" fill="#B5C3C6"></path>
                            <path d="M76.5581356,36.510678 L74.9957627,36.510678 L74.9957627,36.4584746 L74.5762712,36.4584746 L74.5762712,38.3750847 L76.5581356,38.3750847 C79.5784746,38.3750847 83.8983051,41.8950847 83.8983051,44.9135593 L83.8983051,59.4894915 C83.8983051,62.5098305 79.5766102,66.3057627 76.5581356,66.3057627 L74.5762712,66.3057627 L74.5762712,68.1459322 L76.8042373,68.1459322 C80.7362712,68.0135593 85.7627119,63.4550847 85.7627119,59.4913559 L85.7627119,44.9154237 C85.7627119,40.8677966 80.6057627,36.510678 76.5581356,36.510678 Z" id="Path" fill="#CFE1E5"></path>
                        </g>
                    </g>
                </g>
            </g>
        </g>
    </g>
</svg>
