<svg xmlns="http://www.w3.org/2000/svg" width="176" height="195" viewBox="0 0 176 195">
    <g fill="none" fill-rule="evenodd">
        <path fill="#FFF" d="M61.152 76.715l-23.468-13.51-23.469 13.51z"/>
        <path fill="#CDCDCD" d="M69.354 84.908v-3.69H59.33v3.69c0 .679.562 1.23 1.253 1.23.692 0 1.253.55 1.253 1.23v19.675c0 .68-.561 1.23-1.253 1.23-.691 0-1.253.551-1.253 1.23v3.69h10.026v-3.69c0-.679-.562-1.23-1.254-1.23-.691 0-1.253-.55-1.253-1.23V87.367c0-.679.562-1.23 1.253-1.23.692 0 1.253-.55 1.253-1.23M56.14 84.908v-3.69H46.112v3.69c0 .679.562 1.23 1.254 1.23s1.253.55 1.253 1.23v19.675c0 .68-.561 1.23-1.253 1.23-.692 0-1.253.551-1.253 1.23v3.69H56.14v-3.69c0-.679-.562-1.23-1.254-1.23s-1.253-.55-1.253-1.23V87.367c0-.679.561-1.23 1.253-1.23.692 0 1.253-.55 1.253-1.23M27.886 84.908v-3.69H17.86v3.69c0 .679.562 1.23 1.254 1.23s1.253.55 1.253 1.23v19.675c0 .68-.561 1.23-1.253 1.23-.692 0-1.253.551-1.253 1.23v3.69h10.026v-3.69c0-.679-.562-1.23-1.254-1.23s-1.253-.55-1.253-1.23V87.367c0-.679.561-1.23 1.253-1.23.692 0 1.253-.55 1.253-1.23M14.67 84.908v-3.69H4.646v3.69c0 .679.562 1.23 1.254 1.23.691 0 1.253.55 1.253 1.23v19.675c0 .68-.562 1.23-1.253 1.23-.692 0-1.253.551-1.253 1.23v3.69H14.67v-3.69c0-.679-.562-1.23-1.253-1.23-.692 0-1.253-.55-1.253-1.23V87.367c0-.679.561-1.23 1.253-1.23.691 0 1.253-.55 1.253-1.23"/>
        <path fill="#FFF" stroke="#4C4C4C" d="M1 118.596h72V124H1zM2.823 113.192h69.266v5.404H2.823zM72.089 82.12H2.823l2.474-5.405h64.318z"/>
        <path fill="#FFF" stroke="#4C4C4C" d="M16.677 69.51l-2.462 7.157c0 .038.04.06.074.041l12.686-7.198H16.677zM48.392 69.51l12.686 7.198a.049.049 0 0 0 .074-.04l-2.464-7.158H48.392zM37.761 63.37l10.748 6.14h8.542c0-7.37-8.595-13.51-19.29-13.51-10.696 0-19.445 6.14-19.445 13.51h8.698l10.747-6.14z"/>
        <g opacity=".818">
            <g fill="#D5E210">
                <path d="M160.857 16.422l-22.135 31.611 36.675-12.008zM147.665 7.835l-22.134 31.61L124.27.877z"/>
            </g>
            <path fill="#4C4C4C" d="M110.668 53.34l4.676 3.47c-1.98 2.827-1.303 6.844 1.48 8.793l13.105 9.735c2.782 1.949 6.642 1.236 8.622-1.592 1.98-2.828 1.33-6.699-1.453-8.647l-13.434-9.407a6.051 6.051 0 0 0-1.522-.773 12.173 12.173 0 0 0-1.836-1.578l-5.37-3.76c3.886-1.84 8.584-1.62 12.313.992l13.434 9.406c5.564 3.896 6.866 11.64 2.906 17.295-3.96 5.654-11.68 7.08-17.245 3.184-3.152-2.518-6-4.692-8.546-6.522-1.62-1.164-3.28-1.685-4.763-2.793-.565-.422-1.354-1.251-2.367-2.488-5.117-5.382-3.96-9.66 0-15.314z"/>
            <path fill="#CDCDCD" d="M122.564 69.861a157.62 157.62 0 0 0-2.715-1.978 35.186 35.186 0 0 1-2.132-1.633c1.98-2.828 1.33-6.699-1.453-8.647l-13.434-9.407c-2.782-1.948-6.642-1.236-8.623 1.592-1.98 2.828-1.33 6.7 1.453 8.647l13.435 9.407c.48.336.993.594 1.522.774.548.576 1.16 1.105 1.836 1.578l5.37 3.76c-3.886 1.84-8.584 1.62-12.313-.992l-13.434-9.407c-5.565-3.896-6.866-11.64-2.906-17.294 3.96-5.655 11.68-7.08 17.245-3.185l13.434 9.407c5.564 3.896 6.674 11.723 2.715 17.378z"/>
        </g>
        <g>
            <path fill="#CDCDCD" d="M52.729 185.239h14.915v7.458H52.729zM138.492 185.239h14.915v7.458h-14.915z"/>
            <path fill="#CDCDCD" stroke="#4C4C4C" d="M110.068 93.884h14.915v96.949h-14.915z"/>
            <g fill="#FFF" stroke="#4C4C4C">
                <path d="M110.068 99.477h-59.08c-1.1 0-1.988.788-1.988 1.76v82.244c0 .972.889 1.76 1.988 1.76h59.08V99.477zM134.556 99.477l13.258 7.457v70.848l-13.258 7.457h20.821a1.76 1.76 0 0 0 1.76-1.76v-82.242a1.76 1.76 0 0 0-1.76-1.76h-20.821z"/>
            </g>
            <path fill="#FFF" stroke="#4C4C4C" d="M124.983 90.375v103.657c0 .168.18.272.326.19l29.505-16.595V106.78l-29.505-16.597a.22.22 0 0 0-.326.192z"/>
            <path fill="#4C4C4C" d="M110.068 106.934H59.342c-1.593 0-2.884 1.125-2.884 2.51v65.83c0 1.385 1.29 2.508 2.884 2.508h50.726v-70.848z"/>
            <g fill="#4C4C4C">
                <path d="M152.95 118.12h5.592a1.863 1.863 0 0 0 1.865-1.864 1.863 1.863 0 0 0-1.865-1.864h-5.593a1.863 1.863 0 0 0-1.864 1.864c0 1.031.833 1.865 1.864 1.865zM158.542 119.985h-5.593a1.863 1.863 0 0 0-1.864 1.865c0 1.03.833 1.864 1.864 1.864h5.593a1.863 1.863 0 0 0 1.865-1.864 1.863 1.863 0 0 0-1.865-1.865zM158.542 161.002h-5.593a1.863 1.863 0 0 0-1.864 1.865c0 1.03.833 1.864 1.864 1.864h5.593a1.863 1.863 0 0 0 1.865-1.864 1.863 1.863 0 0 0-1.865-1.865zM158.542 166.595h-5.593a1.863 1.863 0 0 0-1.864 1.865c0 1.03.833 1.864 1.864 1.864h5.593a1.863 1.863 0 0 0 1.865-1.864 1.863 1.863 0 0 0-1.865-1.865z"/>
            </g>
            <g fill="#4C4C4C" transform="translate(115.661 97.458)">
                <circle cx="1.864" cy="1.864" r="1.864"/>
                <circle cx="1.864" cy="13.051" r="1.864"/>
                <circle cx="1.864" cy="76.441" r="1.864"/>
                <circle cx="1.864" cy="65.254" r="1.864"/>
                <circle cx="1.864" cy="24.237" r="1.864"/>
                <circle cx="1.864" cy="87.627" r="1.864"/>
            </g>
            <path fill="#CDCDCD" d="M131.291 123.56v7.457c1.979 0 3.59 2.519 3.59 5.614v11.147c0 3.093-1.611 5.612-3.59 5.612v7.457c4.608 0 8.357-5.863 8.357-13.07v-11.148c0-7.208-3.749-13.07-8.357-13.07z"/>
            <path fill="#FFF" d="M132.558 126.51h-.998v-.052h-.269v1.917h1.267c1.931 0 4.693 3.52 4.693 6.539v14.575c0 3.02-2.763 6.817-4.693 6.817h-1.267v1.84h1.425c2.513-.132 5.727-4.69 5.727-8.655v-14.576c0-4.047-3.297-8.404-5.885-8.404z"/>
        </g>
    </g>
</svg>
