<svg xmlns="http://www.w3.org/2000/svg" width="221" height="182" viewBox="0 0 221 182">
    <g fill="none" fill-rule="evenodd">
        <g opacity=".823" transform="rotate(93 100.408 102.372)">
            <ellipse cx="89.889" cy="89.747" fill="#D5E210" fill-opacity=".3" rx="65.079" ry="64.707"/>
            <g fill="#4C4C4C">
                <path d="M47.385 174.703l-.003-.063a1.66 1.66 0 0 0-.018-.14l-.005-.036a1.628 1.628 0 0 0-.109-.346l-.016-.034a1.617 1.617 0 0 0-.162-.273l-.033-.045a1.587 1.587 0 0 0-.091-.105c-.01-.01-.017-.02-.027-.028a1.638 1.638 0 0 0-.131-.12l-.007-.006-7.669-6.18a1.616 1.616 0 0 0-2.277.25 1.63 1.63 0 0 0 .248 2.285l3.776 3.043c-9.986-.993-18.991-5.015-25.735-11.58-7.65-7.448-11.863-17.565-11.863-28.488 0-.897-.725-1.625-1.62-1.625-.895 0-1.62.728-1.62 1.625 0 11.81 4.562 22.756 12.847 30.821 7.306 7.113 17.043 11.456 27.813 12.496l-3.781 2.467a1.629 1.629 0 0 0-.475 2.249 1.618 1.618 0 0 0 2.241.476l7.984-5.21.007-.005c.05-.033.1-.069.145-.107l.02-.018c.038-.033.074-.067.109-.103l.038-.042a1.661 1.661 0 0 0 .184-.25c.008-.012.017-.025.024-.039.059-.104.107-.215.142-.332l.007-.027c.013-.048.024-.096.033-.146.004-.018.006-.036.009-.055.006-.04.01-.082.013-.124l.004-.033v-.033l.002-.048c0-.024-.003-.048-.004-.071zM163.769 18.169c-7.306-7.113-17.043-11.457-27.813-12.496l3.78-2.468c.751-.49.964-1.496.476-2.249A1.617 1.617 0 0 0 137.97.48l-7.984 5.21-.007.005c-.05.033-.099.069-.145.107l-.02.018a1.72 1.72 0 0 0-.109.103l-.038.042a1.647 1.647 0 0 0-.184.249l-.024.04a1.61 1.61 0 0 0-.141.332l-.007.026a1.596 1.596 0 0 0-.034.147l-.008.054c-.006.041-.01.082-.014.124 0 .012-.003.022-.003.033v.033c0 .017-.003.032-.003.049 0 .024.003.047.004.071l.003.063c.004.047.01.093.018.14l.006.036c.023.12.06.236.108.346l.016.034a1.612 1.612 0 0 0 .163.273l.033.045c.029.036.06.07.091.105.009.01.017.02.026.028.042.043.086.083.132.12l.006.006 7.67 6.18a1.615 1.615 0 0 0 2.278-.25 1.63 1.63 0 0 0-.25-2.285l-3.776-3.043c9.986.993 18.992 5.015 25.735 11.58 7.65 7.448 11.863 17.565 11.863 28.488 0 .898.726 1.625 1.62 1.625.895 0 1.62-.728 1.62-1.625.001-11.81-4.561-22.755-12.846-30.82z"/>
            </g>
        </g>
        <g transform="translate(163.62 52.626)">
            <ellipse cx="12.366" cy="11.88" fill="#FFB125" rx="11.389" ry="11.355"/>
            <path fill="#FF901D" d="M12.835.526c-.34 0-.678.017-1.011.049 5.556.53 9.908 5.389 9.908 11.305 0 5.917-4.352 10.775-9.908 11.306.333.032.67.049 1.011.049 6.031 0 10.92-5.084 10.92-11.355 0-6.27-4.889-11.354-10.92-11.354z"/>
            <g fill="#FEE570" transform="translate(2.062 1.607)">
                <ellipse cx="10.51" cy="10.281" rx="8.683" ry="8.495"/>
                <path d="M10.51 1.18a.322.322 0 0 1-.326-.319V.35c0-.176.146-.318.326-.318.18 0 .325.142.325.318v.512a.322.322 0 0 1-.325.319zM10.51 20.532a.322.322 0 0 1-.326-.318v-.512c0-.176.146-.319.326-.319.18 0 .325.143.325.319v.512a.322.322 0 0 1-.325.318zM20.662 10.6h-.523a.322.322 0 0 1-.326-.319c0-.176.146-.318.326-.318h.523c.18 0 .326.142.326.318a.322.322 0 0 1-.326.32zM.88 10.6H.357a.322.322 0 0 1-.326-.319c0-.176.146-.318.326-.318H.88c.18 0 .326.142.326.318a.322.322 0 0 1-.326.32zM17.319 3.939a.328.328 0 0 1-.23-.093.314.314 0 0 1 0-.451l.37-.362a.33.33 0 0 1 .46 0 .314.314 0 0 1 0 .45l-.37.363a.329.329 0 0 1-.23.093zM3.33 17.623a.328.328 0 0 1-.23-.093.314.314 0 0 1 0-.45l.37-.363a.33.33 0 0 1 .46 0 .314.314 0 0 1 0 .451l-.37.362a.329.329 0 0 1-.23.093zM17.689 17.623a.329.329 0 0 1-.23-.093l-.37-.362a.314.314 0 0 1 0-.45.33.33 0 0 1 .46 0l.37.361a.314.314 0 0 1 0 .451.329.329 0 0 1-.23.093zM3.7 3.939a.329.329 0 0 1-.23-.093l-.37-.362a.314.314 0 0 1 0-.451.33.33 0 0 1 .46 0l.371.362a.314.314 0 0 1 0 .45.329.329 0 0 1-.23.094zM14.378 1.974a.33.33 0 0 1-.13-.027.316.316 0 0 1-.168-.42l.21-.47a.329.329 0 0 1 .43-.163c.164.07.239.259.167.42l-.21.469a.326.326 0 0 1-.3.19zM6.43 19.696a.33.33 0 0 1-.13-.027.316.316 0 0 1-.167-.42l.21-.469a.329.329 0 0 1 .429-.164c.165.071.24.259.167.42l-.21.469a.326.326 0 0 1-.298.19zM19.807 14.59a.33.33 0 0 1-.13-.026l-.48-.206a.316.316 0 0 1-.168-.42.329.329 0 0 1 .43-.164l.479.206c.165.07.24.259.167.42a.326.326 0 0 1-.298.19zM1.691 6.816a.33.33 0 0 1-.13-.027l-.48-.206a.316.316 0 0 1-.167-.42.329.329 0 0 1 .43-.164l.478.206c.165.07.24.259.168.42a.326.326 0 0 1-.299.19zM19.48 7.176a.326.326 0 0 1-.303-.203.317.317 0 0 1 .185-.412l.488-.186a.328.328 0 0 1 .421.18.317.317 0 0 1-.185.413l-.487.186a.332.332 0 0 1-.119.022zM1.051 14.21a.326.326 0 0 1-.303-.203.317.317 0 0 1 .185-.412l.487-.186a.328.328 0 0 1 .422.18.317.317 0 0 1-.185.413l-.487.186a.332.332 0 0 1-.119.022zM14.2 19.853a.326.326 0 0 1-.304-.203l-.19-.477a.317.317 0 0 1 .185-.412.328.328 0 0 1 .422.18l.19.478a.316.316 0 0 1-.185.412.332.332 0 0 1-.118.022zM7.01 1.824a.326.326 0 0 1-.304-.203l-.19-.477a.316.316 0 0 1 .185-.412.328.328 0 0 1 .422.18l.19.478a.317.317 0 0 1-.185.412.332.332 0 0 1-.118.022z"/>
            </g>
            <path fill="#F4D451" d="M18.98 18.475a8.85 8.85 0 0 0 0-12.542L6.4 18.475c3.474 3.463 9.107 3.463 12.58 0z"/>
            <path fill="#FF901D" d="M14.18 18.91c-1.456 0-2.804-.424-3.899-1.224a6.218 6.218 0 0 1-2.24-3.119.193.193 0 0 0-.184-.134h-.814a.648.648 0 0 1-.642-.653c0-.36.288-.653.642-.653h.486a.192.192 0 0 0 .142-.062.199.199 0 0 0 .05-.148 7.242 7.242 0 0 1 0-.992.2.2 0 0 0-.05-.148.192.192 0 0 0-.142-.062h-.486a.648.648 0 0 1-.642-.653c0-.36.288-.653.642-.653h.814a.193.193 0 0 0 .183-.134 6.218 6.218 0 0 1 2.241-3.119c1.095-.8 2.443-1.223 3.9-1.223h.073c.262.003.5.13.65.348a.82.82 0 0 1 .1.74l-.022.064a.813.813 0 0 1-.768.545h-.009c-1.632 0-3.134.955-3.92 2.492a.198.198 0 0 0 .007.192c.035.06.097.095.165.095h3.462c.198 0 .382.091.505.25a.657.657 0 0 1 .118.559.643.643 0 0 1-.623.497H9.958c-.1 0-.182.075-.192.176a5.21 5.21 0 0 0 0 1.06c.01.1.093.176.192.176h3.314c.198 0 .382.091.505.25a.658.658 0 0 1 .118.56.643.643 0 0 1-.623.496h-2.815a.191.191 0 0 0-.165.095.198.198 0 0 0-.007.192c.786 1.537 2.288 2.492 3.92 2.492h.03c.37 0 .692.237.803.59a.853.853 0 0 1-.12.756.821.821 0 0 1-.667.351h-.07z"/>
        </g>
        <path fill="#CDCDCD" d="M215.54 47.874V43.24h-12.474v4.634c0 .852.699 1.544 1.56 1.544.86 0 1.559.692 1.559 1.544v24.711c0 .853-.699 1.545-1.56 1.545-.86 0-1.559.692-1.559 1.544v4.633h12.474v-4.633c0-.852-.698-1.544-1.559-1.544-.86 0-1.56-.692-1.56-1.545v-24.71c0-.853.7-1.545 1.56-1.545.86 0 1.56-.692 1.56-1.544M199.097 47.874V43.24h-12.474v4.634c0 .852.699 1.544 1.56 1.544.86 0 1.559.692 1.559 1.544v24.711c0 .853-.699 1.545-1.56 1.545-.86 0-1.559.692-1.559 1.544v4.633h12.474v-4.633c0-.852-.698-1.544-1.559-1.544-.86 0-1.56-.692-1.56-1.545v-24.71c0-.853.7-1.545 1.56-1.545.86 0 1.56-.692 1.56-1.544M163.943 47.874V43.24H151.47v4.634c0 .852.699 1.544 1.56 1.544.86 0 1.559.692 1.559 1.544v24.711c0 .853-.699 1.545-1.56 1.545-.86 0-1.559.692-1.559 1.544v4.633h12.474v-4.633c0-.852-.698-1.544-1.559-1.544-.86 0-1.56-.692-1.56-1.545v-24.71c0-.853.7-1.545 1.56-1.545.86 0 1.56-.692 1.56-1.544M147.5 47.874V43.24h-12.474v4.634c0 .852.699 1.544 1.56 1.544.86 0 1.559.692 1.559 1.544v24.711c0 .853-.699 1.545-1.56 1.545-.86 0-1.559.692-1.559 1.544v4.633H147.5v-4.633c0-.852-.698-1.544-1.559-1.544-.86 0-1.56-.692-1.56-1.545v-24.71c0-.853.7-1.545 1.56-1.545.86 0 1.56-.692 1.56-1.544"/>
        <path fill="#FFF" stroke="#4C4C4C" d="M130.49 90.182h89.586v6.787H130.49z"/>
        <path fill="#FFF" stroke="#4C4C4C" d="M132.758 83.396h86.184v6.787h-86.184zM218.942 44.371h-86.184l3.078-6.786h80.028zM176.23 20.823l13.373 7.713h10.628c0-9.255-10.693-16.967-24-16.967-13.31 0-24.195 7.712-24.195 16.967h10.822l13.373-7.713z"/>
        <path fill="#FFF" stroke="#4C4C4C" d="M149.997 28.536l-3.064 8.988c0 .047.05.076.092.052l15.784-9.04h-12.812zM189.458 28.536l15.784 9.04a.06.06 0 0 0 .092-.052l-3.065-8.988h-12.81z"/>
        <path fill="#FFF" stroke="#4C4C4C" d="M205.334 37.585l-29.2-16.967-29.2 16.967z"/>
        <g>
            <path fill="#CDCDCD" fill-rule="nonzero" d="M2.187 135.826a9.04 9.04 0 0 1-.4-.009c-.999-.044-1.787-.83-1.787-1.793v-.009c0-.977.81-1.76 1.823-1.794 1.729-.057 4.392-.661 6.652-3.395.127-.153.242-.306.348-.458-3.826-.793-6.13-2.054-7.028-3.836-.531-1.056-.808-2.77.891-4.935 1.171-1.493 2.86-2.22 4.634-1.99 2.25.29 4.372 2.077 5.405 4.554a8.283 8.283 0 0 1 .653 3.427c1.073.107 1.755-.794 1.755.316s-.403 4.087-.403 3.038c0-.112.054.242-2.17 0a9.749 9.749 0 0 1-1.3 2.025c-3.374 4.08-6.885 4.86-9.073 4.86zM6.669 121c-.304 0-.707.114-1.144.67-.275.352-.71.997-.526 1.363.416.827 2.33 1.537 4.795 2.03a5.061 5.061 0 0 0-.372-1.62c-.608-1.456-1.755-2.325-2.574-2.43a1.36 1.36 0 0 0-.179-.013z"/>
            <path fill="#FFF" d="M112.697 125.927l-4.817-1.526a3.7 3.7 0 0 1-2.411-2.406c-5.544-17.427-26.128-25.43-46.848-25.43-24.24 0-43.89 10.951-43.89 35.135 0 13.938 6.914 23.7 17.598 29.339.262.139.45.385.506.674l2.393 12.29A2.473 2.473 0 0 0 37.665 176h8.083a2.473 2.473 0 0 0 2.437-1.996l1.308-6.833a.985.985 0 0 1 1.087-.785c2.607.3 5.295.45 8.041.45 3.672 0 7.338-.269 10.918-.804a.986.986 0 0 1 1.121.78l1.377 7.192A2.473 2.473 0 0 0 74.474 176h8.083a2.473 2.473 0 0 0 2.437-1.996l2.486-13.013a.975.975 0 0 1 .516-.682c6.344-3.262 11.593-7.748 14.94-13.468a3.573 3.573 0 0 1 2-1.611l7.761-2.458c1.968-.623 3.303-2.432 3.303-4.474V130.4a4.705 4.705 0 0 0-3.303-4.474z"/>
            <path fill="#CDCDCD" d="M115.259 128.162a4.675 4.675 0 0 0-.768-1.008l-.02-.02a4.752 4.752 0 0 0-1.906-1.142l-3.566-1.122v4.121c0 5.12-3.321 9.671-8.257 11.316-2.245.706-4.185 2.103-5.607 3.95-1.741 2.26-3.81 4.293-6.142 6.096-2.75 2.126-4.603 5.168-5.134 8.565-.377 2.423-.67 5.008-.857 6.84-.143 1.408-1.349 2.48-2.79 2.48h-5.818c-1.19 0-2.213-.831-2.434-1.98l-1.375-7.136a.984.984 0 0 0-1.12-.775c-3.574.531-7.236.797-10.903.797-2.743 0-5.426-.149-8.03-.446a.984.984 0 0 0-1.086.78l-1.306 6.78c-.222 1.15-1.244 1.981-2.434 1.981h-8.072c-1.19 0-2.212-.832-2.434-1.98l-2.39-12.197a.969.969 0 0 0-.505-.67c-9.695-5.084-16.281-13.549-17.403-25.43-.027.292-.05.586-.071.882l-.001.017-.006.088c-.018.266-.033.533-.046.802l-.013.337c-.008.206-.017.41-.022.618a38.375 38.375 0 0 0 .304 6.008c.258 1.96.669 3.822 1.22 5.588l.092.288c.077.237.156.474.239.71.033.094.065.188.099.281.227.629.472 1.245.735 1.847l.084.192c.13.292.264.58.402.866l.07.141c.129.263.262.524.398.783l.07.134c.149.278.302.552.459.824l.103.177a29.452 29.452 0 0 0 1.646 2.507l.17.229c.143.191.289.38.436.568l.174.222c.2.249.401.496.609.738l.005.007c.207.243.42.481.635.717l.197.214c.16.173.324.344.488.514l.2.205a31.472 31.472 0 0 0 3.143 2.791 34.974 34.974 0 0 0 3.534 2.424c.082.05.165.098.248.147.216.129.433.254.652.379l.26.147c.294.164.59.325.89.482a.987.987 0 0 1 .315.263c.012.015.022.031.033.047a.95.95 0 0 1 .073.123l.025.05a.94.94 0 0 1 .059.187l2.39 12.196a2.393 2.393 0 0 0 .72 1.303l.056.05a2.519 2.519 0 0 0 .334.249l.064.04c.068.04.139.077.211.11l.003.002c.073.033.148.062.224.088.024.009.048.015.073.023a2.394 2.394 0 0 0 .42.092 2.606 2.606 0 0 0 .329.024h8.072a2.506 2.506 0 0 0 1.736-.698 2.403 2.403 0 0 0 .697-1.283l1.307-6.78v-.001a.95.95 0 0 1 .048-.162l.02-.045a.955.955 0 0 1 .056-.107l.025-.041a.961.961 0 0 1 .1-.126.988.988 0 0 1 .508-.278c.026-.006.053-.01.08-.014.026-.003.051-.008.077-.009a.985.985 0 0 1 .172.004 66.844 66.844 0 0 0 1.638.164c.438.04.878.076 1.32.107h.007a70.516 70.516 0 0 0 1.67.096 72.706 72.706 0 0 0 7.546-.035l.143-.01c.424-.024.849-.05 1.272-.082l.03-.003a74.542 74.542 0 0 0 4.044-.413c.203-.026.405-.056.607-.084.222-.03.445-.06.667-.093a.982.982 0 0 1 1.045.578l.008.015c.024.058.043.12.055.183l.688 3.568.687 3.568c.221 1.15 1.243 1.981 2.434 1.981h8.073c.084 0 .168-.005.25-.013l.078-.01a2.552 2.552 0 0 0 .42-.093c.024-.008.049-.014.073-.023a2.51 2.51 0 0 0 .224-.089h.001c.073-.033.143-.071.212-.111l.064-.04a2.426 2.426 0 0 0 .334-.25 2.47 2.47 0 0 0 .222-.22c.02-.022.039-.047.058-.071a2.403 2.403 0 0 0 .496-1.06l.544-2.83.565-2.941.355-1.844 1.019-5.3.091-.475.402-.195c.006.002.01 0 .013 0l.009-.006c.193-.099.383-.203.574-.304.2-.106.403-.21.6-.317.173-.094.34-.193.51-.288.213-.12.43-.24.64-.363.174-.101.343-.207.514-.31.203-.123.407-.243.607-.368.179-.112.353-.229.53-.343.187-.121.376-.24.561-.364.175-.117.345-.239.517-.358.181-.126.365-.25.544-.378.167-.12.329-.244.493-.366.18-.133.361-.263.537-.399.16-.122.314-.25.471-.374.176-.14.354-.276.526-.418.159-.13.312-.266.468-.4.165-.14.333-.279.495-.422.151-.134.297-.272.445-.408.161-.147.325-.292.483-.442.144-.137.282-.279.424-.418.156-.154.315-.305.468-.461.139-.143.272-.29.408-.434.149-.158.3-.313.446-.474.132-.146.259-.297.388-.446.143-.163.288-.324.427-.49.126-.15.246-.306.37-.46.135-.168.274-.334.406-.505.12-.157.235-.319.353-.478.127-.172.258-.341.38-.515.116-.163.225-.33.337-.496.119-.175.24-.348.356-.527.143-.22.274-.45.417-.67.085-.132.165-.266.244-.4a3.484 3.484 0 0 1 1.95-1.559l.029-.009 3.954-1.244 3.796-1.195c1.965-.618 3.298-2.413 3.298-4.44v-7.836a4.577 4.577 0 0 0-.603-2.271z"/>
            <path stroke="#4C4C4C" d="M112.697 125.927l-4.817-1.526a3.7 3.7 0 0 1-2.411-2.406c-5.544-17.427-26.128-25.43-46.848-25.43-24.24 0-43.89 10.951-43.89 35.135 0 13.938 6.914 23.7 17.598 29.339.262.139.45.385.506.674l2.393 12.29A2.473 2.473 0 0 0 37.665 176h8.083a2.473 2.473 0 0 0 2.437-1.996l1.308-6.833a.985.985 0 0 1 1.087-.785c2.607.3 5.295.45 8.041.45 3.672 0 7.338-.269 10.918-.804a.986.986 0 0 1 1.121.78l1.377 7.192A2.473 2.473 0 0 0 74.474 176h8.083a2.473 2.473 0 0 0 2.437-1.996l2.486-13.013a.975.975 0 0 1 .516-.682c6.344-3.262 11.593-7.748 14.94-13.468a3.573 3.573 0 0 1 2-1.611l7.761-2.458c1.968-.623 3.303-2.432 3.303-4.474V130.4a4.705 4.705 0 0 0-3.303-4.474z"/>
            <path fill="#FFF" stroke="#4C4C4C" d="M77.501 100.165c.246-1.165 1.052-2.134 2.135-2.63 4.16-1.904 14.76-6.486 17.484-5.06 3.412 1.788 1.625 21.085-3.575 24.03-5.022 2.845-19.595.516-16.044-16.34z"/>
            <path fill="#CDCDCD" d="M93.3 130.908a5.595 5.595 0 0 1-5.588-5.589 1.71 1.71 0 1 1 3.418 0c0 1.197.973 2.17 2.17 2.17s2.17-.973 2.17-2.17a1.71 1.71 0 1 1 3.419 0 5.595 5.595 0 0 1-5.589 5.59z"/>
            <path fill="#4C4C4C" d="M71.452 109.95c-.228 0-.46-.038-.687-.12a54.561 54.561 0 0 0-36.612 0c-1.134.405-2.36-.248-2.74-1.46-.378-1.211.234-2.522 1.368-2.927a58.652 58.652 0 0 1 39.357 0c1.134.405 1.746 1.716 1.367 2.927-.303.969-1.148 1.58-2.053 1.58z"/>
            <path fill="#CDCDCD" d="M96.523 94.74c-2.404 0-8.227 1.982-15.195 5.173-.38.175-.655.504-.734.88-1.016 4.822-.473 8.703 1.57 11.223.24.294.502.572.784.831.329.302.858.133.968-.3C86.337 102.95 98.09 94.74 96.523 94.74z"/>
        </g>
        <g>
            <g transform="translate(29 67)">
                <circle cx="24" cy="24" r="24" fill="#FFB125"/>
                <path fill="#FF901D" d="M24.152 0c-.745 0-1.482.036-2.21.103C34.079 1.226 43.583 11.495 43.583 24c0 12.505-9.504 22.775-21.64 23.897.728.067 1.465.103 2.21.103C37.323 48 48 37.255 48 24S37.323 0 24.152 0z"/>
                <g fill="#FEE570" transform="translate(1.371 1.371)">
                    <circle cx="22.629" cy="22.629" r="18.696"/>
                    <path d="M22.629 2.597a.701.701 0 0 1-.702-.702V.768a.701.701 0 1 1 1.403 0v1.127a.701.701 0 0 1-.701.702zM22.629 45.19a.701.701 0 0 1-.702-.701v-1.127a.701.701 0 1 1 1.403 0v1.127a.701.701 0 0 1-.701.701zM44.489 23.33h-1.127a.701.701 0 1 1 0-1.403h1.127a.701.701 0 1 1 0 1.403zM1.895 23.33H.768a.701.701 0 1 1 0-1.403h1.127a.701.701 0 1 1 0 1.403zM37.29 8.67a.701.701 0 0 1-.496-1.197l.796-.798a.701.701 0 0 1 .992.992l-.797.797a.7.7 0 0 1-.496.205zM7.171 38.787a.701.701 0 0 1-.496-1.197l.797-.797a.701.701 0 0 1 .992.992l-.797.797a.7.7 0 0 1-.496.205zM38.086 38.787a.7.7 0 0 1-.496-.205l-.797-.797a.701.701 0 1 1 .992-.992l.797.797a.701.701 0 0 1-.496 1.197zM7.968 8.67a.7.7 0 0 1-.496-.206l-.797-.797a.701.701 0 1 1 .992-.992l.797.797a.701.701 0 0 1-.496 1.197zM30.958 4.344a.701.701 0 0 1-.642-.983l.453-1.033a.701.701 0 0 1 1.284.564L31.6 3.924a.701.701 0 0 1-.642.42zM13.846 43.349a.701.701 0 0 1-.642-.983l.453-1.033a.701.701 0 0 1 1.284.564l-.452 1.032a.701.701 0 0 1-.643.42zM42.647 32.112a.699.699 0 0 1-.282-.059l-1.032-.453a.701.701 0 0 1 .564-1.284l1.032.453a.701.701 0 0 1-.282 1.343zM3.642 15a.699.699 0 0 1-.282-.059l-1.032-.452a.701.701 0 0 1 .564-1.285l1.032.453A.701.701 0 0 1 3.642 15zM41.944 15.794a.702.702 0 0 1-.255-1.354l1.05-.41a.701.701 0 0 1 .51 1.307l-1.05.41a.7.7 0 0 1-.255.047zM2.264 31.275a.702.702 0 0 1-.255-1.355l1.05-.41a.701.701 0 1 1 .51 1.308l-1.05.41a.7.7 0 0 1-.255.047zM30.574 43.695a.702.702 0 0 1-.654-.446l-.41-1.05a.701.701 0 0 1 1.308-.51l.41 1.05a.701.701 0 0 1-.654.956zM15.093 4.015a.702.702 0 0 1-.653-.447l-.41-1.05a.701.701 0 1 1 1.307-.51l.41 1.05a.701.701 0 0 1-.654.957z"/>
                </g>
                <path fill="#F4D451" d="M37.102 37.102c7.216-7.215 7.216-18.915 0-26.13l-26.13 26.13c7.215 7.216 18.914 7.216 26.13 0z"/>
            </g>
            <path fill="#FF901D" d="M63.281 103c-2.788 0-5.37-.752-7.466-2.176-2.012-1.367-3.496-3.285-4.29-5.546a.368.368 0 0 0-.35-.239h-1.561c-.678 0-1.23-.52-1.23-1.16 0-.64.552-1.161 1.23-1.161h.932c.102 0 .2-.04.27-.111a.339.339 0 0 0 .099-.263 11.964 11.964 0 0 1 0-1.765.339.339 0 0 0-.099-.263.381.381 0 0 0-.27-.11h-.932c-.678 0-1.23-.521-1.23-1.161s.552-1.161 1.23-1.161h1.56c.16 0 .3-.096.35-.24.795-2.26 2.279-4.178 4.291-5.545 2.097-1.423 4.678-2.176 7.466-2.176h.142c.502.005.955.23 1.244.62.289.389.358.869.191 1.317l-.042.112c-.216.58-.807.97-1.47.97h-.017a8.563 8.563 0 0 0-7.506 4.431.33.33 0 0 0 .013.343.373.373 0 0 0 .316.168h6.628c.38 0 .733.162.968.444.235.283.317.645.226.994-.136.52-.626.884-1.194.884h-7.584a.362.362 0 0 0-.368.313 8.61 8.61 0 0 0 0 1.886c.02.178.178.313.368.313h6.346c.38 0 .733.162.967.444.235.283.317.645.226.994-.135.52-.626.884-1.193.884h-5.39a.373.373 0 0 0-.316.168.33.33 0 0 0-.013.342 8.563 8.563 0 0 0 7.506 4.432h.057c.707 0 1.325.422 1.537 1.05.156.462.073.951-.228 1.344-.3.392-.766.62-1.278.624h-.136z"/>
            <path fill="#FF901D" d="M48.385 96.315a1.258 1.258 0 0 1-.347.755c-.194.197-.412.32-.656.369-.244.049-.478.018-.703-.092-.225-.11-.387-.326-.487-.645a2.83 2.83 0 0 1-.131-1.078c.025-.374.037-.721.037-1.04 0-.664.003-1.324.01-1.98a19.158 19.158 0 0 0-.085-1.981.6.6 0 0 0-.037-.065.647.647 0 0 0-.075-.082 1.585 1.585 0 0 0-.919.055c-.325.11-.6.252-.824.424-.2.16-.397.377-.59.653-.195.277-.291.544-.291.802v2.542c0 .196.006.411.018.645.013.233.003.46-.028.681a1.577 1.577 0 0 1-.215.608c-.113.184-.294.32-.544.405a.873.873 0 0 1-.384.056 1.656 1.656 0 0 1-.384-.092.825.825 0 0 1-.488-.378 1.844 1.844 0 0 1-.206-.571 2.742 2.742 0 0 1-.047-.59c.007-.19.01-.34.01-.45 0-.283-.003-.692-.01-1.226A144.4 144.4 0 0 1 41 92.355v-2.911a.96.96 0 0 1 .244-.672c.162-.179.353-.295.571-.35.219-.056.45-.043.694.036.243.08.446.243.609.489.5-.32 1.05-.535 1.65-.645.599-.11 1.164-.092 1.695.055a2.69 2.69 0 0 1 1.331.83c.356.404.54.963.553 1.675 0 .025.006.099.019.221.012.123.019.295.019.516v4.716z"/>
        </g>
        <path fill="#FFF" d="M32.305 111.798c2.113-2.885 4.72-3.608 6.35-4.03 6.217-1.61 24.354-.379 28.987.88 5.664 1.538 6.083 14.754-.377 18.92-6.239 4.025-50.555 5.52-34.96-15.77z"/>
    </g>
</svg>
