<?xml version="1.0" encoding="UTF-8"?>
<svg xmlns="http://www.w3.org/2000/svg" width="190" height="166">
  <g fill="none" fill-rule="evenodd">
    <g fill="#4C4C4C" opacity=".823">
      <path d="M49.627 80.185h.069c.051-.001.102-.005.152-.01.014-.003.027-.003.04-.005a1.78 1.78 0 0 0 .383-.097l.038-.016a1.764 1.764 0 0 0 .306-.16c.017-.01.034-.022.05-.033.042-.03.081-.06.12-.093l.032-.026c.049-.043.095-.088.138-.136l.007-.006 7.155-7.94a1.743 1.743 0 0 0-.142-2.478 1.781 1.781 0 0 0-2.5.14l-3.523 3.908c1.646-10.74 6.53-20.249 14.052-27.166 8.533-7.848 19.773-11.826 31.652-11.204a1.762 1.762 0 0 0 1.86-1.659c.05-.968-.7-1.793-1.676-1.844-12.844-.673-25.006 3.636-34.246 12.134C55.445 50.99 50.17 61.27 48.43 72.856l-2.469-4.23a1.78 1.78 0 0 0-2.419-.641 1.749 1.749 0 0 0-.645 2.396l5.214 8.93.005.008c.033.056.07.11.109.163.005.008.012.014.018.022.033.043.068.084.106.123.014.016.029.03.043.044a1.806 1.806 0 0 0 .26.214l.042.028c.11.07.228.127.353.172l.03.009c.05.017.103.032.156.045l.06.012c.044.008.088.016.134.021l.036.006c.012.002.023 0 .035.002l.053.005h.077zM135.32 131.951c8.15-7.495 13.425-17.775 15.166-29.362l2.469 4.23a1.78 1.78 0 0 0 2.419.641 1.745 1.745 0 0 0 .645-2.396l-5.213-8.93-.006-.008a1.813 1.813 0 0 0-.108-.163l-.019-.022a1.866 1.866 0 0 0-.105-.124l-.044-.044a1.791 1.791 0 0 0-.26-.213c-.014-.01-.028-.02-.042-.028a1.76 1.76 0 0 0-.353-.172l-.029-.009a1.747 1.747 0 0 0-.157-.045l-.06-.012a1.857 1.857 0 0 0-.133-.022l-.036-.005c-.012-.002-.024 0-.036-.002l-.052-.005c-.026-.002-.052 0-.078 0h-.069a1.817 1.817 0 0 0-.152.01l-.04.005a1.78 1.78 0 0 0-.383.097l-.038.016a1.76 1.76 0 0 0-.306.16l-.05.033a1.66 1.66 0 0 0-.12.093l-.032.026a1.778 1.778 0 0 0-.138.136l-.006.006-7.156 7.94a1.745 1.745 0 0 0 .142 2.477c.73.646 1.85.584 2.5-.138l3.523-3.91c-1.646 10.742-6.53 20.25-14.052 27.167-8.533 7.848-19.773 11.826-31.652 11.204a1.762 1.762 0 0 0-1.86 1.659c-.05.968.7 1.793 1.676 1.844 12.843.674 25.005-3.635 34.245-12.134z"/>
    </g>
    <path fill="#BDAA91" d="M173 23L147 8l-26 15z"/>
    <path fill="#DBCDB8" d="M183 32.154V28h-11v4.154a1.38 1.38 0 0 0 1.375 1.384c.759 0 1.375.62 1.375 1.385v22.154a1.38 1.38 0 0 1-1.375 1.385A1.38 1.38 0 0 0 172 59.846V64h11v-4.154a1.38 1.38 0 0 0-1.375-1.384 1.38 1.38 0 0 1-1.375-1.385V34.923a1.38 1.38 0 0 1 1.375-1.385A1.38 1.38 0 0 0 183 32.154M168 32.154V28h-11v4.154a1.38 1.38 0 0 0 1.375 1.384c.759 0 1.375.62 1.375 1.385v22.154a1.38 1.38 0 0 1-1.375 1.385A1.38 1.38 0 0 0 157 59.846V64h11v-4.154a1.38 1.38 0 0 0-1.375-1.384 1.38 1.38 0 0 1-1.375-1.385V34.923a1.38 1.38 0 0 1 1.375-1.385A1.38 1.38 0 0 0 168 32.154M153 32.154V28h-11v4.154a1.38 1.38 0 0 0 1.375 1.384c.759 0 1.375.62 1.375 1.385v22.154a1.38 1.38 0 0 1-1.375 1.385A1.38 1.38 0 0 0 142 59.846V64h11v-4.154a1.38 1.38 0 0 0-1.375-1.384 1.38 1.38 0 0 1-1.375-1.385V34.923a1.38 1.38 0 0 1 1.375-1.385A1.38 1.38 0 0 0 153 32.154M137 32.154V28h-11v4.154a1.38 1.38 0 0 0 1.375 1.384c.759 0 1.375.62 1.375 1.385v22.154a1.38 1.38 0 0 1-1.375 1.385A1.38 1.38 0 0 0 126 59.846V64h11v-4.154a1.38 1.38 0 0 0-1.375-1.384 1.38 1.38 0 0 1-1.375-1.385V34.923a1.38 1.38 0 0 1 1.375-1.385A1.38 1.38 0 0 0 137 32.154M122 32.154V28h-11v4.154a1.38 1.38 0 0 0 1.375 1.384c.759 0 1.375.62 1.375 1.385v22.154a1.38 1.38 0 0 1-1.375 1.385A1.38 1.38 0 0 0 111 59.846V64h11v-4.154a1.38 1.38 0 0 0-1.375-1.384 1.38 1.38 0 0 1-1.375-1.385V34.923a1.38 1.38 0 0 1 1.375-1.385A1.38 1.38 0 0 0 122 32.154M107 70h80v6h-80z"/>
    <path fill="#FFF2DC" d="M109 64h77v6h-77zM186 29h-77l2.75-6h71.5z"/>
    <path fill="#DBCDB8" d="M123.702 15L121 22.947c0 .041.045.067.081.045L135 15h-11.298zM159 15l13.919 7.992a.053.053 0 0 0 .081-.045L170.297 15H159z"/>
    <path fill="#FFF2DC" d="M146.586 8.182L158.517 15H168c0-8.182-9.54-15-21.414-15C134.712 0 125 6.818 125 15h9.655l11.931-6.818z"/>
    <g transform="translate(155 49)">
      <circle cx="17.5" cy="17.5" r="17.5" fill="#FFB125"/>
      <path fill="#FF901D" d="M17.61 0c-.542 0-1.08.026-1.61.075C24.848.894 31.778 8.382 31.778 17.5S24.848 34.106 16 34.925c.53.049 1.068.075 1.61.075C27.216 35 35 27.165 35 17.5S27.215 0 17.61 0z"/>
      <g fill="#FEE570" transform="translate(1 1)">
        <circle cx="16.5" cy="16.5" r="13.632"/>
        <path d="M16.5 1.893a.511.511 0 0 1-.511-.51V.56a.511.511 0 1 1 1.022 0v.822a.511.511 0 0 1-.511.511zM16.5 32.951a.511.511 0 0 1-.511-.511v-.822a.511.511 0 1 1 1.022 0v.822a.511.511 0 0 1-.511.511zM32.44 17.011h-.822a.511.511 0 1 1 0-1.022h.822a.511.511 0 1 1 0 1.022zM1.382 17.011H.56a.511.511 0 1 1 0-1.022h.822a.511.511 0 1 1 0 1.022zM27.19 6.321a.51.51 0 0 1-.362-.873l.581-.58a.511.511 0 0 1 .724.723l-.581.58c-.1.1-.231.15-.362.15zM5.229 28.282a.51.51 0 0 1-.362-.872l.581-.581a.511.511 0 0 1 .724.723l-.582.58c-.1.1-.23.15-.361.15zM27.771 28.282a.51.51 0 0 1-.361-.15l-.582-.58a.511.511 0 1 1 .724-.723l.58.58a.511.511 0 0 1-.36.873zM5.81 6.321a.51.51 0 0 1-.362-.15l-.58-.58a.511.511 0 1 1 .723-.724l.58.581a.511.511 0 0 1-.361.873zM22.573 3.167a.51.51 0 0 1-.468-.717l.33-.752a.511.511 0 0 1 .937.41l-.33.753a.512.512 0 0 1-.469.306zM10.096 31.608a.51.51 0 0 1-.468-.717l.33-.752a.511.511 0 0 1 .937.41l-.33.753a.512.512 0 0 1-.469.306zM31.097 23.415a.51.51 0 0 1-.206-.043l-.752-.33a.511.511 0 0 1 .41-.937l.753.33a.511.511 0 0 1-.205.98zM2.655 10.938a.51.51 0 0 1-.205-.043l-.752-.33a.511.511 0 0 1 .41-.937l.753.33a.511.511 0 0 1-.206.98zM30.584 11.517a.512.512 0 0 1-.186-.988l.766-.299a.511.511 0 0 1 .371.953l-.765.299a.51.51 0 0 1-.186.035zM1.65 22.805a.512.512 0 0 1-.185-.988l.765-.299a.511.511 0 1 1 .372.953l-.766.299a.51.51 0 0 1-.185.035zM22.294 31.861a.512.512 0 0 1-.477-.326l-.299-.765a.511.511 0 0 1 .953-.372l.299.766a.511.511 0 0 1-.476.697zM11.005 2.927a.512.512 0 0 1-.476-.325l-.299-.766a.511.511 0 1 1 .953-.371l.299.765a.511.511 0 0 1-.477.697z"/>
      </g>
      <path fill="#F4D451" d="M27.054 27.054c5.261-5.262 5.261-13.792 0-19.054L8 27.054c5.262 5.261 13.792 5.261 19.054 0z"/>
      <path fill="#FF901D" d="M20.552 28c-2.35 0-4.525-.652-6.29-1.886a9.613 9.613 0 0 1-3.616-4.806.31.31 0 0 0-.296-.207H9.036C8.465 21.1 8 20.65 8 20.095c0-.555.465-1.006 1.036-1.006h.785a.317.317 0 0 0 .228-.097.298.298 0 0 0 .083-.227 10.664 10.664 0 0 1 0-1.53.299.299 0 0 0-.083-.227.317.317 0 0 0-.228-.097h-.785c-.571 0-1.036-.45-1.036-1.006 0-.555.465-1.006 1.036-1.006h1.314a.31.31 0 0 0 .296-.207 9.614 9.614 0 0 1 3.615-4.806C16.027 8.652 18.203 8 20.551 8h.12c.423.005.805.2 1.048.537.244.337.302.753.162 1.142l-.036.096c-.182.503-.68.841-1.239.841h-.014c-2.634 0-5.057 1.472-6.324 3.84a.293.293 0 0 0 .01.297.312.312 0 0 0 .267.146h5.585c.32 0 .617.14.815.386a.978.978 0 0 1 .19.86c-.114.452-.527.767-1.005.767h-6.39a.308.308 0 0 0-.31.27 7.673 7.673 0 0 0 0 1.635c.016.155.15.272.31.272h5.346c.32 0 .618.14.815.385a.978.978 0 0 1 .19.861c-.113.451-.527.766-1.005.766h-4.541c-.11 0-.21.054-.267.146a.293.293 0 0 0-.01.296c1.267 2.37 3.69 3.841 6.324 3.841h.048c.596 0 1.117.366 1.295.91.131.4.061.825-.192 1.165-.253.34-.646.537-1.077.54l-.114.001z"/>
    </g>
    <g>
      <path fill="#F28FB8" fill-rule="nonzero" d="M1.425 138c-.09 0-.177-.002-.26-.006C.513 137.965 0 137.45 0 136.816v-.006c0-.642.528-1.157 1.188-1.179 1.127-.037 2.862-.435 4.336-2.231.082-.1.157-.201.226-.301-2.493-.52-3.995-1.35-4.58-2.52-.346-.695-.527-1.82.58-3.244.764-.98 1.864-1.458 3.02-1.308 1.467.19 2.85 1.365 3.524 2.993.305.738.445 1.498.425 2.252.699.07 1.41.115 2.097.13.634.013 1.176.497 1.184 1.114.008.64-.525 1.152-1.183 1.143a31.99 31.99 0 0 1-2.632-.183c-.217.462-.5.908-.847 1.331C5.14 137.488 2.851 138 1.425 138zm2.921-9.744c-.198 0-.46.075-.745.441-.18.231-.463.655-.343.896.27.543 1.519 1.01 3.125 1.334a3.349 3.349 0 0 0-.243-1.065c-.396-.957-1.143-1.528-1.677-1.597a.88.88 0 0 0-.117-.009z"/>
      <path fill="#FEA0C3" d="M74.815 131.59l-3.187-1.017a2.458 2.458 0 0 1-1.596-1.606C66.365 117.34 52.746 112 39.038 112 23.001 112 10 119.307 10 135.443c0 9.3 4.575 15.813 11.643 19.575a.65.65 0 0 1 .335.45l1.583 8.2A1.64 1.64 0 0 0 25.174 165h5.347a1.64 1.64 0 0 0 1.613-1.332l.865-4.56a.652.652 0 0 1 .72-.523c1.724.2 3.502.3 5.32.3 2.428 0 4.854-.179 7.223-.536a.653.653 0 0 1 .741.521l.911 4.798A1.64 1.64 0 0 0 49.527 165h5.347a1.64 1.64 0 0 0 1.612-1.332l1.645-8.682a.65.65 0 0 1 .341-.456c4.198-2.175 7.67-5.169 9.885-8.985a2.368 2.368 0 0 1 1.323-1.075l5.135-1.64A3.136 3.136 0 0 0 77 139.845v-5.27c0-1.362-.884-2.569-2.185-2.985z"/>
      <path fill="#FF8EBC" d="M76.6 133.727a3.155 3.155 0 0 0-.508-.682l-.012-.013a3.132 3.132 0 0 0-1.262-.772l-2.36-.759v2.787a8.076 8.076 0 0 1-5.462 7.65c-1.485.477-2.769 1.422-3.71 2.67a22.626 22.626 0 0 1-4.063 4.122c-1.819 1.437-3.046 3.494-3.396 5.79a93.62 93.62 0 0 0-.568 4.624 1.858 1.858 0 0 1-1.846 1.678h-3.849a1.64 1.64 0 0 1-1.61-1.34l-.91-4.824a.652.652 0 0 0-.74-.523 48.205 48.205 0 0 1-7.214.538c-1.815 0-3.59-.1-5.313-.301a.652.652 0 0 0-.718.526l-.865 4.585a1.64 1.64 0 0 1-1.61 1.339h-5.34a1.64 1.64 0 0 1-1.61-1.34l-1.581-8.245a.654.654 0 0 0-.335-.452c-6.414-3.438-10.771-9.16-11.514-17.193-.017.197-.033.396-.047.596v.012l-.004.06c-.012.179-.022.36-.03.542l-.01.228a29.195 29.195 0 0 0-.022 1.104c0 1.169.071 2.294.21 3.375.17 1.325.442 2.584.806 3.778l.062.194c.05.16.103.32.157.48l.066.19c.15.426.312.842.486 1.25l.056.129c.086.197.174.393.266.586l.046.095c.085.178.173.354.264.53l.046.09c.098.187.2.373.303.557l.069.12c.336.586.7 1.15 1.089 1.694l.112.155c.095.13.191.258.289.385l.115.15c.132.168.265.334.402.498l.004.005c.137.164.278.325.42.485l.13.144c.107.117.214.233.323.348l.132.138c.15.155.3.307.454.457l.001.001a21.465 21.465 0 0 0 1.625 1.43 23.168 23.168 0 0 0 2.338 1.638l.164.1c.143.086.287.172.431.256l.172.099c.195.11.39.22.59.326a.663.663 0 0 1 .208.178c.008.01.014.02.021.031a.645.645 0 0 1 .049.083l.016.035c.017.04.031.082.04.126l1.58 8.246a1.645 1.645 0 0 0 .477.88l.037.034a1.675 1.675 0 0 0 .22.168l.043.027c.046.027.092.053.14.075l.002.001a1.6 1.6 0 0 0 .148.06l.048.015a1.557 1.557 0 0 0 .278.062 1.688 1.688 0 0 0 .217.016h5.341a1.628 1.628 0 0 0 1.149-.471 1.644 1.644 0 0 0 .461-.868l.865-4.584a.653.653 0 0 1 .031-.11l.013-.03a.65.65 0 0 1 .038-.073l.016-.027a.652.652 0 0 1 .455-.282.638.638 0 0 1 .165-.004 43.307 43.307 0 0 0 1.084.111c.29.026.58.051.873.072h.005a45.665 45.665 0 0 0 1.105.065 47.077 47.077 0 0 0 4.992-.024l.095-.006c.28-.016.561-.035.841-.056l.02-.002a48.289 48.289 0 0 0 1.836-.175h.005c.28-.033.557-.067.835-.104.134-.018.268-.038.401-.057.147-.02.295-.04.442-.063a.647.647 0 0 1 .691.39l.005.01c.016.04.028.082.037.125l.454 2.412.455 2.413a1.64 1.64 0 0 0 1.61 1.339h5.342c.056 0 .11-.004.166-.01l.051-.006a1.655 1.655 0 0 0 .278-.063l.048-.015a1.68 1.68 0 0 0 .29-.136l.042-.027a1.603 1.603 0 0 0 .22-.168l.038-.034c.038-.036.075-.074.11-.115.013-.015.025-.032.038-.049a1.638 1.638 0 0 0 .249-.436c.034-.09.06-.183.079-.28l.36-1.913.374-1.989.234-1.246.674-3.583.06-.321.267-.133c.004.002.006.001.009 0l.005-.004c.128-.066.253-.137.38-.205.132-.071.266-.141.397-.215.114-.063.225-.13.337-.194.142-.082.284-.162.424-.245.115-.069.227-.14.34-.21.134-.083.27-.164.401-.249.119-.076.234-.154.35-.232.125-.082.25-.162.372-.246.116-.08.228-.161.342-.242.12-.085.242-.169.36-.255.11-.081.218-.165.327-.248.118-.09.238-.178.355-.27.105-.082.207-.168.311-.252.116-.094.234-.187.348-.283.105-.088.206-.18.31-.27.109-.095.22-.189.327-.286.1-.09.197-.184.295-.276.107-.099.215-.197.32-.299.095-.092.186-.188.28-.282.103-.104.208-.206.31-.312.091-.096.18-.195.27-.293.098-.107.198-.212.294-.32.088-.1.172-.201.257-.302.095-.11.19-.22.283-.331.083-.102.163-.207.244-.31.09-.115.182-.227.269-.343.08-.106.156-.215.234-.323.084-.116.17-.23.252-.348.076-.11.148-.224.222-.335.078-.119.16-.236.236-.356.094-.15.18-.305.276-.454.056-.089.108-.18.16-.27a2.315 2.315 0 0 1 1.291-1.054l.019-.006 2.616-.841 2.512-.808A3.15 3.15 0 0 0 77 140.561v-5.299a3.15 3.15 0 0 0-.4-1.535z"/>
      <path fill="#FBA2C7" d="M51.53 114.423a2.5 2.5 0 0 1 1.411-1.747c2.753-1.265 9.765-4.308 11.568-3.36 2.258 1.187 1.075 14.003-2.365 15.959-3.323 1.89-12.964.342-10.615-10.852z"/>
      <path fill="#E8679C" d="M61.982 134.84a3.709 3.709 0 0 1-3.698-3.712c0-.627.507-1.135 1.131-1.135.625 0 1.131.508 1.131 1.135a1.44 1.44 0 0 0 1.436 1.442 1.44 1.44 0 0 0 1.436-1.442c0-.627.506-1.135 1.13-1.135.625 0 1.131.508 1.131 1.135a3.708 3.708 0 0 1-3.697 3.712z"/>
      <path fill="#FEA0C3" d="M25.45 120.403c.163-.774 2.513-1.127 3.23-1.456 2.752-1.265 13.147-.219 14.95.73 2.258 1.186 2.69 6.623-.75 8.58-3.324 1.889-19.779 3.34-17.43-7.854z"/>
      <path fill="#E8679C" d="M45.36 121.006c-.12 0-.24-.019-.36-.058a30.235 30.235 0 0 0-19.126 0 1.13 1.13 0 0 1-1.431-.717 1.136 1.136 0 0 1 .714-1.437 32.502 32.502 0 0 1 20.56 0 1.136 1.136 0 0 1-.358 2.212z"/>
      <path fill="#FF7BAC" d="M63.905 111c-1.596 0-5.461 1.303-10.087 3.4a.843.843 0 0 0-.487.578c-.674 3.169-.314 5.72 1.043 7.375.158.194.332.376.52.547.218.198.57.087.642-.198C57.143 116.396 64.945 111 63.905 111z"/>
    </g>
    <g>
      <g transform="translate(18 80)">
        <circle cx="17.5" cy="17.5" r="17.5" fill="#FFB125"/>
        <path fill="#FF901D" d="M17.61 0c-.542 0-1.08.026-1.61.075C24.848.894 31.778 8.382 31.778 17.5S24.848 34.106 16 34.925c.53.049 1.068.075 1.61.075C27.216 35 35 27.165 35 17.5S27.215 0 17.61 0z"/>
        <g fill="#FEE570" transform="translate(1 1)">
          <circle cx="16.5" cy="16.5" r="13.632"/>
          <path d="M16.5 1.893a.511.511 0 0 1-.511-.51V.56a.511.511 0 1 1 1.022 0v.822a.511.511 0 0 1-.511.511zM16.5 32.951a.511.511 0 0 1-.511-.511v-.822a.511.511 0 1 1 1.022 0v.822a.511.511 0 0 1-.511.511zM32.44 17.011h-.822a.511.511 0 1 1 0-1.022h.822a.511.511 0 1 1 0 1.022zM1.382 17.011H.56a.511.511 0 1 1 0-1.022h.822a.511.511 0 1 1 0 1.022zM27.19 6.321a.51.51 0 0 1-.362-.873l.581-.58a.511.511 0 0 1 .724.723l-.581.58c-.1.1-.231.15-.362.15zM5.229 28.282a.51.51 0 0 1-.362-.872l.581-.581a.511.511 0 0 1 .724.723l-.582.58c-.1.1-.23.15-.361.15zM27.771 28.282a.51.51 0 0 1-.361-.15l-.582-.58a.511.511 0 1 1 .724-.723l.58.58a.511.511 0 0 1-.36.873zM5.81 6.321a.51.51 0 0 1-.362-.15l-.58-.58a.511.511 0 1 1 .723-.724l.58.581a.511.511 0 0 1-.361.873zM22.573 3.167a.51.51 0 0 1-.468-.717l.33-.752a.511.511 0 0 1 .937.41l-.33.753a.512.512 0 0 1-.469.306zM10.096 31.608a.51.51 0 0 1-.468-.717l.33-.752a.511.511 0 0 1 .937.41l-.33.753a.512.512 0 0 1-.469.306zM31.097 23.415a.51.51 0 0 1-.206-.043l-.752-.33a.511.511 0 0 1 .41-.937l.753.33a.511.511 0 0 1-.205.98zM2.655 10.938a.51.51 0 0 1-.205-.043l-.752-.33a.511.511 0 0 1 .41-.937l.753.33a.511.511 0 0 1-.206.98zM30.584 11.517a.512.512 0 0 1-.186-.988l.766-.299a.511.511 0 0 1 .371.953l-.765.299a.51.51 0 0 1-.186.035zM1.65 22.805a.512.512 0 0 1-.185-.988l.765-.299a.511.511 0 1 1 .372.953l-.766.299a.51.51 0 0 1-.185.035zM22.294 31.861a.512.512 0 0 1-.477-.326l-.299-.765a.511.511 0 0 1 .953-.372l.299.766a.511.511 0 0 1-.476.697zM11.005 2.927a.512.512 0 0 1-.476-.325l-.299-.766a.511.511 0 1 1 .953-.371l.299.765a.511.511 0 0 1-.477.697z"/>
        </g>
        <path fill="#F4D451" d="M27.054 27.054c5.261-5.262 5.261-13.792 0-19.054L8 27.054c5.262 5.261 13.792 5.261 19.054 0z"/>
      </g>
      <path fill="#FF901D" d="M42.759 106.143c-2.014 0-3.878-.56-5.392-1.617a8.24 8.24 0 0 1-3.1-4.12.266.266 0 0 0-.252-.177h-1.127a.876.876 0 0 1-.888-.862c0-.476.398-.863.888-.863h.673c.074 0 .145-.03.195-.082a.256.256 0 0 0 .071-.195 9.14 9.14 0 0 1 0-1.311.256.256 0 0 0-.07-.195.271.271 0 0 0-.196-.083h-.673a.876.876 0 0 1-.888-.862c0-.476.398-.862.888-.862h1.127a.266.266 0 0 0 .253-.178 8.24 8.24 0 0 1 3.099-4.12C38.88 89.56 40.745 89 42.759 89h.102c.363.004.69.171.898.46.209.29.26.646.139.979l-.03.083c-.157.43-.584.72-1.063.72h-.012c-2.257 0-4.335 1.262-5.42 3.292a.251.251 0 0 0 .008.255.267.267 0 0 0 .229.125h4.787c.275 0 .53.12.699.33.17.21.229.48.163.738a.881.881 0 0 1-.862.656H36.92c-.138 0-.252.1-.266.233a6.576 6.576 0 0 0 0 1.401.264.264 0 0 0 .265.233h4.583c.275 0 .53.12.7.33.169.21.228.479.162.738a.882.882 0 0 1-.862.656H37.61a.267.267 0 0 0-.229.125.251.251 0 0 0-.009.255c1.087 2.03 3.164 3.292 5.421 3.292h.041c.511 0 .957.313 1.11.78.113.343.053.707-.164.998-.217.291-.554.46-.923.464h-.098zM31.887 101.655a.913.913 0 0 1-.71.81.747.747 0 0 1-.496-.067c-.16-.08-.274-.234-.345-.464a2.07 2.07 0 0 1-.093-.776c.018-.27.027-.52.027-.75 0-.477.002-.952.006-1.425.005-.473-.015-.948-.06-1.425a.433.433 0 0 0-.026-.046.463.463 0 0 0-.053-.06 1.103 1.103 0 0 0-.65.04c-.23.08-.424.18-.583.305-.142.115-.28.272-.418.47-.137.2-.205.392-.205.577v1.83c0 .141.004.296.013.464.009.168.002.332-.02.49-.022.16-.073.306-.152.438a.694.694 0 0 1-.385.292.608.608 0 0 1-.272.04 1.155 1.155 0 0 1-.272-.067.585.585 0 0 1-.344-.271 1.342 1.342 0 0 1-.146-.411 2.007 2.007 0 0 1-.033-.425c.004-.137.006-.245.006-.325 0-.203-.002-.497-.006-.881a105.75 105.75 0 0 1-.007-1.214V96.71c0-.194.057-.355.172-.484a.805.805 0 0 1 .405-.252.854.854 0 0 1 .49.027.823.823 0 0 1 .431.351c.354-.23.743-.384 1.167-.464.424-.08.824-.066 1.2.04.376.106.69.305.942.597.252.291.382.694.39 1.206a3.97 3.97 0 0 1 .027.53v3.395z"/>
    </g>
  </g>
</svg>
