<svg xmlns="http://www.w3.org/2000/svg" width="160" height="153" viewBox="0 0 160 153">
    <g fill="none" fill-rule="evenodd">
        <path fill="#FFF" d="M133 47L81.5 17 30 47z"/>
        <path fill="#CDCDCD" d="M151 65.192V57h-22v8.192a2.741 2.741 0 0 0 2.75 2.731 2.741 2.741 0 0 1 2.75 2.73v43.693a2.741 2.741 0 0 1-2.75 2.73 2.741 2.741 0 0 0-2.75 2.732V128h22v-8.192a2.741 2.741 0 0 0-2.75-2.731 2.741 2.741 0 0 1-2.75-2.73V70.653a2.741 2.741 0 0 1 2.75-2.73 2.741 2.741 0 0 0 2.75-2.732M122 65.192V57h-22v8.192a2.741 2.741 0 0 0 2.75 2.731 2.741 2.741 0 0 1 2.75 2.73v43.693a2.741 2.741 0 0 1-2.75 2.73 2.741 2.741 0 0 0-2.75 2.732V128h22v-8.192a2.741 2.741 0 0 0-2.75-2.731 2.741 2.741 0 0 1-2.75-2.73V70.653a2.741 2.741 0 0 1 2.75-2.73 2.741 2.741 0 0 0 2.75-2.732M60 65.192V57H38v8.192a2.741 2.741 0 0 0 2.75 2.731 2.741 2.741 0 0 1 2.75 2.73v43.693a2.741 2.741 0 0 1-2.75 2.73 2.741 2.741 0 0 0-2.75 2.732V128h22v-8.192a2.741 2.741 0 0 0-2.75-2.731 2.741 2.741 0 0 1-2.75-2.73V70.653a2.741 2.741 0 0 1 2.75-2.73A2.741 2.741 0 0 0 60 65.191M31 65.192V57H9v8.192a2.741 2.741 0 0 0 2.75 2.731 2.741 2.741 0 0 1 2.75 2.73v43.693a2.741 2.741 0 0 1-2.75 2.73A2.741 2.741 0 0 0 9 119.809V128h22v-8.192a2.741 2.741 0 0 0-2.75-2.731 2.741 2.741 0 0 1-2.75-2.73V70.653a2.741 2.741 0 0 1 2.75-2.73A2.741 2.741 0 0 0 31 65.191"/>
        <path fill="#FFF" stroke="#4C4C4C" d="M1 140h158v12H1zM5 128h152v12H5zM157 59H5l5.429-12H151.57z"/>
        <path fill="#FFF" stroke="#4C4C4C" d="M35.403 31L30 46.893c0 .083.09.134.162.091L58 31H35.403zM105 31l27.838 15.984a.106.106 0 0 0 .162-.09L127.594 31H105zM81.67 17.364L105.256 31H124c0-16.364-18.86-30-42.33-30C58.199 1 39 14.636 39 31h19.086l23.585-13.636z"/>
    </g>
</svg>
