<?xml version="1.0" encoding="UTF-8"?>
<svg width="43px" height="32px" viewBox="0 0 43 32" version="1.1" xmlns="http://www.w3.org/2000/svg" xmlns:xlink="http://www.w3.org/1999/xlink">
    <g stroke="none" stroke-width="1" fill="none" fill-rule="evenodd">
        <g transform="translate(-895.000000, -327.000000)" fill="#142431">
            <g transform="translate(145.000000, 246.000000)">
                <g transform="translate(750.000000, 81.000000)">
                    <g id="ETH_EUR_icons">
                        <g id="EUR" transform="translate(0.000000, 2.169492)" fill-rule="nonzero">
                            <path d="M20.406549,26.3644068 C20.4496012,26.529056 20.4173123,26.7039952 20.3096825,26.8892252 C20.2020527,27.0744552 20.0406085,27.187651 19.8253498,27.2288136 C18.5768482,27.5169495 17.3283456,27.6610169 16.079844,27.6610169 C12.8509597,27.6610169 10.031067,26.7760294 7.62016704,25.0060533 C5.29537032,23.3184023 3.70245372,21.0750602 2.84141822,18.2760291 L0.774932242,18.2760291 C0.559673614,18.2760291 0.376702845,18.2039948 0.226021904,18.0599274 C0.0753409631,17.9158599 0,17.7409198 0,17.535109 L0,16.0532688 C0,15.8474579 0.0753409631,15.6725178 0.226021904,15.5284504 C0.376702845,15.3843829 0.559673614,15.3123487 0.774932242,15.3123487 L2.32479673,15.3123487 C2.19564135,14.4479419 2.17411578,13.4600484 2.26021904,12.3486683 L0.774932242,12.3486683 C0.559673614,12.3486683 0.376702845,12.2766341 0.226021904,12.1325666 C0.0753409631,11.9884991 0,11.813559 0,11.6077482 L0,10.125908 C0,9.92009717 0.0753409631,9.74515707 0.226021904,9.60108959 C0.376702845,9.45702211 0.559673614,9.38498789 0.774932242,9.38498789 L2.77684053,9.38498789 C3.63787603,6.62711833 5.28460704,4.37348637 7.71703357,2.62409201 C10.1494601,0.874697651 12.9370629,0 16.079844,0 C17.113087,0 18.1893821,0.102905883 19.3087284,0.308716707 C19.523987,0.349879249 19.6854312,0.45278419 19.793061,0.617433414 C19.9006908,0.782082638 19.9329797,0.987893462 19.8899275,1.23486683 L19.373306,3.02542373 C19.3302539,3.23123455 19.2226251,3.38559291 19.0504176,3.48849879 C18.8782101,3.59140467 18.6844771,3.62227634 18.4692184,3.5811138 C17.6081829,3.41646458 16.7901986,3.33414044 16.0152663,3.33414044 C13.8626771,3.33414044 11.9899242,3.87953964 10.3970076,4.97033898 C8.80409097,6.06113833 7.66321916,7.53268765 6.97439018,9.38498789 L17.113087,9.38498789 C17.3713978,9.38498789 17.5758941,9.47760291 17.726575,9.66283293 C17.877256,9.84806295 17.9310714,10.0435838 17.8880192,10.2493947 L17.5651308,11.7929782 C17.5220787,11.9576274 17.4252122,12.091404 17.2745312,12.1943099 C17.1238503,12.2972158 16.9624061,12.3486683 16.7901986,12.3486683 L6.32861331,12.3486683 C6.24251005,13.2130751 6.24251005,14.2009685 6.32861331,15.3123487 L15.886111,15.3123487 C16.1444217,15.3123487 16.348918,15.4049637 16.499599,15.5901937 C16.6502799,15.7754237 16.7040953,15.9709446 16.6610432,16.1767554 L16.3381548,17.6585956 C16.2951026,17.8644065 16.1982361,18.0187648 16.0475552,18.1216707 C15.8968742,18.2245766 15.73543,18.2760291 15.5632225,18.2760291 L7.23270092,18.2760291 C7.92152991,20.0871668 9.06240172,21.5381353 10.6553183,22.6289346 C12.2482349,23.719734 14.0779357,24.2651332 16.1444217,24.2651332 C17.0915614,24.2651332 18.0602267,24.1622273 19.0504176,23.9564165 C19.2226251,23.9152539 19.4055949,23.9461256 19.5993279,24.0490315 C19.793061,24.1519374 19.9114531,24.3062957 19.9545052,24.5121065 L20.406549,26.3644068 Z" id="E"></path>
                        </g>
                        <g id="ETH" transform="translate(24.187500, 0.000000)">
                            <path d="M9.4082311,0 L0,16.1047644 L9.4082311,21.8352941 L18.8125,16.1047644 L9.4082311,0 Z M9.40525976,24.1295393 L0,18.4470588 L9.40525976,32 L18.8125,18.4470588 L9.40525976,24.1295393 Z" id="Fill-1"></path>
                        </g>
                    </g>
                </g>
            </g>
        </g>
    </g>
</svg>
