<svg width="32" height="32" viewBox="0 0 32 32" fill="none" xmlns="http://www.w3.org/2000/svg">
<path d="M0 16C0 7.16344 7.16344 0 16 0V0C24.8366 0 32 7.16344 32 16V16C32 24.8366 24.8366 32 16 32V32C7.16344 32 0 24.8366 0 16V16Z" fill="#8A92B2"/>
<g opacity="0.6">
<path opacity="0.6" d="M15.9975 13.395L9.85922 16.1855L15.9975 19.8141L22.1369 16.1855L15.9975 13.395Z" fill="white"/>
</g>
<path opacity="0.45" d="M9.86237 16.1854L16.0006 19.814V13.3948V6L9.86237 16.1854Z" fill="white"/>
<path opacity="0.8" d="M16 6V13.3948V19.814L22.1382 16.1854L16 6Z" fill="white"/>
<path opacity="0.45" d="M9.85922 17.3498L15.9975 26V20.9761L9.85922 17.3498Z" fill="white"/>
<path opacity="0.8" d="M15.9977 20.9761V26L22.1406 17.3498L15.9977 20.9761Z" fill="white"/>
</svg>
