<svg width="32" height="32" viewBox="0 0 32 32" fill="none" xmlns="http://www.w3.org/2000/svg">
<path d="M0 16C0 7.16344 7.16344 0 16 0C24.8366 0 32 7.16344 32 16C32 24.8366 24.8366 32 16 32C7.16344 32 0 24.8366 0 16Z" fill="#142431"/>
<path d="M23.1111 10.9333V9.33332H21.5111V7.73332H19.9111V9.33332H18.2667V10.9333H19.8667V12.5333H18.2667V14.1333H19.8667V18.6667V20.1778L18.4 18.4444L9.15555 7.55554H8.88889V23.9555H10.5333V16.2222V11.5111L12.3556 13.6444L21.2 24.0889H21.4667V14.1333H23.0667V12.5333H21.4667V10.9333H23.1111Z" fill="white"/>
</svg>
