<?xml version="1.0" encoding="UTF-8"?>
<svg width="32px" height="32px" viewBox="0 0 32 32" version="1.1" xmlns="http://www.w3.org/2000/svg" xmlns:xlink="http://www.w3.org/1999/xlink">
    <defs>
        <polygon id="path-1" points="0 0.0605169327 10.357664 0.0605169327 10.357664 18.678456 0 18.678456"></polygon>
        <polygon id="path-3" points="0.038968 0.06556 16.5300165 0.06556 16.5300165 11.04 0.038968 11.04"></polygon>
    </defs>
    <g stroke="none" stroke-width="1" fill="none" fill-rule="evenodd">
        <g transform="translate(-901.000000, -476.000000)">
            <g transform="translate(145.000000, 246.000000)">
                <g transform="translate(750.000000, 81.000000)">
                    <g transform="translate(6.000000, 149.000000)">
                        <path d="M9.987024,26.693312 C9.088624,26.693312 8.327904,26.107712 8.062944,25.297792 C6.004944,25.012592 3.972384,24.478032 2.026304,23.697632 C4.381904,27.898032 8.585664,30.921872 13.536624,31.666192 C12.136304,30.178352 10.991184,28.503872 10.120784,26.686512 C10.076384,26.689472 10.032144,26.693312 9.987024,26.693312" id="Fill-1" fill="#142431"></path>
                        <g transform="translate(0.000000, 5.604400)">
                            <mask id="mask-2" fill="white">
                                <use xlink:href="#path-1"></use>
                            </mask>
                            <g id="Clip-4"></g>
                            <path d="M8.791984,17.431416 C8.335024,15.660776 8.106064,13.799496 8.122064,11.877976 C8.150224,8.499256 8.937424,5.127416 10.357664,2.013816 C10.124944,1.684136 9.987024,1.282776 9.987024,0.848536 C9.987024,0.774296 9.991584,0.701176 9.999344,0.629096 C7.952864,0.181976 5.839984,-0.008424 3.724624,0.082776 C1.400464,2.850296 -1.6e-05,6.419496 -1.6e-05,10.316216 C-1.6e-05,12.591176 0.478144,14.754136 1.337664,16.711736 C3.462384,17.684936 5.713664,18.342296 7.999584,18.678456 C8.097904,18.168136 8.388304,17.727496 8.791984,17.431416" id="Fill-3" fill="#142431" mask="url(#mask-2)"></path>
                        </g>
                        <path d="M13.082416,4.735888 C13.644416,5.087008 14.021456,5.704688 14.035376,6.412928 C17.264176,7.666128 20.213776,9.560928 22.609136,12.000608 C24.137456,13.557248 25.385536,15.276928 26.338336,17.111328 C26.472576,17.083328 26.611616,17.068208 26.754256,17.068208 C27.190736,17.068208 27.594016,17.207648 27.924656,17.442608 C29.363856,15.755008 30.497456,13.816448 31.274816,11.677008 C29.516016,5.300848 23.892256,0.528448 17.081696,0.039008 C15.548496,1.434368 14.206736,3.019648 13.082416,4.735888" id="Fill-6" fill="#142431"></path>
                        <path d="M12.012184,4.427768 C12.038584,4.427768 12.064184,4.430648 12.090344,4.431688 C13.110984,2.834568 14.311304,1.343208 15.671464,8e-06 C11.371464,0.066888 7.484904,1.837048 4.658024,4.666888 C6.581064,4.659448 8.494824,4.873288 10.354904,5.291208 C10.721224,4.769528 11.326344,4.427768 12.012184,4.427768" id="Fill-8" fill="#142431"></path>
                        <path d="M31.649488,13.407456 C30.856768,15.168496 29.824368,16.782336 28.578688,18.218816 C28.706048,18.483776 28.779408,18.779616 28.779408,19.093376 C28.779408,19.822736 28.392448,20.460176 27.813968,20.816736 C28.257648,22.369696 28.509488,23.975296 28.559808,25.610176 C30.621248,22.925856 31.847568,19.566736 31.847568,15.920576 C31.847568,15.065376 31.779328,14.226096 31.649488,13.407456" id="Fill-10" fill="#142431"></path>
                        <path d="M13.804208,7.39472 C13.465168,8.03856 12.790448,8.47808 12.012208,8.47808 C11.704368,8.47808 11.413728,8.40736 11.152448,8.28448 C9.861728,11.20048 9.146928,14.34272 9.120768,17.49072 C9.105888,19.27848 9.313648,21.01088 9.728528,22.66128 C9.813408,22.65048 9.899248,22.64304 9.987008,22.64304 C11.063008,22.64304 11.940448,23.48272 12.005808,24.54224 C14.785488,24.49504 17.536768,23.97384 20.095088,22.96408 C21.914368,22.24608 23.572608,21.306 25.044368,20.17536 C24.845808,19.86216 24.729088,19.49176 24.729088,19.09336 C24.729088,18.476 25.006208,17.92408 25.441888,17.55272 C24.535168,15.81176 23.348448,14.1792 21.896528,12.70024 C19.632368,10.39432 16.850688,8.59664 13.804208,7.39472" id="Fill-12" fill="#142431"></path>
                        <g transform="translate(11.040000, 20.804400)">
                            <mask id="mask-4" fill="white">
                                <use xlink:href="#path-3"></use>
                            </mask>
                            <g id="Clip-15"></g>
                            <path d="M15.820968,0.30868 C15.785368,0.31052 15.750248,0.31404 15.714248,0.31404 C15.361928,0.31404 15.030808,0.2238 14.742248,0.06556 C13.165848,1.29572 11.382248,2.31492 9.421848,3.08876 C6.687608,4.16796 3.741768,4.71364 0.770968,4.7394 C0.607688,5.07876 0.353688,5.3654 0.038968,5.56756 C1.029288,7.599 2.381768,9.43948 4.067528,11.0194 C4.337848,11.03308 4.610008,11.04004 4.883768,11.04004 C9.477048,11.04004 13.615208,9.09444 16.521448,5.98348 C16.579608,4.04396 16.341208,2.13828 15.820968,0.30868" id="Fill-14" fill="#142431" mask="url(#mask-4)"></path>
                        </g>
                    </g>
                </g>
            </g>
        </g>
    </g>
</svg>
