<?xml version="1.0" encoding="UTF-8"?>
<svg width="32px" height="32px" viewBox="0 0 32 32" version="1.1" xmlns="http://www.w3.org/2000/svg" xmlns:xlink="http://www.w3.org/1999/xlink">
    <g stroke="none" stroke-width="1" fill="none" fill-rule="evenodd">
        <g transform="translate(-901.000000, -399.000000)" fill="#142431">
            <g transform="translate(145.000000, 246.000000)">
                <g transform="translate(750.000000, 81.000000)">
                    <g transform="translate(6.000000, 72.000000)">
                        <path d="M19.6290596,19.8492544 C19.6290596,18.2825344 20.3594949,16.994123 21.523279,16.2816658 L22.3692981,15.8927287 C22.7955132,15.7536658 23.2580289,15.6782373 23.7487182,15.6782373 L28.982812,15.6782373 L28.982812,9.9737344 C28.982812,8.72056868 27.9221051,7.7007744 26.6185369,7.7007744 L-4.54747351e-13,7.7007744 L-4.54747351e-13,31.9976887 L26.6185369,31.9976887 C27.9221051,31.9976887 28.982812,30.9780315 28.982812,29.7246373 L28.982812,24.0203173 L23.7487182,24.0203173 C21.3634483,24.0203173 19.6290596,22.2644773 19.6290596,19.8492544" id="Fill-2"></path>
                        <path d="M22.8151083,0.87810011 C22.4385129,0.0379172532 21.2618159,-0.250357033 20.1999802,0.237414396 L6.28518377,6.63334582 L25.3957418,6.63334582 L22.8151083,0.87810011" id="Fill-3"></path>
                        <path d="M24.9826201,21.4264887 C24.1479788,21.4327058 23.4662603,20.7533001 23.4600748,19.9082258 C23.4535732,19.0634258 24.1251781,18.3727744 24.9595485,18.3665115 C25.7938737,18.3597915 26.4757728,19.0399744 26.4822744,19.8848201 C26.4890018,20.7300773 25.8169905,21.4202715 24.9826201,21.4264887 Z M24.1090145,16.6386944 C22.3579203,16.6386944 20.9382716,18.0761801 20.9382716,19.8492544 C20.9382716,21.6223744 22.3579203,23.0598601 24.1090145,23.0598601 L31.6191153,23.0598601 L31.6191153,16.6386944 L24.1090145,16.6386944 L24.1090145,16.6386944 Z" id="Fill-4"></path>
                    </g>
                </g>
            </g>
        </g>
    </g>
</svg>
