<?xml version="1.0" encoding="UTF-8"?>
<svg width="118px" height="118px" viewBox="0 0 118 118" version="1.1" xmlns="http://www.w3.org/2000/svg" xmlns:xlink="http://www.w3.org/1999/xlink">
    <!-- Generator: Sketch 50.2 (55047) - http://www.bohemiancoding.com/sketch -->
    <title>thoughts</title>
    <desc>Created with Sketch.</desc>
    <defs></defs>
    <g id="Preview-of-ETO's" stroke="none" stroke-width="1" fill="none" fill-rule="evenodd">
        <g id="LP_ETO_V3" transform="translate(-1207.000000, -1665.000000)" fill="#FFFFFF" fill-rule="nonzero" stroke="#000000">
            <g id="Group-4" transform="translate(1208.000000, 1666.000000)">
                <g id="thoughts" transform="translate(58.000000, 58.000000) scale(-1, 1) translate(-58.000000, -58.000000) ">
                    <path d="M107.004942,41.2155479 C109.489606,37.6168933 110.828889,33.3393465 110.828889,28.8603501 C110.828889,16.9599574 101.293343,7.27848356 89.5724274,7.27848356 C85.7230325,7.27848356 81.9535846,8.34655547 78.6780069,10.3306402 C72.5295145,3.72830494 64.0677368,0 55.0087207,0 C37.0150007,0 22.376355,14.8633718 22.376355,33.1335523 C22.376355,36.1230561 22.7686586,39.0684284 23.5451586,41.9266812 C15.9256401,45.9174881 11,53.9478065 11,62.8369726 C11,75.811611 21.3955959,86.3670242 34.1738396,86.3670242 C37.2291687,86.3670242 40.2545459,85.7503276 43.0603501,84.5672396 C47.4137494,89.2707804 53.5476036,92.0099012 59.9640876,92.0099012 C64.0143637,92.0099012 67.9274911,90.9550916 71.4068775,88.9408237 C75.9208465,91.6031147 81.0219198,93 86.2923457,93 C102.673162,93 116,79.4688026 116,62.8369726 C116,54.5789087 112.759329,46.8742025 107.004942,41.2155479 Z" id="Shape"></path>
                    <circle id="Oval" cx="3.5" cy="112.5" r="3.5"></circle>
                    <circle id="Oval" cx="26.5" cy="103.5" r="3.5"></circle>
                </g>
            </g>
        </g>
    </g>
</svg>