<svg xmlns="http://www.w3.org/2000/svg" width="14" height="13" viewBox="0 0 14 13">
    <g fill="#656B72" fill-rule="nonzero">
        <path d="M13.576 6.322c-.223 0-.4.178-.4.4v3.643c0 .99-.807 1.795-1.795 1.795H2.595c-.99 0-1.794-.807-1.794-1.795V6.663c0-.222-.178-.4-.4-.4-.223 0-.401.178-.401.4v3.702a2.598 2.598 0 0 0 2.595 2.595h8.786a2.598 2.598 0 0 0 2.595-2.595V6.723a.4.4 0 0 0-.4-.4z"/>
        <path d="M6.706 9.78a.39.39 0 0 0 .564 0l2.545-2.544a.4.4 0 0 0 0-.567.4.4 0 0 0-.567 0l-1.86 1.863V.408c0-.223-.177-.4-.4-.4-.222 0-.4.177-.4.4v8.124L4.725 6.669a.4.4 0 0 0-.567 0 .4.4 0 0 0 0 .567L6.706 9.78z"/>
    </g>
</svg>
