<?xml version="1.0" encoding="UTF-8"?>
<svg xmlns="http://www.w3.org/2000/svg" viewBox="0 0 16 16">
  <path fill="#C4C5C6" fill-rule="nonzero" d="M15.125 0c.104 0 .193.036.266.11.073.072.109.16.109.265v5a.362.362 0 01-.11.266.362.362 0 01-.265.109h-5a.362.362 0 01-.266-.11.362.362 0 01-.109-.265v-.313c0-.104.036-.192.11-.265a.362.362 0 01.265-.11h3.562a6.54 6.54 0 00-2.437-2.64 6.532 6.532 0 00-3.5-.985 6.52 6.52 0 00-3.25.844 6.737 6.737 0 00-2.422 2.297 6.532 6.532 0 00-1.016 3.203.328.328 0 01-.109.235.362.362 0 01-.266.109H.375a.362.362 0 01-.266-.11A.401.401 0 010 7.345a7.813 7.813 0 011.172-3.688A7.65 7.65 0 013.969.984 7.646 7.646 0 017.78 0c1.375 0 2.656.349 3.844 1.047a7.785 7.785 0 012.812 2.797V.375c0-.104.037-.193.11-.266A.362.362 0 0114.812 0h.313zm0 7.75c.104 0 .193.036.266.11.073.072.109.171.109.296a7.813 7.813 0 01-1.172 3.688 7.65 7.65 0 01-2.797 2.672 7.646 7.646 0 01-3.812.984 7.456 7.456 0 01-3.844-1.047 7.785 7.785 0 01-2.813-2.797v3.469a.362.362 0 01-.109.266.362.362 0 01-.266.109H.375a.362.362 0 01-.266-.11.362.362 0 01-.109-.265v-5c0-.104.036-.193.11-.266a.362.362 0 01.265-.109h5c.104 0 .193.036.266.11.073.072.109.16.109.265v.312a.362.362 0 01-.11.266.362.362 0 01-.265.11H1.812a6.54 6.54 0 002.438 2.64 6.532 6.532 0 003.5.984 6.52 6.52 0 003.25-.843 6.737 6.737 0 002.422-2.297 6.532 6.532 0 001.015-3.203c0-.084.037-.162.11-.235a.362.362 0 01.265-.109h.313z"/>
</svg>
