<svg width="16" height="16" viewBox="0 0 16 16" fill="none" xmlns="http://www.w3.org/2000/svg">
<g clip-path="url(#clip0)">
<g clip-path="url(#clip1)">
<path d="M8 0.5C12.142 0.5 15.5 3.85801 15.5 8C15.5 12.142 12.142 15.5 8 15.5C3.85801 15.5 0.5 12.142 0.5 8C0.5 3.85801 3.85801 0.5 8 0.5Z" fill="#F9FAFB" stroke="#F9FAFB" stroke-width="1.5" stroke-linecap="round" stroke-linejoin="round"/>
<path d="M5.5 6.5H10.5C11.052 6.5 11.5 6.948 11.5 7.5V11.5C11.5 12.052 11.052 12.5 10.5 12.5H5.5C4.948 12.5 4.5 12.052 4.5 11.5V7.5C4.5 6.948 4.948 6.5 5.5 6.5Z" stroke="#142431" stroke-width="1.5" stroke-linecap="round" stroke-linejoin="round"/>
<path d="M8 8.75C7.586 8.75 7.25 9.086 7.25 9.5C7.25 9.914 7.586 10.25 8 10.25C8.41399 10.25 8.74999 9.914 8.74999 9.5C8.75199 9.086 8.41799 8.752 8.004 8.75C8.002 8.75 8.002 8.75 8 8.75Z" fill="#142431"/>
<path d="M5.5 6.5V5C5.5 3.61933 6.61933 2.5 8 2.5C9.38067 2.5 10.5 3.61933 10.5 5V6.5" stroke="#142431" stroke-width="1.5" stroke-linecap="round" stroke-linejoin="round"/>
</g>
</g>
<defs>
<clipPath id="clip0">
<rect width="16" height="16" fill="white"/>
</clipPath>
<clipPath id="clip1">
<rect width="16" height="16" fill="white"/>
</clipPath>
</defs>
</svg>
