<svg xmlns="http://www.w3.org/2000/svg" width="96" height="23">
  <g fill="none">
    <path fill="#F95602"
          d="M25.742 18.812V4.628c0-.46.17-.852.512-1.174A1.747 1.747 0 0127.5 2.97h1.708v15.842h-3.465m4.95 0V4.628c0-.46.16-.852.48-1.174a1.584 1.584 0 011.169-.484h4.532c2.41 0 4.21.645 5.4 1.934 1.19 1.352 1.786 3.347 1.786 5.987 0 1.412-.214 2.686-.641 3.822-.489 1.167-1.13 2.057-1.923 2.67a6.234 6.234 0 01-2.151 1.106c-.733.216-1.847.323-3.342.323h-5.31zm2.97-2.476h2.617c1.499 0 2.6-.405 3.305-1.217.672-.75 1.01-2.06 1.01-3.934 0-1.81-.322-3.137-.965-3.98-.612-.844-1.591-1.265-2.937-1.265h-3.03v10.396zM10.659.018L10.24 0H7.426v5.405h3.232c2.978 0 5.401 2.498 5.401 5.567 0 1.616-.676 3.07-1.747 4.088l1.915 5.237c3.034-1.932 5.06-5.388 5.06-9.325 0-6.04-4.769-10.954-10.629-10.954"/>
    <path fill="#60605B"
          d="M56.435 18.812h-1.569c-.448 0-.814-.15-1.098-.45-.284-.3-.425-.686-.425-1.16v-6.435c0-.757-.217-1.308-.65-1.656a2.275 2.275 0 00-1.456-.52 2.183 2.183 0 00-1.434.52c-.419.348-.628.899-.628 1.656v8.045H46.04v-7.383c0-2.145.53-3.58 1.59-4.306a6.704 6.704 0 013.519-1.183 6.48 6.48 0 013.629 1.09c1.105.725 1.658 2.192 1.658 4.4v7.382m3.297-1.343c-.65-.557-1.115-1.308-1.394-2.252a10.354 10.354 0 01-.418-2.95c0-.836.116-1.672.348-2.508.232-.836.596-1.532 1.092-2.09.806-.929 1.843-1.478 3.114-1.648 1.27-.17 2.417-.07 3.439.302 1.177.464 2.045 1.27 2.603 2.414.526 1.022.79 2.215.79 3.577 0 .991-.11 1.842-.326 2.554-.217.713-.496 1.317-.836 1.812-.744 1.021-1.69 1.656-2.835 1.903a6.328 6.328 0 01-3.09.07c-1.039-.232-1.867-.627-2.487-1.184zm2.028-8.43c-.635.703-.923 1.749-.862 3.138.06 1.39.317 2.358.771 2.907.181.245.499.45.952.62a2.16 2.16 0 001.383.045c.469-.138.884-.481 1.247-1.031.362-.55.56-1.435.59-2.656 0-1.099-.175-1.923-.522-2.473-.348-.55-.748-.9-1.202-1.053a2.186 2.186 0 00-1.36-.023c-.454.138-.786.314-.997.527zm21.038 9.277h-3.201l-1.876-8.84-1.875 8.84h-3.202L69.306 5.94h3.11l1.92 8.561 1.738-8.56h3.247l1.647 8.56 1.693-7.444c.182-.744.67-1.117 1.463-1.117h2.013l-3.339 12.376M0 5.446h5.445V0H0v5.445zm12.512 10.56c-.59.23-1.226.362-1.892.362a5.2 5.2 0 01-1.892-.362 5.37 5.37 0 01-1.76-1.125 5.668 5.668 0 01-1.745-4.108V7.426H0v3.347c0 .15.005.297.01.445.148 3.807 2.127 7.082 5.04 8.938a10.366 10.366 0 005.57 1.626c1.314 0 2.573-.25 3.736-.706l-1.844-5.07M23.267 0h.495v21.782h-.495V0z"/>
  </g>
</svg>
