<?xml version="1.0" encoding="UTF-8"?>
<svg width="84px" height="80px" viewBox="0 0 84 80" version="1.1" xmlns="http://www.w3.org/2000/svg" xmlns:xlink="http://www.w3.org/1999/xlink">
    <!-- Generator: Sketch 48.2 (47327) - http://www.bohemiancoding.com/sketch -->
    <title>Group 4</title>
    <desc>Created with Sketch.</desc>
    <defs></defs>
    <g id="regstrationexsting-wallet_Start" stroke="none" stroke-width="1" fill="none" fill-rule="evenodd" transform="translate(-645.000000, -461.000000)">
        <g id="browser" transform="translate(645.500000, 463.000000)">
            <g id="Page-1">
                <g id="Group-4">
                    <rect id="Rectangle-2" fill="#E3EAF5" x="3" y="7" width="70" height="70"></rect>
                    <path d="M71.0293874,19.7765401 L36.6627682,19.7765401 L2.29614907,19.7765401 L2.29614907,7.30879389 L36.6627682,7.30879389 L71.0293874,7.30879389 L71.0293874,19.7765401 Z M71.0293874,75.1890334 L36.6627682,75.1890334 L2.29614907,75.1890334 L2.29614907,22.085478 L36.6627682,22.085478 L71.0293874,22.085478 L71.0293874,75.1890334 Z M72.1775335,5 L36.6627682,5 L1.14814614,5 C0.513994825,5 0,5.51682538 0,6.15432494 L0,20.931009 L0,76.3435023 C0,76.9810019 0.513994825,77.4978273 1.14814614,77.4978273 L36.6627682,77.4978273 L72.1775335,77.4978273 C72.8113984,77.4978273 73.3255365,76.9811459 73.3255365,76.3435023 L73.3255365,20.931009 L73.3255365,6.15432494 C73.3255365,5.51682538 72.8115416,5 72.1775335,5 Z" id="Fill-1" stroke="#406483" fill="#406483" stroke-linecap="round" stroke-linejoin="round"></path>
                    <path d="M27.0085676,15.5841791 C26.8288962,15.5841791 26.6521702,15.5539577 26.483128,15.4941551 C26.4829999,15.4941551 26.4829999,15.4941551 26.4828719,15.4941551 C25.8547263,15.2718484 25.432633,14.6747193 25.432633,14.0083115 C25.432633,13.3419037 25.8545982,12.7450307 26.4829999,12.5225959 C26.4829999,12.5225959 26.483128,12.5225959 26.4832561,12.5224679 C26.6521702,12.4627934 26.8288962,12.432572 27.0085676,12.432572 C27.8775984,12.432572 28.5845023,13.1394458 28.5845023,14.0083115 C28.5845023,14.8771772 27.8774703,15.5841791 27.0085676,15.5841791 M27.0085676,11 C26.6658729,11 26.3284287,11.0577536 26.0058398,11.1718523 C26.0050714,11.1721084 26.0044311,11.1726206 26.0035347,11.1727487 C24.8051277,11.5975133 24,12.736707 24,14.0084396 C24,15.2800441 24.8051277,16.4192378 26.0035347,16.8441304 C26.0043031,16.8443865 26.0049434,16.8447707 26.0057117,16.8450268 C26.3284287,16.9591255 26.6657448,17.0170072 27.0084396,17.0170072 C28.6673586,17.0170072 30.0170072,15.667416 30.0170072,14.0085676 C30.0170072,12.3498472 28.6674867,11 27.0085676,11" id="Fill-4" fill="#406483"></path>
                    <path d="M18.0084396,15.5843742 C17.1395368,15.5843742 16.4325049,14.8773423 16.4325049,14.0084396 C16.4325049,13.1395368 17.1395368,12.432633 18.0084396,12.432633 C18.8774703,12.432633 19.5843742,13.1395368 19.5843742,14.0084396 C19.5843742,14.8773423 18.8773423,15.5843742 18.0084396,15.5843742 M18.0084396,11 C16.3495205,11 15,12.3496486 15,14.0084396 C15,15.6672305 16.3496486,17.0170072 18.0084396,17.0170072 C19.6673586,17.0170072 21.0170072,15.6673586 21.0170072,14.0084396 C21.0170072,12.3495205 19.6673586,11 18.0084396,11" id="Fill-6" fill="#406483"></path>
                    <path d="M9.00856762,15.5843742 C8.13953685,15.5843742 7.43263295,14.8773423 7.43263295,14.0084396 C7.43263295,13.1395368 8.13953685,12.432633 9.00856762,12.432633 C9.87747033,12.432633 10.5845023,13.1395368 10.5845023,14.0084396 C10.5845023,14.8773423 9.87747033,15.5843742 9.00856762,15.5843742 M9.00856762,11 C7.34964858,11 6,12.3496486 6,14.0084396 C6,15.6672305 7.34964858,17.0170072 9.00856762,17.0170072 C10.6673586,17.0170072 12.0170072,15.6673586 12.0170072,14.0084396 C12.0170072,12.3495205 10.6674867,11 9.00856762,11" id="Fill-8" fill="#406483"></path>
                    <path d="M67.4821976,13.7410988 C67.4821976,11.6748739 65.8073237,10 63.7410988,10 C61.6750166,10 60,11.6748739 60,13.7410988 C60,15.8073237 61.6750166,17.4821976 63.7410988,17.4821976 C65.8073237,17.4821976 67.4821976,15.8073237 67.4821976,13.7410988" id="Fill-10" fill="#00B7FF"></path>
                    <circle id="Oval" stroke="#406483" stroke-width="3" fill="#00B7FF" cx="68.5" cy="13.5" r="13.5"></circle>
                    <path d="M74.9258588,9.17848824 L66.7731351,18.3502361 L61.8615554,14.4210784 C61.6334553,14.2380678 61.2987316,14.2757309 61.1162515,14.503831 C60.9332409,14.7329921 60.9703735,15.0666549 61.1990041,15.2496655 L66.5036587,19.4933891 C66.6012643,19.5713676 66.7184972,19.6095611 66.8351996,19.6095611 C66.9816081,19.6095611 67.1274861,19.549088 67.2319878,19.4313247 L75.7194352,9.88294637 C75.914116,9.6643946 75.8944888,9.32860997 75.6754065,9.13445961 C75.4557938,8.93924832 75.1210701,8.95887554 74.9258588,9.17848824 Z" id="Shape" stroke="#FFFFFF" fill="#FFFFFF" fill-rule="nonzero"></path>
                </g>
            </g>
        </g>
    </g>
</svg>