<?xml version="1.0" encoding="UTF-8"?>
<svg width="163px" height="106px" viewBox="0 0 163 106" version="1.1" xmlns="http://www.w3.org/2000/svg" xmlns:xlink="http://www.w3.org/1999/xlink">
    <!-- Generator: Sketch 48.2 (47327) - http://www.bohemiancoding.com/sketch -->
    <title>Group 6</title>
    <desc>Created with Sketch.</desc>
    <defs></defs>
    <g id="regstration_ledger_start_error" stroke="none" stroke-width="1" fill="none" fill-rule="evenodd" transform="translate(-317.000000, -427.000000)">
        <g id="Group-6" transform="translate(317.000000, 428.000000)">
            <g id="ledger1">
                <polygon id="Fill-1" fill="#FFFFFF" points="53.456 73.27 67.456 73.27 67.456 67.27 53.456 67.27"></polygon>
                <polygon id="Fill-2" fill="#FFFFFF" points="93.456 75.27 107.456 75.27 107.456 67.27 93.456 67.27"></polygon>
                <g id="Group-21" transform="translate(0.000000, 0.270000)">
                    <path d="M157.5583,71 L43.3543,71 C41.7533,71 40.4563,72.297 40.4563,73.898 L40.4563,100.103 C40.4563,101.702 41.7533,103 43.3543,103 L157.5583,103 C159.1593,103 160.4563,101.702 160.4563,100.103 L160.4563,73.898 C160.4563,72.297 159.1593,71 157.5583,71" id="Fill-3" fill="#FFFFFF"></path>
                    <path d="M157.5583,71 L43.3543,71 C41.7533,71 40.4563,72.297 40.4563,73.898 L40.4563,100.103 C40.4563,101.702 41.7533,103 43.3543,103 L157.5583,103 C159.1593,103 160.4563,101.702 160.4563,100.103 L160.4563,73.898 C160.4563,72.297 159.1593,71 157.5583,71 Z" id="Stroke-5" stroke="#C4C5C6" stroke-width="2"></path>
                    <path d="M158.1682,75.7236 L103.7002,0.1186 L77.5742,18.5956 L132.0422,94.2016 C137.1442,101.4156 147.1292,103.1276 154.3432,98.0256 L154.3442,98.0256 C161.5582,92.9226 163.2712,82.9386 158.1682,75.7236" id="Fill-7" fill="#FFFFFF"></path>
                    <path d="M158.1682,75.7236 L103.7002,0.1186 L77.5742,18.5956 L132.0422,94.2016 C137.1442,101.4156 147.1292,103.1276 154.3432,98.0256 L154.3442,98.0256 C161.5582,92.9226 163.2712,82.9386 158.1682,75.7236 Z" id="Stroke-9" stroke="#C4C5C6" stroke-width="2"></path>
                    <path d="M153.8488,83.3164 C153.7848,78.0704 149.4788,73.8694 144.2328,73.9334 C138.9868,73.9984 134.7858,78.3034 134.8498,83.5494 C134.9148,88.7954 139.2198,92.9974 144.4658,92.9324 C149.7128,92.8684 153.9128,88.5624 153.8488,83.3164 Z" id="Stroke-11" stroke="#C4C5C6" stroke-width="2"></path>
                    <polyline id="Stroke-13" stroke="#C4C5C6" stroke-width="2" points="66.9563 71 66.9563 66.5 53.4563 66.5 53.4563 71"></polyline>
                    <polyline id="Stroke-15" stroke="#C4C5C6" stroke-width="2" points="106.9563 71 106.9563 66.5 93.4563 66.5 93.4563 71"></polyline>
                    <polygon id="Fill-17" fill="#FFFFFF" points="49.456 95 115.456 95 115.456 78 49.456 78"></polygon>
                    <polygon id="Stroke-19" stroke="#C4C5C6" stroke-width="2" points="49.456 95 115.456 95 115.456 78 49.456 78"></polygon>
                    <path d="M27.3884,95.0195 L27.3884,91.3685 C27.3884,91.1955 27.3194,91.0295 27.1974,90.9075 C27.0754,90.7845 26.9094,90.7155 26.7364,90.7155 L23.0844,90.7155 C22.7244,90.7155 22.4324,91.0075 22.4324,91.3685 L22.4324,92.0205 L19.8904,92.0205 L16.7344,89.1515 L28.6924,89.1515 L28.6924,90.0635 C28.6924,90.2905 28.8094,90.4995 29.0014,90.6185 C29.1944,90.7375 29.4344,90.7485 29.6364,90.6475 L33.8094,88.5605 C34.0304,88.4505 34.1704,88.2235 34.1704,87.9765 C34.1704,87.7305 34.0304,87.5035 33.8094,87.3935 L29.6364,85.3065 C29.4344,85.2065 29.1944,85.2165 29.0014,85.3355 C28.8094,85.4545 28.6924,85.6645 28.6924,85.8905 L28.6924,86.8025 L13.8114,86.8035 C13.7544,86.7965 13.6974,86.7945 13.6394,86.7965 C13.6324,86.7975 13.6254,86.7975 13.6174,86.7985 C13.6014,86.7995 13.5844,86.8015 13.5674,86.8035 L12.5574,86.8035 L15.7134,83.9335 L18.0034,83.9335 C18.4494,84.8755 19.4044,85.4985 20.4764,85.4985 C21.2074,85.4985 21.8954,85.2135 22.4124,84.6975 C22.9304,84.1795 23.2154,83.4925 23.2154,82.7595 C23.2154,82.0285 22.9304,81.3405 22.4124,80.8235 C21.8954,80.3065 21.2074,80.0215 20.4764,80.0215 C19.4044,80.0215 18.4494,80.6445 18.0034,81.5855 L15.2594,81.5865 C14.9654,81.5865 14.6834,81.6965 14.4684,81.8925 L9.0664,86.8035 L7.3774,86.8035 C6.8784,85.2625 5.4454,84.1945 3.7824,84.1945 C2.7724,84.1955 1.8224,84.5875 1.1074,85.3025 C0.3934,86.0165 0.0004,86.9665 0.0004,87.9775 C-0.0006,88.9875 0.3934,89.9375 1.1074,90.6515 C1.8224,91.3665 2.7724,91.7585 3.7824,91.7585 C5.4454,91.7595 6.8784,90.6905 7.3764,89.1505 L9.3614,89.1505 C9.4574,89.1635 9.5544,89.1635 9.6514,89.1505 L13.2404,89.1505 L18.6394,94.0595 C18.8564,94.2575 19.1384,94.3675 19.4324,94.3685 L22.4324,94.3685 L22.4324,95.0195 C22.4324,95.3795 22.7244,95.6715 23.0844,95.6715 L26.7364,95.6715 C26.9094,95.6715 27.0754,95.6035 27.1974,95.4805 C27.3194,95.3585 27.3884,95.1925 27.3884,95.0195" id="Fill-20" fill="#C4C5C6"></path>
                </g>
            </g>
        </g>
    </g>
</svg>