<?xml version="1.0" encoding="UTF-8"?>
<svg width="122px" height="111px" viewBox="0 0 122 111" version="1.1" xmlns="http://www.w3.org/2000/svg" xmlns:xlink="http://www.w3.org/1999/xlink">
  <!-- Generator: Sketch 48.2 (47327) - http://www.bohemiancoding.com/sketch -->
  <title>Slice 1</title>
  <desc>Created with Sketch.</desc>
  <defs></defs>
  <g id="Page-1" stroke="none" stroke-width="1" fill="none" fill-rule="evenodd">
    <g id="3" transform="translate(1.000000, 0.000000)">
      <text id="ok" fill="#656B72" font-family=".AppleSystemUIFont" font-size="14" font-weight="normal">
        <tspan x="51.7138672" y="14">ok</tspan>
      </text>
      <path d="M51,46 L51,28" id="Line" stroke="#D8D8D8" stroke-linecap="square"></path>
      <polyline id="Line-decoration-1" stroke="#D8D8D8" stroke-linecap="square" points="54 35.2 51 46 48 35.2"></polyline>
      <path d="M67,46 L67,28" id="Line" stroke="#D8D8D8" stroke-linecap="square"></path>
      <polyline id="Line-decoration-1" stroke="#D8D8D8" stroke-linecap="square" points="70 35.2 67 46 64 35.2"></polyline>
      <path d="M48.5,20.5 L69.5950231,20.5" id="Line-3" stroke="#D8D8D8" stroke-width="2" stroke-linecap="square"></path>
      <g id="Page-1" transform="translate(0.000000, 71.000000)" stroke="#C4C5C6">
        <g id="Group-16" transform="translate(0.000000, 0.250000)">
          <path d="M117.1025,6 L2.8975,6 C1.2975,6 -0.0005,7.298 -0.0005,8.897 L-0.0005,35.103 C-0.0005,36.702 1.2975,38 2.8975,38 L117.1025,38 C118.7025,38 119.9995,36.702 119.9995,35.103 L119.9995,8.897 C119.9995,7.298 118.7025,6 117.1025,6 Z" id="Stroke-5" stroke-width="2"></path>
          <polyline id="Stroke-7" stroke-width="2" points="25.625 5.25 25.625 0.75 12.125 0.75 12.125 5.25"></polyline>
          <polyline id="Stroke-9" stroke-width="2" points="107.625 5.25 107.625 0.75 94.125 0.75 94.125 5.25"></polyline>
          <polygon id="Stroke-13" stroke-width="2.431" points="11.25 30.5 108.75 30.5 108.75 13.5 11.25 13.5"></polygon>
          <polyline id="Stroke-14" points="15.4145019 19.2497 19.2500663 25.5067 22.9901166 19.2497"></polyline>
        </g>
      </g>
      <text id="Browser-Support" fill="#656B72" font-family="Helvetica-Bold, Helvetica" font-size="7" font-weight="bold">
        <tspan x="28" y="96">Browser Support </tspan>
      </text>
    </g>
    <polyline id="Stroke-14" stroke="#C4C5C6" transform="translate(100.787807, 95.128500) rotate(180.000000) translate(-100.787807, -95.128500) " points="97 92 100.835564 98.257 104.575615 92"></polyline>
  </g>
</svg>
