<svg xmlns="http://www.w3.org/2000/svg" xmlns:xlink="http://www.w3.org/1999/xlink" width="163" height="106" viewBox="0 0 163 106">
    <defs>
        <path id="a" d="M0 106h162.106V.73H0z"/>
    </defs>
    <g fill="none" fill-rule="evenodd">
        <path fill="#E3EAF5" d="M53.456 74.27h14v-6h-14zM93.456 76.27h14v-8h-14z"/>
        <g transform="translate(0 -.73)">
            <path fill="#E3EAF5" d="M157.558 73H43.354a2.897 2.897 0 0 0-2.898 2.898v26.205A2.898 2.898 0 0 0 43.354 105h114.204a2.898 2.898 0 0 0 2.898-2.897V75.898A2.897 2.897 0 0 0 157.558 73"/>
            <path stroke="#406483" stroke-width="2" d="M157.558 73H43.354a2.897 2.897 0 0 0-2.898 2.898v26.205A2.898 2.898 0 0 0 43.354 105h114.204a2.898 2.898 0 0 0 2.898-2.897V75.898A2.897 2.897 0 0 0 157.558 73z"/>
            <path fill="#E3EAF5" d="M158.168 77.724L103.7 2.119 77.574 20.596l54.468 75.606c5.102 7.214 15.087 8.926 22.301 3.824h.001c7.214-5.103 8.927-15.087 3.824-22.302"/>
            <path stroke="#406483" stroke-width="2" d="M158.168 77.724L103.7 2.119 77.574 20.596l54.468 75.606c5.102 7.214 15.087 8.926 22.301 3.824h.001c7.214-5.103 8.927-15.087 3.824-22.302z"/>
            <path stroke="#406483" stroke-width="2" d="M153.849 85.316c-.064-5.246-4.37-9.447-9.616-9.383-5.246.065-9.447 4.37-9.383 9.616.065 5.246 4.37 9.448 9.616 9.383 5.247-.064 9.447-4.37 9.383-9.616zM66.956 73v-4.5h-13.5V73M106.956 73v-4.5h-13.5V73"/>
            <mask id="b" fill="#fff">
                <use xlink:href="#a"/>
            </mask>
            <path fill="#00B7FF" d="M49.456 97h66V80h-66z" mask="url(#b)"/>
            <path stroke="#406483" stroke-width="2" d="M49.456 97h66V80h-66z" mask="url(#b)"/>
            <path fill="#00B7FF" d="M27.388 97.02v-3.651a.652.652 0 0 0-.652-.653h-3.652a.652.652 0 0 0-.652.653v.651H19.89l-3.156-2.868h11.958v.912a.652.652 0 0 0 .944.584l4.173-2.087a.653.653 0 0 0 0-1.168l-4.173-2.087a.653.653 0 0 0-.944.584v.912l-14.88.001a1.095 1.095 0 0 0-.173-.007l-.022.002-.05.005h-1.01l3.156-2.87h2.29a2.737 2.737 0 0 0 4.41.764 2.72 2.72 0 0 0 .802-1.938c0-.73-.285-1.418-.803-1.936a2.738 2.738 0 0 0-4.409.762l-2.744.001c-.294 0-.576.11-.79.306l-5.403 4.912H7.377a3.768 3.768 0 0 0-3.595-2.61 3.762 3.762 0 0 0-2.675 1.108A3.758 3.758 0 0 0 0 89.977a3.753 3.753 0 0 0 1.107 2.674 3.757 3.757 0 0 0 2.675 1.108 3.765 3.765 0 0 0 3.594-2.609h1.985c.096.013.193.013.29 0h3.59l5.398 4.91c.217.197.5.308.793.308h3v.651c0 .36.292.652.652.652h3.652a.648.648 0 0 0 .652-.652" mask="url(#b)"/>
        </g>
    </g>
</svg>
