<svg height="108" viewBox="0 0 122 108" width="122" xmlns="http://www.w3.org/2000/svg"><g fill="none" fill-rule="evenodd" transform="translate(0 -3)"><text fill="#656b72" font-family=".SFNSText, .SF NS Text" font-size="14" transform="translate(52)"><tspan x=".713867" y="14">ok</tspan></text><g stroke="#d8d8d8" stroke-linecap="square"><path d="m52 46v-18"/><path d="m55 35.2-3 10.8-3-10.8"/><path d="m68 46v-18"/><path d="m71 35.2-3 10.8-3-10.8"/><path d="m49.5 20.5h21.0950231" stroke-width="2"/></g><g stroke="#c4c5c6" transform="translate(0 71.25)"><g stroke-width="2"><path d="m118.1025 6h-114.205c-1.6 0-2.898 1.298-2.898 2.897v26.206c0 1.599 1.298 2.897 2.898 2.897h114.205c1.6 0 2.897-1.298 2.897-2.897v-26.206c0-1.599-1.297-2.897-2.897-2.897z"/><path d="m26.625 5.25v-4.5h-13.5v4.5"/><path d="m108.625 5.25v-4.5h-13.5v4.5"/></g><path d="m12.25 30.5h97.5v-17h-97.5z" stroke-width="2.431"/><path d="m16.4145019 19.2497 3.8355644 6.257 3.7400503-6.257"/></g><text fill="#656b72" font-family="Helvetica-Bold, Helvetica" font-size="7" font-weight="bold" transform="translate(32 90)"><tspan x="0" y="6">Contract Support</tspan></text><path d="m96.999999 92 3.835564 6.257 3.740051-6.257" stroke="#c4c5c6" transform="matrix(-1 0 0 -1 201.575614 190.257)"/></g></svg>