<?xml version="1.0" encoding="UTF-8"?>
<svg width="68px" height="83px" viewBox="0 0 68 83" version="1.1" xmlns="http://www.w3.org/2000/svg" xmlns:xlink="http://www.w3.org/1999/xlink">
    <!-- Generator: Sketch 48.2 (47327) - http://www.bohemiancoding.com/sketch -->
    <title>Group 6</title>
    <desc>Created with Sketch.</desc>
    <defs>
        <polygon id="path-1" points="0 0 67.2962071 0 67.2962071 82.5908724 0 82.5908724"></polygon>
    </defs>
    <g id="regstrationexsting-wallet_Start" stroke="none" stroke-width="1" fill="none" fill-rule="evenodd" transform="translate(-915.000000, -459.000000)">
        <g id="lock" transform="translate(915.000000, 459.000000)">
            <g id="Group-6">
                <path d="M60.3663602,81.0518838 L6.70268562,81.0518838 C4.10532152,81.0518838 2,78.9460617 2,76.3491982 L2,38.7026856 C2,36.1058221 4.10532152,34 6.70268562,34 L60.3663602,34 C62.9637243,34 65.0695464,36.1058221 65.0695464,38.7026856 L65.0695464,76.3491982 C65.0695464,78.9460617 62.9637243,81.0518838 60.3663602,81.0518838" id="Fill-1" fill="#E3EAF5"></path>
                <mask id="mask-2" fill="white">
                    <use xlink:href="#path-1"></use>
                </mask>
                <g id="Clip-4"></g>
                <path d="M64.2373341,71.5348811 C64.2373341,75.9442432 60.6493777,79.5321997 56.239515,79.5321997 L11.0566921,79.5321997 C6.64682942,79.5321997 3.058873,75.9442432 3.058873,71.5348811 L3.058873,41.6459227 C3.058873,37.2365605 6.64682942,33.6486041 11.0566921,33.6486041 L56.239515,33.6486041 C60.6493777,33.6486041 64.2373341,37.2365605 64.2373341,41.6459227 L64.2373341,71.5348811 Z M58.1195881,30.7624215 L58.1195881,22.1774549 C58.1195881,9.94947122 47.1414826,0 33.6486041,0 C20.1557256,0 9.176619,9.94947122 9.176619,22.1774549 C9.176619,23.0228872 9.86037297,23.7071417 10.7063058,23.7071417 C11.551738,23.7071417 12.235492,23.0228872 12.235492,22.1774549 C12.235492,11.6348297 21.841084,3.05937355 33.6486041,3.05937355 C45.4561242,3.05937355 55.0607151,11.6348297 55.0607151,22.1774549 L55.0607151,30.5897311 L11.0566921,30.5897311 C4.95996933,30.5897311 0,35.5497004 0,41.6459227 L0,71.5348811 C0,77.6311033 4.95996933,82.5910727 11.0566921,82.5910727 L56.239515,82.5910727 C62.3362378,82.5910727 67.2962071,77.6311033 67.2962071,71.5348811 L67.2962071,41.6459227 C67.2962071,36.1919086 63.321324,31.6584095 58.1195881,30.7624215 Z" id="Fill-3" fill="#406483" mask="url(#mask-2)"></path>
                <path d="M33.5060715,63.977615 C30.4777322,63.977615 28,61.6778663 28,58.8670623 L28,49.1105527 C28,46.2997487 30.4777322,44 33.5060715,44 C36.5344108,44 39.012143,46.2997487 39.012143,49.1105527 L39.012143,58.8670623 C39.012143,61.6778663 36.5344108,63.977615 33.5060715,63.977615" id="Fill-8" fill="#00B7FF" mask="url(#mask-2)"></path>
                <path d="M36.176619,59.2948656 C36.176619,60.9817256 34.8051066,62.3537386 33.1182466,62.3537386 C31.4308859,62.3537386 30.058873,60.9817256 30.058873,59.2948656 L30.058873,50.1182466 C30.058873,48.4308859 31.4308859,47.058873 33.1182466,47.058873 C34.8051066,47.058873 36.176619,48.4308859 36.176619,50.1182466 L36.176619,59.2948656 Z M33.1182466,44 C29.7435253,44 27,46.7440258 27,50.1182466 L27,59.2948656 C27,62.6685857 29.7435253,65.4126116 33.1182466,65.4126116 C36.4919667,65.4126116 39.235492,62.6685857 39.235492,59.2948656 L39.235492,50.1182466 C39.235492,46.7440258 36.4919667,44 33.1182466,44 Z" id="Fill-6" fill="#406483" mask="url(#mask-2)"></path>
            </g>
        </g>
    </g>
</svg>