<?xml version="1.0" encoding="UTF-8"?>
<svg width="80px" height="77px" viewBox="0 0 80 77" version="1.1" xmlns="http://www.w3.org/2000/svg" xmlns:xlink="http://www.w3.org/1999/xlink">
    <!-- Generator: Sketch 48.2 (47327) - http://www.bohemiancoding.com/sketch -->
    <title>Group 2</title>
    <desc>Created with Sketch.</desc>
    <defs></defs>
    <g id="regstrationexsting-wallet_Start" stroke="none" stroke-width="1" fill="none" fill-rule="evenodd" transform="translate(-375.000000, -467.000000)">
        <g id="wallet" transform="translate(377.000000, 467.000000)">
            <g id="Group">
                <g id="wallet">
                    <g id="Group-2">
                        <path d="M10.317826,70.1462145 C8.48551441,70.1462145 7,68.6582767 7,66.8229759 L7,17.3232386 C7,15.4879378 8.48551441,14 10.317826,14 L70.2207295,14 C72.0530411,14 73.5385555,15.4879378 73.5385555,17.3232386 L73.5385555,32.9798581 L75.2313509,34.005089 L75.920221,51.7108393 L73.5385555,52.1052271 L73.5385555,66.8229759 C73.5385555,68.6582767 72.0530411,70.1462145 70.2207295,70.1462145 L10.317826,70.1462145 Z" id="Fill-1" fill="#E3EAF5"></path>
                        <polygon id="Fill-3" fill="#E3EAF5" points="19.5780433 14.3681463 67.0165365 14.3681463 65.2412932 4.12244934 63.2687022 1 18 12.958192"></polygon>
                        <path d="M74.3933503,51.5087712 L55.739542,51.5087712 C51.1095218,51.5087712 47.2633758,47.6476844 47.2633758,43.032457 C47.2633758,38.4170818 51.1241667,34.5561429 55.739542,34.5561429 L74.3933503,34.5561429 L74.3933503,51.5087712 Z M71.1685048,67.2482363 C71.1685048,68.4761924 70.236554,69.5560719 69.0088938,69.5560719 L10.0887471,69.5560719 C8.86093891,69.5560719 7.92898814,68.4761924 7.92898814,67.2482363 L7.92898814,18.8165299 C7.92898814,17.5887217 8.86093891,16.5088422 10.0887471,16.5088422 L68.8460243,16.5088422 C70.0739804,16.5088422 71.0059311,17.5887217 71.0059311,18.8165299 L71.0059311,31.3017116 L55.739542,31.3017116 C49.2604131,31.3017116 44.1715181,36.3904587 44.1715181,42.8697355 C44.1715181,49.3488643 49.4083418,54.4377593 55.739542,54.4377593 L71.1685048,54.4377593 L71.1685048,67.2482363 Z M63.1359767,2.92898814 C63.9053538,3.07691683 64.674583,4.0088676 64.674583,5.23667576 L64.674583,13.5650612 L22.1154978,13.5650612 L63.1359767,2.92898814 Z M75.9466016,31.3017116 L74.0974929,31.3017116 L74.0974929,18.8165299 C74.0974929,15.8875417 71.7898053,13.5798541 69.0088938,13.5798541 L67.6182161,13.5798541 L67.6182161,5.23667576 C67.6182161,2.30768762 65.4586051,0 62.8401193,0 L62.529617,0 L9.77809681,13.5650612 C9.76345187,13.5650612 9.7337182,13.5798541 9.71892533,13.5798541 C7.11538032,13.7869543 5,16.0206775 5,18.8165299 L5,67.2482363 C5,70.1773724 7.30768762,72.48506 10.0887471,72.48506 L69.0088938,72.48506 C71.937734,72.48506 74.2454216,70.1773724 74.2454216,67.2482363 L74.2454216,54.4377593 L75.9466016,54.4377593 C76.8787003,54.4377593 77.48506,53.8164588 77.48506,52.899153 L77.48506,32.8549629 C77.48506,31.9230121 76.7158308,31.3017116 75.9466016,31.3017116 Z" id="Fill-5" fill="#406483"></path>
                        <path d="M54,42.485421 C54,43.3852433 54.7672667,43.9706992 55.5345334,43.9706992 L56.9215154,43.9706992 C57.6887821,43.9706992 58.4560488,43.3708176 58.4560488,42.485421 C58.4560488,41.5854558 57.6887821,41 56.9215154,41 L55.5492885,41 C54.6197154,41 54,41.5998816 54,42.485421" id="Fill-8" fill="#406483"></path>
                        <circle id="Oval" stroke="#406483" stroke-width="3" fill="#00B7FF" cx="13.5" cy="61.5" r="13.5"></circle>
                        <path d="M19.9258588,55.1784882 L11.7731351,64.3502361 L6.86155543,60.4210784 C6.63345528,60.2380678 6.29873157,60.2757309 6.11625145,60.503831 C5.93324087,60.7329921 5.97037345,61.0666549 6.19900407,61.2496655 L11.5036587,65.4933891 C11.6012643,65.5713676 11.7184972,65.6095611 11.8351996,65.6095611 C11.9816081,65.6095611 12.1274861,65.549088 12.2319878,65.4313247 L20.7194352,55.8829464 C20.914116,55.6643946 20.8944888,55.32861 20.6754065,55.1344596 C20.4557938,54.9392483 20.1210701,54.9588755 19.9258588,55.1784882 Z" id="Shape" stroke="#FFFFFF" fill="#FFFFFF" fill-rule="nonzero"></path>
                    </g>
                </g>
            </g>
        </g>
    </g>
</svg>