<svg width="48" height="48" viewBox="0 0 48 48" fill="none" xmlns="http://www.w3.org/2000/svg">
<path d="M1.5 24C1.5 29.9674 3.87053 35.6903 8.0901 39.9099C12.3097 44.1295 18.0326 46.5 24 46.5C29.9674 46.5 35.6903 44.1295 39.9099 39.9099C44.1295 35.6903 46.5 29.9674 46.5 24C46.5 18.0326 44.1295 12.3097 39.9099 8.0901C35.6903 3.87053 29.9674 1.5 24 1.5C18.0326 1.5 12.3097 3.87053 8.0901 8.0901C3.87053 12.3097 1.5 18.0326 1.5 24V24Z" stroke="#142431" stroke-width="3" stroke-linecap="round" stroke-linejoin="round"/>
<path d="M24.9339 14.7003L27.4419 19.8683H32.3239C32.5701 19.8597 32.8131 19.9271 33.0197 20.0613C33.2264 20.1955 33.3867 20.3901 33.4789 20.6186C33.571 20.8471 33.5907 21.0985 33.535 21.3385C33.4794 21.5786 33.3512 21.7957 33.1679 21.9603L28.9299 26.3883L31.2779 31.7883C31.3802 32.0352 31.4027 32.3079 31.3422 32.5682C31.2817 32.8285 31.1412 33.0633 30.9405 33.2397C30.7399 33.4162 30.489 33.5254 30.2231 33.552C29.9572 33.5787 29.6896 33.5214 29.4579 33.3883L23.7819 30.1943L18.1079 33.3943C17.8761 33.5282 17.6083 33.586 17.3419 33.5597C17.0756 33.5334 16.8242 33.4243 16.6231 33.2477C16.422 33.0711 16.2814 32.8359 16.2209 32.5752C16.1604 32.3145 16.1831 32.0414 16.2859 31.7943L18.6339 26.3943L14.3979 21.9603C14.215 21.796 14.0871 21.5795 14.0313 21.34C13.9755 21.1006 13.9946 20.8498 14.086 20.6216C14.1775 20.3934 14.3368 20.1987 14.5424 20.064C14.7481 19.9293 14.9902 19.861 15.2359 19.8683H20.1179L22.6319 14.7003C22.7411 14.4893 22.9062 14.3124 23.1092 14.1888C23.3122 14.0653 23.5453 14 23.7829 14C24.0205 14 24.2536 14.0653 24.4566 14.1888C24.6595 14.3124 24.8247 14.4893 24.9339 14.7003V14.7003Z" stroke="#142431" stroke-width="3" stroke-linecap="round" stroke-linejoin="round"/>
</svg>
