<svg width="72" height="73" viewBox="0 0 72 73" fill="none" xmlns="http://www.w3.org/2000/svg">
<path d="M0 36.5C0 16.6178 16.1178 0.5 36 0.5C55.8823 0.5 72 16.6178 72 36.5C72 56.3823 55.8823 72.5 36 72.5C16.1178 72.5 0 56.3823 0 36.5Z" fill="#F3F5F7"/>
<mask id="mask0" mask-type="alpha" maskUnits="userSpaceOnUse" x="17" y="21" width="38" height="31">
<path d="M17.5 21H54.5V52H17.5V21Z" fill="white"/>
</mask>
<g mask="url(#mask0)">
<path fill-rule="evenodd" clip-rule="evenodd" d="M46.4833 50.76C43.3291 50.76 40.6779 48.5807 39.9227 45.6431C39.8523 45.3686 39.8003 45.0944 39.7636 44.823C39.761 44.8037 39.7574 44.7844 39.7548 44.7651C39.719 44.4875 39.6998 44.2116 39.6998 43.94C39.6998 43.6698 39.7202 43.403 39.751 43.139C39.7617 43.0498 39.7778 42.9616 39.7918 42.8731C39.8184 42.7014 39.8511 42.5307 39.8905 42.3628C39.9154 42.2598 39.9405 42.1568 39.9694 42.0559C40.0133 41.9021 40.065 41.7521 40.1193 41.6026C40.1549 41.5046 40.1865 41.4042 40.2265 41.3081C40.3171 41.0911 40.4191 40.8791 40.5311 40.6733C40.5849 40.5753 40.6466 40.4823 40.7045 40.3869C40.7815 40.2603 40.8605 40.1351 40.9461 40.0137C41.0092 39.9243 41.0745 39.8368 41.1418 39.7512C41.2521 39.61 41.3681 39.4729 41.49 39.3403C41.5381 39.2876 41.5839 39.233 41.6332 39.1822C41.8232 38.9874 42.0234 38.8016 42.2388 38.629C42.2392 38.629 42.2392 38.6285 42.24 38.6285C42.4596 38.4518 42.6937 38.2894 42.9382 38.138C43.9704 37.4963 45.1829 37.12 46.4833 37.12C46.7459 37.12 47.0063 37.1386 47.2634 37.1689C47.341 37.1782 47.4173 37.1932 47.4947 37.2044C47.6742 37.2316 47.8521 37.2638 48.0274 37.3055C48.1144 37.326 48.2 37.3489 48.2859 37.3723C48.4517 37.4183 48.6144 37.4715 48.7761 37.5299C48.8582 37.5597 48.94 37.5876 49.0209 37.6198C49.204 37.6942 49.3829 37.7791 49.5593 37.869C49.6091 37.8943 49.6615 37.9155 49.7102 37.9422C49.9217 38.0574 50.1252 38.1864 50.3233 38.3235C50.4034 38.3793 50.4793 38.4406 50.5571 38.4995C50.6802 38.5932 50.8012 38.6893 50.9184 38.7909C50.9966 38.8591 51.0732 38.9299 51.1484 39.001C51.2668 39.1147 51.3809 39.2337 51.4919 39.3563C51.5504 39.4209 51.6109 39.4829 51.6664 39.5499C51.8265 39.7414 51.9797 39.9417 52.1204 40.1532C52.8435 41.2375 53.2667 42.54 53.2667 43.94C53.2667 47.7003 50.2234 50.76 46.4833 50.76ZM38.5672 45.1802H19.892C22.6966 42.9456 29.0193 37.8764 32.2677 35.0108L33.1448 35.7889C33.762 36.3431 34.5736 36.6204 35.3845 36.6204C36.1943 36.6204 37.0045 36.3438 37.6199 35.7915L38.5146 34.9972L41.6171 37.5442C41.5967 37.5597 41.5794 37.5783 41.5592 37.5938C41.3797 37.7345 41.2078 37.8838 41.0413 38.0395C40.9843 38.0922 40.9246 38.1423 40.8698 38.1964C40.7187 38.3457 40.5769 38.5033 40.4376 38.6645C40.2901 38.8338 40.1537 39.0098 40.0226 39.1896C39.9554 39.2814 39.8843 39.3699 39.8214 39.4648C39.7254 39.6093 39.6395 39.7593 39.5525 39.9095C39.4996 40.0006 39.4457 40.091 39.3964 40.1847C39.3181 40.3335 39.2472 40.4847 39.1789 40.6385C39.1308 40.7451 39.0845 40.8531 39.0414 40.9623C38.9835 41.1085 38.9289 41.2554 38.8796 41.4054C38.8367 41.537 38.7992 41.6701 38.762 41.8048C38.725 41.9405 38.6875 42.0752 38.6571 42.2133C38.6204 42.3826 38.5936 42.5555 38.5677 42.7291C38.5511 42.8395 38.5295 42.9487 38.5172 43.0603C38.4856 43.3486 38.4667 43.6417 38.4667 43.94C38.4667 44.1713 38.4802 44.4045 38.5018 44.6394C38.5134 44.7744 38.5321 44.9072 38.5499 45.04C38.5566 45.087 38.5599 45.1328 38.5672 45.1802ZM31.3361 34.1838C27.9098 37.1925 21.2529 42.5166 18.7333 44.5209V22.9945L31.3361 34.1838ZM51.0201 22.24L38.0393 33.7646C38.0319 33.7727 38.0212 33.7763 38.0139 33.7856C38.0134 33.7863 38.0134 33.7875 38.012 33.7889L36.801 34.8639C36.0197 35.565 34.7477 35.5657 33.9631 34.862L32.7433 33.7796C32.7397 33.7751 32.739 33.7696 32.7347 33.7651C32.72 33.7486 32.6996 33.741 32.6835 33.7267L19.7463 22.24H51.0201ZM51.5436 37.6954C51.3994 37.5769 51.2495 37.4679 51.0979 37.3599C51.0398 37.3184 50.9838 37.275 50.9252 37.2354C50.7753 37.135 50.6197 37.0432 50.4639 36.9533C50.3954 36.9137 50.3294 36.8715 50.2597 36.8336C50.1112 36.7537 49.958 36.6836 49.8046 36.6128C49.7213 36.5744 49.6402 36.5329 49.5548 36.4969C49.4113 36.4368 49.264 36.3872 49.117 36.3357C49.0178 36.3011 48.9204 36.262 48.8193 36.231C48.6768 36.1876 48.5307 36.1542 48.3853 36.1187C48.2766 36.092 48.1697 36.0605 48.0601 36.0381C47.9021 36.0064 47.7406 35.9866 47.5803 35.9644C47.4804 35.9506 47.3825 35.9303 47.2812 35.9203C47.0179 35.8943 46.7516 35.88 46.4833 35.88C45.1174 35.88 43.831 36.2272 42.7036 36.8355L39.451 34.1652L52.0331 22.9945V38.1258C51.929 38.0247 51.8168 37.9341 51.7077 37.8392C51.6529 37.7922 51.5998 37.7419 51.5436 37.6954ZM53.2667 39.6639V21.62C53.2667 21.615 53.2643 21.6107 53.2636 21.6057C53.2617 21.537 53.2517 21.4676 53.2266 21.4006C53.2247 21.3963 53.2216 21.3932 53.2204 21.3894C53.2135 21.3727 53.2024 21.3596 53.1946 21.3436C53.1692 21.2933 53.1395 21.2468 53.1025 21.2065C53.0866 21.1891 53.07 21.1743 53.052 21.1588C53.0138 21.1247 52.9719 21.0968 52.9263 21.0739C52.9064 21.0632 52.8879 21.0527 52.8663 21.0446C52.798 21.0179 52.7264 21 52.65 21H18.1164C18.0401 21 17.9684 21.0179 17.9001 21.0441C17.8785 21.052 17.86 21.0632 17.8404 21.0732C17.7948 21.0968 17.7528 21.1247 17.7146 21.1588C17.6966 21.1743 17.68 21.1886 17.6639 21.2065C17.6269 21.2475 17.5975 21.2933 17.5721 21.3436C17.564 21.3596 17.5529 21.3727 17.5463 21.3894C17.5444 21.3937 17.5413 21.3963 17.5401 21.4006C17.5147 21.4676 17.5043 21.537 17.5028 21.6057C17.5026 21.6107 17.5 21.615 17.5 21.62V45.8C17.5 45.8019 17.5012 45.8038 17.5012 45.8057C17.5019 45.872 17.5119 45.9383 17.5337 46.0034C17.5363 46.0108 17.542 46.0163 17.5448 46.0239C17.5536 46.0454 17.5659 46.0637 17.5771 46.084C17.6013 46.1298 17.6283 46.1727 17.6615 46.2106C17.6781 46.229 17.6954 46.2452 17.7139 46.2619C17.7521 46.2953 17.7929 46.3227 17.838 46.3463C17.8584 46.3568 17.8769 46.3685 17.8989 46.3773C17.9675 46.4021 18.0401 46.42 18.1164 46.42H38.859C39.9023 49.6538 42.9233 52 46.4833 52C50.9036 52 54.5 48.3842 54.5 43.94C54.5 42.3683 54.0437 40.9051 53.2667 39.6639Z" fill="#142431"/>
<path d="M49.9545 40.5999C49.2261 39.7999 48.0407 39.8002 47.3121 40.5999L45.9908 42.051C45.8786 42.1743 45.8786 42.3742 45.9908 42.4975C46.1031 42.6208 46.2851 42.6208 46.3973 42.4975L47.7185 41.0464C47.9616 40.7796 48.2865 40.6324 48.6331 40.6324C48.98 40.6324 49.3048 40.7796 49.5479 41.0465C49.7909 41.3135 49.9249 41.6702 49.9249 42.0512C49.9249 42.4319 49.7909 42.7887 49.5479 43.0557L47.8203 44.9535C47.3158 45.5073 46.4952 45.5073 45.9907 44.9535C45.8784 44.8302 45.6965 44.8302 45.5842 44.9535C45.4719 45.0768 45.4719 45.2768 45.5842 45.4C45.9484 45.8 46.4269 46 46.9054 46C47.3839 46 47.8624 45.8 48.2267 45.4L49.9545 43.5023C50.3062 43.1161 50.5 42.6007 50.5 42.0512C50.5 41.5015 50.3062 40.9862 49.9545 40.5999Z" fill="#142431"/>
<path d="M46.4805 46.6831L45.3392 47.9345C45.0911 48.2065 44.7595 48.3565 44.4055 48.3565C44.0516 48.3565 43.7199 48.2065 43.4717 47.9345C42.9569 47.3699 42.9569 46.4513 43.4717 45.8867L45.1318 44.0664C45.3799 43.7946 45.7115 43.6446 46.0655 43.6446C46.4194 43.6446 46.751 43.7946 46.9991 44.0664C47.1137 44.1921 47.2995 44.1921 47.4141 44.0664C47.5286 43.9408 47.5286 43.7371 47.4141 43.6115C46.6706 42.7963 45.4606 42.7961 44.7167 43.6115L43.0567 45.4319C42.6978 45.8254 42.5 46.3507 42.5 46.9107C42.5 47.4706 42.6978 47.9959 43.0568 48.3894C43.4157 48.7831 43.8948 49 44.4053 49C44.9161 49 45.3951 48.7831 45.754 48.3894L46.8952 47.1381C47.0098 47.0124 47.0098 46.8087 46.8952 46.6831C46.7807 46.5574 46.595 46.5574 46.4805 46.6831Z" fill="#142431"/>
</g>
</svg>
