<svg xmlns="http://www.w3.org/2000/svg" width="460" height="86" viewBox="0 0 460 86">
    <g fill="#FFF" fill-rule="evenodd">
        <path d="M19.149 71.509l17.85 10.374 16.311-9.479-34.161-52.94V71.51zm-3.125-55.201L3.543 23.559v38.882l12.48 7.253V16.308zm38.432-2.047L36.999 4.12l-16.727 9.72-.748.435 34.932 54.131V14.261zm3.125 55.663l12.876-7.483V23.559l-12.876-7.481v53.846zM74 64.5L37 86 0 64.5V21.501L37 0l37 21.501v43zM145.335 71.92L112.75 33.936c-1.525-1.82-3.773-4.985-3.773-4.985s.482 3.798.482 6.093v36.324H104V17h.963l32.587 37.986c1.525 1.82 3.772 4.985 3.772 4.985s-.401-3.798-.401-6.093V17.554h5.378v54.367h-.964zm16.179-.553V17.554h33.229v5.065h-27.45v25.244h24.48v4.986h-24.48v13.453h28.574v5.065h-34.353zm65.54.633c-11.156 0-19.584-6.41-19.584-18.993V17.554h5.78v35.058c0 9.575 5.297 14.323 13.804 14.323 8.428 0 13.806-4.748 13.806-14.323V17.554h5.778v35.453c0 12.583-8.507 18.993-19.584 18.993zm34.318-.633V17.554H294.2v5.065H267.15v25.244h24.56v5.223h-24.56v18.28h-5.779zm64.016.633c-11.157 0-19.584-6.41-19.584-18.993V17.554h5.779v35.058c0 9.575 5.297 14.323 13.805 14.323 8.427 0 13.805-4.748 13.805-14.323V17.554h5.779v35.453c0 12.583-8.508 18.993-19.584 18.993zm39.294-43.05c.001.01.482 3.801.482 6.093v36.324h-5.458V17h.963l32.587 37.986c1.525 1.82 3.772 4.985 3.772 4.985s-.401-3.798-.401-6.093V17.554h5.377v54.367h-.963l-32.586-37.986c-1.523-1.817-3.767-4.977-3.773-4.985zm52.538 42.417V17.554h13.243c18.22 0 29.537 10.604 29.537 26.906 0 16.303-11.237 26.907-29.537 26.907H417.22zm5.779-5.144h7.063c16.133 0 23.838-8.942 23.838-21.763 0-12.82-7.705-21.762-23.838-21.762h-7.063v43.525z"/>
    </g>
</svg>
