<?xml version="1.0" encoding="UTF-8"?>
<svg width="22px" height="25px" viewBox="0 0 22 25" version="1.1" xmlns="http://www.w3.org/2000/svg" xmlns:xlink="http://www.w3.org/1999/xlink">
    <!-- Generator: Sketch 48.2 (47327) - http://www.bohemiancoding.com/sketch -->
    <title>Group Copy 4</title>
    <desc>Created with Sketch.</desc>
    <defs></defs>
    <g id="Dashboard/all" stroke="none" stroke-width="1" fill="none" fill-rule="evenodd" transform="translate(-10.000000, -711.000000)">
        <g id="Group-19" transform="translate(10.000000, 711.000000)" fill="#1E3038">
            <g id="Group-Copy-4">
                <path d="M6.01411013,20.3657181 L10.9215362,23.2562956 L15.4057427,20.6152131 L6.01411013,5.86426835 L6.01411013,20.3657181 Z M5.15500484,4.98479857 L1.72382477,7.00526233 L1.72382477,17.839136 L5.15500484,19.8600453 L5.15500484,4.98479857 Z M15.720646,4.41452435 L10.9215362,1.58854825 L6.32289887,4.29690529 L6.1171853,4.41808856 L15.720646,19.5009507 L15.720646,4.41452435 Z M16.5797513,19.9242011 L20.1196844,17.839136 L20.1196844,7.00526233 L16.5797513,4.92064272 L16.5797513,19.9242011 Z M21.0936574,18.4129745 L10.9215362,24.403527 L0.749851808,18.4129745 L0.749851808,6.43186941 L10.9215362,0.440871369 L21.0936574,6.43186941 L21.0936574,18.4129745 Z" id="Fill-2-Copy-2"></path>
            </g>
        </g>
    </g>
</svg>