<?xml version="1.0" encoding="UTF-8"?>
<svg width="66px" height="76px" viewBox="0 0 66 76" version="1.1" xmlns="http://www.w3.org/2000/svg" xmlns:xlink="http://www.w3.org/1999/xlink">
    <!-- Generator: Sketch 48.2 (47327) - http://www.bohemiancoding.com/sketch -->
    <title>mail_link</title>
    <desc>Created with Sketch.</desc>
    <defs>
        <polygon id="path-1" points="0 0 37 0 37 31 0 31"></polygon>
    </defs>
    <g id="Login_go-to-mail" stroke="none" stroke-width="1" fill="none" fill-rule="evenodd" transform="translate(-650.000000, -406.000000)">
        <g id="mail_link" transform="translate(651.000000, 407.000000)">
            <g id="Group-6" fill="#EFEFEF" stroke="#EFEFEF">
                <polygon id="Page-1" points="32.0146951 0 0 18.4833813 0 55.450144 32.0146951 73.9335253 64.0286509 55.450144 64.0286509 18.4833813"></polygon>
            </g>
            <g id="Group" transform="translate(14.000000, 24.000000)">
                <polygon id="Fill-1" fill="#C4C5C6" points="1 25 34 25 34 0 1 0"></polygon>
                <path d="M37,22.5 C37,18.3578571 33.6419048,15 29.5,15 C25.3580952,15 22,18.3578571 22,22.5 C22,26.6419048 25.3580952,30 29.5,30 C33.6419048,30 37,26.6419048 37,22.5" id="Fill-2" fill="#C4C5C6"></path>
                <mask id="mask-2" fill="white">
                    <use xlink:href="#path-1"></use>
                </mask>
                <g id="Clip-7"></g>
                <path d="M28.9833333,29.76 C25.8290833,29.76 23.177891,27.5807 22.4227115,24.6430923 C22.3522692,24.3686231 22.3003269,24.0943923 22.2635641,23.8230231 C22.2609551,23.8037077 22.2573974,23.7843923 22.2547885,23.7650769 C22.2189744,23.4875077 22.1997628,23.2116077 22.1997628,22.94 C22.1997628,22.6698231 22.2201603,22.4029846 22.2509936,22.1390077 C22.2616667,22.0498231 22.2777949,21.9615923 22.2917885,21.8731231 C22.3183526,21.7014308 22.3510833,21.5306923 22.3904551,21.3628154 C22.415359,21.2598 22.4405,21.1567846 22.4694359,21.0559154 C22.5133141,20.9021077 22.5650192,20.7521154 22.6193333,20.6026 C22.6549103,20.5045923 22.6864551,20.4042 22.7265385,20.3081 C22.817141,20.0911 22.9191282,19.8791077 23.0310769,19.6733154 C23.0849167,19.5753077 23.1465833,19.4823077 23.2044551,19.3869231 C23.2815385,19.2603 23.3605192,19.1351077 23.446141,19.0137308 C23.5092308,18.9243077 23.5744551,18.8367923 23.6418141,18.7511846 C23.7521026,18.6100154 23.8680833,18.4729 23.9899936,18.3403154 C24.038141,18.2876154 24.0839167,18.2330077 24.13325,18.1822154 C24.3232308,17.9873923 24.5234103,17.8016308 24.7387692,17.6289846 C24.7392436,17.6289846 24.7392436,17.6285077 24.7399551,17.6285077 C24.9595833,17.4518077 25.1936795,17.2894154 25.4382115,17.1379923 C26.4704167,16.4962923 27.6828782,16.12 28.9833333,16.12 C29.245891,16.12 29.5063141,16.1386 29.7634167,16.1688846 C29.8409744,16.1781846 29.9173462,16.1932077 29.9946667,16.2044154 C30.1742115,16.2316 30.3520962,16.2637923 30.5273718,16.3055231 C30.6144167,16.3260308 30.7000385,16.3489231 30.7858974,16.3722923 C30.9516859,16.4183154 31.114391,16.4714923 31.2761474,16.5299154 C31.3582115,16.5597231 31.4400385,16.5876231 31.5209167,16.6198154 C31.7040192,16.6942154 31.8828526,16.7791077 32.0593141,16.8690077 C32.1091218,16.8942846 32.1615385,16.9155077 32.2101603,16.9422154 C32.4217244,17.0573923 32.6252244,17.1864 32.8232692,17.3235154 C32.9034359,17.3793154 32.9793333,17.4406 33.0571282,17.4995 C33.1802244,17.5932154 33.3011859,17.6893154 33.4183526,17.7909 C33.4966218,17.8591 33.5732308,17.9299231 33.6484167,18.0009846 C33.7667692,18.1147308 33.8808526,18.2337231 33.9918526,18.3562923 C34.0504359,18.4209154 34.1109167,18.4829154 34.1664167,18.5499231 C34.3265128,18.7414077 34.4797308,18.9417154 34.6203782,19.1532308 C35.3435385,20.2375154 35.7666667,21.5399923 35.7666667,22.94 C35.7666667,26.7003 32.7234167,29.76 28.9833333,29.76 Z M21.0672308,24.1802385 L2.39195513,24.1802385 C5.19660256,21.9456154 11.5193333,16.8764 14.7677436,14.0108077 L15.6448333,14.7889077 C16.2619744,15.3430923 17.0736026,15.6204231 17.8845192,15.6204231 C18.69425,15.6204231 19.5044551,15.3438077 20.1199359,14.7915308 L21.0145769,13.9972154 L24.1171218,16.5442231 C24.0967244,16.5597231 24.0794103,16.5783231 24.05925,16.5938231 C23.8797051,16.7345154 23.70775,16.8837923 23.54125,17.0395077 C23.4843269,17.0922077 23.4245577,17.1422846 23.3697692,17.1964154 C23.2186859,17.3456923 23.0768526,17.5033154 22.9376282,17.6645154 C22.7901026,17.8338231 22.6537244,18.0098077 22.5225641,18.1896077 C22.4554423,18.2814154 22.3842885,18.3698846 22.3214359,18.4647923 C22.2253782,18.6093 22.1395192,18.7592923 22.0524744,18.9095231 C21.9995833,19.0006154 21.9457436,19.0909923 21.8964103,19.1847077 C21.818141,19.3335077 21.7472244,19.4846923 21.6789167,19.6385 C21.6307692,19.7450923 21.5845192,19.8531154 21.5413526,19.9623308 C21.4834808,20.1085077 21.4289295,20.2554 21.3795962,20.4053923 C21.3366667,20.5370231 21.2991923,20.6700846 21.2619551,20.8048154 C21.2249551,20.9405 21.1874808,21.0752308 21.1571218,21.2133 C21.120359,21.3826077 21.0935577,21.5554923 21.0677051,21.7290923 C21.0511026,21.8395 21.0295192,21.9487154 21.0171859,22.0603154 C20.985641,22.3486154 20.9666667,22.6416846 20.9666667,22.94 C20.9666667,23.1713077 20.9801859,23.4045231 21.0017692,23.6394077 C21.013391,23.7743769 21.0321282,23.9072 21.0499167,24.0400231 C21.0565577,24.087 21.0598782,24.1327846 21.0672308,24.1802385 Z M13.8361026,13.1838231 C10.4098077,16.1924923 3.75289103,21.5166231 1.23333333,23.5208923 L1.23333333,1.99449231 L13.8361026,13.1838231 Z M33.5201026,1.24 L20.5392692,12.7646077 C20.5319167,12.7727154 20.5212436,12.7762923 20.513891,12.7855923 C20.5134167,12.7863077 20.5134167,12.7875 20.5119936,12.7889308 L19.3009551,13.8639154 C18.5196859,14.5649923 17.2476923,14.5657077 16.4631026,13.8620077 L15.2432885,12.7796308 C15.2397308,12.7751 15.2390192,12.7696154 15.23475,12.7650846 C15.2200449,12.7486308 15.1996474,12.741 15.1835192,12.7266923 L2.24632692,1.24 L33.5201026,1.24 Z M34.0435577,16.6954077 C33.8993526,16.5768923 33.7494551,16.4679154 33.5978974,16.3598923 C33.5397885,16.3184 33.4838141,16.275 33.4252308,16.2354154 C33.2753333,16.1350231 33.1197436,16.0432154 32.9639167,15.9533154 C32.8953718,15.9137308 32.8294359,15.8715231 32.7597051,15.8336077 C32.6112308,15.7537231 32.4580128,15.6836154 32.3045577,15.6127923 C32.2213077,15.5744 32.1401923,15.5329077 32.0548077,15.4969 C31.9113141,15.4368077 31.7640256,15.3872077 31.6169744,15.3357 C31.5178333,15.3011231 31.4203526,15.2620154 31.3193141,15.2310154 C31.1767692,15.1876154 31.0306667,15.1542308 30.8852756,15.1187 C30.7766474,15.0919923 30.6696795,15.0605154 30.5601026,15.0381 C30.402141,15.0063846 30.2406218,14.9865923 30.0802885,14.9644154 C29.9804359,14.9505846 29.8824808,14.9303154 29.7812051,14.9203 C29.5179359,14.8943077 29.2515833,14.88 28.9833333,14.88 C27.6174167,14.88 26.3309551,15.2272 25.203641,15.8355154 L21.9509615,13.1652231 L34.5330962,1.99449231 L34.5330962,17.1258308 C34.4289744,17.0247231 34.3167885,16.9341077 34.2076859,16.8392 C34.1528974,16.7922231 34.0997692,16.7419077 34.0435577,16.6954077 Z M35.7666667,18.6639077 L35.7666667,0.62 C35.7666667,0.614992308 35.7642949,0.6107 35.7635833,0.605692308 C35.7616859,0.537015385 35.7517244,0.467623077 35.7265833,0.400615385 C35.7246859,0.396323077 35.7216026,0.393223077 35.7204167,0.389407692 C35.7135385,0.372715385 35.702391,0.3596 35.6945641,0.343623077 C35.6691859,0.293307692 35.6395385,0.246807692 35.6025385,0.206507692 C35.5866474,0.1891 35.5700449,0.174315385 35.5520192,0.158815385 C35.5138333,0.124715385 35.4718526,0.0968153846 35.4263141,0.0739230769 C35.406391,0.0631923077 35.387891,0.0527 35.3663077,0.0445923077 C35.298,0.0178846154 35.2263718,0 35.15,0 L0.616429487,0 C0.540057692,0 0.468429487,0.0178846154 0.400121795,0.0441153846 C0.378538462,0.0519846154 0.360038462,0.0631923077 0.340352564,0.0732076923 C0.294814103,0.0968153846 0.252833333,0.124715385 0.214647436,0.158815385 C0.196621795,0.174315385 0.180019231,0.188623077 0.163891026,0.206507692 C0.126891026,0.247523077 0.0974807692,0.293307692 0.0721025641,0.343623077 C0.0640384615,0.3596 0.0528910256,0.372715385 0.04625,0.389407692 C0.0443525641,0.3937 0.0412692308,0.396323077 0.0400833333,0.400615385 C0.0147051282,0.467623077 0.00426923077,0.537015385 0.00284615385,0.605692308 C0.00260897436,0.6107 0,0.614992308 0,0.62 L0,24.8 C0,24.8019077 0.00118589744,24.8038154 0.00118589744,24.8057231 C0.0018974359,24.8720154 0.0118589744,24.9383077 0.0336794872,25.0034077 C0.0362884615,25.0108 0.0419807692,25.0162846 0.0448269231,25.0239154 C0.0536025641,25.0453769 0.0659358974,25.0637385 0.0770833333,25.0840077 C0.101275641,25.1297923 0.128314103,25.1727154 0.161519231,25.2106308 C0.178121795,25.2289923 0.195435897,25.2452077 0.213935897,25.2619 C0.252121795,25.2952846 0.292916667,25.3227077 0.337980769,25.3463154 C0.358378205,25.3568077 0.376878205,25.3684923 0.398935897,25.3773154 C0.467480769,25.4021154 0.540057692,25.42 0.616429487,25.42 L21.3589615,25.42 C22.4023141,28.6537769 25.4232692,31 28.9833333,31 C33.4036474,31 37,27.3842077 37,22.94 C37,21.3683 36.5436667,19.9051 35.7666667,18.6639077 Z" id="Fill-6" fill="#EFEFEF" mask="url(#mask-2)"></path>
                <path d="M32.454518,19.599925 C31.7260588,18.7998671 30.5406596,18.8001829 29.8120567,19.599925 L28.490826,21.0510166 C28.3785674,21.1743089 28.3785674,21.3741655 28.490826,21.4974577 C28.6030846,21.62075 28.7850557,21.62075 28.8973143,21.4974577 L30.218545,20.0463662 C30.4616042,19.779575 30.7864499,19.6324451 31.1331436,19.6324451 C31.479981,19.6324451 31.8048267,19.779575 32.047886,20.046524 C32.2909453,20.3134731 32.4249082,20.6702471 32.4249082,21.0511745 C32.4249082,21.4319439 32.2909453,21.7887179 32.047886,22.055667 L30.3203108,23.9535154 C29.8157938,24.5073045 28.9951992,24.5073045 28.4906822,23.9535154 C28.3784236,23.8302232 28.1964526,23.8302232 28.084194,23.9535154 C27.9719353,24.0768077 27.9719353,24.2768222 28.084194,24.3999566 C28.4484236,24.7999855 28.9269241,25 29.4054246,25 C29.8839252,25 30.3624257,24.7999855 30.7266553,24.3999566 L32.454518,22.502266 C32.8062425,22.1161292 33,21.6007012 33,21.0511745 C33,20.5014899 32.8062425,19.9862197 32.454518,19.599925 Z" id="Shape" fill="#EFEFEF" fill-rule="nonzero" mask="url(#mask-2)"></path>
                <path d="M28.9804565,25.6830893 L27.8392426,26.934456 C27.5911335,27.2065132 27.2595388,27.3564584 26.9054955,27.3564584 C26.5515989,27.3564584 26.2198575,27.2065132 25.9717484,26.934456 C25.4568964,26.3699091 25.4568964,25.4512534 25.9717484,24.8867065 L27.6317759,23.066449 C27.879885,22.7945527 28.2114796,22.6446075 28.565523,22.6446075 C28.9194196,22.6446075 29.2510142,22.7945527 29.4991233,23.066449 C29.6137142,23.1921005 29.7994659,23.1921005 29.9140568,23.066449 C30.0286477,22.9407975 30.0286477,22.7371166 29.9140568,22.6114651 C29.1706099,21.7962587 27.9605828,21.7960979 27.2166956,22.6114651 L25.5566682,24.4318835 C25.197783,24.8254092 25,25.3507 25,25.9107421 C25,26.4706233 25.197783,26.9959142 25.5568149,27.3894399 C25.9157001,27.7831265 26.3947517,28 26.9053488,28 C27.4160926,28 27.8951442,27.7831265 28.2540294,27.3894399 L29.3952432,26.1380732 C29.5098341,26.0124217 29.5098341,25.8087408 29.3952432,25.6830893 C29.2806523,25.5574378 29.0950474,25.5574378 28.9804565,25.6830893 Z" id="Shape" fill="#EFEFEF" fill-rule="nonzero" mask="url(#mask-2)"></path>
            </g>
        </g>
    </g>
</svg>
