<svg width="20" height="20" viewBox="0 0 20 20" fill="none" xmlns="http://www.w3.org/2000/svg">
<path fill-rule="evenodd" clip-rule="evenodd" d="M20 10C20 4.47733 15.5227 0 10 0C4.47733 0 0 4.47733 0 10C0 15.5227 4.47733 20 10 20C15.5227 20 20 15.5227 20 10ZM10.625 5.00006C10.625 4.65488 10.3452 4.37506 10 4.37506C9.65482 4.37506 9.375 4.65488 9.375 5.00006V11.8751C9.375 12.2202 9.65482 12.5001 10 12.5001C10.3452 12.5001 10.625 12.2202 10.625 11.8751V5.00006ZM10.0025 15.6301C10.5216 15.6301 10.9425 15.2092 10.9425 14.6901C10.9425 14.1709 10.5216 13.7501 10.0025 13.7501C9.48335 13.7501 9.0625 14.1709 9.0625 14.6901C9.0625 15.2092 9.48335 15.6301 10.0025 15.6301Z" fill="#FF5B5B"/>
</svg>
