<svg xmlns="http://www.w3.org/2000/svg" width="30" height="30" viewBox="0 0 30 30">
    <g fill="none" fill-rule="evenodd" stroke="#000" stroke-linecap="round" stroke-linejoin="round" stroke-width="1.5">
        <path d="M25 19.688a3.28 3.28 0 1 1 0 6.561 3.28 3.28 0 0 1 0-6.561zM29.061 29.063a5.336 5.336 0 0 0-8.125 0M4.997 19.688a3.28 3.28 0 1 1 .001 6.561 3.28 3.28 0 0 1 0-6.561zM9.059 29.063a5.336 5.336 0 0 0-8.125 0M15.254.938a3.28 3.28 0 1 1 0 6.561 3.28 3.28 0 0 1 0-6.561zM19.315 10.313a5.336 5.336 0 0 0-8.125 0"/>
        <path d="M7.219 20.554l1.041-5.5a1.17 1.17 0 0 1 1.114-1h11.25a1.17 1.17 0 0 1 1.114 1l1.04 5.5"/>
    </g>
</svg>
