<?xml version="1.0" encoding="UTF-8"?>
<svg width="25px" height="22px" viewBox="0 0 25 22" version="1.1" xmlns="http://www.w3.org/2000/svg" xmlns:xlink="http://www.w3.org/1999/xlink">
    <g id="Investor-Views" stroke="none" stroke-width="1" fill="none" fill-rule="evenodd">
        <g id="Private-key" transform="translate(-808.000000, -626.000000)" fill="#FF6D00" fill-rule="nonzero">
            <g id="eye" transform="translate(807.000000, 625.000000)">
                <g id="Group" transform="translate(1.000000, 5.000000)">
                    <path d="M12.380625,17.5178571 C4.19125,17.5178571 0.073125,9.13371429 0.0325,9.0495 C0.01125,9.00514286 0,8.95628571 0,8.90678571 L0,8.82128571 C0,8.77178571 0.01125,8.72357143 0.0325,8.67921429 C0.0725,8.595 4.19125,0.209571429 12.380625,0.209571429 C20.570625,0.209571429 24.689375,8.59435714 24.73,8.67921429 C24.75125,8.72357143 24.7625,8.77242857 24.7625,8.82128571 L24.7625,8.90678571 C24.7625,8.95628571 24.75125,9.0045 24.73,9.04885714 C24.689375,9.13371429 20.570625,17.5178571 12.380625,17.5178571 Z M0.643125,8.86435714 C1.1275,9.79392857 5.059375,16.875 12.380625,16.875 C19.71125,16.875 23.635625,9.79392857 24.11875,8.86435714 C23.635,7.93542857 19.703125,0.852428571 12.380625,0.852428571 C5.050625,0.852428571 1.126875,7.93414286 0.643125,8.86435714 Z" id="Shape"></path>
                    <path d="M12.380625,13.0435714 C10.163125,13.0435714 8.359375,11.1876429 8.359375,8.9055 C8.359375,6.62464286 10.163125,4.76871429 12.380625,4.76871429 C14.59875,4.76871429 16.403125,6.62464286 16.403125,8.9055 C16.4025,11.1876429 14.598125,13.0435714 12.380625,13.0435714 Z M12.380625,5.41221429 C10.508125,5.41221429 8.984375,6.9795 8.984375,8.90614286 C8.984375,10.8334286 10.508125,12.4013571 12.380625,12.4013571 C14.25375,12.4013571 15.778125,10.8334286 15.778125,8.90614286 C15.7775,6.9795 14.25375,5.41221429 12.380625,5.41221429 Z" id="Shape"></path>
                    <ellipse id="Oval" cx="12.38125" cy="8.9055" rx="1.34125" ry="1.37957143"></ellipse>
                </g>
                <g id="Group">
                    <g transform="translate(7.500000, 5.000000) rotate(-2.000000) translate(-7.500000, -5.000000) translate(1.000000, 1.000000)" id="Shape">
                        <path d="M11.88,3.27753846 C11.7056842,3.27753846 11.5642105,3.13969231 11.5642105,2.96984615 L11.5642105,0.534769231 C11.5642105,0.364923077 11.7056842,0.227076923 11.88,0.227076923 C12.0543158,0.227076923 12.1957895,0.364923077 12.1957895,0.534769231 L12.1957895,2.96984615 C12.1957895,3.14030769 12.0543158,3.27753846 11.88,3.27753846 Z"></path>
                        <path d="M2.29831579,7.56 C2.21747368,7.56 2.13663158,7.52984615 2.07473684,7.47015385 L0.308210526,5.74892308 C0.185052632,5.62892308 0.185052632,5.43384615 0.308210526,5.31384615 C0.431368421,5.19384615 0.631578947,5.19384615 0.754736842,5.31384615 L2.52126316,7.03507692 C2.64442105,7.15507692 2.64442105,7.35015385 2.52126316,7.47015385 C2.46,7.52984615 2.37915789,7.56 2.29831579,7.56 Z"></path>
                        <path d="M6.48631579,4.46769231 C6.37642105,4.46769231 6.26968421,4.41169231 6.21157895,4.31261538 L4.97557895,2.19692308 C4.88905263,2.04923077 4.94210526,1.86092308 5.09368421,1.77723077 C5.244,1.69292308 5.43852632,1.74461538 5.52442105,1.89230769 L6.76042105,4.008 C6.84694737,4.15569231 6.79389474,4.34338462 6.64168421,4.42769231 C6.59242105,4.45476923 6.53936842,4.46769231 6.48631579,4.46769231 Z"></path>
                    </g>
                    <g transform="translate(22.421053, 5.730769) rotate(-1.000000) translate(-22.421053, -5.730769) translate(18.421053, 2.230769)" id="Shape">
                        <path d="M5.03936842,6.32923077 C4.95852632,6.32923077 4.87768421,6.29907692 4.81578947,6.23938462 C4.69263158,6.11938462 4.69263158,5.92430769 4.81578947,5.80430769 L6.58231579,4.08307692 C6.70547368,3.96307692 6.90568421,3.96307692 7.02884211,4.08307692 C7.152,4.20307692 7.152,4.39815385 7.02884211,4.51815385 L5.26231579,6.23938462 C5.20042105,6.29907692 5.11957895,6.32923077 5.03936842,6.32923077 Z"></path>
                        <path d="M0.851368421,3.23692308 C0.798315789,3.23692308 0.744631579,3.224 0.695368421,3.19692308 C0.543789474,3.11261538 0.490736842,2.92492308 0.576631579,2.77723077 L1.81326316,0.661538462 C1.90042105,0.513846154 2.09178947,0.462153846 2.244,0.546461538 C2.39621053,0.630769231 2.44863158,0.818461538 2.36210526,0.966153846 L1.12547368,3.08184615 C1.06673684,3.18092308 0.960631579,3.23692308 0.851368421,3.23692308 Z"></path>
                    </g>
                </g>
            </g>
        </g>
    </g>
</svg>
