<svg xmlns="http://www.w3.org/2000/svg" width="19" height="19" viewBox="0 0 19 19">
  <path fill="#2B2B2B" fill-rule="evenodd" d="M7.51409977,14 L7.51409977,12.9619238 C7.51409977,12.0641237 7.69197218,11.2832365 8.04772234,10.6192385 C8.40347249,9.95524051 9.0542252,9.24916874 9.99999998,8.501002 C10.9110674,7.7995957 11.5119292,7.22912712 11.802603,6.78957915 C12.0932769,6.35003121 12.2386118,5.85905415 12.2386118,5.31663326 C12.2386118,4.7087478 12.0303708,4.24582658 11.6138829,3.92785572 C11.1973949,3.60988485 10.6160558,3.4509018 9.86984814,3.4509018 C8.56832321,3.4509018 7.08460703,3.90914706 5.4186551,4.8256513 L4,1.75350703 C5.93493375,0.584496486 7.98697396,0 10.1561822,0 C11.9436097,0 13.3644198,0.462921221 14.4186551,1.38877756 C15.4728903,2.31463388 16,3.54909049 16,5.09218438 C16,6.12091362 15.7830824,7.0093483 15.3492407,7.75751504 C14.9153991,8.50568176 14.0911123,9.34735672 12.8763558,10.2825651 C12.0433799,10.9465631 11.51627,11.4515681 11.2950108,11.7975951 C11.0737515,12.1436222 10.9631236,12.5971916 10.9631236,13.1583165 L10.9631236,14 L7.51409977,14 Z M7,17.0000001 C7,16.3411732 7.17142686,15.8431389 7.5142857,15.5058824 C7.85714456,15.1686258 8.35618717,15 9.01142852,15 C9.64381267,15 10.1333315,15.1725473 10.48,15.5176471 C10.8266682,15.8627469 11,16.3568595 11,17.0000001 C11,17.619611 10.8247636,18.1078414 10.4742856,18.464706 C10.1238077,18.8215704 9.63619348,19 9.01142852,19 C8.37142534,19 7.87619221,18.825492 7.52571427,18.4764707 C7.17523634,18.1274494 7,17.6352974 7,17.0000001 Z"/>
</svg>
