<svg xmlns="http://www.w3.org/2000/svg" width="25" height="25" viewBox="0 0 25 25">
  <path fill="#D5E20F" fill-rule="evenodd" d="M8.05247391,18.9465891 C8.1383,18.9465891 8.22458261,18.9707848 8.2999087,19.0196326 C9.09060435,19.5300239 9.95206087,19.8883935 10.8605391,20.0837848 C11.0408652,20.1225891 11.1805609,20.26685 11.2134304,20.4485457 L11.4430609,21.7121978 C11.4827783,21.9290457 11.6717783,22.0870022 11.8922783,22.0870022 L13.1075391,22.0870022 C13.3284957,22.0870022 13.5170391,21.9290457 13.5567565,21.7117413 L13.786387,20.4485457 C13.8192565,20.26685 13.9589522,20.1225891 14.1392783,20.0837848 C15.0477565,19.8883935 15.909213,19.5300239 16.6999087,19.0196326 C16.8551261,18.9182848 17.0559957,18.9223935 17.2075609,19.02785 L18.2666913,19.7610239 C18.4442783,19.8838283 18.6971913,19.8600891 18.849213,19.7085239 L19.7088435,18.84935 C19.8649739,18.6932196 19.886887,18.4480674 19.760887,18.2668283 L19.027713,17.2072413 C18.922713,17.0552196 18.9195174,16.855263 19.0194957,16.7000457 C19.5303435,15.90935 19.8882565,15.047437 20.0836478,14.1398717 C20.1224522,13.9586326 20.2662565,13.81985 20.4484087,13.7860674 L21.7120609,13.556437 C21.9293652,13.5171761 22.0868652,13.3281761 22.0868652,13.1076761 L22.0868652,11.8924152 C22.0868652,11.6714587 21.9293652,11.4824587 21.7120609,11.4427413 L20.4484087,11.2140239 C20.2662565,11.1802413 20.1224522,11.0414587 20.0836478,10.8602196 C19.8882565,9.95265435 19.5303435,9.0907413 19.0194957,8.30004565 C18.9195174,8.14482826 18.922713,7.94441522 19.027713,7.79239348 L19.760887,6.73326304 C19.886887,6.55202391 19.8649739,6.30687174 19.7088435,6.1507413 L18.849213,5.29156739 C18.6967348,5.14000217 18.4438217,5.11580652 18.2666913,5.23906739 L17.2075609,5.9722413 C17.0559957,6.07769783 16.8555826,6.08135 16.6999087,5.9804587 C15.9087565,5.46961087 15.0477565,5.11169783 14.1392783,4.91630652 C13.9589522,4.87750217 13.8192565,4.7332413 13.786387,4.55154565 L13.5567565,3.28789348 C13.5170391,3.07104565 13.3284957,2.91308913 13.1075391,2.91308913 L11.8922783,2.91308913 C11.6717783,2.91308913 11.4827783,3.07104565 11.4430609,3.28835 L11.2134304,4.55154565 C11.1805609,4.7332413 11.0408652,4.87750217 10.8605391,4.91630652 C9.95251739,5.11169783 9.09106087,5.46961087 8.2999087,5.9804587 C8.1446913,6.08135 7.94427826,6.07769783 7.79271304,5.9722413 L6.73312609,5.23906739 C6.55599565,5.11626304 6.30262609,5.14000217 6.15060435,5.29156739 L5.29143043,6.1507413 C5.1353,6.30687174 5.11338696,6.55202391 5.23893043,6.73326304 L5.97210435,7.79239348 C6.07756087,7.94441522 6.08075652,8.14482826 5.98032174,8.30004565 C5.46993043,9.0907413 5.11201739,9.95265435 4.91616957,10.8602196 C4.87736522,11.0414587 4.73356087,11.1802413 4.55186522,11.2140239 L3.28775652,11.4431978 C3.07045217,11.4824587 2.91295217,11.6714587 2.91295217,11.8924152 L2.91295217,13.1076761 C2.91295217,13.3281761 3.07045217,13.5171761 3.28775652,13.5568935 L4.55186522,13.7860674 C4.73356087,13.81985 4.87736522,13.9586326 4.91616957,14.1398717 C5.11201739,15.047437 5.46993043,15.90935 5.98032174,16.7000457 C6.08075652,16.855263 6.07756087,17.0552196 5.97210435,17.2072413 L5.23893043,18.2668283 C5.11338696,18.4480674 5.1353,18.6932196 5.29143043,18.84935 L6.15060435,19.7085239 C6.30262609,19.8600891 6.55553913,19.8833717 6.73358261,19.7610239 L7.79271304,19.02785 C7.87077826,18.9739804 7.96162609,18.9465891 8.05247391,18.9465891 M13.1075391,23.0000457 L11.8922783,23.0000457 C11.2303217,23.0000457 10.6637783,22.5270891 10.5446261,21.8756326 L10.3688652,20.906437 C9.56036522,20.7019152 8.78838696,20.3809804 8.06616957,19.9486543 L7.25310435,20.5120022 C6.72125652,20.8790457 5.96114783,20.8101109 5.50508261,20.3540457 L4.6459087,19.4948717 C4.17751739,19.026937 4.11132174,18.2914804 4.48795217,17.74685 L5.05084348,16.9342413 C4.61897391,16.2115674 4.29803913,15.4391326 4.09397391,14.6310891 L3.12477826,14.4553283 C2.47286522,14.3366326 1.9999087,13.7700891 1.9999087,13.1076761 L1.9999087,11.8924152 C1.9999087,11.2300022 2.47286522,10.6630022 3.12477826,10.5452196 L4.09397391,10.3690022 C4.29803913,9.56050217 4.61897391,8.78852391 5.05084348,8.06585 L4.48795217,7.2532413 C4.11132174,6.70815435 4.17751739,5.97315435 4.6459087,5.50521957 L5.50508261,4.64604565 C5.96114783,4.18998043 6.72171304,4.12058913 7.25310435,4.48808913 L8.06616957,5.05143696 C8.78838696,4.61911087 9.56082174,4.29817609 10.3688652,4.09365435 L10.5446261,3.12491522 C10.6637783,2.47300217 11.2303217,2.00004565 11.8922783,2.00004565 L13.1075391,2.00004565 C13.7694957,2.00004565 14.3364957,2.47300217 14.4551913,3.1244587 L14.6314087,4.09365435 C15.4394522,4.29817609 16.2114304,4.61911087 16.9341043,5.05143696 L17.746713,4.48808913 C18.2785609,4.12058913 19.0391261,4.18998043 19.4947348,4.64604565 L20.3543652,5.50521957 C20.8227565,5.97315435 20.8889522,6.70815435 20.5118652,7.2532413 L19.9489739,8.06585 C20.3808435,8.78852391 20.7017783,9.56050217 20.9063,10.3690022 L21.8754957,10.544763 C22.5269522,10.6630022 22.9999087,11.2300022 22.9999087,11.8924152 L22.9999087,13.1076761 C22.9999087,13.7700891 22.5269522,14.3366326 21.8754957,14.4548717 L20.9063,14.6310891 C20.7017783,15.4391326 20.3808435,16.2115674 19.9489739,16.9342413 L20.5118652,17.74685 C20.8889522,18.2914804 20.8227565,19.026937 20.3543652,19.4948717 L19.4947348,20.3540457 C19.2363435,20.612437 18.8921261,20.7553283 18.5259957,20.7553283 C18.2466043,20.7553283 17.9772565,20.6708717 17.7471696,20.5120022 L16.9341043,19.9486543 C16.211887,20.3809804 15.4394522,20.7019152 14.6314087,20.906437 L14.4551913,21.8751761 C14.3364957,22.5270891 13.7694957,23.0000457 13.1075391,23.0000457 M12.5,9.30434783 C10.7378261,9.30434783 9.30434783,10.7382826 9.30434783,12.5 C9.30434783,14.2617174 10.7378261,15.6956522 12.5,15.6956522 C14.2621739,15.6956522 15.6956522,14.2617174 15.6956522,12.5 C15.6956522,10.7382826 14.2621739,9.30434783 12.5,9.30434783 M12.5,16.6086957 C10.2347391,16.6086957 8.39130435,14.7657174 8.39130435,12.5 C8.39130435,10.2342826 10.2347391,8.39130435 12.5,8.39130435 C14.7652609,8.39130435 16.6086957,10.2342826 16.6086957,12.5 C16.6086957,14.7657174 14.7652609,16.6086957 12.5,16.6086957"/>
</svg>
