<?xml version="1.0" encoding="UTF-8"?>
<svg width="11px" height="11px" viewBox="0 0 11 11" version="1.1" xmlns="http://www.w3.org/2000/svg" xmlns:xlink="http://www.w3.org/1999/xlink">
    <g id="Symbols" stroke="none" stroke-width="1" fill="none" fill-rule="evenodd">
        <g id="link_out/small" fill="#000000" fill-rule="nonzero">
            <g id="link_out">
                <g id="foreign">
                    <path d="M10.4999712,0 L6.49995588,0 C6.22381642,0 5.99994859,0.223867312 5.99994859,0.500006138 C5.99994859,0.776144964 6.22381642,1.00001228 6.49995588,1.00001228 L9.29286816,1.00001228 L4.14642181,6.14646827 C3.95119273,6.3416969 3.95119273,6.65829082 4.14642181,6.85356242 C4.2440256,6.95116599 4.3719869,7 4.49994821,7 C4.62790951,7 4.7558923,6.95116599 4.85347461,6.85354093 L9.99998542,1.70710642 L9.99998542,4.50001228 C9.99998542,4.7761511 10.2238532,5.00001842 10.4999927,5.00001842 C10.7761322,5.00001842 11,4.7761511 11,4.50001228 L11,0.500006138 C10.9999785,0.223867312 10.7761107,0 10.4999712,0 Z" id="Shape"></path>
                    <path d="M8.49997374,4.99999284 C8.22383567,4.99999284 7.99996897,5.22386007 7.99996897,5.49999881 L7.99996897,10.0000095 L0.999988064,10.0000095 L0.999988064,2.99999045 L5.49998806,2.99999045 C5.77612614,2.99999045 5.99999284,2.77612322 5.99999284,2.49998448 C5.99999284,2.22384575 5.77612614,2 5.49998806,2 L0.500004774,2 C0.223866702,2 0,2.22386724 0,2.50000597 L0,10.5000155 C0,10.7761328 0.223866702,11 0.500004774,11 L8.49999523,11 C8.7761333,11 9,10.7761328 9,10.499994 L9,5.49999881 C8.99997852,5.22386007 8.77611181,4.99999284 8.49997374,4.99999284 Z" id="Shape"></path>
                </g>
            </g>
        </g>
    </g>
</svg>
