<svg width="16" height="17" viewBox="0 0 16 17" fill="none" xmlns="http://www.w3.org/2000/svg">
<path fill-rule="evenodd" clip-rule="evenodd" d="M7.999 4.15731C10.8952 4.11243 13.7984 6.11271 15.5849 8.07695L15.5866 8.07879C16.1378 8.69098 16.1378 9.61978 15.5866 10.232L15.5851 10.2336C13.8392 12.155 10.9432 14.201 7.999 14.1554C5.0548 14.201 2.15942 12.155 0.414816 10.2335L0.413437 10.232L0.41344 10.232C-0.137813 9.61978 -0.137813 8.69098 0.41344 8.0788L0.414916 8.07716L0.41492 8.07716C2.19962 6.1127 5.10275 4.11243 7.999 4.15731ZM1.15594 8.74865C0.94801 8.98026 0.948021 9.33055 1.15597 9.56214C2.82841 11.4038 5.47141 13.1978 7.99059 13.1554C7.99374 13.1554 7.99689 13.1554 8.00004 13.1554C8.0025 13.1554 8.00495 13.1554 8.00741 13.1554C10.5266 13.1978 13.1703 11.4038 14.8442 9.562C15.052 9.33043 15.0519 8.9803 14.8441 8.74874C13.1337 6.86862 10.4826 5.11555 8.00743 5.15731C8.00181 5.1574 7.99619 5.1574 7.99057 5.15731C5.51536 5.11555 2.8642 6.86871 1.15594 8.74865Z" fill="#142431"/>
<path fill-rule="evenodd" clip-rule="evenodd" d="M9.99902 9.15495C9.99849 8.05015 9.10351 7.15551 7.99927 7.15604C6.89479 7.15604 5.99956 8.05086 5.99902 9.15562C5.99849 10.2599 6.89379 11.1555 7.9986 11.156C9.10284 11.1566 9.99849 10.2613 9.99902 9.15647V9.15495ZM7.99902 6.15604C9.656 6.15537 10.9982 7.49802 10.999 9.15447V9.15649C10.9982 10.813 9.65521 12.1568 7.99812 12.156C6.34159 12.1552 4.99822 10.8122 4.99902 9.15514C4.99982 7.49864 6.34228 6.15617 7.99902 6.15604Z" fill="#142431"/>
</svg>
