<svg width="16" height="16" viewBox="0 0 16 16" fill="none" xmlns="http://www.w3.org/2000/svg">
<path fill-rule="evenodd" clip-rule="evenodd" d="M14.715 1.48707C14.9062 1.68628 14.8998 2.00279 14.7006 2.19403L2.20058 14.194C2.00137 14.3853 1.68485 14.3788 1.49362 14.1796C1.30238 13.9804 1.30884 13.6639 1.50804 13.4726L14.008 1.47264C14.2073 1.28141 14.5238 1.28787 14.715 1.48707Z" fill="#142431"/>
<path fill-rule="evenodd" clip-rule="evenodd" d="M12.7618 5.45852C12.9246 5.23549 13.2374 5.18668 13.4605 5.3495C14.2309 5.91195 14.9419 6.54972 15.5845 7.25446L15.5866 7.25675L15.5865 7.25676C16.1378 7.86894 16.1378 8.79774 15.5865 9.40992L15.585 9.41158C13.8387 11.3335 10.9417 13.38 7.99672 13.3334C7.26097 13.3385 6.52915 13.2295 5.82682 13.0115C5.56308 12.9297 5.41561 12.6496 5.49745 12.3858C5.57928 12.1221 5.85942 11.9746 6.12316 12.0565C6.72954 12.2446 7.36092 12.3383 7.9951 12.3334L8.0074 12.3334C10.5266 12.3758 13.1702 10.5818 14.844 8.74007C15.0519 8.50858 15.052 8.15851 14.8443 7.92691C14.2472 7.27217 13.5866 6.67972 12.8708 6.15717C12.6478 5.99435 12.599 5.68155 12.7618 5.45852Z" fill="#142431"/>
<path fill-rule="evenodd" clip-rule="evenodd" d="M8.00037 3.33329C8.58267 3.32743 9.16334 3.39576 9.72821 3.53608C9.99621 3.60266 10.1595 3.87388 10.0929 4.14188C10.0263 4.40987 9.75512 4.57316 9.48712 4.50658C9.00222 4.38613 8.50392 4.32777 8.00453 4.3333L7.99069 4.33326C5.5155 4.29212 2.86432 6.04653 1.15588 7.92533C0.948169 8.15676 0.948039 8.50666 1.15549 8.73823C1.66733 9.29805 2.22601 9.81363 2.82513 10.2792C3.04318 10.4486 3.08258 10.7627 2.91315 10.9808C2.74371 11.1988 2.42959 11.2383 2.21154 11.0688C1.56721 10.5681 0.966378 10.0136 0.415931 9.41133L0.41343 9.40859L0.413441 9.40858C-0.137813 8.7964 -0.137813 7.8676 0.413441 7.25542L0.415032 7.25365L0.415036 7.25366C2.19987 5.29041 5.10364 3.28841 8.00037 3.33329Z" fill="#142431"/>
<path fill-rule="evenodd" clip-rule="evenodd" d="M7.99769 5.33334L7.99836 5.33334C8.2745 5.33334 8.49902 5.55719 8.49902 5.83334C8.49902 6.10948 8.27517 6.33334 7.99902 6.33334H7.99836M7.99836 6.33334C6.89366 6.334 5.99849 7.22893 5.99902 8.33309C5.99916 8.60924 5.77541 8.8332 5.49927 8.83334C5.22312 8.83347 4.99916 8.60972 4.99902 8.33358C4.99822 6.67649 6.34116 5.33414 7.99769 5.33334" fill="#142431"/>
<path fill-rule="evenodd" clip-rule="evenodd" d="M10.4988 7.83267C10.7749 7.83254 10.9989 8.05629 10.999 8.33243C10.9998 9.98952 9.65646 11.3325 7.99993 11.3333H7.99902C7.72288 11.3333 7.49902 11.1095 7.49902 10.8333C7.49902 10.5572 7.72288 10.3333 7.99902 10.3333C9.10383 10.3328 9.99956 9.43716 9.99902 8.33291C9.99889 8.05677 10.2226 7.83281 10.4988 7.83267Z" fill="#142431"/>
</svg>
