<svg xmlns="http://www.w3.org/2000/svg" width="26" height="26" viewBox="0 0 26 26">
  <path fill-rule="evenodd" d="M20.7726655,4.34983126 C21.5640456,5.21899433 22,6.37835228 22,7.61514263 C22,8.85157771 21.5640456,10.0112907 20.7726655,10.8800985 L16.8849744,15.1499023 C16.0654578,16.0499674 14.9888317,16.5 13.9122054,16.5 C12.8355792,16.5 11.7589531,16.0499674 10.9394365,15.1499023 C10.6868544,14.8728499 10.6868544,14.4228173 10.9394365,14.1454096 C11.1920183,13.8680022 11.6014531,13.8680022 11.8540349,14.1454096 C12.9891982,15.3914351 14.8355361,15.3914351 15.9706993,14.1454096 L19.8577435,9.87525076 C20.4046269,9.27461528 20.7060435,8.47187378 20.7060435,7.61514263 C20.7060435,6.75805598 20.4046269,5.95531448 19.8577435,5.35467901 C19.3108601,4.75404376 18.5799573,4.42300148 17.7995731,4.42300148 C17.0195123,4.42300148 16.2886095,4.75404376 15.7417263,5.35432396 L12.7689572,8.61927983 C12.5163753,8.89668751 12.1069404,8.89668751 11.8543585,8.61927983 C11.6017766,8.34187238 11.6017766,7.89219503 11.8543585,7.61478736 L14.8271276,4.34983126 C16.4664841,2.55041154 19.1336323,2.54970099 20.7726655,4.34983126 Z M12.9560271,18.0369509 C13.2138566,17.754235 13.6314677,17.754235 13.8892972,18.0369509 C14.1471267,18.3196668 14.1471267,18.7779488 13.8892972,19.0606647 L11.3215661,21.8762398 C10.5140744,22.7620346 9.43620835,23.25 8.2870348,23.25 C7.13819133,23.25 6.06032522,22.7620346 5.25283352,21.8762398 C4.44501175,20.9908069 4,19.8089024 4,18.5491697 C4,17.289075 4.44501175,16.1071707 5.25250345,15.2217379 L8.9875651,11.1257965 C10.6613113,9.29122028 13.3838723,9.29158208 15.0566278,11.1257965 C15.3144573,11.4085124 15.3144573,11.8667944 15.0566278,12.1495103 C14.7987983,12.4322261 14.380857,12.4322261 14.1230274,12.1495103 C13.5647819,11.5377436 12.8186941,11.2003669 12.0224267,11.2003669 C11.2258291,11.2003669 10.4797412,11.5377436 9.92149578,12.1495103 L6.1864339,16.2450896 C5.0280169,17.5153201 5.0280169,19.5822955 6.1864339,20.852526 C6.74467938,21.4646547 7.49109752,21.8020314 8.28736488,21.8020314 C9.0839623,21.8020314 9.83005038,21.4646547 10.3882958,20.852526 L12.9560271,18.0369509 Z"/>
</svg>
