<svg xmlns="http://www.w3.org/2000/svg" width="26" height="26" viewBox="0 0 26 26">
  <path fill-rule="evenodd" d="M23,11.38465 C23,10.02711 21.883634,8.92312 20.51089,8.92312 C19.962041,8.92312 19.440572,9.10035 19.014935,9.42158 C17.626011,8.46774 15.806472,7.89912 13.871189,7.75512 L14.91537,5.33298 L17.953329,6.03451 C18.050404,6.96374 18.836963,7.69235 19.801493,7.69235 C20.830741,7.69235 21.668326,6.86405 21.668326,5.84621 C21.668326,4.82836 20.830741,4.00006 19.801493,4.00006 C19.149347,4.00006 18.575607,4.3336 18.242066,4.83698 L14.69135,4.01606 C14.390168,3.94837 14.095208,4.09975 13.975731,4.37421 L12.532047,7.72189 C10.442439,7.79328 8.451151,8.37543 6.947729,9.38958 C6.53827,9.08927 6.030492,8.92312 5.48911,8.92312 C4.116366,8.92312 3,10.02711 3,11.38465 C3,12.28434 3.496577,13.09787 4.258245,13.5151 C4.248289,13.62341 4.244555,13.73418 4.244555,13.84618 C4.244555,17.2394 8.152458,20 12.956441,20 C17.759179,20 21.668326,17.2394 21.668326,13.84618 C21.668326,13.75018 21.664592,13.65541 21.65837,13.56064 C22.46982,13.15203 23,12.3188 23,11.38465 Z M19.801493,5.23083 C20.143746,5.23083 20.423771,5.50652 20.423771,5.84621 C20.423771,6.1859 20.143746,6.46159 19.801493,6.46159 C19.459241,6.46159 19.179216,6.1859 19.179216,5.84621 C19.179216,5.50652 19.459241,5.23083 19.801493,5.23083 Z M8.600498,13.23079 C8.600498,12.55264 9.159303,12.00003 9.845053,12.00003 C10.530803,12.00003 11.089608,12.55264 11.089608,13.23079 C11.089608,13.91018 10.530803,14.46156 9.845053,14.46156 C9.159303,14.46156 8.600498,13.91018 8.600498,13.23079 Z M15.830118,17.31324 C14.971375,17.92739 13.963286,18.23508 12.956441,18.23508 C11.949596,18.23508 10.941506,17.92739 10.082763,17.31324 C9.803983,17.11386 9.741755,16.72863 9.943373,16.45417 C10.144991,16.17971 10.534536,16.11817 10.812072,16.31632 C12.095208,17.23324 13.817673,17.2357 15.100809,16.31632 C15.378345,16.11817 15.766646,16.17725 15.969508,16.45417 C16.171126,16.72986 16.107654,17.11386 15.830118,17.31324 Z M16.067828,14.46156 C15.380834,14.46156 14.823273,13.91018 14.823273,13.23079 C14.823273,12.55264 15.380834,12.00003 16.067828,12.00003 C16.754823,12.00003 17.312383,12.55264 17.312383,13.23079 C17.312383,13.91018 16.754823,14.46156 16.067828,14.46156 Z"/>
</svg>
