<?xml version="1.0" encoding="UTF-8"?>
<svg width="19px" height="19px" viewBox="0 0 19 19" version="1.1" xmlns="http://www.w3.org/2000/svg" xmlns:xlink="http://www.w3.org/1999/xlink">
    <g id="ETO_Form_media" stroke="none" stroke-width="1" fill="none" fill-rule="evenodd" transform="translate(-471.000000, -376.000000)">
        <g id="social" transform="translate(471.000000, 293.000000)" fill="#AABCCA" fill-rule="nonzero">
            <g id="instagram" transform="translate(0.000000, 83.000000)">
                <path d="M13.0625,0 L5.9375,0 C2.6588125,0 0,2.6588125 0,5.9375 L0,13.0625 C0,16.3411875 2.6588125,19 5.9375,19 L13.0625,19 C16.3411875,19 19,16.3411875 19,13.0625 L19,5.9375 C19,2.6588125 16.3411875,0 13.0625,0 Z M17.21875,13.0625 C17.21875,15.354375 15.354375,17.21875 13.0625,17.21875 L5.9375,17.21875 C3.645625,17.21875 1.78125,15.354375 1.78125,13.0625 L1.78125,5.9375 C1.78125,3.645625 3.645625,1.78125 5.9375,1.78125 L13.0625,1.78125 C15.354375,1.78125 17.21875,3.645625 17.21875,5.9375 L17.21875,13.0625 Z" id="Shape"></path>
                <path d="M9.5,4.75 C6.8768125,4.75 4.75,6.8768125 4.75,9.5 C4.75,12.1231875 6.8768125,14.25 9.5,14.25 C12.1231875,14.25 14.25,12.1231875 14.25,9.5 C14.25,6.8768125 12.1231875,4.75 9.5,4.75 Z M9.5,12.46875 C7.863625,12.46875 6.53125,11.136375 6.53125,9.5 C6.53125,7.8624375 7.863625,6.53125 9.5,6.53125 C11.136375,6.53125 12.46875,7.8624375 12.46875,9.5 C12.46875,11.136375 11.136375,12.46875 9.5,12.46875 Z" id="Shape"></path>
                <circle id="Oval" cx="14.60625" cy="4.39375" r="1"></circle>
            </g>
        </g>
    </g>
</svg>
