<?xml version="1.0" encoding="UTF-8"?>
<svg width="22px" height="16px" viewBox="0 0 22 16" version="1.1" xmlns="http://www.w3.org/2000/svg" xmlns:xlink="http://www.w3.org/1999/xlink">
    <g id="ETO_Form_media" stroke="none" stroke-width="1" fill="none" fill-rule="evenodd" transform="translate(-616.000000, -339.000000)">
        <g id="social" transform="translate(471.000000, 293.000000)" fill="#AABCCA" fill-rule="nonzero">
            <path d="M167,47.8930518 C166.190276,48.2142948 165.321455,48.4321581 164.408597,48.5294225 C165.340687,48.029679 166.054178,47.2370157 166.392339,46.2953981 C165.518017,46.7581927 164.552927,47.094241 163.524605,47.2764107 C162.70115,46.4898948 161.529864,46 160.230711,46 C157.738308,46 155.717433,47.8093696 155.717433,50.0396927 C155.717433,50.3560113 155.757299,50.6649595 155.834299,50.9603898 C152.084012,50.791738 148.758519,49.1830125 146.532813,46.7384952 C146.14375,47.3342479 145.92242,48.0284238 145.92242,48.7694295 C145.92242,50.1713956 146.719777,51.4084113 147.929564,52.1321334 C147.189938,52.1099898 146.494313,51.9278201 145.885322,51.6250194 L145.885322,51.6754862 C145.885322,53.6325548 147.441537,55.2659021 149.505011,55.6376441 C149.126948,55.7287289 148.728287,55.7791957 148.315858,55.7791957 C148.02443,55.7791957 147.742599,55.7533508 147.466269,55.7041071 C148.040894,57.3103864 149.707109,58.4784609 151.681253,58.5104854 C150.137404,59.5936546 148.19076,60.2373959 146.07642,60.2373959 C145.712125,60.2373959 145.353295,60.2176984 145,60.1820047 C146.99751,61.3304138 149.368948,62 151.917717,62 C160.219783,62 164.75783,55.8432126 164.75783,50.5037426 L164.742696,49.9806324 C165.629383,49.4143937 166.396473,48.7029665 167,47.8930518 Z" id="Shape"></path>
        </g>
    </g>
</svg>
