<svg xmlns="http://www.w3.org/2000/svg" width="21" height="21" viewBox="0 0 21 21">
    <g fill="#AABCCA" fill-rule="nonzero">
        <path d="M5.502 11.246h.83v4.494h.786v-4.494h.846v-.736H5.502zM12.144 11.796c-.26 0-.502.141-.73.422V10.51h-.705v5.23h.706v-.377c.236.291.478.431.73.431.28 0 .47-.148.564-.438.047-.165.071-.425.071-.785v-1.552c0-.37-.024-.627-.071-.783-.094-.293-.284-.44-.565-.44zm-.07 2.83c0 .352-.104.526-.308.526-.116 0-.234-.056-.352-.174v-2.375c.118-.117.236-.172.352-.172.204 0 .308.18.308.532v1.663zM9.39 14.822c-.156.22-.304.33-.446.33-.094 0-.148-.056-.165-.165-.006-.023-.006-.11-.006-.275v-2.869h-.707v3.081c0 .276.024.462.063.58.07.198.228.29.455.29.26 0 .526-.157.807-.479v.426h.707v-3.898H9.39v2.979zM9.997 8.243c.23 0 .34-.183.34-.547V6.04c0-.364-.11-.546-.34-.546-.23 0-.34.182-.34.546v1.657c0 .365.11.547.34.547z"/>
        <path d="M10.473 0C4.69 0 0 4.689 0 10.473c0 5.784 4.689 10.473 10.473 10.473 5.784 0 10.473-4.689 10.473-10.473C20.946 4.69 16.257 0 10.473 0zm1.165 4.899h.712v2.9c0 .167 0 .253.008.277.016.11.072.167.168.167.142 0 .292-.11.45-.334v-3.01h.714v3.938h-.713v-.43c-.285.326-.556.484-.816.484-.23 0-.388-.093-.46-.292-.04-.12-.063-.308-.063-.586V4.899zM8.943 6.183c0-.421.071-.729.223-.928.197-.27.475-.404.831-.404.357 0 .635.135.833.404.15.199.22.507.22.928v1.379c0 .419-.07.73-.22.926-.198.269-.476.403-.833.403-.356 0-.634-.134-.83-.403-.153-.197-.224-.508-.224-.926v-1.38zM7.034 3.552l.562 2.075.54-2.075h.8l-.952 3.145v2.14h-.79v-2.14c-.073-.38-.231-.935-.485-1.672-.167-.49-.34-.983-.507-1.473h.832zm9.077 12.532a1.476 1.476 0 0 1-1.263 1.149c-1.449.161-2.915.162-4.375.161-1.46.001-2.927 0-4.376-.161a1.475 1.475 0 0 1-1.263-1.149c-.204-.884-.204-1.85-.204-2.762 0-.91.003-1.877.207-2.762.143-.621.65-1.08 1.262-1.148 1.45-.162 2.916-.163 4.376-.162 1.46 0 2.927 0 4.376.162.611.068 1.12.527 1.263 1.148.203.885.202 1.851.202 2.762 0 .912 0 1.878-.205 2.762z"/>
        <path d="M14.394 11.796c-.362 0-.642.132-.846.399-.15.197-.218.502-.218.918v1.365c0 .415.076.722.227.917.203.266.485.399.854.399s.658-.14.854-.423c.086-.125.141-.266.165-.423.007-.07.015-.227.015-.455v-.103h-.72c0 .283-.01.44-.016.479-.04.188-.142.283-.315.283-.243 0-.362-.18-.362-.54v-.692h1.413v-.807c0-.417-.07-.721-.219-.918-.197-.267-.478-.4-.832-.4zm.345 1.536h-.706v-.36c0-.36.118-.54.354-.54.234 0 .352.18.352.54v.36z"/>
    </g>
</svg>
