<?xml version="1.0" encoding="UTF-8"?>
<svg width="20px" height="18px" viewBox="0 0 20 18" version="1.1" xmlns="http://www.w3.org/2000/svg" xmlns:xlink="http://www.w3.org/1999/xlink">
    <g stroke="none" stroke-width="1" fill="none" fill-rule="evenodd">
        <g transform="translate(-1230.000000, -20.000000)" fill="#D7E418">
            <path d="M1248.22376,30.5221981 C1248.36509,30.5818527 1248.47442,30.6919843 1248.53175,30.8324894 L1249.97439,34.3881655 C1250.04773,34.5686589 1249.95817,34.773626 1249.7744,34.8459545 C1249.59062,34.9180644 1249.38218,34.8302214 1249.30885,34.6495095 L1248.12976,31.7443525 C1247.47955,33.7063987 1246.22157,35.3817532 1244.52137,36.5245867 C1243.07517,37.4969785 1241.43698,38 1239.777,38 C1239.1839,38 1238.58813,37.9357566 1237.99725,37.8059587 C1234.76975,37.0960034 1232.28357,34.5100969 1231.57891,31.1698766 C1231.53869,30.979113 1231.67113,30.79709 1231.86624,30.7647497 C1232.06135,30.7324095 1232.24535,30.8617704 1232.28646,31.052097 C1232.94111,34.1089033 1235.21152,36.4706135 1238.1537,37.1178549 C1240.20189,37.5690884 1242.31963,37.1515062 1244.11671,35.9428998 C1245.72424,34.8621246 1246.90289,33.2630318 1247.49088,31.3903582 L1244.43359,32.5904426 C1244.25004,32.6625525 1244.04138,32.5747095 1243.96805,32.3935606 C1243.89471,32.2132857 1243.98427,32.0083186 1244.16804,31.9359902 L1247.78354,30.5169537 C1247.92554,30.4610139 1248.0822,30.462762 1248.22376,30.5221981 Z M1231.46869,27.1662447 L1230.02561,23.6112241 C1229.95227,23.4305122 1230.04183,23.2255451 1230.2256,23.1532167 C1230.40916,23.0811067 1230.61782,23.1691683 1230.69115,23.3498802 L1231.87113,26.2552556 C1232.52134,24.2936465 1233.77932,22.618729 1235.47952,21.4754585 C1237.44237,20.1558464 1239.75878,19.7004611 1242.00319,20.1940865 C1245.23047,20.9040417 1247.71688,23.4892927 1248.42086,26.8288575 C1248.46131,27.0196211 1248.32864,27.2016441 1248.13354,27.2339843 C1247.93843,27.2663246 1247.75443,27.1367452 1247.71354,26.9464186 C1247.05911,23.8904863 1244.78848,21.5289946 1241.84675,20.8819717 C1239.79856,20.4307382 1237.68104,20.8485389 1235.88396,22.0571454 C1234.27643,23.1381391 1233.09778,24.7365764 1232.50957,26.6083759 L1235.56618,25.40851 C1235.74974,25.3364001 1235.95862,25.4242431 1236.03195,25.604955 C1236.10529,25.7856669 1236.01595,25.990634 1235.83196,26.0629624 L1232.2169,27.4819989 C1232.14757,27.5090947 1232.07579,27.5226427 1232.00402,27.5226427 C1231.92691,27.5226427 1231.84958,27.5071281 1231.77647,27.4763175 C1231.63491,27.4166629 1231.5258,27.3065313 1231.46869,27.1662447 Z"></path>
        </g>
    </g>
</svg>
