<svg width="20" height="20" viewBox="0 0 20 20" fill="none" xmlns="http://www.w3.org/2000/svg">
<path fill-rule="evenodd" clip-rule="evenodd" d="M16.8169 3.18306C17.061 3.42714 17.061 3.82286 16.8169 4.06694L9.13388 11.75H11.375C11.7202 11.75 12 12.0298 12 12.375C12 12.7202 11.7202 13 11.375 13H7.625C7.54026 13 7.45945 12.9831 7.38576 12.9526C7.31372 12.9228 7.24612 12.8789 7.18716 12.821L7.179 12.8128C7.12109 12.7539 7.07723 12.6863 7.04742 12.6142C7.01687 12.5405 7 12.4597 7 12.375V8.625C7 8.27982 7.27982 8 7.625 8C7.97018 8 8.25 8.27982 8.25 8.625V10.8661L15.9331 3.18306C16.1771 2.93898 16.5729 2.93898 16.8169 3.18306ZM4 17C4.55228 17 5 16.5523 5 16C5 15.4477 4.55228 15 4 15C3.44772 15 3 15.4477 3 16C3 16.5523 3.44772 17 4 17Z" fill="#142431"/>
</svg>
