<svg width="20" height="20" viewBox="0 0 20 20" fill="none" xmlns="http://www.w3.org/2000/svg">
<path fill-rule="evenodd" clip-rule="evenodd" d="M4 15C3.44772 15 3 15.4477 3 16C3 16.5523 3.44772 17 4 17C4.55229 17 5 16.5523 5 16C5 15.4477 4.55229 15 4 15ZM7.18306 12.8169C6.93898 12.5729 6.93898 12.1771 7.18306 11.9331L14.8661 4.25L12.625 4.25C12.2798 4.25 12 3.97018 12 3.625C12 3.27982 12.2798 3 12.625 3L16.375 3C16.4597 3 16.5405 3.01687 16.6142 3.04742C16.6863 3.07723 16.7539 3.12109 16.8128 3.179L16.821 3.18716C16.8789 3.24612 16.9228 3.31372 16.9526 3.38576C16.9831 3.45945 17 3.54026 17 3.625L17 7.375C17 7.72018 16.7202 8 16.375 8C16.0298 8 15.75 7.72018 15.75 7.375L15.75 5.13388L8.06694 12.8169C7.82286 13.061 7.42714 13.061 7.18306 12.8169Z" fill="#142431"/>
</svg>
