<svg width="20" height="20" viewBox="0 0 20 20" fill="none" xmlns="http://www.w3.org/2000/svg">
<g clip-path="url(#clip0)">
<path fill-rule="evenodd" clip-rule="evenodd" d="M7.4653 3.15162C8.9183 2.62987 10.4969 2.56922 11.9857 2.97796C13.4744 3.3867 14.8007 4.24491 15.7836 5.43544C16.0034 5.70163 15.9658 6.09556 15.6996 6.31532C15.4334 6.53508 15.0395 6.49744 14.8197 6.23126C14.0006 5.23915 12.8953 4.52397 11.6547 4.18335C10.4141 3.84274 9.09858 3.89328 7.88775 4.32807C6.67692 4.76287 5.62976 5.56074 4.88922 6.61277C4.14871 7.66475 3.75087 8.91961 3.75 10.2061V10.572L5.18306 9.13893C5.42714 8.89485 5.82286 8.89485 6.06694 9.13893C6.31102 9.38301 6.31102 9.77874 6.06694 10.0228L3.59887 12.4909C3.48426 12.624 3.31447 12.7084 3.125 12.7084C2.93553 12.7084 2.76574 12.624 2.65113 12.4909L0.183058 10.0228C-0.0610194 9.77874 -0.0610194 9.38301 0.183058 9.13893C0.427136 8.89485 0.822864 8.89485 1.06694 9.13893L2.5 10.572V10.2059C2.50101 8.66201 2.97842 7.15569 3.86706 5.89325C4.75571 4.63082 6.0123 3.67338 7.4653 3.15162ZM16.2444 10.4704C16.1951 11.629 15.8243 12.7529 15.171 13.7152C14.4681 14.7506 13.4705 15.5511 12.3075 16.0132C11.1444 16.4752 9.86948 16.5774 8.64767 16.3067C7.42586 16.0359 6.31348 15.4046 5.45455 14.4944C5.21763 14.2434 4.82207 14.2319 4.57103 14.4688C4.32 14.7057 4.30854 15.1013 4.54546 15.3523C5.57618 16.4445 6.91104 17.2021 8.37721 17.5271C9.84338 17.852 11.3733 17.7293 12.769 17.1749C14.1646 16.6204 15.3617 15.6598 16.2052 14.4173C17.001 13.2451 17.4475 11.8729 17.4956 10.4604L18.9331 11.8978C19.1771 12.1419 19.5729 12.1419 19.8169 11.8978C20.061 11.6537 20.061 11.258 19.8169 11.0139L17.3178 8.5148C17.3151 8.51213 17.3125 8.50948 17.3097 8.50685C17.2515 8.45043 17.185 8.40758 17.1142 8.37829C17.0406 8.34774 16.9597 8.33087 16.875 8.33087C16.8642 8.33087 16.8535 8.33114 16.8428 8.33168C16.7698 8.33539 16.7001 8.35163 16.6358 8.3783C16.562 8.4088 16.493 8.45401 16.4331 8.51393L13.9331 11.0139C13.689 11.258 13.689 11.6537 13.9331 11.8978C14.1771 12.1419 14.5729 12.1419 14.8169 11.8978L16.2444 10.4704ZM10 7.70587C9.33696 7.70587 8.70107 7.96926 8.23223 8.4381C7.76339 8.90695 7.5 9.54283 7.5 10.2059C7.5 10.8689 7.76339 11.5048 8.23223 11.9736C8.70107 12.4425 9.33696 12.7059 10 12.7059C10.663 12.7059 11.2989 12.4425 11.7678 11.9736C12.2366 11.5048 12.5 10.8689 12.5 10.2059C12.5 9.54283 12.2366 8.90695 11.7678 8.4381C11.2989 7.96926 10.663 7.70587 10 7.70587ZM9.11612 9.32199C9.35054 9.08757 9.66848 8.95587 10 8.95587C10.3315 8.95587 10.6495 9.08757 10.8839 9.32199C11.1183 9.55641 11.25 9.87435 11.25 10.2059C11.25 10.5374 11.1183 10.8553 10.8839 11.0898C10.6495 11.3242 10.3315 11.4559 10 11.4559C9.66848 11.4559 9.35054 11.3242 9.11612 11.0898C8.8817 10.8553 8.75 10.5374 8.75 10.2059C8.75 9.87435 8.8817 9.55641 9.11612 9.32199Z" fill="#142431"/>
</g>
<defs>
<clipPath id="clip0">
<rect width="20" height="20" fill="white"/>
</clipPath>
</defs>
</svg>
