<svg version="1.0" xmlns="http://www.w3.org/2000/svg" width="544" height="546.667" viewBox="0 0 408 410">
  <path
    d="M174 8.5c-62 9.4-113.5 44.8-145.6 100-11.6 19.9-20.5 46.3-23.9 71.1-2.2 15.2-1.6 48.1 1 62.4 5.4 29.9 17.1 57.1 35.6 83.5 8.3 11.7 31.7 35.1 43.6 43.5 26.2 18.4 53.6 30.1 83.3 35.5 14.3 2.6 47.2 3.2 62.4 1 32.9-4.5 62.1-16.3 90.9-36.5 12-8.4 35.3-31.7 43.7-43.7 20-28.5 31.9-58 36.4-90.2 2.1-14.6 2.1-41.6 0-56.2-5.9-42.9-25-81.2-55.9-112.5-29.1-29.4-61.9-47.3-102.8-56C232 8.1 227.6 7.8 207 7.5c-17-.3-26.1 0-33 1zm51.5 25.6c65.8 8.4 121.8 54.7 142.9 118 6.8 20.3 8 28.7 8.1 54.4 0 18.2-.4 24.8-1.8 31.7-11.4 56.1-45.4 100.9-95.2 125.3-61.7 30.4-135.3 21.3-188.7-23.1-30.4-25.4-51.2-61-59.5-102.2-2.6-12.5-2.6-49.9 0-62.4 5.6-27.7 16.4-52.2 32.4-73.5 37.4-49.9 99.8-76.2 161.8-68.2z"/>
  <path
    d="M196.5 95.9c-1.6 1-17.7 16.7-35.7 34.8L128 163.6v5.8c0 5.3.3 6.1 3.4 9.2 3.1 3.1 3.9 3.4 9.2 3.4h5.8l21.8-21.7 21.8-21.7v79.3c0 87.3-.2 84.4 6.1 87.6 3.6 1.9 10.2 1.9 13.8 0 6.3-3.2 6.1-.3 6.1-87.6v-79.3l21.8 21.7 21.8 21.7h5.8c5.3 0 6.1-.3 9.2-3.4 3.1-3.1 3.4-3.9 3.4-9.2v-5.8l-33.2-33.4c-18.3-18.3-34.5-34-36-34.8-3.7-1.9-8.7-1.8-12.3.5z"/>
</svg>
