<svg xmlns="http://www.w3.org/2000/svg" width="16" height="16" viewBox="0 0 16 16">
  <path fill="#EBC538" fill-rule="nonzero" d="M15.84 13.04L9.25.74a1.426 1.426 0 0 0-2.498 0L.162 13.04a1.363 1.363 0 0 0 .594 1.86c.202.104.427.158.655.158H14.59c.779 0 1.41-.617 1.41-1.379 0-.222-.055-.442-.16-.64zM7.294 5.063c0-.38.316-.69.705-.69.39 0 .705.31.705.69v4.135c0 .38-.315.69-.705.69a.697.697 0 0 1-.705-.69V5.062zm.74 7.933h-.02a1.067 1.067 0 0 1-1.072-1.013 1.027 1.027 0 0 1 1.002-1.054h.039c.577 0 1.051.446 1.074 1.01a1.026 1.026 0 0 1-.998 1.056h-.024z"/>
</svg>
