<?xml version="1.0" encoding="UTF-8"?>
<svg width="75px" height="75px" viewBox="0 0 150 150" version="1.1" xmlns="http://www.w3.org/2000/svg" xmlns:xlink="http://www.w3.org/1999/xlink">
    <g id="browser" transform="translate(0.000000, 10.000000)" fill="#4C4C4C">
        <path d="M140.757751,0.146993318 L9.24224854,0.146993318 C4.14619453,0.146993318 0,4.30759334 0,9.42135301 L0,122.54075 C0,127.65451 4.14619453,131.81511 9.24224854,131.81511 L140.756607,131.81511 C145.853805,131.81511 150,127.65451 150,122.54075 L150,9.42135301 C150,4.30759334 145.853805,0.146993318 140.757751,0.146993318 Z M9.24224854,4.55679287 L140.756607,4.55679287 C143.429947,4.55679287 145.605469,6.73872494 145.605469,9.42135301 L145.605469,19.0000347 L138.257217,19.0000347 L138.257217,14.1354746 C138.257217,11.6193626 136.21788,9.57408818 133.711624,9.57408818 L44.4694518,9.57408818 C41.9631958,9.57408818 39.9238588,11.6193626 39.9238588,14.1354746 L39.9238588,19.0000347 L4.39453125,19.0000347 L4.39453125,9.42135301 C4.39453125,6.73872494 6.56890869,4.55679287 9.24224854,4.55679287 Z M119.469452,19.0000347 L119.469452,13.9838877 L133.711624,13.9838877 C133.795166,13.9838877 133.863831,14.0516425 133.863831,14.1354746 L133.863831,19.0000347 L119.469452,19.0000347 Z M100.681686,19.0000347 L100.681686,13.9838877 L115.074921,13.9838877 L115.074921,19.0000347 L100.681686,19.0000347 Z M82.0449829,19.0000347 C81.9614411,19.0000347 81.8939209,18.9322802 81.8939209,18.8484479 L81.8939209,13.9838877 L96.2871551,13.9838877 L96.2871551,19.0000347 L82.0449829,19.0000347 Z M58.7116242,18.8518931 C58.7116242,18.8691189 58.7116242,18.9127574 58.6692809,18.9552476 C58.6257935,19.0000347 58.5765838,19.0000347 58.5605622,19.0000347 L44.31839,19.0000347 L44.31839,14.1354746 C44.31839,14.0516425 44.3870543,13.9838877 44.4694518,13.9838877 L58.7116242,13.9838877 L58.7116242,18.8518931 Z M140.757751,127.40531 L9.24224854,127.40531 C6.56890869,127.40531 4.39453125,125.223378 4.39453125,122.54075 L4.39453125,42.2628757 L20.9861754,42.2628757 C22.1992494,42.2628757 23.183441,41.2764129 23.183441,40.0579759 C23.183441,38.8406878 22.1992494,37.8530761 20.9861754,37.8530761 L4.39453125,37.8530761 L4.39453125,23.4098343 L58.5605622,23.4098343 C59.7747803,23.4098343 60.9157562,22.9366995 61.7740632,22.0777073 C62.6335143,21.2164185 63.1061555,20.0714784 63.1061555,18.8518931 L63.1061555,13.9838877 L77.4993896,13.9838877 L77.4993896,18.8484479 C77.4993896,21.3634118 79.538727,23.4098343 82.0461272,23.4098343 L145.605469,23.4098343 L145.605469,37.8530761 L30.3783416,37.8530761 C29.1652679,37.8530761 28.181076,38.8406878 28.181076,40.0579759 C28.181076,41.2752646 29.1652679,42.2628757 30.3783416,42.2628757 L145.605469,42.2628757 L145.605469,122.539602 C145.605469,125.223378 143.431091,127.40531 140.757751,127.40531 Z" id="Shape" fill-rule="nonzero"></path>
        <path d="M11.6146087,13.9838877 C12.8276824,13.9838877 13.8118743,12.9962764 13.8118743,11.778988 C13.8118743,10.5605512 12.8276824,9.57408818 11.6146087,9.57408818 L11.5917205,9.57408818 C10.3775024,9.57408818 9.40589912,10.5605512 9.40589912,11.778988 C9.40589912,12.9962764 10.401535,13.9838877 11.6146087,13.9838877 Z" id="Path"></path>
        <path d="M21.0090639,13.9838877 C22.2221373,13.9838877 23.2063295,12.9962764 23.2063295,11.778988 C23.2063295,10.5605512 22.2221373,9.57408818 21.0090639,9.57408818 L20.9850311,9.57408818 C19.7719573,9.57408818 18.7992097,10.5605512 18.7992097,11.778988 C18.7992097,12.9962764 19.7948455,13.9838877 21.0090639,13.9838877 Z" id="Path"></path>
        <path d="M30.4023744,13.9838877 C31.6154479,13.9838877 32.59964,12.9962764 32.59964,11.778988 C32.59964,10.5605512 31.6154479,9.57408818 30.4023744,9.57408818 L30.3783416,9.57408818 C29.1652679,9.57408818 28.1936646,10.5605512 28.1936646,11.778988 C28.1936646,12.9962764 29.1893004,13.9838877 30.4023744,13.9838877 Z" id="Path"></path>
        <path d="M20.9838867,28.4271296 L11.5905762,28.4271296 C10.3775024,28.4271296 9.39331055,29.4135926 9.39331055,30.6320294 C9.39331055,31.8493181 10.3775024,32.8369291 11.5905762,32.8369291 L20.9838867,32.8369291 C22.1969604,32.8369291 23.1811523,31.8493181 23.1811523,30.6320294 C23.1811523,29.4135926 22.1981048,28.4271296 20.9838867,28.4271296 Z" id="Path"></path>
        <path d="M30.3794859,32.8369291 L114.923859,32.8369291 C116.138077,32.8369291 117.121124,31.8493181 117.121124,30.6320294 C117.121124,29.4135926 116.138077,28.4271296 114.923859,28.4271296 L30.3794859,28.4271296 C29.1664125,28.4271296 28.1822203,29.4135926 28.1822203,30.6320294 C28.1822203,31.8493181 29.1664125,32.8369291 30.3794859,32.8369291 Z" id="Path"></path>
        <path d="M124.318314,32.8369291 L126.665497,32.8369291 C127.878571,32.8369291 128.862762,31.8493181 128.862762,30.6320294 C128.862762,29.4135926 127.878571,28.4271296 126.665497,28.4271296 L124.318314,28.4271296 C123.104095,28.4271296 122.121048,29.4135926 122.121048,30.6320294 C122.121048,31.8493181 123.104095,32.8369291 124.318314,32.8369291 Z" id="Path"></path>
        <path d="M136.061096,32.8369291 L138.408279,32.8369291 C139.622498,32.8369291 140.605545,31.8493181 140.605545,30.6320294 C140.605545,29.4135926 139.622498,28.4271296 138.408279,28.4271296 L136.061096,28.4271296 C134.848022,28.4271296 133.863831,29.4135926 133.863831,30.6320294 C133.863831,31.8493181 134.848022,32.8369291 136.061096,32.8369291 Z" id="Path"></path>
    </g>
    <g id="login" transform="translate(35.000000, 80.000000)" fill="#4C4C4C">
        <path d="M70.3595496,0 L62.9517298,0 L10.6404504,0 C4.77322416,0 0,4.71609196 0,10.5128678 C0,16.3096436 4.77340839,21.0255535 10.6404504,21.0255535 L16.8772569,21.0255535 L16.0723234,21.6715611 C15.1454248,22.4156803 14.7283112,23.5939297 14.9836643,24.7463315 C15.2390174,25.8989153 16.116172,26.7973919 17.272999,27.0906346 L17.6910338,27.1967553 L15.6279427,35.1383345 C15.3749846,36.1121696 15.9689662,37.1040251 16.9544524,37.3539457 L23.2201842,38.9428441 C23.3710747,38.9812514 23.524913,39 23.6781986,39 C24.0054043,39 24.3298465,38.91372 24.6161515,38.7464388 C25.0367656,38.5005227 25.3413101,38.0997032 25.4627226,37.6322623 L27.525998,29.6903191 L27.9440328,29.7964398 C29.1008598,30.0896824 30.3074309,29.7198071 31.0930194,28.8309779 C31.878608,27.9423307 32.0871648,26.711294 31.6376254,25.6184144 L29.7479017,21.0253715 L62.9517298,21.0253715 L70.3595496,21.0253715 L70.3595496,21.0255535 C76.2267758,21.0255535 81,16.3096436 81,10.5128678 C81,4.71609196 76.2264074,0 70.3595496,0 Z M26.8877994,25.7702235 C26.3496418,25.6333405 25.7899284,25.7119754 25.3114637,25.9915662 C24.8331832,26.2709749 24.4938178,26.7176648 24.3560082,27.2488145 L22.3516888,34.9643184 L19.6548209,34.2802675 L21.658956,26.5656738 C21.7973183,26.033796 21.7177277,25.4806213 21.4345548,25.0079018 C21.1513818,24.5353642 20.6990788,24.2000737 20.1622108,24.064647 L19.2292323,23.8278321 L22.721085,21.0253715 L25.0131832,19.1858244 L25.7700307,21.0253715 L27.819304,26.0063102 L26.8877994,25.7702235 Z M61.1093552,17.3850487 L28.2500512,17.3850487 L27.4898874,15.5374925 C27.2699079,15.0030664 26.8067349,14.603157 26.2411259,14.4599031 C25.6751484,14.3161032 25.0745343,14.4462512 24.6213101,14.8101197 L21.412999,17.3850487 L10.6404504,17.3850487 C6.80499488,17.3850487 3.68474923,14.3020872 3.68474923,10.5128678 C3.68474923,6.72346632 6.80517912,3.64050482 10.6404504,3.64050482 L61.1093552,3.64050482 L61.1093552,17.3850487 Z M70.3595496,17.3850487 L64.7941044,17.3850487 L64.7941044,3.64050482 L70.3595496,3.64050482 C74.1950051,3.64050482 77.3152508,6.72346632 77.3152508,10.5128678 C77.3150665,14.3020872 74.1946366,17.3850487 70.3595496,17.3850487 Z" id="Shape" fill-rule="nonzero"></path>
        <path d="M71.3838095,6.69148238 C70.7343249,5.90293408 69.5417383,5.76877894 68.7202588,6.39259126 C67.8985896,7.01603954 67.7594008,8.16081798 68.4088854,8.94936627 L69.6860472,10.5000687 L68.4088854,12.0507711 C67.7594008,12.8393194 67.8987792,13.9840979 68.7202588,14.6075461 C69.0684205,14.8718518 69.4831425,15 69.89502,15 C70.4549991,14.999818 71.0094788,14.7629986 71.3838095,14.308655 L73.5911091,11.6290107 C74.136297,10.9673364 74.136297,10.032619 73.5911091,9.37112675 L71.3838095,6.69148238 Z" id="Path"></path>
        <path d="M10.152,11.7638804 C10.202,11.8858922 10.264,12.0019034 10.336,12.1099139 C10.41,12.2199245 10.494,12.3219344 10.586,12.4139433 C10.678,12.5061522 10.78,12.5901604 10.89,12.6619673 C10.998,12.7339743 11.114,12.7959803 11.234,12.8459851 C11.356,12.8959899 11.48,12.9339936 11.608,12.9599961 C11.738,12.9859986 11.868,13 12,13 C12.13,13 12.26,12.9859986 12.39,12.9599961 C12.518,12.9339936 12.644,12.8959899 12.764,12.8459851 C12.884,12.7959803 13.002,12.7339743 13.11,12.6619673 C13.218,12.5901604 13.322,12.5061522 13.414,12.4139433 C13.506,12.3219344 13.59,12.2199245 13.662,12.1099139 C13.734,12.0019034 13.796,11.8858922 13.846,11.7638804 C13.896,11.6438688 13.934,11.5180566 13.96,11.3900443 C13.986,11.2618319 14,11.1298191 14,11.0000065 C14,10.869994 13.986,10.7377812 13.96,10.6079686 C13.934,10.4819564 13.896,10.3559442 13.846,10.2339324 C13.796,10.1137208 13.734,9.9979096 13.662,9.88989915 C13.59,9.77968849 13.506,9.67767862 13.414,9.58566972 C13.322,9.49366082 13.218,9.40965269 13.11,9.33564553 C13.002,9.26363857 12.884,9.20163257 12.764,9.15162773 C12.644,9.10162289 12.518,9.06361922 12.39,9.0376167 C11.74,8.90780414 11.05,9.11962464 10.586,9.58566972 C10.494,9.67767862 10.41,9.77968849 10.336,9.88989915 C10.264,9.9979096 10.202,10.1137208 10.152,10.2339324 C10.102,10.3559442 10.064,10.4819564 10.038,10.6079686 C10.012,10.7377812 10,10.869994 10,11.0000065 C10,11.1298191 10.012,11.2620319 10.038,11.3900443 C10.064,11.5180566 10.102,11.6440688 10.152,11.7638804 Z" id="Path"></path>
        <path d="M20.152,11.7639039 C20.202,11.8859133 20.264,12.0019224 20.336,12.1099308 C20.41,12.2199393 20.494,12.3219473 20.586,12.4139544 C20.678,12.5061616 20.78,12.5901681 20.89,12.6619737 C20.998,12.7339793 21.114,12.7959841 21.234,12.845988 C21.356,12.8959919 21.482,12.9339949 21.608,12.9599969 C21.738,12.9859989 21.87,13 22,13 C22.13,13 22.262,12.9859989 22.39,12.9599969 C22.518,12.9339949 22.644,12.8959919 22.764,12.845988 C22.886,12.7959841 23.002,12.7339793 23.11,12.6619737 C23.22,12.5901681 23.322,12.5061616 23.414,12.4139544 C23.506,12.3219473 23.59,12.2199393 23.662,12.1099308 C23.734,12.0019224 23.796,11.8859133 23.846,11.7639039 C23.896,11.6438945 23.934,11.5180847 23.96,11.3900748 C23.986,11.2618648 24,11.1298545 24,11.0000444 C24,10.8700343 23.986,10.737824 23.96,10.6080139 C23.934,10.4820041 23.896,10.3559943 23.846,10.2339848 C23.796,10.1137755 23.734,9.99796649 23.662,9.88995809 C23.59,9.77974951 23.506,9.67774158 23.414,9.58573442 C22.95,9.11969817 22.26,8.90768168 21.608,9.03769179 C21.482,9.06369382 21.356,9.10169677 21.234,9.15170066 C21.114,9.20170455 20.998,9.26370937 20.89,9.33571498 C20.78,9.40972073 20.678,9.49372727 20.586,9.58573442 C20.494,9.67774158 20.41,9.77974951 20.336,9.88995809 C20.264,9.99796649 20.202,10.1137755 20.152,10.2339848 C20.102,10.3559943 20.064,10.4820041 20.038,10.6080139 C20.012,10.737824 20,10.8700343 20,11.0000444 C20,11.1298545 20.012,11.2620648 20.038,11.3900748 C20.064,11.5180847 20.102,11.6440945 20.152,11.7639039 Z" id="Path"></path>
        <path d="M30.154,11.7639039 C30.204,11.8859133 30.266,12.0019224 30.338,12.1099308 C30.41,12.2199393 30.494,12.3219473 30.586,12.4139544 C30.678,12.5061616 30.78,12.5901681 30.89,12.6619737 C30.998,12.7339793 31.114,12.7959841 31.236,12.845988 C31.356,12.8959919 31.482,12.9339949 31.61,12.9599969 C31.738,12.9859989 31.87,13 32,13 C32.13,13 32.262,12.9859989 32.39,12.9599969 C32.518,12.9339949 32.644,12.8959919 32.764,12.845988 C32.886,12.7959841 33.002,12.7339793 33.11,12.6619737 C33.22,12.5901681 33.322,12.5061616 33.414,12.4139544 C33.506,12.3219473 33.59,12.2199393 33.662,12.1099308 C33.734,12.0019224 33.796,11.8859133 33.846,11.7639039 C33.896,11.6438945 33.934,11.5180847 33.96,11.3900748 C33.986,11.2618648 34,11.1298545 34,11.0000444 C34,10.8700343 33.986,10.737824 33.96,10.6080139 C33.936,10.4820041 33.896,10.3559943 33.846,10.2339848 C33.796,10.1137755 33.734,9.99796649 33.662,9.88995809 C33.59,9.77974951 33.506,9.67774158 33.414,9.58573442 C32.95,9.11969817 32.258,8.90768168 31.61,9.03769179 C31.482,9.06369382 31.356,9.10169677 31.234,9.15170066 C31.114,9.20170455 30.998,9.26370937 30.89,9.33571498 C30.78,9.40972073 30.678,9.49372727 30.586,9.58573442 C30.494,9.67774158 30.41,9.77974951 30.338,9.88995809 C30.266,9.99796649 30.204,10.1137755 30.154,10.2339848 C30.104,10.3559943 30.064,10.4820041 30.04,10.6080139 C30.014,10.737824 30,10.8700343 30,11.0000444 C30,11.1298545 30.014,11.2620648 30.04,11.3900748 C30.064,11.5180847 30.104,11.6440945 30.154,11.7639039 Z" id="Path"></path>
        <path d="M40.154,11.7639039 C40.204,11.8859133 40.266,12.0019224 40.338,12.1099308 C40.41,12.2199393 40.494,12.3219473 40.586,12.4139544 C40.678,12.5061616 40.78,12.5901681 40.89,12.6619737 C40.998,12.7339793 41.114,12.7959841 41.236,12.845988 C41.356,12.8959919 41.482,12.9339949 41.61,12.9599969 C41.738,12.9859989 41.87,13 42,13 C42.13,13 42.262,12.9859989 42.39,12.9599969 C42.518,12.9339949 42.644,12.8959919 42.764,12.845988 C42.886,12.7959841 43.002,12.7339793 43.11,12.6619737 C43.22,12.5901681 43.322,12.5061616 43.414,12.4139544 C43.506,12.3219473 43.59,12.2199393 43.662,12.1099308 C43.734,12.0019224 43.796,11.8859133 43.846,11.7639039 C43.896,11.6438945 43.936,11.5180847 43.96,11.3900748 C43.986,11.2618648 44,11.1298545 44,11.0000444 C44,10.8700343 43.986,10.737824 43.96,10.6080139 C43.936,10.4820041 43.896,10.3559943 43.846,10.2339848 C43.796,10.1137755 43.734,9.99796649 43.662,9.88995809 C43.59,9.77974951 43.506,9.67774158 43.414,9.58573442 C42.95,9.11969817 42.258,8.90768168 41.61,9.03769179 C41.482,9.06369382 41.356,9.10169677 41.236,9.15170066 C41.114,9.20170455 40.998,9.26370937 40.89,9.33571498 C40.78,9.40972073 40.678,9.49372727 40.586,9.58573442 C40.494,9.67774158 40.41,9.77974951 40.338,9.88995809 C40.266,9.99796649 40.204,10.1137755 40.154,10.2339848 C40.104,10.3559943 40.066,10.4820041 40.04,10.6080139 C40.014,10.737824 40,10.8700343 40,11.0000444 C40,11.1298545 40.014,11.2620648 40.04,11.3900748 C40.066,11.5180847 40.104,11.6440945 40.154,11.7639039 Z" id="Path"></path>
        <path d="M50.154,11.7643089 C50.204,11.8862784 50.266,12.0022494 50.338,12.1102224 C50.41,12.220195 50.494,12.3221695 50.586,12.4141465 C50.678,12.5063234 50.78,12.5903024 50.89,12.6620845 C50.998,12.7340665 51.114,12.796051 51.236,12.8460385 C51.356,12.896026 51.482,12.9340165 51.61,12.96001 C51.738,12.9860035 51.87,13 52,13 C52.13,13 52.262,12.9860035 52.392,12.96001 C52.518,12.9340165 52.644,12.896026 52.766,12.8460385 C52.886,12.796051 53.002,12.7340665 53.11,12.6620845 C53.22,12.5903024 53.322,12.5063234 53.414,12.4141465 C53.506,12.3221695 53.59,12.220195 53.664,12.1102224 C53.736,12.0022494 53.798,11.8862784 53.848,11.7643089 C53.898,11.6443389 53.936,11.5185704 53.962,11.3906023 C53.988,11.2624344 54,11.1304674 54,11.0006998 C54,10.8707323 53.988,10.7385654 53.962,10.6087978 C53.936,10.4828293 53.898,10.3568608 53.848,10.2348913 C53.798,10.1147213 53.736,9.99895026 53.664,9.89097726 C53.59,9.7808048 53.506,9.67883029 53.414,9.58685329 C53.322,9.49487628 53.22,9.41089728 53.11,9.33691577 C53.002,9.26493377 52.886,9.20294926 52.766,9.15296176 C52.644,9.10297426 52.518,9.06498375 52.392,9.03899025 C52.134,8.98700325 51.868,8.98700325 51.61,9.03899025 C51.482,9.06498375 51.356,9.10297426 51.236,9.15296176 C51.114,9.20294926 50.998,9.26493377 50.89,9.33691577 C50.78,9.41089728 50.678,9.49487628 50.586,9.58685329 C50.494,9.67883029 50.41,9.7808048 50.338,9.89097726 C50.266,9.99895026 50.204,10.1147213 50.154,10.2348913 C50.104,10.3568608 50.066,10.4828293 50.04,10.6087978 C50.014,10.7385654 50,10.8707323 50,11.0006998 C50,11.1304674 50.014,11.2626343 50.04,11.3906023 C50.066,11.5185704 50.104,11.6445389 50.154,11.7643089 Z" id="Path"></path>
    </g>

</svg>
