<svg width="24" height="24" viewBox="0 0 24 24" fill="none" xmlns="http://www.w3.org/2000/svg">
<path d="M18.811 2.00001H9.64158V14.3743H22.0158V5.20481C22.0177 4.35427 21.6807 3.53803 21.0792 2.93661C20.4778 2.33519 19.6616 1.99815 18.811 2.00001ZM6.78203 2.00001H5.20481C4.35427 1.99815 3.53803 2.33519 2.93661 2.93661C2.33519 3.53803 1.99815 4.35427 2.00001 5.20481V6.78103H6.78203V2.00001ZM2.00002 9.64158H6.78203V14.4236H2.00002V9.64158ZM17.2831 22.0158H18.8604C19.7109 22.0177 20.5271 21.6807 21.1286 21.0792C21.73 20.4778 22.067 19.6616 22.0652 18.811V17.2831H17.2831V22.0158ZM9.64158 17.2831H14.4236V22.0651H9.64158V17.2831ZM2.00001 17.2831V18.8604C1.99815 19.7109 2.33519 20.5271 2.93661 21.1286C3.53803 21.73 4.35427 22.067 5.20481 22.0652H6.78103V17.2831H2.00001Z" fill="#142533"/>
</svg>
