<?xml version="1.0" encoding="UTF-8"?>
<svg width="65px" height="74px" viewBox="0 0 65 74" version="1.1" xmlns="http://www.w3.org/2000/svg" xmlns:xlink="http://www.w3.org/1999/xlink">
    <!-- Generator: Sketch 48.2 (47327) - http://www.bohemiancoding.com/sketch -->
    <title>Group</title>
    <desc>Created with Sketch.</desc>
    <defs></defs>
    <g id="regstrationexsting-wallet_Start2" stroke="none" stroke-width="1" fill="none" fill-rule="evenodd" transform="translate(-909.000000, -407.000000)">
        <g id="Group" transform="translate(909.000000, 407.000000)">
            <polygon id="Page-1" fill="#EFEFEF" points="32.5889139 0 0.57421875 18.4833813 0.57421875 55.450144 32.5889139 73.9335253 64.6028697 55.450144 64.6028697 18.4833813"></polygon>
            <g id="padlock-unlock" transform="translate(21.000000, 20.000000)" fill="#C4C5C6" fill-rule="nonzero">
                <path d="M23.4166681,16.0650283 C23.0276588,15.6881778 22.5556083,15.5000707 21.9997869,15.5000707 L6.66650036,15.5000707 L6.66650036,9.04179627 C6.66650036,7.6153348 7.18744156,6.39783414 8.22917802,5.38865807 C9.27098745,4.37969407 10.5278429,3.87510604 12.0001823,3.87510604 C13.4723757,3.87510604 14.7294501,4.37962338 15.7708217,5.38865807 C16.8126311,6.39783414 17.3335723,7.61540549 17.3335723,9.04179627 C17.3335723,9.39150165 17.4654312,9.69419791 17.729076,9.94981438 C17.9933046,10.2055015 18.3059132,10.3333805 18.6665367,10.3333805 L20.0005227,10.3333805 C20.3613651,10.3333805 20.6738277,10.2055015 20.9380563,9.94981438 C21.2011904,9.69419791 21.3335601,9.39150165 21.3335601,9.04179627 C21.3335601,6.55236334 20.4203258,4.42352211 18.5941493,2.65407085 C16.7676808,0.884548904 14.5695702,0 12.0001823,0 C9.4305754,0 7.23268369,0.884548904 5.4060693,2.65400016 C3.5797468,4.42323935 2.66658555,6.55229265 2.66658555,9.04172558 L2.66658555,15.5 L1.99999389,15.5 C1.4446103,15.5 0.9722679,15.6885313 0.583331552,16.0649576 C0.194395203,16.441384 0,16.8991043 0,17.4373409 L0,29.0625177 C0,29.6009664 0.194468174,30.0584746 0.583331552,30.4351131 C0.9722679,30.8115394 1.4446103,31 1.99999389,31 L21.9997869,31 C22.5556083,31 23.0280966,30.8115394 23.4166681,30.4351131 C23.8052396,30.0584746 23.9999997,29.6009664 23.9999997,29.0625177 L23.9999997,17.4374116 C24.0002916,16.899175 23.8057504,16.4419495 23.4166681,16.0650283 Z" id="Shape"></path>
            </g>
        </g>
    </g>
</svg>