<svg width="24" height="24" viewBox="0 0 24 24" fill="none" xmlns="http://www.w3.org/2000/svg">
<path fill-rule="evenodd" clip-rule="evenodd" d="M7.67807 19.2913L10.2783 19.9811V19.079L10.4906 18.8667H11.9764V19.9281V20.671H10.3844L8.42099 19.8219L7.67807 19.2913Z" fill="#CDBDB2"/>
<path fill-rule="evenodd" clip-rule="evenodd" d="M16.1686 19.2913L13.6215 19.9811V19.079L13.4092 18.8667H11.9234V19.9281V20.671H13.5153L15.4788 19.8219L16.1686 19.2913Z" fill="#CDBDB2"/>
<path fill-rule="evenodd" clip-rule="evenodd" d="M10.4906 17.3278L10.2783 19.079L10.5436 18.8667H13.3031L13.6215 19.079L13.4092 17.3278L12.9847 17.0625L10.862 17.1156L10.4906 17.3278Z" fill="#393939"/>
<path fill-rule="evenodd" clip-rule="evenodd" d="M9.0578 5.49409L10.3314 8.46579L10.9151 17.1156H12.9847L13.6215 8.46579L14.7889 5.49409H9.0578Z" fill="#F89C35"/>
<path fill-rule="evenodd" clip-rule="evenodd" d="M3.48585 12.0212L2 16.3196L5.71462 16.1073H8.10259V14.25L7.99646 10.4292L7.4658 10.8538L3.48585 12.0212Z" fill="#F89D35"/>
<path fill-rule="evenodd" clip-rule="evenodd" d="M6.29834 12.4988L10.6498 12.6049L10.1722 14.8337L8.10259 14.3031L6.29834 12.4988Z" fill="#D87C30"/>
<path fill-rule="evenodd" clip-rule="evenodd" d="M6.29834 12.5519L8.10259 14.25V15.9481L6.29834 12.5519Z" fill="#EA8D3A"/>
<path fill-rule="evenodd" clip-rule="evenodd" d="M8.1026 14.3031L10.2252 14.8337L10.9151 17.1156L10.4375 17.3809L8.1026 16.0012V14.3031Z" fill="#F89D35"/>
<path fill-rule="evenodd" clip-rule="evenodd" d="M8.1026 16.0012L7.67807 19.2913L10.4906 17.3278L8.1026 16.0012Z" fill="#EB8F35"/>
<path fill-rule="evenodd" clip-rule="evenodd" d="M10.6498 12.6049L10.9151 17.1156L10.1191 14.8072L10.6498 12.6049Z" fill="#EA8E3A"/>
<path fill-rule="evenodd" clip-rule="evenodd" d="M5.66156 16.0542L8.1026 16.0012L7.67807 19.2913L5.66156 16.0542Z" fill="#D87C30"/>
<path fill-rule="evenodd" clip-rule="evenodd" d="M3.16745 20.7241L7.67807 19.2913L5.66156 16.0542L2 16.3196L3.16745 20.7241Z" fill="#EB8F35"/>
<path fill-rule="evenodd" clip-rule="evenodd" d="M10.3314 8.46581L8.04952 10.3762L6.29834 12.4988L10.6498 12.658L10.3314 8.46581Z" fill="#E8821E"/>
<path fill-rule="evenodd" clip-rule="evenodd" d="M7.67807 19.2913L10.4906 17.3278L10.2783 19.0259V19.9811L8.36793 19.6097L7.67807 19.2913Z" fill="#DFCEC3"/>
<path fill-rule="evenodd" clip-rule="evenodd" d="M16.1686 19.2913L13.4092 17.3278L13.6215 19.0259V19.9811L15.5318 19.6097L16.1686 19.2913Z" fill="#DFCEC3"/>
<path fill-rule="evenodd" clip-rule="evenodd" d="M9.48231 13.5601L10.066 14.7807L7.99646 14.25L9.48231 13.5601Z" fill="#393939"/>
<path fill-rule="evenodd" clip-rule="evenodd" d="M3.11438 3L10.3314 8.4658L9.11084 5.4941L3.11438 3Z" fill="#E88F35"/>
<path fill-rule="evenodd" clip-rule="evenodd" d="M3.1144 3L2.15921 5.91863L2.68987 9.10259L2.31841 9.31486L2.84907 9.79245L2.42454 10.1639L3.00827 10.6946L2.6368 11.013L3.48586 12.0743L7.46581 10.8538C9.41157 9.29717 10.3668 8.50118 10.3314 8.4658C10.296 8.43042 7.89034 6.60849 3.1144 3Z" fill="#8E5A30"/>
<path fill-rule="evenodd" clip-rule="evenodd" d="M20.3609 12.0212L21.8467 16.3196L18.1321 16.1073H15.7441V14.25L15.8502 10.4292L16.3809 10.8538L20.3609 12.0212Z" fill="#F89D35"/>
<path fill-rule="evenodd" clip-rule="evenodd" d="M17.5484 12.4988L13.197 12.6049L13.6746 14.8337L15.7441 14.3031L17.5484 12.4988Z" fill="#D87C30"/>
<path fill-rule="evenodd" clip-rule="evenodd" d="M17.5484 12.5519L15.7441 14.25V15.9481L17.5484 12.5519Z" fill="#EA8D3A"/>
<path fill-rule="evenodd" clip-rule="evenodd" d="M15.7441 14.3031L13.6215 14.8337L12.9316 17.1156L13.4092 17.3809L15.7441 16.0012V14.3031Z" fill="#F89D35"/>
<path fill-rule="evenodd" clip-rule="evenodd" d="M15.7441 16.0012L16.1686 19.2913L13.4092 17.3809L15.7441 16.0012Z" fill="#EB8F35"/>
<path fill-rule="evenodd" clip-rule="evenodd" d="M13.1969 12.6049L12.9316 17.1156L13.7276 14.8072L13.1969 12.6049Z" fill="#EA8E3A"/>
<path fill-rule="evenodd" clip-rule="evenodd" d="M18.1852 16.0542L15.7441 16.0012L16.1686 19.2913L18.1852 16.0542Z" fill="#D87C30"/>
<path fill-rule="evenodd" clip-rule="evenodd" d="M20.6793 20.7241L16.1686 19.2913L18.1852 16.0542L21.8467 16.3196L20.6793 20.7241Z" fill="#EB8F35"/>
<path fill-rule="evenodd" clip-rule="evenodd" d="M13.5154 8.46581L15.7972 10.3762L17.5484 12.4988L13.197 12.658L13.5154 8.46581Z" fill="#E8821E"/>
<path fill-rule="evenodd" clip-rule="evenodd" d="M14.3644 13.5601L13.7807 14.7807L15.8502 14.25L14.3644 13.5601Z" fill="#393939"/>
<path fill-rule="evenodd" clip-rule="evenodd" d="M20.7323 3L13.5153 8.4658L14.7359 5.4941L20.7323 3Z" fill="#E88F35"/>
<path fill-rule="evenodd" clip-rule="evenodd" d="M20.7323 3L21.6875 5.91863L21.1568 9.10259L21.5283 9.31486L20.9976 9.79245L21.4222 10.1639L20.8384 10.6946L21.2099 11.013L20.3608 12.0743L16.3809 10.8538C14.4351 9.29717 13.48 8.50118 13.5153 8.4658C13.5507 8.43042 15.9564 6.60849 20.7323 3Z" fill="#8E5A30"/>
</svg>
