<?xml version="1.0" encoding="UTF-8"?>
<svg width="75px" height="75px" viewBox="0 0 150 150" version="1.1" xmlns="http://www.w3.org/2000/svg" xmlns:xlink="http://www.w3.org/1999/xlink">
    <g id="browser" transform="translate(0.000000, 10.000000)" fill="#4C4C4C">
        <path d="M140.757751,0 L9.24224854,0 C4.14619453,0 0,4.17108725 0,9.29773668 L0,122.702263 C0,127.828913 4.14619453,132 9.24224854,132 L140.756607,132 C145.853805,132 150,127.828913 150,122.702263 L150,9.29773668 C150,4.17108725 145.853805,0 140.757751,0 Z M9.24224854,4.42091492 L140.756607,4.42091492 C143.429947,4.42091492 145.605469,6.60834678 145.605469,9.29773668 L145.605469,18.9005625 L138.257217,18.9005625 L138.257217,14.0237407 C138.257217,11.5012866 136.21788,9.45085684 133.711624,9.45085684 L44.4694518,9.45085684 C41.9631958,9.45085684 39.9238588,11.5012866 39.9238588,14.0237407 L39.9238588,18.9005625 L4.39453125,18.9005625 L4.39453125,9.29773668 C4.39453125,6.60834678 6.56890869,4.42091492 9.24224854,4.42091492 Z M119.469452,18.9005625 L119.469452,13.8717718 L133.711624,13.8717718 C133.795166,13.8717718 133.863831,13.9396973 133.863831,14.0237407 L133.863831,18.9005625 L119.469452,18.9005625 Z M100.681686,18.9005625 L100.681686,13.8717718 L115.074921,13.8717718 L115.074921,18.9005625 L100.681686,18.9005625 Z M82.0449829,18.9005625 C81.9614411,18.9005625 81.8939209,18.8326372 81.8939209,18.7485935 L81.8939209,13.8717718 L96.2871551,13.8717718 L96.2871551,18.9005625 L82.0449829,18.9005625 Z M58.7116242,18.7520474 C58.7116242,18.7693167 58.7116242,18.8130652 58.6692809,18.8556625 C58.6257935,18.9005625 58.5765838,18.9005625 58.5605622,18.9005625 L44.31839,18.9005625 L44.31839,14.0237407 C44.31839,13.9396973 44.3870543,13.8717718 44.4694518,13.8717718 L58.7116242,13.8717718 L58.7116242,18.7520474 Z M140.757751,127.579085 L9.24224854,127.579085 C6.56890869,127.579085 4.39453125,125.391653 4.39453125,122.702263 L4.39453125,42.2220399 L20.9861754,42.2220399 C22.1992494,42.2220399 23.183441,41.2330906 23.183441,40.0115824 C23.183441,38.791226 22.1992494,37.8011249 20.9861754,37.8011249 L4.39453125,37.8011249 L4.39453125,23.3214774 L58.5605622,23.3214774 C59.7747803,23.3214774 60.9157562,22.8471501 61.7740632,21.9859927 C62.6335143,21.1225329 63.1061555,19.9747069 63.1061555,18.7520474 L63.1061555,13.8717718 L77.4993896,13.8717718 L77.4993896,18.7485935 C77.4993896,21.2698967 79.538727,23.3214774 82.0461272,23.3214774 L145.605469,23.3214774 L145.605469,37.8011249 L30.3783416,37.8011249 C29.1652679,37.8011249 28.181076,38.791226 28.181076,40.0115824 C28.181076,41.2319394 29.1652679,42.2220399 30.3783416,42.2220399 L145.605469,42.2220399 L145.605469,122.701112 C145.605469,125.391653 143.431091,127.579085 140.757751,127.579085 Z" id="Shape" fill-rule="nonzero"></path>
        <path d="M12.0051947,14 C13.1064935,14 14,13.1041667 14,12 C14,10.8947917 13.1064935,10 12.0051947,10 L11.9844155,10 C10.8820779,10 10,10.8947917 10,12 C10,13.1041667 10.903896,14 12.0051947,14 Z" id="Path"></path>
        <path d="M21.0057128,14 C22.1067253,14 23,13.1041667 23,12 C23,10.8947917 22.1067253,10 21.0057128,10 L20.9839001,10 C19.8828874,10 19,10.8947917 19,12 C19,13.1041667 19.9036612,14 21.0057128,14 Z" id="Path"></path>
        <path d="M31.0051949,14 C32.1064933,14 33,13.1041667 33,12 C33,10.8947917 32.1064933,10 31.0051949,10 L30.9833765,10 C29.8820778,10 29,10.8947917 29,12 C29,13.1041667 29.9038959,14 31.0051949,14 Z" id="Path"></path>
        <path d="M20.7689243,29 L11.2310757,29 C9.99933599,29 9,29.8947917 9,31 C9,32.1041669 9.99933599,33 11.2310757,33 L20.7689243,33 C22.000664,33 23,32.1041669 23,31 C23,29.8947917 22.001826,29 20.7689243,29 Z" id="Path"></path>
        <path d="M30.198775,33 L114.801225,33 C116.016277,33 117,32.1041669 117,31 C117,29.8947917 116.016277,29 114.801225,29 L30.198775,29 C28.9848683,29 28,29.8947917 28,31 C28,32.1041669 28.9848683,33 30.198775,33 Z" id="Path"></path>
        <path d="M124.281446,33 L126.718554,33 C127.978102,33 129,32.1041669 129,31 C129,29.8947917 127.978102,29 126.718554,29 L124.281446,29 C123.020709,29 122,29.8947917 122,31 C122,32.1041669 123.020709,33 124.281446,33 Z" id="Path"></path>
        <path d="M136.281446,33 L138.718554,33 C139.97929,33 141,32.1041669 141,31 C141,29.8947917 139.97929,29 138.718554,29 L136.281446,29 C135.021898,29 134,29.8947917 134,31 C134,32.1041669 135.021898,33 136.281446,33 Z" id="Path"></path>
        <path d="M60.7223306,69.3306095 C66.8038973,63.2972964 75.7346033,61.6437285 83.4077902,64.7013559 L77.9749364,65.4379118 C76.999547,65.5695712 76.317424,66.4617244 76.4501364,67.4284541 C76.5726401,68.315083 77.3364322,68.9568075 78.2134474,68.9568075 C78.2941885,68.9568075 78.3758576,68.9522041 78.4575268,68.9411555 L89.4596592,67.4487093 C90.0796019,67.3640053 90.6104516,66.9635033 90.856387,66.3926722 C91.1023224,65.8218417 91.0290057,65.1644655 90.6624228,64.6608453 L84.1576613,55.7319471 C83.5813371,54.9410702 82.4676671,54.7633761 81.6695368,55.3351276 C80.8723346,55.906879 80.6932194,57.0117128 81.2695436,57.8035103 L83.6147472,61.0222594 C80.4454277,59.9422845 77.0598707,59.4985094 73.6706014,59.759987 C67.8377544,60.2092861 62.3445767,62.7209415 58.201724,66.8309232 C54.0588713,70.9409049 51.5280562,76.3904974 51.0742355,82.1770642 C50.6259832,87.8936586 52.2185317,93.6047286 55.5586137,98.2579201 C55.9066356,98.7422055 56.45419,99 57.0119533,99 C57.3692557,99 57.7302703,98.8931996 58.0439542,98.6722329 C58.8457967,98.1060055 59.0323363,97.0020924 58.4615804,96.206612 C52.478388,87.8697204 53.4287198,76.5663501 60.7223306,69.3306095 Z" id="Path"></path>
        <path d="M92.9560092,70.327976 C92.1541626,70.8942004 91.9676219,71.9981081 92.5383806,72.7935846 C98.5225325,81.1304354 97.5721957,92.4337502 90.2785468,99.6694554 C84.1969483,105.702739 75.2652676,107.356299 67.5929686,104.298686 L73.0258508,103.562134 C74.0012453,103.430475 74.6833719,102.538326 74.5497308,101.571601 C74.4170177,100.603956 73.5195805,99.9254074 72.5432579,100.058907 L61.54014,101.551346 C60.9201937,101.63605 60.3902696,102.03655 60.1443329,102.607378 C59.8974682,103.178206 59.9707852,103.835579 60.33737,104.339197 L66.8430935,113.268051 C67.1911171,113.745889 67.7358903,114 68.288088,114 C68.6500327,114 69.0156896,113.891359 69.3312311,113.664869 C70.1284374,113.09312 70.3075536,111.988292 69.7312264,111.196498 L67.3869385,107.979606 C69.9595298,108.856103 72.674115,109.313686 75.418398,109.313686 C76.0541213,109.313686 76.6917008,109.289748 77.3292803,109.240031 C83.1621578,108.790734 88.6562922,106.279091 92.7982383,102.16913 C96.9411127,98.0600888 99.4728692,92.6096021 99.9257641,86.8230636 C100.374019,81.1064975 98.7814622,75.3963761 95.4413625,70.7432074 C94.8706037,69.9468101 93.7578558,69.7617514 92.9560092,70.327976 Z" id="Path"></path>
    </g>
</svg>
