<?xml version="1.0" encoding="UTF-8"?>
<svg width="65px" height="74px" viewBox="0 0 65 74" version="1.1" xmlns="http://www.w3.org/2000/svg" xmlns:xlink="http://www.w3.org/1999/xlink">
    <!-- Generator: Sketch 48.2 (47327) - http://www.bohemiancoding.com/sketch -->
    <title>Wallet_confirm</title>
    <desc>Created with Sketch.</desc>
    <defs>
        <circle id="path-1" cx="7" cy="7" r="7"></circle>
    </defs>
    <g id="regstrationexsting-wallet_confirm" stroke="none" stroke-width="1" fill="none" fill-rule="evenodd" transform="translate(-651.000000, -407.000000)">
        <g id="Wallet_confirm" transform="translate(651.000000, 407.000000)">
            <polygon id="Page-1" fill="#EFEFEF" points="32.0146951 0 0 18.4833813 0 55.450144 32.0146951 73.9335253 64.0286509 55.450144 64.0286509 18.4833813"></polygon>
            <g id="Group-4" transform="translate(16.000000, 24.000000)" fill="#C4C5C6" fill-rule="nonzero">
                <g id="Group-8">
                    <g id="005-wallet" transform="translate(0.416499, 0.099598)">
                        <path d="M28.249497,13.0382294 C27.0499799,13.0382294 26.0764588,14.0117505 26.0764588,15.2112676 C26.0764588,16.4107847 27.0499799,17.3843058 28.249497,17.3843058 L34.7686117,17.3843058 L34.7686117,13.0382294 L28.249497,13.0382294 Z" id="Shape"></path>
                        <path d="M28.249497,10.8651911 L32.5955734,10.8651911 L32.5955734,5.43259557 C32.5955734,4.83283702 32.1088129,4.34607646 31.5090543,4.34607646 L28.249497,4.34607646 L28.249497,1.08651911 C28.249497,0.486760563 27.7627364,0 27.1629779,0 L3.25955734,0 C1.46245473,0 0,1.46245473 0,3.25955734 L0,22.8169014 C0,24.614004 1.46245473,26.0764588 3.25955734,26.0764588 L31.5090543,26.0764588 C32.1088129,26.0764588 32.5955734,25.5896982 32.5955734,24.9899396 L32.5955734,19.5573441 L28.249497,19.5573441 C25.8526358,19.5573441 23.9034205,17.6081288 23.9034205,15.2112676 C23.9034205,12.8144064 25.8526358,10.8651911 28.249497,10.8651911 Z M3.25955734,4.34607646 C2.65979879,4.34607646 2.17303823,3.8593159 2.17303823,3.25955734 C2.17303823,2.65979879 2.65979879,2.17303823 3.25955734,2.17303823 L26.0764588,2.17303823 L26.0764588,4.34607646 L3.25955734,4.34607646 Z" id="Shape"></path>
                    </g>
                </g>
            </g>
            <g id="Group-7" transform="translate(16.000000, 37.000000)">
                <g id="Oval-2">
                    <use fill="#C4C5C6" fill-rule="evenodd" xlink:href="#path-1"></use>
                    <circle stroke="#EFEFEF" stroke-width="3" cx="7" cy="7" r="8.5"></circle>
                </g>
                <path d="M5.16065161,9.22425488 L6.04270718,9.14710676 L5.56612527,8.75440467 L5.16065161,9.22425488 Z M9.3948188,4.31783419 C9.73209254,3.92700908 10.312266,3.89192536 10.6909409,4.23863236 C11.0709673,4.58552266 11.1051132,5.1846038 10.7679172,5.57451018 L6.3602675,10.6819935 C6.18410987,10.8864664 5.9335334,11 5.67335921,11 C5.46659285,11 5.26435844,10.9283485 5.09958326,10.7927549 L2.34443627,8.52246056 C1.94864353,8.19613053 1.88451435,7.60134676 2.20120315,7.19289163 C2.51787184,6.78517114 3.09675189,6.71869221 3.49184805,7.04520635 L5.56612527,8.75440467 L9.3948188,4.31783419 Z" id="Shape" fill="#F6F9FE" fill-rule="nonzero"></path>
            </g>
        </g>
    </g>
</svg>