<svg width="18" height="21" xmlns="http://www.w3.org/2000/svg">
  <path d="M16.953 14.797c.365.39.547.84.547 1.348 0 .507-.176.944-.527 1.308-.352.365-.801.547-1.348.547H11.25c0 .677-.247 1.263-.742 1.758-.495.495-1.08.742-1.758.742-.677 0-1.263-.247-1.758-.742-.495-.495-.742-1.08-.742-1.758H1.875c-.547 0-.996-.182-1.348-.547A1.819 1.819 0 0 1 0 16.145c0-.508.195-.957.586-1.348.39-.39.677-.742.86-1.055.312-.495.56-1.107.741-1.836.209-.885.313-1.979.313-3.281 0-1.016.228-1.966.684-2.852a6.27 6.27 0 0 1 1.875-2.207 6.023 6.023 0 0 1 2.675-1.113A1.143 1.143 0 0 1 7.5 1.75c0-.339.124-.631.371-.879C8.118.624 8.411.5 8.75.5c.339 0 .631.124.879.371.247.248.371.54.371.879 0 .26-.078.495-.234.703.99.156 1.881.528 2.675 1.113a6.27 6.27 0 0 1 1.875 2.207c.456.886.684 1.836.684 2.852 0 1.302.104 2.396.312 3.281.183.73.43 1.341.743 1.836.182.313.481.664.898 1.055zM8.75 19.25c.339 0 .631-.124.879-.371.247-.247.371-.54.371-.879H7.5c0 .339.124.632.371.879s.54.371.879.371zm6.875-2.5c.286 0 .482-.13.586-.39.104-.261.052-.482-.156-.665-.782-.78-1.341-1.614-1.68-2.5-.417-1.12-.625-2.643-.625-4.57 0-.911-.221-1.751-.664-2.52A4.864 4.864 0 0 0 11.27 4.29a4.958 4.958 0 0 0-2.52-.664c-.911 0-1.751.221-2.52.664a4.864 4.864 0 0 0-1.816 1.816 4.958 4.958 0 0 0-.664 2.52c0 1.927-.221 3.45-.664 4.57-.313.886-.86 1.72-1.64 2.5-.209.183-.261.404-.157.664.104.26.3.391.586.391h13.75z" fill="#142431" fill-rule="nonzero"/>
</svg>
