<?xml version="1.0" encoding="UTF-8"?>
<svg width="30px" height="30px" viewBox="0 0 30 30" version="1.1" xmlns="http://www.w3.org/2000/svg" xmlns:xlink="http://www.w3.org/1999/xlink">
    <!-- Generator: Sketch 50.2 (55047) - http://www.bohemiancoding.com/sketch -->
    <title>eth</title>
    <desc>Created with Sketch.</desc>
    <defs></defs>
    <g id="Wallet" stroke="none" stroke-width="1" fill="none" fill-rule="evenodd">
        <g id="Wallet-(w/-nEURO)" transform="translate(-237.000000, -265.000000)" fill="#000000" fill-rule="nonzero">
            <g id="Group-5" transform="translate(200.000000, 118.000000)">
                <g id="Group-2" transform="translate(37.000000, 86.000000)">
                    <g id="eth" transform="translate(0.000000, 61.000000)">
                        <path d="M16.5,5.22070312 C16.8467578,5.22070312 17.129707,4.94613281 17.1438867,4.60259766 C17.1445312,4.59421875 17.1445312,4.58519531 17.1445312,4.57617188 C17.1445312,4.22039063 16.8557812,3.93164062 16.5,3.93164062 C16.1442188,3.93164062 15.8554688,4.22039063 15.8554688,4.57617188 C15.8554688,4.58519531 15.8554688,4.59421875 15.8561133,4.60259766 C15.870293,4.94613281 16.1532422,5.22070312 16.5,5.22070312 Z" id="Shape"></path>
                        <path d="M16.5,33 C25.3632715,33 33,25.4125137 33,16.5 C33,7.6363418 25.4116758,0 16.5,0 C7.61855273,0 0,7.60875586 0,16.5 C0,25.3636582 7.58832422,33 16.5,33 Z M16.5,1.2890625 C24.6030469,1.2890625 31.7109375,8.39695312 31.7109375,16.5 C31.7109375,24.6030469 24.6030469,31.7109375 16.5,31.7109375 C8.39695312,31.7109375 1.2890625,24.6030469 1.2890625,16.5 C1.2890625,8.39695312 8.39695312,1.2890625 16.5,1.2890625 Z" id="Shape"></path>
                        <path d="M16.5,29.1328125 C23.2160156,29.1328125 29.1328125,23.2611973 29.1328125,16.5 C29.1328125,10.761416 24.8245723,5.51912109 19.2159902,4.18739062 C18.8696191,4.10514844 18.5222168,4.31919727 18.4399746,4.66556836 C18.3577969,5.01193945 18.5718457,5.3593418 18.9181523,5.44158398 C24.0065977,6.64975781 27.84375,11.4038848 27.84375,16.5 C27.84375,22.5429316 22.5429316,27.84375 16.5,27.84375 C10.4570684,27.84375 5.15625,22.5429316 5.15625,16.5 C5.15625,11.4038848 8.99340234,6.64975781 14.0818477,5.44158398 C14.4281543,5.3593418 14.6422031,5.01193945 14.5600254,4.66556836 C14.4777832,4.31913281 14.130252,4.10508398 13.7840098,4.18739062 C8.17981055,5.51808984 3.8671875,10.7567754 3.8671875,16.5 C3.8671875,23.2160156 9.73880273,29.1328125 16.5,29.1328125 Z" id="Shape"></path>
                        <path d="M20.2788006,17.0564572 L16.5000094,19.0953003 L12.7211595,17.0563931 C12.5201818,16.9480436 12.2778952,16.9991108 12.1281288,17.181338 C11.9783623,17.3635652 11.9577371,17.6324849 12.0776206,17.8394447 L16.0776632,24.7458815 C16.1693629,24.9041449 16.3287389,25 16.5000094,25 C16.6713385,25 16.8307144,24.9040808 16.9223556,24.7458815 L20.9223981,17.8394447 C21.0422816,17.6324849 21.0215979,17.3635652 20.87189,17.181338 C20.7220649,16.9991748 20.4797784,16.9481076 20.2788006,17.0564572 Z M15.9999674,22.5679972 L13.8744669,18.8982719 L15.9999674,20.0450731 L15.9999674,22.5679972 Z M16.9999927,22.5679972 L16.9999927,20.0450731 L19.1254932,18.8982719 L16.9999927,22.5679972 Z" id="Shape"></path>
                        <path d="M20.9820704,15.2007594 C20.96959,15.1477769 20.9496683,15.0971913 20.9230083,15.0507055 L20.9223052,15.0488763 L16.9223117,8.25021603 C16.9155735,8.23873649 16.9028001,8.23501511 16.8953002,8.22435554 C16.8059453,8.08395199 16.6580556,8 16.4999707,8 C16.3418858,8 16.1939961,8.08395199 16.1046412,8.22435554 C16.0971413,8.23501511 16.0843679,8.23873649 16.0776297,8.25021603 L12.0776362,15.0488763 L12.0769331,15.0507055 C12.0502731,15.0971913 12.0303514,15.1477769 12.017871,15.2007594 C12.011953,15.246173 12.0059765,15.2915234 12,15.336937 C12,15.3453259 12.0028125,15.3530209 12.0032226,15.3613468 C12.0082617,15.4152754 12.0184569,15.4685101 12.0336912,15.520168 C12.040488,15.539658 12.0483395,15.5587065 12.0572457,15.5772503 C12.0719527,15.6084721 12.0895307,15.637991 12.1096282,15.6654914 C12.1167766,15.6753941 12.1202922,15.687252 12.1282023,15.6967132 C12.1331241,15.7026422 12.1398624,15.7056067 12.14496,15.7112203 C12.1692176,15.7369546 12.1958776,15.7599768 12.2245298,15.7799083 C12.2382992,15.7911986 12.2526546,15.8016689 12.2674201,15.8113824 C12.2715217,15.8137162 12.2745685,15.8175006 12.2787872,15.8197713 L16.2787807,17.9445576 C16.418233,18.0184808 16.5817085,18.0184808 16.7211607,17.9445576 L20.7211542,15.8197713 C20.7724234,15.7912617 20.8185949,15.753354 20.8577353,15.7077512 C20.8618954,15.7031468 20.8678134,15.7015699 20.8717977,15.6967763 C20.8797078,15.6873151 20.8831648,15.6753941 20.8903718,15.6655545 C20.9105279,15.638054 20.9280473,15.6085352 20.9427543,15.5773134 C20.9516605,15.5588326 20.959512,15.5397842 20.9663088,15.5202311 C20.9815431,15.4685732 20.9917383,15.4153384 20.9967774,15.3614098 C20.9971289,15.353084 21,15.3453889 21,15.3370001 C20.998418,15.3093735 20.9947852,15.2819361 20.9892188,15.2549403 C20.9876368,15.2367118 20.9852931,15.2186095 20.9820704,15.2007594 Z M16.9999479,10.3941139 L19.1254224,14.0065723 L16.9999479,12.8776673 L16.9999479,10.3941139 Z M15.9999349,10.3941139 L15.9999349,12.8776673 L13.8744605,14.0065723 L15.9999349,10.3941139 Z M16.4999707,16.8615076 L13.6300089,15.3370001 L16.4999707,13.8126187 L19.3699325,15.3370001 L16.4999707,16.8615076 Z" id="Shape"></path>
                    </g>
                </g>
            </g>
        </g>
    </g>
</svg>
