<svg xmlns="http://www.w3.org/2000/svg" width="30" height="30" viewBox="0 0 30 30">
  <g>
    <path d="M15,4.74609375 C15.3152344,4.74609375 15.5724609,4.49648437 15.5853515,4.18417969 C15.5859375,4.1765625 15.5859375,4.16835937 15.5859375,4.16015625 C15.5859375,3.83671875 15.3234375,3.57421875 15,3.57421875 C14.6765625,3.57421875 14.4140625,3.83671875 14.4140625,4.16015625 C14.4140625,4.16835937 14.4140625,4.1765625 14.4146485,4.18417969 C14.4275391,4.49648437 14.6847656,4.74609375 15,4.74609375 Z"/>
    <path d="M15,30 C23.0575195,30 30,23.1022852 30,15 C30,6.94212891 23.1015235,0 15,0 C6.92595703,0 0,6.91705078 0,15 C0,23.0578711 6.89847656,30 15,30 Z M15,1.171875 C22.3664063,1.171875 28.828125,7.63359375 28.828125,15 C28.828125,22.3664063 22.3664063,28.828125 15,28.828125 C7.63359375,28.828125 1.171875,22.3664063 1.171875,15 C1.171875,7.63359375 7.63359375,1.171875 15,1.171875 Z"/>
    <path d="M15,26.484375 C21.1054687,26.484375 26.484375,21.146543 26.484375,15 C26.484375,9.78310545 22.567793,5.01738281 17.469082,3.80671875 C17.1541992,3.73195313 16.8383789,3.92654297 16.7636133,4.24142578 C16.6889063,4.55630859 16.8834961,4.87212891 17.1983203,4.94689453 C21.8241797,6.04523437 25.3125,10.367168 25.3125,15 C25.3125,20.4935742 20.4935742,25.3125 15,25.3125 C9.50642582,25.3125 4.6875,20.4935742 4.6875,15 C4.6875,10.367168 8.17582031,6.04523437 12.8016797,4.94689453 C13.1165039,4.87212891 13.3110937,4.55630859 13.2363867,4.24142578 C13.1616211,3.92648437 12.8456836,3.73189453 12.530918,3.80671875 C7.43619141,5.01644531 3.515625,9.77888673 3.515625,15 C3.515625,21.1054687 8.85345703,26.484375 15,26.484375 Z"/>
    <path d="M18.4352733,15.5058702 L15.0000085,17.3593639 L11.5646905,15.5058119 C11.3819835,15.4073124 11.1617229,15.4537371 11.0255716,15.6193982 C10.8894203,15.7850593 10.8706701,16.0295317 10.9796551,16.217677 L14.6160575,22.4962559 C14.6994208,22.6401317 14.8443081,22.7272727 15.0000085,22.7272727 C15.1557623,22.7272727 15.3006495,22.6400735 15.3839596,22.4962559 L19.0203619,16.217677 C19.1293469,16.0295317 19.1105435,15.7850593 18.9744455,15.6193982 C18.8382408,15.4537953 18.6179804,15.4073705 18.4352733,15.5058702 Z M14.5454249,20.5163611 L12.6131517,17.1802472 L14.5454249,18.2227937 L14.5454249,20.5163611 Z M15.4545388,20.5163611 L15.4545388,18.2227937 L17.386812,17.1802472 L15.4545388,20.5163611 Z"/>
    <path d="M19.0746095,13.8188722 C19.0632636,13.7707063 19.045153,13.7247194 19.0209166,13.6824595 L19.0202775,13.6807966 L15.3839197,7.50019639 C15.3777941,7.48976045 15.3661819,7.48637737 15.3593638,7.47668685 C15.2781321,7.34904726 15.1436869,7.27272727 14.9999734,7.27272727 C14.8562598,7.27272727 14.7218146,7.34904726 14.6405829,7.47668685 C14.6337648,7.48637737 14.6221526,7.48976045 14.616027,7.50019639 L10.9796693,13.6807966 L10.9790301,13.6824595 C10.9547937,13.7247194 10.9366831,13.7707063 10.9253373,13.8188722 C10.9199573,13.8601573 10.9145241,13.9013849 10.9090909,13.94267 C10.9090909,13.9502963 10.9116477,13.9572917 10.9120205,13.9648607 C10.9166015,14.0138867 10.9258699,14.0622819 10.9397193,14.1092436 C10.9458982,14.1269618 10.9530359,14.1442786 10.9611325,14.1611366 C10.9745025,14.1895201 10.9904825,14.2163555 11.0087529,14.2413558 C11.0152515,14.2503583 11.0184475,14.2611382 11.0256385,14.2697393 C11.0301128,14.2751293 11.0362385,14.2778243 11.0408727,14.2829275 C11.0629251,14.3063224 11.0871615,14.3272516 11.1132089,14.3453712 C11.1257265,14.3556351 11.1387769,14.3651535 11.1522001,14.373984 C11.1559288,14.3761056 11.1586986,14.379546 11.1625338,14.3816103 L14.7988915,16.3132342 C14.9256664,16.3804371 15.0742805,16.3804371 15.2010552,16.3132342 L18.8374129,14.3816103 C18.8840213,14.3556925 18.9259954,14.3212309 18.9615775,14.2797738 C18.9653595,14.275588 18.9707395,14.2741545 18.9743615,14.2697966 C18.9815525,14.2611955 18.9846953,14.2503583 18.9912471,14.2414132 C19.0095708,14.2164127 19.0254975,14.1895775 19.0388675,14.161194 C19.0469641,14.1443933 19.0541018,14.1270765 19.0602807,14.109301 C19.0741301,14.0623393 19.0833985,14.013944 19.0879795,13.964918 C19.088299,13.9573491 19.0909091,13.9503535 19.0909091,13.9427274 C19.0894709,13.9176123 19.0861684,13.8926692 19.081108,13.8681275 C19.0796698,13.8515562 19.0775392,13.8350995 19.0746095,13.8188722 Z M15.4544981,9.44919445 L17.3867476,12.7332475 L15.4544981,11.7069703 L15.4544981,9.44919445 Z M14.5453954,9.44919445 L14.5453954,11.7069703 L12.6131459,12.7332475 L14.5453954,9.44919445 Z M14.9999734,15.3286433 L12.3909172,13.9427274 L14.9999734,12.5569261 L17.6090295,13.9427274 L14.9999734,15.3286433 Z"/>
  </g>
</svg>
