<svg xmlns="http://www.w3.org/2000/svg" width="221" height="423" viewBox="0 0 221 423">
    <g fill="none" fill-rule="evenodd">
        <path fill="#E8EF90" d="M112 5c3.273 5.223 6.547 10.12 9.492 15.342 12.439 21.544 24.877 43.414 37.316 64.959 12.438 21.87 24.877 43.414 37.315 65.284C204.306 164.948 212.49 179.311 221 194c-2.291-.653-4.583-.98-6.874-1.632-29.132-9.466-57.937-18.933-87.069-28.726-1.964-.652-4.255-.979-6.874-1.632v4.57c-.654-1.632-.982-3.59-1.636-5.222.327-.98 1.309-2.285 1.309-3.265 0-1.305-.327-2.611-.327-4.243-.655-9.467-.982-18.606-1.637-28.073-.655-15.342-1.637-31.01-2.291-46.352-.328-9.466-.982-18.933-1.637-28.4C113.309 36.01 112.654 20.343 112 5z"/>
        <path fill="#EBF09D" d="M107.856 417c-3.573-6.19-7.47-12.378-11.043-18.567-16.564-28.666-32.804-57.331-49.368-85.997-13.317-23.454-26.633-46.907-39.95-70.035C5.223 238.492 3.275 234.583 1 231c2.274.651 4.547.977 6.496 1.629 20.462 6.84 40.923 13.681 61.06 20.196 10.718 3.583 21.436 6.84 32.154 10.098v2.931c.975 14.333 1.949 28.992 2.923 43.325.325 7.166.325 14.007.65 21.173.325 9.12.974 18.567 1.3 27.688.649 13.03.973 26.06 1.623 39.09 0 2.28.65 4.886.65 7.166.324 4.235 0 8.47 0 12.704zM220 219c-3.904 7.805-7.807 15.61-12.036 23.09-5.856 11.056-11.711 21.788-17.566 32.52-9.76 17.886-19.193 35.447-28.952 53.333l-17.566 33.17c-6.181 11.708-13.013 23.415-19.193 34.798-3.904 7.48-7.807 14.959-11.711 22.113L112 419c.325-7.48.976-14.96 1.301-22.439.326-3.577.65-7.154.65-10.732.651-8.78 1.302-17.56 2.278-26.016v-1.626c.325-1.951.65-3.902.65-6.179.326-.975.326-1.951.651-2.927v-3.902c.65-5.203.976-10.407 1.627-15.61.65-7.154.976-13.984 1.626-21.138.976-12.683 1.952-25.04 2.928-37.724 13.988-7.805 27.976-15.61 41.964-23.09 10.084-5.528 20.494-11.381 30.903-16.91C204.06 227.13 212.193 222.902 220 219z"/>
        <path fill="#E8EF90" d="M2 203.855c4.878-9.453 9.757-18.905 14.96-28.032a77020232730884960 77020232730884960 0 0 0 37.726-70.732C60.542 94.334 66.72 83.577 72.25 72.82c5.53-10.43 11.058-20.861 16.587-31.292 6.18-11.408 12.359-23.143 18.863-34.551.325-.326.976-.652 1.301-.978-.325 6.52-.976 13.038-1.3 19.557-.651 11.083-1.627 22.165-2.278 33.248-.975 13.69-1.95 27.38-2.927 41.07-.325.978-.65 1.956-.65 2.934-.65 6.845-.976 13.69-1.626 20.21-.65 10.104-1.626 20.208-2.277 29.987-7.155 3.912-14.31 7.497-21.465 11.408-9.106 4.89-18.213 9.78-27.319 14.994-14.96 8.15-29.596 16.298-44.556 24.447-.65.326-1.952 0-2.602 0z"/>
        <path fill="#EBEF9B" d="M.979 203.639c.978 0 1.957.324 2.61 0 15.005-8.115 29.684-16.23 44.69-24.346 9.133-4.869 18.266-10.063 27.4-14.932 7.177-3.895 14.353-7.466 21.53-11.361 7.502 2.272 14.679 4.545 22.181 6.817v.649c.653 1.623.979 3.57 1.631 5.194v9.089c.327 3.57.653 7.141.979 10.387l-3.914-.974c-6.85-2.272-13.701-4.22-20.551-6.492l-11.744 5.843c-15.657 8.44-31.315 16.88-46.647 25.32-3.262 1.947-6.524 3.895-9.786 6.167-.652-.325-.978-.325-1.63-.65-9.134-2.92-18.268-5.518-27.728-8.764 0-.973.326-1.298.979-1.947z"/>
        <path fill="#E9EF91" d="M221 219.738c-7.806 4.22-15.938 8.115-23.745 12.335a1450.689 1450.689 0 0 0-30.9 16.88c-13.987 7.79-27.973 15.581-41.96 23.047-7.806-2.597-15.613-4.87-23.42-7.466v-.65c-.324-8.114-.65-16.23-.975-24.02 8.132 2.597 16.263 4.869 24.395 7.466 1.301-.65 2.602-.974 3.903-1.623l44.887-24.346c6.506-3.57 13.011-7.466 19.517-11.361.65.325.975.325 1.626.65 9.107 2.92 17.89 5.842 26.672 9.088z"/>
        <path fill="#F2F5C2" d="M194.701 210c-.65-.331-.974-.331-1.623-.662-13.312-4.635-26.948-9.27-40.26-13.574-10.065-3.311-20.13-6.622-30.195-9.602l-.649-.662c-.325-3.642-.65-7.284-.974-10.595v-7.614-1.656V161c2.597.662 4.87.993 6.818 1.655 28.896 9.602 57.468 19.534 86.364 29.136 2.273.662 4.545.993 6.818 1.655-2.273 1.655-4.545 3.642-7.143 4.966-5.844 3.311-11.688 6.622-17.532 9.602-.65.33-.974.993-1.624 1.986z"/>
        <path fill="#F3F7C6" d="M100.023 238.664c.326 8.222.651 16.443.977 24.336-10.75-3.289-21.498-6.577-32.248-10.195-20.52-6.577-41.042-13.483-61.237-20.389-2.28-.658-4.235-.986-6.515-1.644 1.303-1.316 2.606-2.631 4.235-3.618 6.84-3.946 13.68-7.563 20.52-11.18.652-.33 1.304-1.316 1.955-1.974.652.329.977.329 1.629.658l38.11 12.825c10.75 3.618 21.499 6.906 32.574 10.524-.652 0-.326.329 0 .657z"/>
        <path fill="#E1E966" fill-rule="nonzero" d="M119.279 160v-.65c-.326-2.927-.652-5.854-.652-9.106-.652-12.683-1.63-25.366-2.282-38.049-.652-12.032-1.63-24.39-2.283-36.423-.652-10.406-.978-21.138-1.63-31.544-.326-4.228-.326-8.456-.652-12.683 0-1.626-.652-2.927-1.304-4.553-1.304 7.154-1.956 13.984-2.608 20.813-1.304 12.032-2.282 24.065-3.586 35.772-.652 5.203-1.63 10.407-2.282 15.935l2.934-40.975c.652-11.057 1.63-22.114 2.282-33.171.326-6.504.978-13.008 1.304-19.512.652-1.952.978-3.903 1.63-5.854h1.304c.326 1.626.978 2.927 1.304 4.553.652 15.284 1.304 30.569 2.282 45.854.327 9.43.979 18.861 1.63 28.292.653 15.285 1.63 30.894 2.283 46.179.326 9.43.978 18.537 1.63 27.968 0 1.3.652 2.601.326 4.227-.326.65-.978 1.951-1.63 2.927zm-8.803-135.61h.326v-2.276h-.326v2.276z"/>
        <path fill="#E2EA6C" d="M116 360.137c-.615 8.794-1.23 17.589-2.154 26.057-.308 3.583-.615 7.166-.615 10.749-.308 7.491-.923 14.983-1.231 22.474-.308 1.303-.923 2.28-1.23 3.583h-1.232c-.615-1.954-1.538-4.234-2.153-6.189.307-4.234.615-8.468.615-12.702 0-2.28-.615-4.886-.615-7.166-.616-13.029-.923-26.057-1.539-39.086-.308-9.446-.923-18.566-1.23-27.686-.308-7.165-.616-14.005-.616-21.171.615.977 1.23 1.954 1.538 2.931.308 2.28 0 4.886 0 7.166.924 13.68 1.847 27.686 2.77 41.366.615 10.423.923 20.52 1.538 30.943 0 1.628.616 2.931 1.23 5.211.616-.977.924-1.303.924-1.303.923-10.748 1.846-21.823 3.077-32.571-.308-.977.615-1.954.923-2.606z"/>
        <path fill="#E4EB73" d="M116.333 360.58c-.666.975-1.333 1.625-1.333 2.6-1 10.732-2.333 21.788-3.333 32.52 0 .324-.334.65-1 1.3-.667-1.951-1-3.577-1.334-5.203-.666-10.406-1-20.486-1.666-30.892-1-13.658-2-27.64-3-41.299-.334-2.276 0-4.877 0-7.154 0-.975-1-1.95-1.667-2.926-1-14.308-2-28.942-3-43.25V264c8 2.601 16 4.878 24 7.48-1 12.681-2 25.038-3 37.72-.667 7.155-1 13.983-1.667 21.137-.333 5.203-1 10.406-1.666 15.61-2.334 1.3-2.334 2.6 0 3.901-.334.976-.334 1.952-.667 2.927-2.667 1.626-1.667 3.902-.667 6.179v1.625z"/>
        <path fill="#E2EA6C" d="M116.67 358c-.9-2.21-1.8-4.105.6-6 0 2.21-.3 4.105-.6 6zM118.287 350c-2.1-1.333-2.1-2.667 0-4v4z"/>
        <path fill="#E4EB73" d="M101.853 99.324c.647-5.189 1.618-10.378 2.265-15.892 1.294-12 2.588-24 3.558-35.675.648-6.811 1.295-13.622 2.589-20.757.323 1.622.97 2.919 1.294 4.54.323 4.217.647 8.433.647 12.65.647 10.378.97 21.08 1.618 31.459.647 12 1.617 24.324 2.264 36.324.647 12.649 1.618 25.297 2.265 37.946.323 2.919.323 5.838.647 9.081-7.441-2.27-14.559-4.54-22-6.81.647-10.055 1.294-20.109 2.265-29.839.647-6.81.97-13.621 1.617-20.108l.97-2.919z"/>
        <path fill="#E5EC7B" d="M99 238c-10.645-3.608-21.613-6.887-32.258-10.495L29 214.715c3.226-1.968 6.452-4.263 9.677-6.231 15.484-8.527 30.646-17.054 46.13-25.58 3.87-1.969 7.741-3.936 11.612-5.904.323 5.575.646 10.823.646 16.398.967 15.414 1.29 29.844 1.935 44.602z"/>
        <path fill="#DFE85B" d="M99.333 237.786c-.666-14.786-1-29.572-1.666-44.357-.334-5.586-.334-10.843-.667-16.429 7 2.3 14 4.271 21 6.571l4 .986.667.657c.333 5.257.666 10.515.666 16.1.667 14.786 1 29.9 1.667 44.686-8.333-2.629-16.667-4.929-25-7.557-.333 0-.667-.329-.667-.657z"/>
        <path fill="#E8EF90" d="M120.5 167v0z"/>
        <path fill="#E3EA71" d="M124.258 246c-.645-14.595-.968-29.514-1.613-44.108-.322-5.19-.322-10.378-.645-15.892 10 3.243 20 6.162 30 9.405 13.226 4.217 26.774 8.757 40 13.298-6.452 3.892-12.903 7.46-19.355 11.351l-44.516 24.324c-1.29.649-2.58.973-3.87 1.622z"/>
        <path fill="#E4EB73" d="M110.35 24.55v-2.1h.3v2.1h-.3z"/>
    </g>
</svg>
