<?xml version="1.0" encoding="UTF-8"?>
<svg width="33px" height="33px" viewBox="0 0 33 33" version="1.1"
	xmlns="http://www.w3.org/2000/svg"
	xmlns:xlink="http://www.w3.org/1999/xlink">
	<g id="Investment_flow_start" transform="translate(-733.000000, -277.000000)" fill-rule="nonzero">
		<g id="Group-7" transform="translate(354.000000, 107.000000)">
			<g id="euro" transform="translate(379.000000, 170.000000)">
				<path d="M17.1695998,10.9491692 C18.2937958,10.9491692 19.3561059,11.4809412 20.1607641,12.4465785 C20.3286247,12.6479922 20.6278977,12.675091 20.8291691,12.5073253 C21.0305353,12.3395122 21.057729,12.0402866 20.8899634,11.8389204 C19.9017359,10.6530759 18.5804923,10 17.1695998,10 C14.5698728,10 12.6002993,12.170655 12.089314,14.745846 L11.4745846,14.745846 C11.212519,14.745846 11,14.9583175 11,15.2204306 C11,15.4825437 11.212519,15.6902693 11.4745846,15.6902693 L11.9649729,15.6902693 C11.9548168,15.8476416 11.9491692,16.0108512 11.9491692,16.1695998 C11.9491692,16.6550524 11.9966277,17.1320573 12.0883174,17.5933536 L11.4745846,17.5933536 C11.212519,17.5933536 11,17.8058251 11,18.0679382 C11,18.3300512 11.212519,18.5425228 11.4745846,18.5425228 L12.3473931,18.5425228 C13.1048302,20.6957605 14.9233434,22.3391996 17.1695998,22.3391996 C18.5804923,22.3391996 19.9017359,21.6861237 20.8900108,20.5002792 C21.0577765,20.2989129 21.0305828,19.9996873 20.8292165,19.8318742 C20.6280401,19.664156 20.3286722,19.6912548 20.1608116,19.892621 C19.3561059,20.8582583 18.2937958,21.3900304 17.1695998,21.3900304 C15.4329049,21.3900304 14.0364872,20.142917 13.3649974,18.5425228 L17.1695998,18.5425228 C17.4316654,18.5425228 17.6441844,18.3300512 17.6441844,18.0679382 C17.6441844,17.8058251 17.4316654,17.5933536 17.1695998,17.5933536 L13.0597921,17.5933536 C12.9541495,17.1359964 12.8983384,16.6583745 12.8983384,16.1695998 C12.8983384,16.0105665 12.9046504,15.8521027 12.9162777,15.6950152 L17.1695998,15.6950152 C17.4316654,15.6950152 17.6441844,15.4825437 17.6441844,15.2204306 C17.6441844,14.9583175 17.4316654,14.745846 17.1695998,14.745846 L13.0599819,14.745846 C13.5362276,12.6809759 15.1200587,10.9491692 17.1695998,10.9491692 Z" id="Shape"></path>
				<g id="Group-10">
					<path d="M16.5,5.22070312 C16.8467578,5.22070312 17.129707,4.94613281 17.1438867,4.60259766 C17.1445312,4.59421875 17.1445312,4.58519531 17.1445312,4.57617188 C17.1445312,4.22039063 16.8557812,3.93164062 16.5,3.93164062 C16.1442188,3.93164062 15.8554688,4.22039063 15.8554688,4.57617188 C15.8554688,4.58519531 15.8554688,4.59421875 15.8561133,4.60259766 C15.870293,4.94613281 16.1532422,5.22070312 16.5,5.22070312 Z" id="Shape"></path>
					<path d="M16.5,33 C25.3632715,33 33,25.4125137 33,16.5 C33,7.6363418 25.4116758,0 16.5,0 C7.61855273,0 0,7.60875586 0,16.5 C0,25.3636582 7.58832422,33 16.5,33 Z M16.5,1.2890625 C24.6030469,1.2890625 31.7109375,8.39695312 31.7109375,16.5 C31.7109375,24.6030469 24.6030469,31.7109375 16.5,31.7109375 C8.39695312,31.7109375 1.2890625,24.6030469 1.2890625,16.5 C1.2890625,8.39695312 8.39695312,1.2890625 16.5,1.2890625 Z" id="Shape"></path>
					<path d="M16.5,29.1328125 C23.2160156,29.1328125 29.1328125,23.2611973 29.1328125,16.5 C29.1328125,10.761416 24.8245723,5.51912109 19.2159902,4.18739062 C18.8696191,4.10514844 18.5222168,4.31919727 18.4399746,4.66556836 C18.3577969,5.01193945 18.5718457,5.3593418 18.9181523,5.44158398 C24.0065977,6.64975781 27.84375,11.4038848 27.84375,16.5 C27.84375,22.5429316 22.5429316,27.84375 16.5,27.84375 C10.4570684,27.84375 5.15625,22.5429316 5.15625,16.5 C5.15625,11.4038848 8.99340234,6.64975781 14.0818477,5.44158398 C14.4281543,5.3593418 14.6422031,5.01193945 14.5600254,4.66556836 C14.4777832,4.31913281 14.130252,4.10508398 13.7840098,4.18739062 C8.17981055,5.51808984 3.8671875,10.7567754 3.8671875,16.5 C3.8671875,23.2160156 9.73880273,29.1328125 16.5,29.1328125 Z" id="Shape"></path>
				</g>
			</g>
		</g>
	</g>
</svg>
