<svg id="Layer_1" data-name="Layer 1" xmlns="http://www.w3.org/2000/svg" xmlns:xlink="http://www.w3.org/1999/xlink" viewBox="0 0 167.95 26.39"><defs><style>.cls-1{fill:#fff;}.cls-2{mask:url(#mask);}.cls-3{fill:#c2c3c4;}</style><mask id="mask" x="0" y="0" width="167.95" height="26.39" maskUnits="userSpaceOnUse"><g transform="translate(-1.42 -2.9)"><g id="d"><path id="c" class="cls-1" d="M21,29.21,5.59,11c-.72-.87-1.78-2.39-1.78-2.39S4,10.46,4,11.56V28.94H1.47v-26h.45L17.28,21.1c.72.87,1.78,2.39,1.78,2.39s-.19-1.82-.19-2.92V3.19h2.54v26Zm7.63-.27V3.19H44.24V5.61H31.3V17.69H42.84v2.39H31.3v6.44H44.77v2.42Zm30.89.31c-5.26,0-9.23-3.07-9.23-9.09v-17H53V20c0,4.58,2.49,6.85,6.5,6.85S66,24.55,66,20V3.19h2.73v17c0,6-4,9.09-9.24,9.09Zm16.18-.31V3.19H91.13V5.61H78.38V17.69H90v2.5H78.38v8.75Zm30.18.31c-5.26,0-9.24-3.07-9.24-9.09v-17h2.73V20c0,4.58,2.5,6.85,6.51,6.85s6.5-2.27,6.5-6.85V3.19h2.73v17c0,6-4,9.09-9.23,9.09ZM124.35,8.64s.23,1.82.23,2.92V28.94H122v-26h.45L137.82,21.1c.72.87,1.78,2.39,1.78,2.39s-.19-1.82-.19-2.92V3.19h2.53v26h-.45L126.13,11c-.72-.87-1.78-2.38-1.78-2.39Zm24.77,20.3V3.19h6.24c8.59,0,13.92,5.07,13.92,12.87S164,28.94,155.36,28.94Zm2.72-2.46h3.33c7.61,0,11.24-4.28,11.24-10.41S162.78,5.65,155.17,5.65h-3.33V26.48Z"/></g></g></mask></defs><title>neufund-logo</title><g class="cls-2"><path class="cls-3" d="M1.42,29.3H169.36V2.9H1.42Z" transform="translate(-1.42 -2.9)"/></g></svg>