<svg xmlns="http://www.w3.org/2000/svg" width="33" height="33" viewBox="0 0 33 33">
    <g fill="#000" fill-rule="evenodd">
        <path fill-rule="nonzero" d="M16.5 5.22c.347 0 .63-.274.644-.617v-.027a.645.645 0 1 0-.644.645zM21.17 10.95c1.124 0 2.186.53 2.99 1.497a.475.475 0 1 0 .73-.608C23.902 10.653 22.58 10 21.17 10c-2.6 0-4.57 2.17-5.08 4.746h-.615a.475.475 0 0 0-.475.474c0 .263.213.47.475.47h.49a7.305 7.305 0 0 0 .123 1.903h-.613a.475.475 0 0 0 0 .95h.872c.758 2.153 2.576 3.796 4.823 3.796 1.41 0 2.732-.653 3.72-1.839a.475.475 0 0 0-.73-.607c-.804.965-1.866 1.497-2.99 1.497-1.737 0-3.134-1.247-3.805-2.847h3.805a.475.475 0 0 0 0-.95h-4.11a6.327 6.327 0 0 1-.144-1.898h4.254a.475.475 0 0 0 0-.95h-4.11c.476-2.064 2.06-3.796 4.11-3.796z"/>
        <path fill-rule="nonzero" d="M16.5 33C25.363 33 33 25.413 33 16.5 33 7.636 25.412 0 16.5 0 7.619 0 0 7.609 0 16.5 0 25.364 7.588 33 16.5 33zm0-31.71c8.103 0 15.21 7.107 15.21 15.21 0 8.103-7.107 15.21-15.21 15.21-8.103 0-15.21-7.107-15.21-15.21 0-8.103 7.107-15.21 15.21-15.21z"/>
        <path fill-rule="nonzero" d="M16.5 29.133c6.716 0 12.633-5.872 12.633-12.633 0-5.739-4.308-10.98-9.917-12.313a.644.644 0 1 0-.298 1.255c5.089 1.208 8.926 5.962 8.926 11.058 0 6.043-5.301 11.344-11.344 11.344-6.043 0-11.344-5.301-11.344-11.344 0-5.096 3.837-9.85 8.926-11.058a.645.645 0 0 0-.298-1.255C8.18 5.518 3.867 10.757 3.867 16.5c0 6.716 5.872 12.633 12.633 12.633z"/>
        <text font-family="Montserrat-Medium, Montserrat" font-size="10" font-weight="400" letter-spacing="-.16">
            <tspan x="8" y="21">n</tspan>
        </text>
    </g>
</svg>
