<?xml version="1.0" encoding="UTF-8"?>
<svg width="33px" height="33px" viewBox="0 0 33 33" version="1.1" xmlns="http://www.w3.org/2000/svg" xmlns:xlink="http://www.w3.org/1999/xlink">
    <!-- Generator: Sketch 50.2 (55047) - http://www.bohemiancoding.com/sketch -->
    <title>euro</title>
    <desc>Created with Sketch.</desc>
    <defs></defs>
    <g id="Wallet" stroke="none" stroke-width="1" fill="none" fill-rule="evenodd">
        <g id="Wallet-(w/-nEURO)" transform="translate(-788.000000, -205.000000)" fill="#000000">
            <g id="Group-2" transform="translate(788.000000, 204.000000)">
                <g id="euro" transform="translate(0.000000, 1.000000)">
                    <path d="M16.5,5.22070312 C16.8467578,5.22070312 17.129707,4.94613281 17.1438867,4.60259766 C17.1445312,4.59421875 17.1445312,4.58519531 17.1445312,4.57617188 C17.1445312,4.22039063 16.8557812,3.93164062 16.5,3.93164062 C16.1442188,3.93164062 15.8554688,4.22039063 15.8554688,4.57617188 C15.8554688,4.58519531 15.8554688,4.59421875 15.8561133,4.60259766 C15.870293,4.94613281 16.1532422,5.22070312 16.5,5.22070312 Z" id="Shape" fill-rule="nonzero"></path>
                    <path d="M21.1695998,10.9491692 C22.2937958,10.9491692 23.3561059,11.4809412 24.1607641,12.4465785 C24.3286247,12.6479922 24.6278977,12.675091 24.8291691,12.5073253 C25.0305353,12.3395122 25.057729,12.0402866 24.8899634,11.8389204 C23.9017359,10.6530759 22.5804923,10 21.1695998,10 C18.5698728,10 16.6002993,12.170655 16.089314,14.745846 L15.4745846,14.745846 C15.212519,14.745846 15,14.9583175 15,15.2204306 C15,15.4825437 15.212519,15.6902693 15.4745846,15.6902693 L15.9649729,15.6902693 C15.9548168,15.8476416 15.9491692,16.0108512 15.9491692,16.1695998 C15.9491692,16.6550524 15.9966277,17.1320573 16.0883174,17.5933536 L15.4745846,17.5933536 C15.212519,17.5933536 15,17.8058251 15,18.0679382 C15,18.3300512 15.212519,18.5425228 15.4745846,18.5425228 L16.3473931,18.5425228 C17.1048302,20.6957605 18.9233434,22.3391996 21.1695998,22.3391996 C22.5804923,22.3391996 23.9017359,21.6861237 24.8900108,20.5002792 C25.0577765,20.2989129 25.0305828,19.9996873 24.8292165,19.8318742 C24.6280401,19.664156 24.3286722,19.6912548 24.1608116,19.892621 C23.3561059,20.8582583 22.2937958,21.3900304 21.1695998,21.3900304 C19.4329049,21.3900304 18.0364872,20.142917 17.3649974,18.5425228 L21.1695998,18.5425228 C21.4316654,18.5425228 21.6441844,18.3300512 21.6441844,18.0679382 C21.6441844,17.8058251 21.4316654,17.5933536 21.1695998,17.5933536 L17.0597921,17.5933536 C16.9541495,17.1359964 16.8983384,16.6583745 16.8983384,16.1695998 C16.8983384,16.0105665 16.9046504,15.8521027 16.9162777,15.6950152 L21.1695998,15.6950152 C21.4316654,15.6950152 21.6441844,15.4825437 21.6441844,15.2204306 C21.6441844,14.9583175 21.4316654,14.745846 21.1695998,14.745846 L17.0599819,14.745846 C17.5362276,12.6809759 19.1200587,10.9491692 21.1695998,10.9491692 Z" id="Shape" fill-rule="nonzero"></path>
                    <path d="M16.5,33 C25.3632715,33 33,25.4125137 33,16.5 C33,7.6363418 25.4116758,0 16.5,0 C7.61855273,0 0,7.60875586 0,16.5 C0,25.3636582 7.58832422,33 16.5,33 Z M16.5,1.2890625 C24.6030469,1.2890625 31.7109375,8.39695312 31.7109375,16.5 C31.7109375,24.6030469 24.6030469,31.7109375 16.5,31.7109375 C8.39695312,31.7109375 1.2890625,24.6030469 1.2890625,16.5 C1.2890625,8.39695312 8.39695312,1.2890625 16.5,1.2890625 Z" id="Shape" fill-rule="nonzero"></path>
                    <path d="M16.5,29.1328125 C23.2160156,29.1328125 29.1328125,23.2611973 29.1328125,16.5 C29.1328125,10.761416 24.8245723,5.51912109 19.2159902,4.18739062 C18.8696191,4.10514844 18.5222168,4.31919727 18.4399746,4.66556836 C18.3577969,5.01193945 18.5718457,5.3593418 18.9181523,5.44158398 C24.0065977,6.64975781 27.84375,11.4038848 27.84375,16.5 C27.84375,22.5429316 22.5429316,27.84375 16.5,27.84375 C10.4570684,27.84375 5.15625,22.5429316 5.15625,16.5 C5.15625,11.4038848 8.99340234,6.64975781 14.0818477,5.44158398 C14.4281543,5.3593418 14.6422031,5.01193945 14.5600254,4.66556836 C14.4777832,4.31913281 14.130252,4.10508398 13.7840098,4.18739062 C8.17981055,5.51808984 3.8671875,10.7567754 3.8671875,16.5 C3.8671875,23.2160156 9.73880273,29.1328125 16.5,29.1328125 Z" id="Shape" fill-rule="nonzero"></path>
                    <text id="n" font-family="Montserrat-Medium, Montserrat" font-size="10" font-weight="400" letter-spacing="-0.16">
                        <tspan x="8" y="21">n</tspan>
                    </text>
                </g>
            </g>
        </g>
    </g>
</svg>