<svg xmlns="http://www.w3.org/2000/svg" xmlns:xlink="http://www.w3.org/1999/xlink" width="28" height="28" version="1.1"><rect id="backgroundrect" width="100%" height="100%" x="0" y="0" fill="none" stroke="none"/>
    <!-- Generator: Sketch 48.2 (47327) - http://www.bohemiancoding.com/sketch -->
    <title>nEUR</title>
    <desc>Created with Sketch.</desc>
    <defs>
        <filter x="-1.9%" y="-2.0%" width="103.8%" height="105.7%" filterUnits="objectBoundingBox" id="filter-1">
            <feOffset dx="0" dy="2" in="SourceAlpha" result="shadowOffsetOuter1"/>
            <feGaussianBlur stdDeviation="2" in="shadowOffsetOuter1" result="shadowBlurOuter1"/>
            <feColorMatrix values="0 0 0 0 0   0 0 0 0 0   0 0 0 0 0  0 0 0 0.101788949 0" type="matrix" in="shadowBlurOuter1" result="shadowMatrixOuter1"/>
            <feMerge>
                <feMergeNode in="shadowMatrixOuter1"/>
                <feMergeNode in="SourceGraphic"/>
            </feMerge>
        </filter>
    </defs>
    
<g class="currentLayer" style=""><title>Layer 1</title><g id="Dashboard/all" stroke="none" stroke-width="1" fill="none" fill-rule="evenodd" class="">
        <g id="Group-4" filter="url(#filter-1)">
            <g id="nEUR">
                <circle id="Oval" fill="#394651" cx="14" cy="14" r="14"/>
                <path d="M7.778166670000019,13.494444399999999 C7.9147969800000055,13.357814099999999 8.059138129999951,13.231102399999997 8.211194439999986,13.114305600000002 C8.363250760000028,12.997508699999997 8.52411952,12.898342999999997 8.693805559999987,12.816805600000002 C8.863491589999967,12.735268099999999 9.045295330000044,12.671361300000001 9.239222219999988,12.6250833 C9.433149120000053,12.578805299999999 9.644702560000042,12.555666700000003 9.87388888999999,12.555666700000003 C10.24411299999997,12.555666700000003 10.572461500000031,12.6184716 10.858944400000041,12.7440833 C11.145427400000017,12.869695100000001 11.384526800000003,13.045989599999999 11.576249999999959,13.272972199999998 C11.767973200000029,13.499954799999998 11.913416200000029,13.771007699999998 12.01258329999996,14.086138900000002 C12.111750499999971,14.401270099999998 12.161333300000024,14.748350000000002 12.161333300000024,15.1273889 L12.161333300000024,19.444444400000002 L10.528388899999982,19.444444400000002 L10.528388899999982,15.1273889 C10.528388899999982,14.7130905 10.433630600000015,14.392454799999996 10.244111100000055,14.165472199999996 C10.05459159999998,13.938489599999997 9.765909350000015,13.825000000000003 9.378055560000007,13.825000000000003 C9.095980069999996,13.825000000000003 8.83153827000001,13.8889068 8.584722220000003,14.016722200000004 C8.337906169999997,14.1445377 8.104315919999976,14.318628500000003 7.88394444000005,14.539000000000001 L7.88394444000005,19.444444400000002 L6.250999999999976,19.444444400000002 L6.250999999999976,12.6614444 L7.249277780000057,12.6614444 C7.460834389999945,12.6614444 7.599666339999999,12.760610100000001 7.665777779999985,12.9589444 L7.778166670000019,13.494444399999999 zM12.855111100000045,12.226666700000003 L13.889555500000029,12.226666700000003 C14.008815400000003,11.594070899999998 14.198072700000012,11.02241 14.45733329999996,10.5116667 C14.716593800000055,10.000923399999998 15.03288699999996,9.566668460000002 15.406222200000002,9.208888889999997 C15.779557400000044,8.851109319999999 16.20214569999996,8.575000969999998 16.673999999999978,8.380555559999998 C17.14585420000003,8.186110139999997 17.659182399999963,8.08888889 18.213999999999942,8.08888889 C18.934744300000034,8.08888889 19.551775199999952,8.22759121 20.065111099999967,8.505000000000003 C20.578446999999983,8.782408789999998 21.008813000000032,9.157034680000002 21.356222200000047,9.628888889999999 L20.679555499999992,10.36 C20.627703399999973,10.417037300000004 20.57325949999995,10.467592400000001 20.516222200000016,10.5116667 C20.45918489999997,10.555740999999998 20.378815300000042,10.5777778 20.275111100000004,10.5777778 C20.20251810000002,10.5777778 20.13640769999995,10.557037199999996 20.07677769999998,10.515555599999999 C20.017147799999975,10.4740739 19.95103740000002,10.422222500000004 19.878444400000035,10.36 C19.80585140000005,10.297777500000002 19.725481899999977,10.230370700000002 19.637333300000023,10.157777799999998 C19.549184699999955,10.0851848 19.444185800000014,10.017778100000001 19.32233329999997,9.95555556 C19.200480800000037,9.89333302 19.056593399999997,9.841481690000002 18.89066660000003,9.799999999999997 C18.72473990000003,9.75851831 18.527704800000038,9.737777780000002 18.299555499999997,9.737777780000002 C17.68770059999997,9.737777780000002 17.171779799999968,9.94777568 16.751777700000048,10.367777799999999 C16.331775600000014,10.787779900000004 16.03881560000002,11.407403299999999 15.872888800000055,12.226666700000003 L19.77733330000001,12.226666700000003 L19.77733330000001,12.817777800000002 C19.77733330000001,12.937037599999996 19.72937079999997,13.047221700000001 19.63344440000003,13.148333300000004 C19.537517999999977,13.2494449 19.40659340000002,13.299999999999997 19.240666600000054,13.299999999999997 L15.740666600000054,13.299999999999997 C15.735481400000026,13.388148600000001 15.732888799999955,13.474999600000004 15.732888799999955,13.5605556 L15.732888799999955,14.0077778 C15.732888799999955,14.070000300000004 15.735481400000026,14.129629299999998 15.740666600000054,14.186666700000004 L19.038444400000003,14.186666700000004 L19.038444400000003,14.769999999999996 C19.038444400000003,14.889259899999999 18.98918560000004,14.999443900000003 18.89066660000003,15.1005556 C18.79214760000002,15.201667200000003 18.662519299999985,15.252222199999999 18.501777700000048,15.252222199999999 L15.833999999999946,15.252222199999999 C15.979185899999948,16.1440785 16.25788680000005,16.8090719 16.670111099999986,17.247222199999996 C17.082335400000034,17.6853726 17.594367300000044,17.904444400000003 18.206222199999957,17.904444400000003 C18.5795574,17.904444400000003 18.878998799999977,17.8538894 19.104555499999947,17.752777800000004 C19.33011220000003,17.6516662 19.514184399999976,17.538889499999996 19.65677770000002,17.4144444 C19.79937099999995,17.2899994 19.918629099999976,17.1772227 20.01455550000003,17.0761111 C20.110481899999968,16.974999499999996 20.21548089999999,16.9244444 20.32955549999997,16.9244444 C20.386592800000017,16.9244444 20.435851599999978,16.933518399999997 20.477333300000055,16.951666700000004 C20.518815000000018,16.969814900000003 20.56288859999995,17.004814600000003 20.609555499999942,17.0566667 L21.44177769999999,17.818888900000005 C21.07881299999997,18.378891699999997 20.61733609999999,18.807961500000005 20.057333299999982,19.1061111 C19.497330499999975,19.404260800000003 18.846596299999987,19.5533333 18.105111100000045,19.5533333 C17.49325620000002,19.5533333 16.944928300000015,19.450927 16.46011109999995,19.2461111 C15.975293800000031,19.0412953 15.554001699999958,18.7522241 15.196222199999966,18.3788889 C14.838442600000008,18.0055537 14.54677890000005,17.554447100000004 14.321222199999966,17.025555600000004 C14.095665499999996,16.496663999999996 13.936222599999951,15.905558800000001 13.842888799999969,15.252222199999999 L12.855111100000045,15.252222199999999 L12.855111100000045,14.186666700000004 L13.757333300000028,14.186666700000004 C13.7521481,14.129629299999998 13.749555500000042,14.070000300000004 13.749555500000042,14.0077778 L13.749555500000042,13.5605556 C13.749555500000042,13.474999600000004 13.7521481,13.388148600000001 13.757333300000028,13.299999999999997 L12.855111100000045,13.299999999999997 L12.855111100000045,12.226666700000003 z" id="n€" fill="#EFEFEF"/>
            </g>
        </g>
    </g></g></svg>