<?xml version="1.0" encoding="UTF-8"?>
<svg width="179px" height="179px" viewBox="0 0 179 179" version="1.1" xmlns="http://www.w3.org/2000/svg" xmlns:xlink="http://www.w3.org/1999/xlink">
    <g stroke="none" stroke-width="1" fill="none" fill-rule="evenodd">
        <g transform="translate(-587.000000, -260.000000)">
            <g transform="translate(432.000000, 216.000000)">
                <g transform="translate(155.000000, 44.000000)">
                    <g>
                        <path d="M0,89.5 C0,40.0701044 40.0717263,0 89.4989552,0 C138.928274,0 179,40.0701044 179,89.5 C179,138.929896 138.928274,179 89.4989552,179 C40.0717263,179 0,138.929896 0,89.5" id="Fill-1-Copy-2" fill="#E0F400" opacity="0.352957589"></path>
                        <path d="M66.1001739,126.790518 L89.4989588,140.542159 L110.879817,127.977466 L66.1001739,57.8012829 L66.1001739,126.790518 Z M62.0039288,53.6172911 L45.6439383,63.2294506 L45.6439383,114.770549 L62.0039288,124.384828 L62.0039288,53.6172911 Z M112.381288,50.904267 L89.4989588,37.459961 L67.5724897,50.3447058 L66.59164,50.9212234 L112.381288,122.676471 L112.381288,50.904267 Z M116.477533,124.690044 L133.356062,114.770549 L133.356062,63.2294506 L116.477533,53.3120759 L116.477533,124.690044 Z M138,117.50053 L89.4989588,146 L41,117.50053 L41,60.5015897 L89.4989588,32 L138,60.5015897 L138,117.50053 Z" id="Fill-2-Copy-2" fill="#1E3038"></path>
                    </g>
                    <circle id="Oval" stroke="#1E3038" stroke-width="5" cx="89.5" cy="90.5" r="73.5"></circle>
                    <g transform="translate(36.000000, 133.000000)">
                        <g>
                            <g id="euro">
                                <circle id="Oval" fill="#FFB125" cx="14" cy="14" r="14"></circle>
                                <path d="M14.0887472,0 C13.6541292,0 13.2244562,0.021109375 12.8,0.0603203125 C19.8786541,0.714875 25.4225057,6.70539844 25.4225057,14 C25.4225057,21.2946016 19.8786541,27.285125 12.8,27.9396797 C13.2244562,27.9788906 13.6541292,28 14.0887472,28 C21.7717256,28 28,21.7319922 28,14 C28,6.26800781 21.7717256,0 14.0887472,0 Z" id="Path" fill="#FF901D"></path>
                                <g id="Group" transform="translate(0.800000, 0.800000)" fill="#FEE570">
                                    <circle id="Oval" cx="13.2" cy="13.2" r="10.9058182"></circle>
                                    <path d="M13.2,1.51478182 C12.9740727,1.51478182 12.7909091,1.33167273 12.7909091,1.10569091 L12.7909091,0.448254545 C12.7909091,0.222272727 12.9740727,0.0391636364 13.2,0.0391636364 C13.4259273,0.0391636364 13.6090909,0.222272727 13.6090909,0.448254545 L13.6090909,1.10569091 C13.6090909,1.33161818 13.4259273,1.51478182 13.2,1.51478182 Z" id="Path"></path>
                                    <path d="M13.2,26.3608364 C12.9740727,26.3608364 12.7909091,26.1777273 12.7909091,25.9517455 L12.7909091,25.2943091 C12.7909091,25.0683273 12.9740727,24.8852182 13.2,24.8852182 C13.4259273,24.8852182 13.6090909,25.0683273 13.6090909,25.2943091 L13.6090909,25.9517455 C13.6090909,26.1777273 13.4259273,26.3608364 13.2,26.3608364 Z" id="Path"></path>
                                    <path d="M25.9517455,13.6090909 L25.2943636,13.6090909 C25.0684364,13.6090909 24.8852727,13.4259818 24.8852727,13.2 C24.8852727,12.9740182 25.0684364,12.7909091 25.2943636,12.7909091 L25.9517455,12.7909091 C26.1776727,12.7909091 26.3608364,12.9740182 26.3608364,13.2 C26.3608364,13.4259818 26.1776727,13.6090909 25.9517455,13.6090909 Z" id="Path"></path>
                                    <path d="M1.10563636,13.6090909 L0.448254545,13.6090909 C0.222327273,13.6090909 0.0391636364,13.4259818 0.0391636364,13.2 C0.0391636364,12.9740182 0.222327273,12.7909091 0.448254545,12.7909091 L1.10563636,12.7909091 C1.33156364,12.7909091 1.51472727,12.9740182 1.51472727,13.2 C1.51472727,13.4259818 1.33156364,13.6090909 1.10563636,13.6090909 Z" id="Path"></path>
                                    <path d="M21.7520182,5.05707273 C21.6473455,5.05707273 21.5426182,5.01714545 21.4627091,4.93723636 C21.3029455,4.77747273 21.303,4.51843636 21.4627091,4.35872727 L21.9275455,3.89394545 C22.0873636,3.73423636 22.3463455,3.73418182 22.5061091,3.894 C22.6658727,4.05376364 22.6658182,4.3128 22.5061091,4.47250909 L22.0412727,4.93729091 C21.9613636,5.01709091 21.8566909,5.05707273 21.7520182,5.05707273 Z" id="Path"></path>
                                    <path d="M4.18314545,22.6259455 C4.07847273,22.6259455 3.97374545,22.5860182 3.89383636,22.5061091 C3.73407273,22.3463455 3.73412727,22.0873091 3.89383636,21.9276 L4.35867273,21.4628182 C4.51849091,21.3031091 4.77747273,21.3030545 4.93723636,21.4628727 C5.097,21.6226364 5.09694545,21.8816727 4.93723636,22.0413818 L4.4724,22.5061636 C4.39249091,22.5859636 4.28781818,22.6259455 4.18314545,22.6259455 Z" id="Path"></path>
                                    <path d="M22.2168545,22.6259455 C22.1121818,22.6259455 22.0075091,22.5860182 21.9276,22.5061636 L21.4627636,22.0413818 C21.303,21.8816182 21.303,21.6225818 21.4627636,21.4628727 C21.6225273,21.3030545 21.8815091,21.3031091 22.0413273,21.4628182 L22.5061636,21.9276 C22.6659273,22.0873636 22.6659273,22.3464 22.5061636,22.5061091 C22.4262545,22.5859636 22.3215818,22.6259455 22.2168545,22.6259455 Z" id="Path"></path>
                                    <path d="M4.64798182,5.05707273 C4.54330909,5.05707273 4.43863636,5.01714545 4.35872727,4.93729091 L3.89389091,4.47250909 C3.73412727,4.31274545 3.73412727,4.05370909 3.89389091,3.894 C4.05365455,3.73418182 4.31263636,3.73423636 4.47245455,3.89394545 L4.93729091,4.35872727 C5.09705455,4.51849091 5.09705455,4.77752727 4.93729091,4.93723636 C4.85743636,5.01709091 4.75270909,5.05707273 4.64798182,5.05707273 Z" id="Path"></path>
                                    <path d="M18.0586364,2.53374545 C18.0037636,2.53374545 17.9479636,2.52261818 17.8945091,2.49916364 C17.6876182,2.4084 17.5934727,2.16709091 17.6842364,1.9602 L17.9483455,1.35818182 C18.0391091,1.15118182 18.2804182,1.05725455 18.4873091,1.14790909 C18.6942,1.23867273 18.7883455,1.47998182 18.6975818,1.68687273 L18.4334727,2.28889091 C18.3661636,2.44232727 18.2160545,2.53374545 18.0586364,2.53374545 Z" id="Path"></path>
                                    <path d="M8.07687273,25.2866727 C8.022,25.2866727 7.9662,25.2755455 7.91274545,25.2520909 C7.70585455,25.1613273 7.61170909,24.9200182 7.70247273,24.7131273 L7.96658182,24.1111091 C8.05734545,23.9041636 8.29870909,23.8101273 8.50554545,23.9008364 C8.71243636,23.9916 8.80658182,24.2329091 8.71581818,24.4398 L8.45170909,25.0418182 C8.3844,25.1952545 8.23429091,25.2866727 8.07687273,25.2866727 Z" id="Path"></path>
                                    <path d="M24.8772545,18.7321636 C24.8223818,18.7321636 24.7665818,18.7210364 24.7131273,18.6975818 L24.1111091,18.4334727 C23.9042182,18.3427091 23.8100727,18.1014 23.9008364,17.8945091 C23.9916,17.6875636 24.2328545,17.5934727 24.4398,17.6842364 L25.0418182,17.9483455 C25.2487091,18.0391091 25.3428545,18.2804182 25.2520909,18.4873091 C25.1847818,18.6407455 25.0346727,18.7321636 24.8772545,18.7321636 Z" id="Path"></path>
                                    <path d="M2.12432727,8.75034545 C2.06945455,8.75034545 2.01365455,8.73921818 1.9602,8.71576364 L1.35818182,8.45165455 C1.15129091,8.36089091 1.05714545,8.11958182 1.14790909,7.91269091 C1.23867273,7.70574545 1.47998182,7.61170909 1.68687273,7.70241818 L2.28889091,7.96652727 C2.49578182,8.05729091 2.58992727,8.2986 2.49916364,8.50549091 C2.43185455,8.65892727 2.2818,8.75034545 2.12432727,8.75034545 Z" id="Path"></path>
                                    <path d="M24.4673455,9.21338182 C24.3037091,9.21338182 24.1491818,9.11449091 24.0861273,8.95287273 C24.0040364,8.74238182 24.1081091,8.50521818 24.3186,8.42307273 L24.9310364,8.18416364 C25.1414727,8.10201818 25.3786909,8.20614545 25.4608364,8.41663636 C25.5429273,8.62712727 25.4388545,8.86429091 25.2283636,8.94643636 L24.6159273,9.18534545 C24.5670545,9.20438182 24.5167636,9.21338182 24.4673455,9.21338182 Z" id="Path"></path>
                                    <path d="M1.32043636,18.2439273 C1.1568,18.2439273 1.00227273,18.1450364 0.939218182,17.9834182 C0.857127273,17.7729273 0.9612,17.5357636 1.17169091,17.4536182 L1.78412727,17.2147091 C1.99461818,17.1325091 2.23183636,17.2366909 2.31392727,17.4471818 C2.39601818,17.6576727 2.29194545,17.8948364 2.08145455,17.9769818 L1.46901818,18.2158909 C1.4202,18.2349273 1.36985455,18.2439273 1.32043636,18.2439273 Z" id="Path"></path>
                                    <path d="M17.8348364,25.4888727 C17.6712,25.4888727 17.5166727,25.3899818 17.4536182,25.2283636 L17.2147091,24.6159273 C17.1326182,24.4054909 17.2366364,24.1682727 17.4471273,24.0861273 C17.6576727,24.0041455 17.8948364,24.1080545 17.9769273,24.3186 L18.2158364,24.9310364 C18.2979818,25.1414727 18.1939091,25.3786909 17.9834182,25.4608364 C17.9346,25.4798727 17.8842545,25.4888727 17.8348364,25.4888727 Z" id="Path"></path>
                                    <path d="M8.80429091,2.34196364 C8.64065455,2.34196364 8.48612727,2.24307273 8.42307273,2.08145455 L8.18416364,1.46901818 C8.10201818,1.25858182 8.20609091,1.02136364 8.41658182,0.939218182 C8.62718182,0.856963636 8.86429091,0.961145455 8.94638182,1.17169091 L9.18529091,1.78412727 C9.26738182,1.99456364 9.16336364,2.23178182 8.95287273,2.31392727 C8.90405455,2.33290909 8.85370909,2.34196364 8.80429091,2.34196364 Z" id="Path"></path>
                                </g>
                                <path d="M21.6430602,21.6430825 C25.8523402,17.4337963 25.8522863,10.6092862 21.6430602,6.4 L6.4,21.6430286 C10.6092261,25.8523148 17.4337802,25.8523148 21.6430602,21.6430825 Z" id="Path" fill="#F4D451"></path>
                            </g>
                            <path d="M17.8598743,14.5003453 L14.1473776,16.6035729 L10.4348234,14.5002792 C10.2373716,14.3885081 9.99933567,14.4411879 9.85219667,14.6291697 C9.70505766,14.8171514 9.68479439,15.0945633 9.80257467,15.3080588 L13.732441,22.4325935 C13.822532,22.5958547 13.9791119,22.6947368 14.1473776,22.6947368 C14.315701,22.6947368 14.4722808,22.5957886 14.5623142,22.4325935 L18.4921806,15.3080588 C18.6099609,15.0945633 18.58964,14.8171514 18.4425586,14.6291697 C18.295362,14.441254 18.0573261,14.3885742 17.8598743,14.5003453 Z M13.6561084,20.185934 L11.5678973,16.4003226 L13.6561084,17.5833386 L13.6561084,20.185934 Z M14.6385893,20.185934 L14.6385893,17.5833386 L16.7268004,16.4003226 L14.6385893,20.185934 Z" id="Shape" fill="#FF901D" fill-rule="nonzero"></path>
                            <path d="M18.550806,13.0281518 C18.5385446,12.9734962 18.5189724,12.9213131 18.4927801,12.8733593 L18.4920893,12.8714724 L14.5622711,5.85811759 C14.5556511,5.84627554 14.5431019,5.84243664 14.5357335,5.83144045 C14.4479462,5.6866031 14.3026511,5.6 14.1473396,5.6 C13.9920281,5.6 13.846733,5.6866031 13.7589458,5.83144045 C13.7515774,5.84243664 13.7390282,5.84627554 13.7324081,5.85811759 L9.80258996,12.8714724 L9.80189918,12.8733593 C9.77570692,12.9213131 9.75613467,12.9734962 9.74387324,13.0281518 C9.73805913,13.0749995 9.73218746,13.1217821 9.72631579,13.1686297 C9.72631579,13.1772835 9.72907893,13.1852216 9.72948189,13.1938103 C9.73443251,13.2494419 9.7444489,13.3043578 9.7594159,13.357647 C9.76609349,13.3777525 9.77380726,13.3974025 9.7825572,13.4165319 C9.79700612,13.4487397 9.81427574,13.4791907 9.83402068,13.5075595 C9.84104366,13.5177749 9.84449759,13.5300074 9.85226892,13.5397673 C9.85710441,13.5458835 9.86372443,13.5489416 9.86873263,13.5547325 C9.89256471,13.5812795 9.91875697,13.6050287 9.94690646,13.6255896 C9.96043433,13.6372365 9.97453786,13.6480374 9.98904434,13.6580576 C9.99307392,13.6604651 9.99606732,13.6643691 10.000212,13.6667114 L13.9300302,15.8585963 C14.0670359,15.9348539 14.2276434,15.9348539 14.3646491,15.8585963 L18.2944672,13.6667114 C18.344837,13.6373015 18.3901985,13.5981967 18.4286522,13.5511539 C18.4327394,13.546404 18.4385535,13.5447774 18.4424679,13.5398324 C18.4502393,13.5300724 18.4536356,13.5177749 18.4607162,13.5076246 C18.4805187,13.4792557 18.4977307,13.4488048 18.5121796,13.416597 C18.5209296,13.3975326 18.5286434,13.3778826 18.5353209,13.3577121 C18.5502879,13.3044229 18.5603043,13.249507 18.565255,13.1938754 C18.5656003,13.1852867 18.5684211,13.1773486 18.5684211,13.1686948 C18.5668668,13.1401958 18.5632977,13.111892 18.557829,13.0840437 C18.5562748,13.0652395 18.5539721,13.0465656 18.550806,13.0281518 Z M14.6385453,8.0697175 L16.7267307,11.7962536 L14.6385453,10.6316989 L14.6385453,8.0697175 Z M13.6560764,8.0697175 L13.6560764,10.6316989 L11.567891,11.7962536 L13.6560764,8.0697175 Z M14.1473396,14.7413447 L11.3277281,13.1686948 L14.1473396,11.596175 L16.9669512,13.1686948 L14.1473396,14.7413447 Z" id="Shape" fill="#FF901D" fill-rule="nonzero"></path>
                        </g>
                    </g>
                    <g id="neur" transform="translate(115.000000, 17.000000)">
                        <g id="euro">
                            <circle id="Oval" fill="#FFB125" cx="15" cy="15" r="15"></circle>
                            <path d="M15.0950862,0 C14.6294241,0 14.1690603,0.0226171875 13.7142857,0.0646289062 C21.2985579,0.7659375 27.2383989,7.18435547 27.2383989,15 C27.2383989,22.8156445 21.2985579,29.2340625 13.7142857,29.9353711 C14.1690603,29.9773828 14.6294241,30 15.0950862,30 C23.3268489,30 30,23.2842773 30,15 C30,6.71572266 23.3268489,0 15.0950862,0 Z" id="Path" fill="#FF901D"></path>
                            <g transform="translate(0.857143, 0.857143)" fill="#FEE570">
                                <circle id="Oval" cx="14.1428571" cy="14.1428571" r="11.6848052"></circle>
                                <path d="M14.1428571,1.62298052 C13.9007922,1.62298052 13.7045455,1.42679221 13.7045455,1.18466883 L13.7045455,0.480272727 C13.7045455,0.238149351 13.9007922,0.041961039 14.1428571,0.041961039 C14.3849221,0.041961039 14.5811688,0.238149351 14.5811688,0.480272727 L14.5811688,1.18466883 C14.5811688,1.42673377 14.3849221,1.62298052 14.1428571,1.62298052 Z" id="Path"></path>
                                <path d="M14.1428571,28.2437532 C13.9007922,28.2437532 13.7045455,28.0475649 13.7045455,27.8054416 L13.7045455,27.1010455 C13.7045455,26.8589221 13.9007922,26.6627338 14.1428571,26.6627338 C14.3849221,26.6627338 14.5811688,26.8589221 14.5811688,27.1010455 L14.5811688,27.8054416 C14.5811688,28.0475649 14.3849221,28.2437532 14.1428571,28.2437532 Z" id="Path"></path>
                                <path d="M27.8054416,14.5811688 L27.1011039,14.5811688 C26.859039,14.5811688 26.6627922,14.3849805 26.6627922,14.1428571 C26.6627922,13.9007338 26.859039,13.7045455 27.1011039,13.7045455 L27.8054416,13.7045455 C28.0475065,13.7045455 28.2437532,13.9007338 28.2437532,14.1428571 C28.2437532,14.3849805 28.0475065,14.5811688 27.8054416,14.5811688 Z" id="Path"></path>
                                <path d="M1.18461039,14.5811688 L0.480272727,14.5811688 C0.238207792,14.5811688 0.041961039,14.3849805 0.041961039,14.1428571 C0.041961039,13.9007338 0.238207792,13.7045455 0.480272727,13.7045455 L1.18461039,13.7045455 C1.42667532,13.7045455 1.62292208,13.9007338 1.62292208,14.1428571 C1.62292208,14.3849805 1.42667532,14.5811688 1.18461039,14.5811688 Z" id="Path"></path>
                                <path d="M23.3057338,5.41829221 C23.1935844,5.41829221 23.0813766,5.37551299 22.9957597,5.2898961 C22.8245844,5.11872078 22.8246429,4.84118182 22.9957597,4.67006494 L23.4937987,4.17208442 C23.6650325,4.00096753 23.942513,4.00090909 24.1136883,4.17214286 C24.2848636,4.34331818 24.2848052,4.62085714 24.1136883,4.79197403 L23.6156494,5.28995455 C23.5300325,5.37545455 23.4178831,5.41829221 23.3057338,5.41829221 Z" id="Path"></path>
                                <path d="M4.48194156,24.2420844 C4.36979221,24.2420844 4.25758442,24.1993052 4.17196753,24.1136883 C4.00079221,23.942513 4.00085065,23.664974 4.17196753,23.4938571 L4.67000649,22.9958766 C4.84124026,22.8247597 5.11872078,22.8247013 5.2898961,22.9959351 C5.46107143,23.1671104 5.46101299,23.4446494 5.2898961,23.6157662 L4.79185714,24.1137468 C4.70624026,24.1992468 4.59409091,24.2420844 4.48194156,24.2420844 Z" id="Path"></path>
                                <path d="M23.8037727,24.2420844 C23.6916234,24.2420844 23.579474,24.1993052 23.4938571,24.1137468 L22.9958182,23.6157662 C22.8246429,23.4445909 22.8246429,23.1670519 22.9958182,22.9959351 C23.1669935,22.8247013 23.444474,22.8247597 23.6157078,22.9958766 L24.1137468,23.4938571 C24.2849221,23.6650325 24.2849221,23.9425714 24.1137468,24.1136883 C24.0281299,24.1992468 23.9159805,24.2420844 23.8037727,24.2420844 Z" id="Path"></path>
                                <path d="M4.97998052,5.41829221 C4.86783117,5.41829221 4.75568182,5.37551299 4.67006494,5.28995455 L4.17202597,4.79197403 C4.00085065,4.6207987 4.00085065,4.34325974 4.17202597,4.17214286 C4.3432013,4.00090909 4.62068182,4.00096753 4.79191558,4.17208442 L5.28995455,4.67006494 C5.46112987,4.84124026 5.46112987,5.11877922 5.28995455,5.2898961 C5.2043961,5.37545455 5.09218831,5.41829221 4.97998052,5.41829221 Z" id="Path"></path>
                                <path d="M19.348539,2.71472727 C19.2897468,2.71472727 19.229961,2.70280519 19.1726883,2.67767532 C18.9510195,2.58042857 18.8501494,2.32188312 18.9473961,2.10021429 L19.2303701,1.45519481 C19.3276169,1.23340909 19.5861623,1.13277273 19.8078312,1.2299026 C20.0295,1.32714935 20.1303701,1.58569481 20.0331234,1.80736364 L19.7501494,2.45238312 C19.6780325,2.61677922 19.5172013,2.71472727 19.348539,2.71472727 Z" id="Path"></path>
                                <path d="M8.65379221,27.0928636 C8.595,27.0928636 8.53521429,27.0809416 8.47794156,27.0558117 C8.25627273,26.9585649 8.1554026,26.7000195 8.25264935,26.4783506 L8.53562338,25.8333312 C8.63287013,25.6116039 8.89147403,25.5108506 9.11308442,25.608039 C9.33475325,25.7052857 9.43562338,25.9638312 9.33837662,26.1855 L9.0554026,26.8305195 C8.98328571,26.9949156 8.82245455,27.0928636 8.65379221,27.0928636 Z" id="Path"></path>
                                <path d="M26.6542013,20.0701753 C26.5954091,20.0701753 26.5356234,20.0582532 26.4783506,20.0331234 L25.8333312,19.7501494 C25.6116623,19.6529026 25.5107922,19.3943571 25.608039,19.1726883 C25.7052857,18.950961 25.9637727,18.8501494 26.1855,18.9473961 L26.8305195,19.2303701 C27.0521883,19.3276169 27.1530584,19.5861623 27.0558117,19.8078312 C26.9836948,19.9722273 26.8228636,20.0701753 26.6542013,20.0701753 Z" id="Path"></path>
                                <path d="M2.27606494,9.37537013 C2.21727273,9.37537013 2.15748701,9.36344805 2.10021429,9.33831818 L1.45519481,9.05534416 C1.23352597,8.9580974 1.13265584,8.69955195 1.2299026,8.47788312 C1.32714935,8.25615584 1.58569481,8.1554026 1.80736364,8.25259091 L2.45238312,8.53556494 C2.67405195,8.63281169 2.77492208,8.89135714 2.67767532,9.11302597 C2.60555844,9.27742208 2.44478571,9.37537013 2.27606494,9.37537013 Z" id="Path"></path>
                                <path d="M26.215013,9.87148052 C26.0396883,9.87148052 25.8741234,9.76552597 25.8065649,9.59236364 C25.7186104,9.36683766 25.8301169,9.11273377 26.0556429,9.02472078 L26.7118247,8.76874675 C26.9372922,8.68073377 27.1914545,8.7922987 27.2794675,9.01782468 C27.3674221,9.24335065 27.2559156,9.49745455 27.0303896,9.58546753 L26.3742078,9.84144156 C26.3218442,9.86183766 26.267961,9.87148052 26.215013,9.87148052 Z" id="Path"></path>
                                <path d="M1.41475325,19.5470649 C1.23942857,19.5470649 1.07386364,19.4411104 1.00630519,19.2679481 C0.918350649,19.0424221 1.02985714,18.7883182 1.25538312,18.7003052 L1.91156494,18.4443312 C2.13709091,18.3562597 2.39125325,18.4678831 2.47920779,18.6934091 C2.56716234,18.9189351 2.45565584,19.173039 2.23012987,19.2610519 L1.57394805,19.517026 C1.52164286,19.5374221 1.4677013,19.5470649 1.41475325,19.5470649 Z" id="Path"></path>
                                <path d="M19.1087532,27.3095065 C18.9334286,27.3095065 18.7678636,27.2035519 18.7003052,27.0303896 L18.4443312,26.3742078 C18.3563766,26.1487403 18.4678247,25.8945779 18.6933506,25.8065649 C18.9189351,25.7187273 19.173039,25.8300584 19.2609935,26.0556429 L19.5169675,26.7118247 C19.6049805,26.9372922 19.493474,27.1914545 19.2679481,27.2794675 C19.2156429,27.2998636 19.1617013,27.3095065 19.1087532,27.3095065 Z" id="Path"></path>
                                <path d="M9.43316883,2.50924675 C9.25784416,2.50924675 9.09227922,2.40329221 9.02472078,2.23012987 L8.76874675,1.57394805 C8.68073377,1.34848052 8.79224026,1.09431818 9.01776623,1.00630519 C9.24340909,0.918175325 9.49745455,1.0297987 9.58540909,1.25538312 L9.84138312,1.91156494 C9.92933766,2.13703247 9.81788961,2.39119481 9.59236364,2.47920779 C9.54005844,2.49954545 9.48611688,2.50924675 9.43316883,2.50924675 Z" id="Path"></path>
                            </g>
                            <path d="M23.1889931,23.189017 C27.698936,18.6790675 27.6988782,11.3670924 23.1889931,6.85714286 L6.85714286,23.1889592 C11.367028,27.6989087 18.6790502,27.6989087 23.1889931,23.189017 Z" id="Path" fill="#F4D451"></path>
                        </g>
                        <path d="M21.2217824,22.4081633 C19.4958172,22.4081633 17.89761,21.9290278 16.5999887,21.0225594 C15.3539339,20.1520934 14.435457,18.9311418 13.943914,17.4915833 C13.9127424,17.4005011 13.8255226,17.3394046 13.7268716,17.3394046 L12.7610079,17.3394046 C12.3413759,17.3394046 12,17.0078008 12,16.600181 C12,16.1925613 12.3413759,15.8609575 12.7610079,15.8609575 L13.3382097,15.8609575 C13.4014088,15.8609575 13.4623921,15.8352275 13.5054481,15.7903713 C13.5485544,15.7454661 13.5707119,15.6845652 13.5663308,15.623322 C13.5527845,15.4358257 13.5458855,15.2467152 13.5458855,15.0612245 C13.5458855,14.8757338 13.5527845,14.6866233 13.5663308,14.4992248 C13.5707119,14.4378837 13.5485544,14.3769829 13.5054481,14.3320777 C13.4623921,14.2872215 13.4014088,14.2614915 13.3382097,14.2614915 L12.7610079,14.2614915 C12.3413759,14.2614915 12,13.9298877 12,13.5222679 C12,13.1146482 12.3413759,12.7830444 12.7610079,12.7830444 L13.7268716,12.7830444 C13.8254723,12.7830444 13.9126921,12.7219479 13.9438636,12.6310125 C14.435457,11.1913071 15.3539339,9.97035562 16.5999887,9.09988958 C17.89761,8.19342113 19.4958172,7.71428571 21.2217824,7.71428571 C21.25099,7.71428571 21.2801975,7.71443246 21.3093547,7.71472596 C21.6202641,7.71766094 21.9009588,7.86123036 22.0794774,8.10874697 C22.2582478,8.35650817 22.3014045,8.66223521 22.1979191,8.94751523 L22.1720855,9.01868848 C22.0380832,9.3881535 21.6722334,9.63635494 21.2617162,9.63635494 L21.2513425,9.63635494 C19.3162411,9.63635494 17.5358391,10.7175036 16.6049742,12.4578976 C16.5677597,12.5275055 16.5706301,12.6090001 16.6125782,12.6760155 C16.6545263,12.7430309 16.7276962,12.7830444 16.8083695,12.7830444 L20.9116284,12.7830444 C21.1470513,12.7830444 21.365403,12.8862579 21.5106351,13.0662699 C21.6558671,13.2463309 21.7068796,13.4769225 21.6505795,13.6990026 C21.5666834,14.0302151 21.2628241,14.2615404 20.9116284,14.2615404 L16.2167151,14.2615404 C16.0990791,14.2615404 16.0011331,14.3471929 15.9888458,14.4608255 C15.9672926,14.6611868 15.9563146,14.8632112 15.9563146,15.0612734 C15.9563146,15.2593356 15.9672423,15.461409 15.9887954,15.6616724 C16.0010827,15.7753539 16.0990288,15.8610064 16.2166647,15.8610064 L20.1447789,15.8610064 C20.3802019,15.8610064 20.5985536,15.9642199 20.7437856,16.144232 C20.8890177,16.324293 20.9400302,16.5548845 20.8837805,16.7769646 C20.7998339,17.1081771 20.4959243,17.3395024 20.1448293,17.3395024 L16.8084199,17.3395024 C16.7277466,17.3395024 16.6545766,17.379516 16.6126285,17.4465313 C16.5706805,17.5135467 16.5678101,17.5950413 16.6049742,17.6645514 C17.5359398,19.4050432 19.3162915,20.4861919 21.2513928,20.4861919 L21.2866937,20.486094 C21.7245049,20.486094 22.1068217,20.7548893 22.2381047,21.1550737 C22.3345399,21.448963 22.2830239,21.7609024 22.0967502,22.0108649 C21.9108793,22.260387 21.6225806,22.4050815 21.30588,22.4078698 C21.2778811,22.4080165 21.2498317,22.4081633 21.2217824,22.4081633 Z" id="Path" fill="#FF901D"></path>
                        <path d="M12.1427168,19.8640113 C12.1184073,20.0665906 12.0434541,20.2327031 11.917855,20.3623539 C11.7922558,20.4920046 11.6504524,20.5730351 11.4924406,20.6054478 C11.3344287,20.6378605 11.1824966,20.6176028 11.0366395,20.5446743 C10.8907824,20.4717458 10.7854428,20.3299424 10.7206174,20.1192599 C10.6476888,19.8923711 10.6193282,19.6553569 10.6355345,19.4082102 C10.6517409,19.1610635 10.6598439,18.9321523 10.6598439,18.7214699 C10.6598439,18.2838986 10.6618697,17.8483597 10.6659212,17.41484 C10.6699728,16.9813204 10.651741,16.5457815 10.6112251,16.1082102 C10.6031219,16.0920039 10.5950189,16.0778235 10.5869157,16.0656688 C10.5788126,16.053514 10.5626065,16.0352822 10.5382969,16.0109726 C10.351924,15.9623536 10.1533993,15.9745082 9.94271683,16.0474367 C9.73203438,16.1203653 9.55376728,16.2135503 9.4079102,16.3269947 C9.27825946,16.432336 9.15063643,16.5761651 9.02503727,16.7584865 C8.89943812,16.9408078 8.83663948,17.1170491 8.83663948,17.2872157 L8.83663948,18.9645638 C8.83663948,19.0942145 8.84069101,19.2360179 8.84879418,19.3899782 C8.85689735,19.5439384 8.85082006,19.6938448 8.83056213,19.8397019 C8.8103042,19.985559 8.76371167,20.1192593 8.69078313,20.2408069 C8.61785459,20.3623545 8.50036036,20.451488 8.33829694,20.5082102 C8.24916206,20.5406229 8.1661058,20.5527775 8.08912567,20.5446743 C8.01214554,20.5365711 7.92908928,20.5163135 7.8399544,20.4839008 C7.69409732,20.4352818 7.58875767,20.3522255 7.5239323,20.2347295 C7.45910693,20.1172336 7.41454015,19.9916363 7.39023064,19.857934 C7.36592113,19.7242316 7.35579232,19.5945828 7.3598439,19.4689837 C7.36389549,19.3433845 7.36592125,19.2441222 7.36592125,19.1711936 C7.36592125,18.9848207 7.36389549,18.7153943 7.3598439,18.3629063 C7.35579232,18.0104184 7.35376655,17.6397039 7.35376655,17.2507516 L7.35376655,15.3303097 C7.35376655,15.1520399 7.40643638,15.0041592 7.5117776,14.8866633 C7.61711883,14.7691673 7.74069034,14.6921883 7.88249583,14.655724 C8.02430133,14.6192598 8.17420775,14.6273628 8.33221959,14.6800334 C8.49023143,14.732704 8.62190599,14.8400694 8.72724722,15.0021329 C9.05137407,14.7914504 9.40790825,14.649647 9.79686048,14.5767185 C10.1858127,14.50379 10.5524757,14.5159445 10.8968605,14.6131826 C11.2412453,14.7104206 11.5289035,14.8927393 11.7598439,15.1601439 C11.9907843,15.4275486 12.1103043,15.7962373 12.1184074,16.2662213 C12.1184074,16.2824276 12.122459,16.3310459 12.1305621,16.4120776 C12.1386653,16.4931093 12.1427168,16.606552 12.1427168,16.7524091 L12.1427168,19.8640113 Z" id="n" fill="#FF901D"></path>
                    </g>
                    <g id="arrow-point-to-right" transform="translate(141.861689, 142.490807) rotate(8.000000) translate(-141.861689, -142.490807) translate(127.361689, 129.544378)" fill="#1E3038">
                        <path d="M20.259696,13.9823054 L10.1034637,24.6701501 C9.45740461,25.3503772 8.4099306,25.3503772 7.76418519,24.6701501 C7.11838751,23.9905281 7.11838751,22.8882467 7.76418519,22.2086797 L16.7508828,12.7515702 L7.76444656,3.29479072 C7.11864888,2.6148937 7.11864888,1.51272227 7.76444656,0.833100309 C8.41024425,0.153203289 9.45766598,0.153203289 10.103725,0.833100309 L20.2599573,11.5211101 C20.5828562,11.8610861 20.7441226,12.3061906 20.7441226,12.7515152 C20.7441226,13.1970598 20.5825425,13.6424944 20.259696,13.9823054 Z" id="Path" transform="translate(14.011980, 12.751749) rotate(-54.000000) translate(-14.011980, -12.751749) "></path>
                    </g>
                    <g id="arrow-point-to-right" transform="translate(47.500000, 29.946429) scale(-1, -1) rotate(8.000000) translate(-47.500000, -29.946429) translate(33.000000, 17.000000)" fill="#1E3038">
                        <path d="M20.259696,13.9823054 L10.1034637,24.6701501 C9.45740461,25.3503772 8.4099306,25.3503772 7.76418519,24.6701501 C7.11838751,23.9905281 7.11838751,22.8882467 7.76418519,22.2086797 L16.7508828,12.7515702 L7.76444656,3.29479072 C7.11864888,2.6148937 7.11864888,1.51272227 7.76444656,0.833100309 C8.41024425,0.153203289 9.45766598,0.153203289 10.103725,0.833100309 L20.2599573,11.5211101 C20.5828562,11.8610861 20.7441226,12.3061906 20.7441226,12.7515152 C20.7441226,13.1970598 20.5825425,13.6424944 20.259696,13.9823054 Z" id="Path" transform="translate(14.011980, 12.751749) rotate(-54.000000) translate(-14.011980, -12.751749) "></path>
                    </g>
                </g>
            </g>
        </g>
    </g>
</svg>
