<?xml version="1.0" encoding="UTF-8"?>
<svg width="240px" height="235px" viewBox="0 0 240 235" version="1.1" xmlns="http://www.w3.org/2000/svg" xmlns:xlink="http://www.w3.org/1999/xlink">
    <!-- Generator: Sketch 52.6 (67491) - http://www.bohemiancoding.com/sketch -->
    <title>ASSETS/GRAPHICS/SIGN_AGREEMENT</title>
    <desc>Created with Sketch.</desc>
    <g id="ASSETS/GRAPHICS/SIGN_AGREEMENT" stroke="none" stroke-width="1" fill="none" fill-rule="evenodd">
        <circle id="Oval" fill="#D5E210" opacity="0.3" cx="151.1" cy="138.7" r="88.3"></circle>
        <path d="M146.5,53.2 C145.5,53 145,51.7 145.3,50.4 L153.3,17.9 C153.6,16.6 154.7,15.8 155.7,16 L161.1,17.3 C162.1,17.5 162.6,18.8 162.3,20.1 C162,21.4 160.9,22.2 159.9,22 L156.3,21.1 L148.9,51.3 C148.5,52.6 147.5,53.4 146.5,53.2" id="Path" stroke="#4C4C4C" fill="#FFFFFF"></path>
        <path d="M166.7,102.6 C168,97.5 165.8,92.5 161.8,91.5 L147.4,88 C143.4,87 139.2,90.4 137.9,95.5 C140.9,96.2 142.5,99.9 141.6,103.8 C140.7,107.6 137.5,110.2 134.5,109.4 L143.1,136.2 L163.2,116.5 C160.3,115.8 158.6,112.1 159.6,108.2 C160.5,104.4 163.7,101.8 166.7,102.6 Z" id="Path" stroke="#4C4C4C" fill="#FFFFFF"></path>
        <polygon id="Path" fill="#CDCDCD" points="145.9 109.7 148.3 107.8 151.9 108.7 153.1 111.5 151.9 116.1 149.6 118 146 117.1 144.8 114.3"></polygon>
        <polygon id="Path" stroke="#4C4C4C" fill="#FFFFFF" points="146.7 75.4 168.3 80.7 183.7 18 162.1 12.7"></polygon>
        <path d="M181.9,17.6 L163.9,13.2 L165.7,5.9 C166.6,2.3 169.6,-0.1 172.4,0.6 L180.2,2.5 C183,3.2 184.6,6.7 183.7,10.3 L181.9,17.6 Z" id="Path" stroke="#4C4C4C" fill="#FFFFFF"></path>
        <polyline id="Path" stroke="#4C4C4C" fill="#FFFFFF" points="147.4 88 161.8 91.5 164.7 79.8 150.3 76.3 147.4 88 147.4 88"></polyline>
        <polygon id="Path" fill="#CDCDCD" points="143.2 136.2 145.7 133.7 150.2 115.7 146.6 114.8 142.1 132.9"></polygon>
        <polygon id="Path" stroke="#4C4C4C" fill="#FFFFFF" points="156.4 35.9 178 41.2 179.1 36.6 157.6 31.3"></polygon>
        <path d="M163.5,45.6 L154.5,43.4 L153.4,48 L162.4,50.2 C163.4,50.4 164.5,49.6 164.8,48.3 C165.1,47.1 164.5,45.9 163.5,45.6" id="Path" stroke="#4C4C4C" fill="#FFFFFF"></path>
        <path d="M159.1,55.8 L152,54 L150.9,58.6 L158.1,60.4 C159.1,60.6 160.2,59.8 160.5,58.5 C160.7,57.3 160.1,56 159.1,55.8" id="Path" stroke="#4C4C4C" fill="#FFFFFF"></path>
        <path d="M36.5,156 C19.9,151.9 7.7,150.6 0.4,151.4 C19.3,147.3 34.9,142.7 47.3,137.2 C67,132.8 116.1,142.5 184.9,178.1 C195.5,198.4 203.7,216.8 209.3,233.6 C133.7,188.6 73.9,165.2 36.5,156 Z" id="Path" stroke="#4C4C4C" fill="#FFFFFF"></path>
        <path d="M75.6129552,141.245646 C74.1135111,142.64268 72.5426649,143.966185 70.9004166,145.289691 C70.6148082,145.510276 69.6151788,145.657332 68.7583536,145.510276 C67.9015285,145.363219 67.4731159,145.069107 67.8301264,144.848523 C69.6151788,143.598545 71.4002313,142.275039 73.0424796,140.951533 C73.328088,140.730949 74.1849132,140.510365 74.8989342,140.583893 C75.470151,140.730949 75.8985636,141.025061 75.6129552,141.245646 Z" id="Path" fill="#CDCDCD" transform="translate(71.703864, 143.069470) rotate(6.000000) translate(-71.703864, -143.069470) "></path>
        <path d="M87.4542252,145.072368 C86.9803303,145.952353 86.4387361,146.832338 85.9648412,147.712323 C85.7617433,148.005651 84.8816528,148.078983 83.8661637,147.785655 C82.9183738,147.565658 82.3090804,147.125666 82.5121782,146.832338 C83.1214717,146.025685 83.6630659,145.1457 84.2723593,144.265715 C84.4754571,143.972387 85.2878484,143.899055 86.167939,144.045719 C86.9803303,144.339048 87.5896237,144.77904 87.4542252,145.072368 Z" id="Path" fill="#CDCDCD" transform="translate(84.973117, 145.972387) rotate(6.000000) translate(-84.973117, -145.972387) "></path>
        <path d="M73.7878338,153.913395 C75.0144367,152.769167 76.164377,151.701221 77.3143173,150.480712 C77.5443053,150.175585 78.7709083,150.175585 79.9208486,150.480712 C81.1474516,150.785839 81.9140784,151.319812 81.6840904,151.548658 C80.6874754,152.769167 79.6141978,153.913395 78.5409203,155.057623 C78.3109322,155.36275 76.9310039,155.286468 75.6277382,154.981341 C74.3244726,154.676213 73.481183,154.218522 73.7878338,153.913395 Z" id="Path" fill="#CDCDCD" transform="translate(77.724761, 152.751866) rotate(6.000000) translate(-77.724761, -152.751866) "></path>
        <path d="M80.9579467,148.689154 C81.321483,148.689154 81.9031411,148.789154 82.412092,148.989154 C82.9210428,149.189154 83.3572864,149.389154 83.7208227,149.689154 C84.0116517,149.889154 84.1570662,150.189154 84.0116517,150.389154 C83.9389445,150.589154 83.6481154,150.689154 83.1391646,150.689154 C82.7756283,150.689154 82.1939702,150.589154 81.6123121,150.389154 C81.1033613,150.189154 80.6671177,149.989154 80.3035814,149.689154 C79.7946306,149.189154 80.1581669,148.789154 80.9579467,148.689154 Z" id="Path" fill="#CDCDCD" transform="translate(82.068699, 149.689154) rotate(6.000000) translate(-82.068699, -149.689154) "></path>
        <path d="M71.6456221,156.718508 C70.896358,156.242318 71.3459165,155.861365 72.3948861,155.861365 C72.9942973,155.956603 73.6686349,156.051842 74.2680461,156.242318 C74.8674573,156.432794 75.4668685,156.718508 75.8415005,157.004222 C76.2161325,157.289937 76.3659853,157.480413 76.2161325,157.670889 C76.0662797,157.766127 75.6916477,157.861365 75.1671629,157.861365 C74.5677517,157.766127 73.8934141,157.670889 73.2190765,157.385175 C72.5447389,157.289937 71.9453277,157.004222 71.6456221,156.718508 Z" id="Path" fill="#CDCDCD" transform="translate(73.773557, 156.861365) rotate(6.000000) translate(-73.773557, -156.861365) "></path>
        <path d="M95.5722421,156.713398 C96.1547208,155.38586 96.6643896,154.058322 97.1740585,152.657032 C97.3196781,152.362024 98.3390158,152.362024 99.5039732,152.730784 C100.74174,153.099545 101.688268,153.763314 101.542648,154.058322 C101.178599,155.459612 100.74174,156.860902 100.304881,158.262192 C100.232071,158.5572 99.0671141,158.483448 97.6837273,158.114688 C96.3731503,157.598423 95.4266225,157.082158 95.5722421,156.713398 Z" id="Path" fill="#CDCDCD" transform="translate(98.557457, 155.444225) rotate(6.000000) translate(-98.557457, -155.444225) "></path>
        <path d="M99.8291358,148.686151 C100.254364,148.686151 100.750464,148.844466 101.246564,149.002782 C101.742664,149.161097 102.238764,149.398571 102.663992,149.715202 C103.01835,149.952676 103.230964,150.190149 103.160092,150.427622 C103.089221,150.585938 102.876607,150.744254 102.451378,150.665096 C102.02615,150.665096 101.459178,150.50678 100.963078,150.348465 C100.466979,150.190149 99.9708786,149.873518 99.5456501,149.636044 C98.9786788,149.08194 99.0495502,148.686151 99.8291358,148.686151 Z" id="Path" fill="#CDCDCD" transform="translate(101.173671, 149.686151) rotate(6.000000) translate(-101.173671, -149.686151) "></path>
        <path d="M119.8,159.6 C123.6,159 130.8,161.1 138.8,164.4 C137.4,163.5 136.1,162.4 134.8,161.5 C131.7,159.3 136.3,159.8 139.5,162.2 C142.5,164.4 145.7,166.8 148.9,169.1 C151.2,170.8 150.3,171.3 146.8,169.7 C138.6,166 129.6,162.4 125.8,162.9 C123.8,163.1 117.8,159.8 119.8,159.6 Z" id="Path" fill="#CDCDCD"></path>
        <path d="M139.4,176.5 C135.6,174.3 133.8,172.6 134.8,171.9 C136.1,171.3 142.1,172.2 134.7,168.1 C130.4,165.7 133.8,165.5 138.2,168 C142.2,170.2 145.3,172.5 146.1,174.1 C146.5,174.9 146.3,175.2 145.7,175.5 C145.3,175.7 140.8,175.1 143.3,176.6 C147.6,179.2 144,179.1 139.4,176.5 Z" id="Path" fill="#CDCDCD"></path>
        <path d="M168.5,201.5 C169.3,200.6 171.9,201.3 174.3,202.7 C178.8,205.1 180.6,203.3 178.8,201.3 C177.9,200 179.5,199.5 180.9,199.4 C181,199.4 181.1,199.4 181.2,199.4 C183.6,201.5 194.4,207.7 215.8,207.1 C210,209.3 203.7,210.6 197.2,210.9 C203.8,214.1 213,217.2 225.1,219.2 C195.2,219.2 176.5,209.6 168.2,201.8 C168.3,201.7 168.4,201.6 168.5,201.5 Z" id="Path" stroke="#4C4C4C" fill="#FFFFFF"></path>
        <path d="M140.8,190 C143.5,191.3 144.3,192.7 142.7,192.9 C140,193.4 143.8,196.2 148.5,197.2 C151.4,197.8 154.5,199.4 155.1,200.5 C156,202.3 162.5,204.6 164.8,203.9 C166.3,203.5 169.7,204.3 172.3,205.5 C176.3,207.6 181.6,208 180.1,206.1 C179.2,204.9 181.1,204.5 184,205.2 C188.8,206.3 189.7,204.6 185.4,202.5 C182.7,201.2 181.9,199.8 183.5,199.6 C186.2,199.1 182.4,196.3 177.7,195.3 C174.8,194.7 171.7,193.1 171.1,192 C170.2,190.2 163.7,187.9 161.4,188.6 C159.9,189 156.5,188.2 153.9,187 C149.9,184.9 144.6,184.5 146.1,186.4 C147,187.6 145.1,188 142.2,187.3 C137.5,186.2 136.5,188 140.8,190 Z" id="Path" stroke="#4C4C4C" fill="#FFFFFF"></path>
    </g>
</svg>