<?xml version="1.0" encoding="UTF-8"?>
<svg width="20px" height="20px" viewBox="0 0 20 20" version="1.1" xmlns="http://www.w3.org/2000/svg" xmlns:xlink="http://www.w3.org/1999/xlink">
    <!-- Generator: Sketch 48.2 (47327) - http://www.bohemiancoding.com/sketch -->
    <title>Group 2</title>
    <desc>Created with Sketch.</desc>
    <defs></defs>
    <g id="page2" stroke="none" stroke-width="1" fill="none" fill-rule="evenodd" transform="translate(-486.000000, -728.000000)">
        <g id="Group-2" transform="translate(486.000000, 728.000000)" fill="#FF6D00" fill-rule="nonzero">
            <g id="warning">
                <g id="Group">
                    <path d="M10,0 C4.48615385,0 0,4.48576923 0,10 C0,15.5142308 4.48615385,20 10,20 C15.5138462,20 20,15.5142308 20,10 C20,4.48576923 15.5138462,0 10,0 Z M10,19.2307692 C4.91038462,19.2307692 0.769230769,15.0896154 0.769230769,10 C0.769230769,4.91038462 4.91038462,0.769230769 10,0.769230769 C15.0896154,0.769230769 19.2307692,4.91038462 19.2307692,10 C19.2307692,15.0896154 15.0896154,19.2307692 10,19.2307692 Z" id="Shape"></path>
                    <path d="M10,3.84615385 C9.78769231,3.84615385 9.61538462,4.01807692 9.61538462,4.23076923 L9.61538462,12.6923077 C9.61538462,12.905 9.78769231,13.0769231 10,13.0769231 C10.2123077,13.0769231 10.3846154,12.905 10.3846154,12.6923077 L10.3846154,4.23076923 C10.3846154,4.01807692 10.2123077,3.84615385 10,3.84615385 Z" id="Shape"></path>
                    <path d="M10,14.2307692 C9.78769231,14.2307692 9.61538462,14.4026923 9.61538462,14.6153846 L9.61538462,15.3846154 C9.61538462,15.5973077 9.78769231,15.7692308 10,15.7692308 C10.2123077,15.7692308 10.3846154,15.5973077 10.3846154,15.3846154 L10.3846154,14.6153846 C10.3846154,14.4026923 10.2123077,14.2307692 10,14.2307692 Z" id="Shape"></path>
                </g>
            </g>
        </g>
    </g>
</svg>