<svg width="131" height="33" viewBox="0 0 174 44" xmlns="http://www.w3.org/2000/svg">
  <g fill="none" fill-rule="evenodd">
    <path
      d="M52 38V9.349c0-.93.345-1.721 1.035-2.372.69-.651 1.528-.977 2.514-.977H59v32h-7m10 0V9.349c0-.93.323-1.721.97-2.372A3.2 3.2 0 0165.33 6h9.154c4.868 0 8.507 1.302 10.91 3.907C87.798 12.637 89 16.667 89 22c0 2.853-.432 5.427-1.294 7.721-.987 2.358-2.282 4.156-3.884 5.395-1.357 1.056-2.806 1.8-4.346 2.233-1.48.435-3.73.651-6.75.651H62zm6-5h5.285c3.028 0 5.253-.819 6.676-2.46C81.319 29.027 82 26.378 82 22.595c0-3.657-.65-6.338-1.947-8.04C78.816 12.85 76.838 12 74.12 12H68v21zM21.53.036L20.684 0H15v10.919h6.53c6.016 0 10.91 5.045 10.91 11.245 0 3.265-1.365 6.201-3.53 8.257L32.78 41C38.908 37.098 43 30.116 43 22.164 43 9.963 33.368.036 21.53.036"
      fill="#F95602"/>
    <path
      d="M114 38h-3.168c-.905 0-1.645-.302-2.218-.908-.574-.605-.86-1.386-.86-2.342v-13c0-1.53-.438-2.643-1.312-3.345-.876-.7-1.856-1.052-2.942-1.052a4.41 4.41 0 00-2.897 1.052c-.845.702-1.267 1.815-1.267 3.345V38H93V23.088c0-4.333 1.071-7.232 3.213-8.699A13.543 13.543 0 01103.32 12c2.654 0 5.098.733 7.331 2.199 2.232 1.466 3.349 4.43 3.349 8.89V38m6.66-2.712c-1.313-1.126-2.252-2.642-2.815-4.55A20.91 20.91 0 01117 24.78c0-1.688.235-3.377.704-5.066s1.204-3.096 2.205-4.222c1.628-1.877 3.723-2.986 6.29-3.33 2.566-.343 4.883-.141 6.947.61 2.378.938 4.132 2.565 5.258 4.878 1.063 2.064 1.596 4.473 1.596 7.224 0 2.003-.22 3.722-.657 5.16-.439 1.44-1.003 2.66-1.69 3.66-1.503 2.063-3.412 3.345-5.727 3.845-2.065.563-4.146.61-6.243.141-2.097-.469-3.77-1.266-5.022-2.392zm4.097-17.027c-1.282 1.419-1.864 3.531-1.74 6.336.121 2.807.64 4.764 1.557 5.874.366.494 1.007.91 1.923 1.25.915.338 1.846.37 2.793.092.947-.278 1.786-.972 2.519-2.082.732-1.11 1.13-2.898 1.191-5.365 0-2.22-.352-3.885-1.054-4.995-.702-1.11-1.51-1.818-2.427-2.128a4.415 4.415 0 00-2.747-.046c-.917.278-1.589.633-2.015 1.064zM167.256 37h-6.468L157 19.143 153.212 37h-6.468L140 12h6.283l3.88 17.293L153.672 12h6.56l3.327 17.293 3.419-15.038c.369-1.503 1.353-2.255 2.956-2.255H174l-6.744 25M0 11h11V0H0zm25.274 21.333c-1.191.464-2.475.73-3.822.73-1.346 0-2.63-.266-3.822-.73a10.847 10.847 0 01-3.553-2.272 11.45 11.45 0 01-3.527-8.299V15H0v6.762c0 .302.01.6.022.898.297 7.692 4.295 14.307 10.18 18.055a20.94 20.94 0 003.698 1.873c2.35.91 4.893 1.412 7.552 1.412 2.656 0 5.198-.506 7.548-1.425l-3.726-10.242M47 0h1v44h-1z"
      fill="#60605B"/>
  </g>
</svg>
