<svg version="1.1" id="layer" xmlns="http://www.w3.org/2000/svg" x="0" y="0" viewBox="0 0 652 652" xml:space="preserve"><style>.st0{fill:#3640f5}.st1{fill:#353ff4}.st2{opacity:.5}</style>
  <path class="st0"
        d="M332.9 287.3c-11 0-19.3 4.4-24 12.8v-10.8h-12.6v74.4h12.6V325c0-7.8 2-14.2 5.9-18.8 3.9-4.6 9.3-7 16.1-7 5.7 0 10.3 1.9 13.7 5.6 3.3 3.7 5 9.4 5 17v42h12.6v-44.3c0-10.6-2.6-18.8-7.7-24.1-5-5.3-12.6-8.1-21.6-8.1M586.2 287.3c-21.7 0-39.3 17.6-39.3 39.3s17.6 39.3 39.3 39.3c21.7 0 39.3-17.6 39.3-39.3s-17.6-39.3-39.3-39.3m26.5 39.2c0 15.1-11.9 27.4-26.5 27.4s-26.5-12.3-26.5-27.4 11.9-27.4 26.5-27.4c14.6.1 26.5 12.3 26.5 27.4M245 287.3c-21.7 0-39.3 17.6-39.3 39.3s17.6 39.3 39.3 39.3c21.7 0 39.3-17.6 39.3-39.3s-17.6-39.3-39.3-39.3m26.5 39.2c0 15.1-11.9 27.4-26.5 27.4s-26.5-12.3-26.5-27.4 11.9-27.4 26.5-27.4c14.6.1 26.5 12.3 26.5 27.4M523 299.7c-7.1-8-17.1-12.5-27.6-12.5-20.8 0-37.8 17.6-37.8 39.3s17 39.3 37.8 39.3c10.5 0 20.5-4.5 27.6-12.5v10.4h12.6V259.2H523v40.5zm-.4 26.8c0 15.1-11.9 27.4-26.5 27.4s-26.5-12.3-26.5-27.4 11.9-27.4 26.5-27.4c14.7.1 26.5 12.3 26.5 27.4M438.8 255.6c-2.6 0-4.9.9-6.8 2.8-1.9 1.9-2.8 4.1-2.8 6.8s.9 4.9 2.8 6.8c1.9 1.9 4.1 2.8 6.8 2.8 2.6 0 4.9-.9 6.8-2.8 1.9-1.9 2.8-4.1 2.8-6.8 0-2.6-.9-4.9-2.8-6.8-1.9-1.8-4.2-2.8-6.8-2.8M432.5 289.3h12.6v74.4h-12.6zM396.6 289.3v-14.7c0-3.7 3-6.6 6.6-6.6h14.7v-11.5h-16.1c-9.9 0-17.8 8-17.8 17.8v15h-13.9V301H384v62.8h12.6V301h21.3v-11.7h-21.3z"/>
  <path class="st1"
        d="M73.9 314.4c-6.7 12-2.3 27.2 9.7 33.8 12 6.7 27.2 2.3 33.8-9.7 6.7-12 2.3-27.2-9.7-33.8-11.9-6.7-27.1-2.3-33.8 9.7M63.3 375.3l-4.2 2.7c-.9.7-1.1 2-.3 2.8 3.7 4 7.7 7.8 11.9 11.4 4.4 3.8 10.3 5.2 16 4 6-1.3 11.9-3 17.4-5 8.3-3 16.3-6.7 23.7-11.2 1.4-.8 2.7-1.7 4-2.5.8-.5.7-1.6 0-2.1a66.32 66.32 0 00-68.5-.1"/>
  <path class="st1"
        d="M117.5 338.5c6.7-12 2.3-27.2-9.7-33.8s-27.2-2.3-33.8 9.7c-6.7 12-2.3 27.2 9.7 33.8 12 6.7 27.1 2.4 33.8-9.7"/>
  <g class="st2"><path class="st1" d="M128.1 277.6l4.2-2.7c.9-.7 1.1-2 .3-2.8-3.7-4-7.7-7.8-11.9-11.4-4.4-3.8-10.3-5.2-16-4-6 1.3-11.9 3-17.4 5-8.3 3-16.3 6.7-23.7 11.2-1.4.8-2.7 1.7-4 2.5-.8.5-.7 1.6 0 2.1 20.3 12.3 46.7 13.2 68.5.1"/></g>
  <g class="st2"><path class="st1" d="M46.9 294.1l-2.7-4.2c-.7-.9-2-1.1-2.8-.3-4 3.7-7.8 7.7-11.4 11.9-3.8 4.4-5.2 10.3-4 16 1.3 6 3 11.9 5 17.4 3 8.3 6.7 16.3 11.2 23.7.8 1.4 1.7 2.7 2.5 4 .5.8 1.6.7 2.1 0 12.3-20.3 13.2-46.7.1-68.5"/></g>
  <g class="st2"><path class="st1" d="M144.6 358.9l2.7 4.2c.7.9 2 1.1 2.8.3 4-3.7 7.8-7.7 11.4-11.9 3.8-4.4 5.2-10.3 4-16-1.3-6-3-11.9-5-17.4-3-8.3-6.7-16.3-11.2-23.7-.8-1.4-1.7-2.7-2.5-4-.5-.8-1.6-.7-2.1 0-12.4 20.3-13.2 46.6-.1 68.5"/></g>
  <g class="st2"><path class="st1" d="M63.3 375.3l-4.2 2.7c-.9.7-1.1 2-.3 2.8 3.7 4 7.7 7.8 11.9 11.4 4.4 3.8 10.3 5.2 16 4 6-1.3 11.9-3 17.4-5 8.3-3 16.3-6.7 23.7-11.2 1.4-.8 2.7-1.7 4-2.5.8-.5.7-1.6 0-2.1a66.32 66.32 0 00-68.5-.1"/></g>
</svg>
