<svg xmlns="http://www.w3.org/2000/svg" xmlns:xlink="http://www.w3.org/1999/xlink" width="96" height="23">
  <defs>
    <path id="a" d="M0 .05h4.87v11.66H0z"/>
    <path id="c" d="M.111.134h4.87v11.66H.11z"/>
    <path id="e" d="M.04.056h12.4v12.36H.04z"/>
    <path id="g" d="M0 22.198h94.694V0H0z"/>
    <path id="i" d="M0 22.198h94.694V0H0z"/>
  </defs>
  <g fill="none" fill-rule="evenodd">
    <path fill="#353EF4" fill-rule="nonzero"
          d="M65.224 0c-.415 0-.774.148-1.068.44a1.458 1.458 0 00-.442 1.065c0 .414.149.772.442 1.064.293.292.653.44 1.068.44.415 0 .774-.148 1.068-.44.293-.293.442-.65.442-1.064 0-.413-.149-.771-.442-1.064A1.465 1.465 0 0065.224 0M7.645 9.256a3.908 3.908 0 001.532 5.322 3.936 3.936 0 005.34-1.526 3.908 3.908 0 00-1.53-5.322 3.936 3.936 0 00-5.342 1.526m-1.673 9.583c-.226.135-.446.279-.658.428a.293.293 0 00-.047.44A23.01 23.01 0 007.151 21.5a2.924 2.924 0 002.524.628c.95-.21 1.87-.474 2.751-.788a21.06 21.06 0 004.375-2.157.196.196 0 00-.008-.333 10.51 10.51 0 00-10.82-.012"/>
    <g transform="translate(0 5.232)">
      <mask id="b" fill="#fff">
        <use xlink:href="#a"/>
      </mask>
      <path fill="#9A9FFA" fill-rule="nonzero"
            d="M3.37.83a9.878 9.878 0 00-.43-.656.295.295 0 00-.44-.047A23.054 23.054 0 00.7 2.005 2.899 2.899 0 00.068 4.52c.21.946.475 1.865.79 2.742a20.909 20.909 0 002.166 4.36c.079.12.258.115.333-.008A10.414 10.414 0 003.371.83"
            mask="url(#b)"/>
    </g>
    <path fill="#9A9FFA" fill-rule="nonzero"
          d="M16.106 3.47c.226-.136.446-.28.658-.429a.293.293 0 00.047-.439A22.986 22.986 0 0014.927.807 2.923 2.923 0 0012.403.18c-.95.21-1.87.474-2.751.788a21.054 21.054 0 00-4.375 2.158.196.196 0 00.008.332 10.51 10.51 0 0010.82.012"/>
    <g transform="translate(17.182 5.232)">
      <mask id="d" fill="#fff">
        <use xlink:href="#c"/>
      </mask>
      <path fill="#9A9FFA" fill-rule="nonzero"
            d="M1.61 11.013c.136.226.28.445.43.656.102.145.31.167.44.047a23.052 23.052 0 001.801-1.878 2.9 2.9 0 00.63-2.515 22.783 22.783 0 00-.79-2.742A20.914 20.914 0 001.956.221a.198.198 0 00-.334.008 10.414 10.414 0 00-.012 10.784"
            mask="url(#d)"/>
    </g>
    <path fill="#353EF4" fill-rule="nonzero"
          d="M48.521 4.972c-1.736 0-3.038.696-3.789 2.02V5.296h-1.988v11.708h1.988V10.92c0-1.23.312-2.226.926-2.96.611-.73 1.465-1.099 2.54-1.099.904 0 1.629.296 2.155.88.528.587.796 1.484.796 2.667v6.598h1.988v-6.97c0-1.675-.408-2.95-1.214-3.793-.784-.819-1.992-1.27-3.402-1.27"/>
    <g transform="translate(82.252 4.915)">
      <mask id="f" fill="#fff">
        <use xlink:href="#e"/>
      </mask>
      <path fill="#353EF4" fill-rule="nonzero"
            d="M10.416 6.236c0 2.375-1.873 4.308-4.175 4.308-2.303 0-4.176-1.933-4.176-4.308S3.938 1.93 6.241 1.93c2.302 0 4.175 1.932 4.175 4.307M6.24.056C2.82.056.04 2.83.04 6.236c0 3.408 2.782 6.18 6.2 6.18 3.42 0 6.201-2.772 6.201-6.18 0-3.407-2.781-6.18-6.2-6.18"
            mask="url(#f)"/>
    </g>
    <path fill="#353EF4" fill-rule="nonzero"
          d="M38.825 11.151c0 2.375-1.873 4.308-4.176 4.308-2.302 0-4.175-1.933-4.175-4.308s1.873-4.307 4.175-4.307c2.303 0 4.176 1.932 4.176 4.307m-4.176-6.18c-3.419 0-6.2 2.773-6.2 6.18 0 3.408 2.781 6.18 6.2 6.18 3.42 0 6.201-2.772 6.201-6.18 0-3.407-2.781-6.18-6.2-6.18m43.808 6.18c0 2.375-1.873 4.308-4.175 4.308-2.302 0-4.175-1.933-4.175-4.308s1.873-4.307 4.175-4.307c2.302 0 4.175 1.932 4.175 4.307zm.063-4.215a5.868 5.868 0 00-4.36-1.964c-3.289 0-5.964 2.772-5.964 6.18 0 3.407 2.675 6.18 5.965 6.18a5.868 5.868 0 004.359-1.965v1.638h1.989V.551h-1.99v6.385z"/>
    <mask id="h" fill="#fff">
      <use xlink:href="#g"/>
    </mask>
    <path fill="#353EF4" fill-rule="nonzero" d="M64.23 17.005h1.988V5.297H64.23z" mask="url(#h)"/>
    <g>
      <mask id="j" fill="#fff">
        <use xlink:href="#i"/>
      </mask>
      <path fill="#353EF4" fill-rule="nonzero"
            d="M58.576 5.298V2.982a1.04 1.04 0 011.043-1.039h2.318V.137h-2.534a2.81 2.81 0 00-2.816 2.806v2.355h-2.199v1.834h2.199v9.873h1.989V7.132h3.361V5.298h-3.361z"
            mask="url(#j)"/>
    </g>
  </g>
</svg>
