<?xml version="1.0" encoding="UTF-8"?>
<svg width="65px" height="74px" viewBox="0 0 65 74" version="1.1" xmlns="http://www.w3.org/2000/svg" xmlns:xlink="http://www.w3.org/1999/xlink">
    <!-- Generator: Sketch 48.2 (47327) - http://www.bohemiancoding.com/sketch -->
    <title>Group 6</title>
    <desc>Created with Sketch.</desc>
    <defs></defs>
    <g id="Backup-Recovery-Phrase-1" stroke="none" stroke-width="1" fill="none" fill-rule="evenodd" transform="translate(-459.000000, -390.000000)">
        <g id="Group-6" transform="translate(459.000000, 390.000000)">
            <polygon id="Page-1" fill="#EFEFEF" points="32.0146951 0 0 18.4833813 0 55.450144 32.0146951 73.9335253 64.0286509 55.450144 64.0286509 18.4833813"></polygon>
            <g id="writing" transform="translate(16.000000, 21.000000)" fill="#C4C5C6">
                <g id="Group-15">
                    <path d="M20.6330078,5.11493106 L6.11464844,5.11493106 C5.67449219,5.11493106 5.31777344,5.47838015 5.31777344,5.92658361 C5.31777344,6.37478708 5.67449219,6.73823616 6.11464844,6.73823616 L20.6330859,6.73823616 C21.0731641,6.73823616 21.4298828,6.37478708 21.4298828,5.92658361 C21.4298047,5.47845973 21.0730859,5.11493106 20.6330078,5.11493106" id="Fill-2"></path>
                    <path d="M19.8733516,9.84409041 L6.11460156,9.84409041 C5.67452344,9.84409041 5.31780469,10.2075395 5.31780469,10.655743 C5.31780469,11.1039464 5.67452344,11.4673955 6.11460156,11.4673955 L19.8734297,11.4673955 C20.3134297,11.4673955 20.6702266,11.1039464 20.6702266,10.655743 C20.6702266,10.2075395 20.3133516,9.84409041 19.8733516,9.84409041" id="Fill-4"></path>
                    <path d="M14.8931875,14.57321 L6.11459375,14.57321 C5.67451563,14.57321 5.31779688,14.9366591 5.31779688,15.3848625 C5.31779688,15.833066 5.67451563,16.1965151 6.11459375,16.1965151 L14.8932656,16.1965151 C15.3333437,16.1965151 15.6900625,15.833066 15.6900625,15.3848625 C15.6900625,14.9366591 15.3332656,14.57321 14.8931875,14.57321" id="Fill-6"></path>
                    <path d="M11.0948594,19.216262 L6.114625,19.216262 C5.67454687,19.216262 5.31782812,19.5796315 5.31782812,20.0279146 C5.31782812,20.4761181 5.67454687,20.8394876 6.114625,20.8394876 L11.0947812,20.8394876 C11.5348594,20.8394876 11.8915781,20.4761181 11.8915781,20.0279146 C11.8915781,19.5796315 11.5349375,19.216262 11.0948594,19.216262" id="Fill-8"></path>
                    <g id="Group-14">
                        <path d="M29.4589844,30.0500688 L1.59359375,30.0500688 L1.59359375,1.66538784 L29.4589844,1.66538784 L29.4589063,7.02727646 L14.8708594,21.8873064 C14.7833594,21.9764378 14.7175,22.0851462 14.6783594,22.2045982 L13.1955469,26.7359734 C13.1000781,27.0276399 13.1746094,27.3492291 13.3880469,27.5664868 C13.5399219,27.7211934 13.7435938,27.804197 13.9516406,27.804197 C14.0359375,27.804197 14.1209375,27.7905885 14.2035156,27.7625758 L18.651875,26.252197 C18.7692188,26.2123266 18.8758594,26.1452393 18.9633594,26.0561875 L29.4589844,15.3648 L29.4589844,30.0500688 Z M39.9999219,3.67148034 C39.9999219,3.05528016 39.764375,2.47600583 39.3366406,2.04037625 L38.4471094,1.1341012 C38.019375,0.698392042 37.450625,0.458453574 36.8457031,0.458453574 C36.2407812,0.458453574 35.6721875,0.698392042 35.2442969,1.1341012 L31.0526562,5.40389179 L31.0526562,0.853655707 C31.0526562,0.405452241 30.6958594,0.0420031587 30.2558594,0.0420031587 L0.796796875,0.0420031587 C0.35671875,0.0419235771 0,0.405452241 0,0.853655707 L0,30.8618009 C0,31.3100044 0.35671875,31.6735331 0.796796875,31.6735331 L30.2557812,31.6735331 C30.6957812,31.6735331 31.0525781,31.3100044 31.0525781,30.8618009 L31.0522656,13.7417336 L39.3366406,5.30282318 C39.764375,4.86711402 39.9999219,4.28768053 39.9999219,3.67148034 Z" id="Fill-12"></path>
                    </g>
                </g>
            </g>
        </g>
    </g>
</svg>