<?xml version="1.0" encoding="UTF-8"?>
<svg width="65px" height="74px" viewBox="0 0 65 74" version="1.1" xmlns="http://www.w3.org/2000/svg" xmlns:xlink="http://www.w3.org/1999/xlink">
    <!-- Generator: Sketch 48.2 (47327) - http://www.bohemiancoding.com/sketch -->
    <title>Group 7</title>
    <desc>Created with Sketch.</desc>
    <defs></defs>
    <g id="Backup-Recovery-Phrase-1" stroke="none" stroke-width="1" fill="none" fill-rule="evenodd" transform="translate(-718.000000, -390.000000)">
        <g id="Group-7" transform="translate(718.000000, 390.000000)">
            <g id="Group-5" fill="#EFEFEF">
                <polygon id="Page-1" points="32.0146951 0 0 18.4833813 0 55.450144 32.0146951 73.9335253 64.0286509 55.450144 64.0286509 18.4833813"></polygon>
            </g>
            <g id="Group-4" transform="translate(14.000000, 19.000000)" stroke="#C4C5C6">
                <circle id="Oval-2" stroke-width="3" cx="18.5" cy="18.5" r="18.5"></circle>
                <g id="computer-screen" transform="translate(7.128440, 9.504587)" fill="#C4C5C6" fill-rule="nonzero">
                    <path d="M21.187028,0.0327113268 L21.187028,0 L21.0773527,0 L1.31529826,0 L1.20562296,0 L1.20562296,0.0327113268 C0.559065825,0.0770817745 0.0766921755,0.590667879 0,1.21401054 L0,1.32373054 L0,14.3250758 C0,14.5771906 0.0657100024,14.7896863 0.175385304,14.9810932 C0.427719035,15.4246881 0.800197739,15.6488063 1.31533487,15.6488063 L8.52740116,15.6488063 L8.52740116,17.4651073 L7.15737507,17.4651073 C6.81762324,17.4651073 6.55456358,17.7289178 6.55456358,18.0674343 C6.55456358,18.4059509 6.81762324,18.6697248 7.15737507,18.6697248 L15.2353491,18.6697248 C15.5751009,18.6697248 15.8491794,18.4059143 15.8491794,18.0674343 C15.8491794,17.7288812 15.5751375,17.4651073 15.2353491,17.4651073 L13.865323,17.4651073 L13.865323,15.6488063 L21.0773527,15.6488063 C21.5927095,15.6488063 21.9684828,15.4246881 22.2173022,14.9810932 C22.3302356,14.7803297 22.4036697,14.5655315 22.4036697,14.3250758 L22.4036697,1.32376709 L22.4036697,1.21404709 C22.3269409,0.590667879 21.8118038,0.0770817745 21.187028,0.0327113268 Z M21.187028,1.32376709 L21.187028,14.3251123 C21.187028,14.4021576 21.1542645,14.4348323 21.0773527,14.4348323 L1.31529826,14.4348323 C1.23860609,14.4348323 1.20562296,14.4021576 1.20562296,14.3251123 L1.20562296,1.32376709 L1.20562296,1.21404709 L21.187028,1.21404709 L21.1869914,1.32376709 L21.187028,1.32376709 Z" id="Shape"></path>
                </g>
                <path d="M5.60091743,31.059633 L30.3807339,6.27981651" id="Line-4" stroke-width="3" stroke-linecap="square"></path>
            </g>
        </g>
    </g>
</svg>