<?xml version="1.0" encoding="UTF-8"?>
<svg width="64px" height="74px" viewBox="0 0 64 74" version="1.1" xmlns="http://www.w3.org/2000/svg" xmlns:xlink="http://www.w3.org/1999/xlink">
    <!-- Generator: Sketch 48.2 (47327) - http://www.bohemiancoding.com/sketch -->
    <title>Group 8</title>
    <desc>Created with Sketch.</desc>
    <defs></defs>
    <g id="Backup-Recovery-Phrase-1" stroke="none" stroke-width="1" fill="none" fill-rule="evenodd" transform="translate(-974.000000, -390.000000)">
        <g id="Group-8" transform="translate(974.000000, 390.000000)">
            <g id="Group" fill="#EFEFEF">
                <polygon id="Page-1" points="32.0005543 0 0 18.5 0 55.5 32.0005543 74 64.0003695 55.5 64.0003695 18.5"></polygon>
            </g>
            <g id="003-big-safe-box" transform="translate(15.000000, 21.000000)" stroke="#C4C5C6">
                <circle id="Oval-3" stroke-width="2" cx="15.5" cy="15.5" r="4.5"></circle>
                <path d="M29,26.402081 L29,4.59791896 C29,4.26778166 28.7323169,4 28.4021671,4 L6.59783292,4 C6.26768314,4 6,4.26778166 6,4.59791896 L6,26.402081 C6,26.7322183 6.26768314,27 6.59783292,27 L28.4021671,27 C28.7323169,27 29,26.7322183 29,26.402081 Z M27.8043342,25.8043793 L7.19566583,25.8043793 L7.19566583,5.19562065 L27.8043342,5.19562065 L27.8043342,25.8043793 Z" id="Shape" fill="#C4C5C6" fill-rule="nonzero"></path>
                <path d="M22.9329362,31.4067227 C22.9329362,31.7342972 23.1985903,31.9997844 23.5262376,31.9997844 L27.8540061,31.9997844 C28.1816534,31.9997844 28.4474153,31.7342972 28.4474153,31.4067227 L28.4474153,29.9268711 L31.4068064,29.9268711 C31.7344537,29.9268711 32,29.6611682 32,29.3335938 L32,0.59306168 C32,0.265487262 31.7344537,0 31.4068064,0 L2.65977554,0 C2.33212829,0 2.06647417,0.265487262 2.06647417,0.59306168 L2.06647417,7.88021814 L0.593301371,7.88021814 C0.265654112,7.88021814 0,8.1457054 0,8.47327982 L0,12.8000862 C0,13.1276606 0.265654112,13.3931479 0.593301371,13.3931479 L2.06647417,13.3931479 L2.06647417,16.5336154 L0.593301371,16.5336154 C0.265654112,16.5336154 0,16.7991026 0,17.1266771 L0,21.4539146 C0,21.7814891 0.265654112,22.0471919 0.593301371,22.0471919 L2.06647417,22.0471919 L2.06647417,29.3338094 C2.06647417,29.6613838 2.33212829,29.9270867 2.65977554,29.9270867 L5.62164639,29.9270867 L5.62164639,31.4069383 C5.62164639,31.7345127 5.8873005,32 6.21494776,32 L10.5426085,32 C10.8702558,32 11.1359099,31.7345127 11.1359099,31.4069383 L11.1359099,29.9270867 L22.9329362,29.9270867 L22.9329362,31.4067227 Z M1.18660274,12.206809 L1.18660274,9.06655708 L2.06647417,9.06655708 L2.06647417,12.206809 L1.18660274,12.206809 Z M1.18660274,20.8607452 L1.18660274,17.7198465 L2.06647417,17.7198465 L2.06647417,20.8607452 L1.18660274,20.8607452 Z M9.94919931,30.8134455 L6.80824913,30.8134455 L6.80824913,29.9268711 L9.94930713,29.9268711 L9.94930713,30.8134455 L9.94919931,30.8134455 Z M10.5425007,28.7406399 L6.21483995,28.7406399 L3.25307692,28.7406399 L3.25307692,21.4538068 L3.25307692,17.1265693 L3.25307692,12.8000862 L3.25307692,8.47327982 L3.25307692,1.18633894 L30.8133973,1.18633894 L30.8133973,28.7406399 L27.8540061,28.7406399 L23.5262376,28.7406399 L10.5425007,28.7406399 Z M27.2608126,29.9269789 L27.2608126,30.8135533 L24.119539,30.8135533 L24.119539,29.9269789 L27.2608126,29.9269789 Z" id="Shape" fill="#C4C5C6" fill-rule="nonzero"></path>
            </g>
        </g>
    </g>
</svg>