<svg width="13" height="13" xmlns="http://www.w3.org/2000/svg">
  <path d="M7.578 6.5l4.844 4.844a.29.29 0 0 1 .078.215.29.29 0 0 1-.078.214l-.899.899a.29.29 0 0 1-.214.078.29.29 0 0 1-.215-.078L6.25 7.828l-4.844 4.844a.29.29 0 0 1-.215.078.29.29 0 0 1-.214-.078l-.899-.899A.29.29 0 0 1 0 11.56a.29.29 0 0 1 .078-.215L4.922 6.5.078 1.656A.29.29 0 0 1 0 1.441a.29.29 0 0 1 .078-.214L.977.328A.29.29 0 0 1 1.19.25a.29.29 0 0 1 .215.078L6.25 5.172 11.094.328a.29.29 0 0 1 .215-.078.29.29 0 0 1 .214.078l.899.899a.29.29 0 0 1 .078.214.29.29 0 0 1-.078.215L7.578 6.5z" fill="#142431" fill-rule="nonzero"/>
</svg>
