<?xml version="1.0" encoding="UTF-8"?>
<svg width="25px" height="25px" viewBox="0 0 25 25" version="1.1" xmlns="http://www.w3.org/2000/svg" xmlns:xlink="http://www.w3.org/1999/xlink">
  <g stroke="none" stroke-width="1" fill="none" fill-rule="evenodd">
    <g transform="translate(-578.000000, -216.000000)">
      <g transform="translate(557.000000, 82.000000)">
        <g transform="translate(21.000000, 134.000000)">
          <g>
            <circle id="Oval" fill="#FFB125" cx="12.5" cy="12.5" r="12.5"></circle>
            <path d="M12.5792385,0 C12.1911868,0 11.8075502,0.0188476563 11.4285714,0.0538574219 C17.7487983,0.63828125 22.6986658,5.98696289 22.6986658,12.5 C22.6986658,19.0130371 17.7487983,24.3617188 11.4285714,24.9461426 C11.8075502,24.9811523 12.1911868,25 12.5792385,25 C19.4390407,25 25,19.4035645 25,12.5 C25,5.59643555 19.4390407,0 12.5792385,0 Z" id="Path" fill="#FF901D"></path>
            <g id="Group" transform="translate(0.714286, 0.714286)" fill="#FEE570">
              <circle id="Oval" cx="11.7857143" cy="11.7857143" r="9.73733766"></circle>
              <path d="M11.7857143,1.35248377 C11.5839935,1.35248377 11.4204545,1.18899351 11.4204545,0.987224026 L11.4204545,0.400227273 C11.4204545,0.198457792 11.5839935,0.0349675325 11.7857143,0.0349675325 C11.9874351,0.0349675325 12.150974,0.198457792 12.150974,0.400227273 L12.150974,0.987224026 C12.150974,1.18894481 11.9874351,1.35248377 11.7857143,1.35248377 Z" id="Path"></path>
              <path d="M11.7857143,23.536461 C11.5839935,23.536461 11.4204545,23.3729708 11.4204545,23.1712013 L11.4204545,22.5842045 C11.4204545,22.3824351 11.5839935,22.2189448 11.7857143,22.2189448 C11.9874351,22.2189448 12.150974,22.3824351 12.150974,22.5842045 L12.150974,23.1712013 C12.150974,23.3729708 11.9874351,23.536461 11.7857143,23.536461 Z" id="Path"></path>
              <path d="M23.1712013,12.150974 L22.5842532,12.150974 C22.3825325,12.150974 22.2189935,11.9874838 22.2189935,11.7857143 C22.2189935,11.5839448 22.3825325,11.4204545 22.5842532,11.4204545 L23.1712013,11.4204545 C23.3729221,11.4204545 23.536461,11.5839448 23.536461,11.7857143 C23.536461,11.9874838 23.3729221,12.150974 23.1712013,12.150974 Z" id="Path"></path>
              <path d="M0.987175325,12.150974 L0.400227273,12.150974 C0.198506494,12.150974 0.0349675325,11.9874838 0.0349675325,11.7857143 C0.0349675325,11.5839448 0.198506494,11.4204545 0.400227273,11.4204545 L0.987175325,11.4204545 C1.1888961,11.4204545 1.35243506,11.5839448 1.35243506,11.7857143 C1.35243506,11.9874838 1.1888961,12.150974 0.987175325,12.150974 Z" id="Path"></path>
              <path d="M19.4214448,4.51524351 C19.327987,4.51524351 19.2344805,4.47959416 19.1631331,4.40824675 C19.020487,4.26560065 19.0205357,4.03431818 19.1631331,3.89172078 L19.5781656,3.47673701 C19.7208604,3.33413961 19.9520942,3.33409091 20.0947403,3.47678571 C20.2373864,3.61943182 20.2373377,3.85071429 20.0947403,3.99331169 L19.6797078,4.40829545 C19.6083604,4.47954545 19.5149026,4.51524351 19.4214448,4.51524351 Z" id="Path"></path>
              <path d="M3.7349513,20.201737 C3.64149351,20.201737 3.54798701,20.1660877 3.47663961,20.0947403 C3.33399351,19.9520942 3.33404221,19.7208117 3.47663961,19.5782143 L3.89167208,19.1632305 C4.03436688,19.0206331 4.26560065,19.0205844 4.40824675,19.1632792 C4.55089286,19.3059253 4.55084416,19.5372078 4.40824675,19.6798052 L3.99321429,20.094789 C3.92186688,20.166039 3.82840909,20.201737 3.7349513,20.201737 Z" id="Path"></path>
              <path d="M19.8364773,20.201737 C19.7430195,20.201737 19.6495617,20.1660877 19.5782143,20.094789 L19.1631818,19.6798052 C19.0205357,19.5371591 19.0205357,19.3058766 19.1631818,19.1632792 C19.3058279,19.0205844 19.5370617,19.0206331 19.6797565,19.1632305 L20.094789,19.5782143 C20.2374351,19.7208604 20.2374351,19.9521429 20.094789,20.0947403 C20.0234416,20.166039 19.9299838,20.201737 19.8364773,20.201737 Z" id="Path"></path>
              <path d="M4.14998377,4.51524351 C4.05652597,4.51524351 3.96306818,4.47959416 3.89172078,4.40829545 L3.47668831,3.99331169 C3.33404221,3.85066558 3.33404221,3.61938312 3.47668831,3.47678571 C3.61933442,3.33409091 3.85056818,3.33413961 3.99326299,3.47673701 L4.40829545,3.89172078 C4.55094156,4.03436688 4.55094156,4.26564935 4.40829545,4.40824675 C4.33699675,4.47954545 4.24349026,4.51524351 4.14998377,4.51524351 Z" id="Path"></path>
              <path d="M16.1237825,2.26227273 C16.074789,2.26227273 16.0249675,2.25233766 15.9772403,2.2313961 C15.7925162,2.15035714 15.7084578,1.9349026 15.7894968,1.75017857 L16.0253084,1.21266234 C16.1063474,1.02784091 16.3218019,0.943977273 16.506526,1.02491883 C16.69125,1.10595779 16.7753084,1.32141234 16.6942695,1.50613636 L16.4584578,2.0436526 C16.3983604,2.18064935 16.2643344,2.26227273 16.1237825,2.26227273 Z" id="Path"></path>
              <path d="M7.21149351,22.5773864 C7.1625,22.5773864 7.11267857,22.5674513 7.0649513,22.5465097 C6.88022727,22.4654708 6.79616883,22.2500162 6.87720779,22.0652922 L7.11301948,21.527776 C7.19405844,21.3430032 7.40956169,21.2590422 7.59423701,21.3400325 C7.77896104,21.4210714 7.86301948,21.636526 7.78198052,21.82125 L7.54616883,22.3587662 C7.48607143,22.495763 7.35204545,22.5773864 7.21149351,22.5773864 Z" id="Path"></path>
              <path d="M22.2118344,16.7251461 C22.1628409,16.7251461 22.1130195,16.715211 22.0652922,16.6942695 L21.527776,16.4584578 C21.3430519,16.3774188 21.2589935,16.1619643 21.3400325,15.9772403 C21.4210714,15.7924675 21.6364773,15.7084578 21.82125,15.7894968 L22.3587662,16.0253084 C22.5434903,16.1063474 22.6275487,16.3218019 22.5465097,16.506526 C22.4864123,16.6435227 22.3523864,16.7251461 22.2118344,16.7251461 Z" id="Path"></path>
              <path d="M1.89672078,7.81280844 C1.84772727,7.81280844 1.79790584,7.80287338 1.75017857,7.78193182 L1.21266234,7.54612013 C1.02793831,7.46508117 0.94387987,7.24962662 1.02491883,7.0649026 C1.10595779,6.88012987 1.32141234,6.79616883 1.50613636,6.87715909 L2.0436526,7.11297078 C2.22837662,7.19400974 2.31243506,7.40946429 2.2313961,7.59418831 C2.1712987,7.73118506 2.03732143,7.81280844 1.89672078,7.81280844 Z" id="Path"></path>
              <path d="M21.8458442,8.22623377 C21.6997403,8.22623377 21.5617695,8.13793831 21.5054708,7.99363636 C21.4321753,7.80569805 21.5250974,7.59394481 21.7130357,7.52060065 L22.2598539,7.30728896 C22.4477435,7.23394481 22.6595455,7.32691558 22.7328896,7.5148539 C22.8061851,7.70279221 22.713263,7.91454545 22.5253247,7.98788961 L21.9785065,8.2012013 C21.9348701,8.21819805 21.8899675,8.22623377 21.8458442,8.22623377 Z" id="Path"></path>
              <path d="M1.17896104,16.2892208 C1.03285714,16.2892208 0.894886364,16.2009253 0.838587662,16.0566234 C0.765292208,15.8686851 0.858214286,15.6569318 1.0461526,15.5835877 L1.59297078,15.370276 C1.78090909,15.2968831 1.99271104,15.3899026 2.06600649,15.5778409 C2.13930195,15.7657792 2.04637987,15.9775325 1.85844156,16.0508766 L1.31162338,16.2641883 C1.26803571,16.2811851 1.22308442,16.2892208 1.17896104,16.2892208 Z" id="Path"></path>
              <path d="M15.923961,22.7579221 C15.7778571,22.7579221 15.6398864,22.6696266 15.5835877,22.5253247 L15.370276,21.9785065 C15.2969805,21.7906169 15.3898539,21.5788149 15.5777922,21.5054708 C15.7657792,21.4322727 15.9775325,21.5250487 16.0508279,21.7130357 L16.2641396,22.2598539 C16.3374838,22.4477435 16.2445617,22.6595455 16.0566234,22.7328896 C16.0130357,22.7498864 15.9680844,22.7579221 15.923961,22.7579221 Z" id="Path"></path>
              <path d="M7.86097403,2.09103896 C7.71487013,2.09103896 7.57689935,2.00274351 7.52060065,1.85844156 L7.30728896,1.31162338 C7.23394481,1.12373377 7.32686688,0.911931818 7.51480519,0.838587662 C7.70284091,0.765146104 7.91454545,0.858165584 7.98784091,1.0461526 L8.2011526,1.59297078 C8.27444805,1.78086039 8.18157468,1.99266234 7.99363636,2.06600649 C7.9500487,2.08295455 7.9050974,2.09103896 7.86097403,2.09103896 Z" id="Path"></path>
            </g>
            <path d="M19.3241609,19.3241808 C23.0824466,15.5658896 23.0823985,9.47257697 19.3241609,5.71428571 L5.71428571,19.3241327 C9.47252333,23.0824239 15.5658751,23.0824239 19.3241609,19.3241808 Z" id="Path" fill="#F4D451"></path>
          </g>
          <path d="M15.7989529,12.9085283 L12.5000082,14.7642129 L9.20101227,12.90847 C9.02555553,12.8098539 8.81403553,12.8563335 8.68328701,13.0221904 C8.55253849,13.1880473 8.53453243,13.4328087 8.63919263,13.6211765 L12.1312933,19.9071768 C12.2113486,20.0512227 12.3504863,20.1384667 12.5000082,20.1384667 C12.6495812,20.1384667 12.7887189,20.0511644 12.8687231,19.9071768 L16.3608237,13.6211765 C16.4654839,13.4328087 16.4474267,13.1880473 16.3167294,13.0221904 C16.1859297,12.8563918 15.9744097,12.8099122 15.7989529,12.9085283 Z M12.0634636,17.9249418 L10.207868,14.5848845 L12.0634636,15.6286633 L12.0634636,17.9249418 Z M12.9365016,17.9249418 L12.9365016,15.6286633 L14.7920973,14.5848845 L12.9365016,17.9249418 Z" id="Shape" fill="#FF901D" fill-rule="nonzero"></path>
          <path d="M16.4129186,11.5538827 C16.4020231,11.5056599 16.3846311,11.4596186 16.3613565,11.4173088 L16.3607426,11.4156439 L12.8686848,5.22773799 C12.8628022,5.21728972 12.8516509,5.21390264 12.8451033,5.20420067 C12.7670951,5.0764102 12.6379851,5 12.4999744,5 C12.3619638,5 12.2328538,5.0764102 12.1548455,5.20420067 C12.148298,5.21390264 12.1371466,5.21728972 12.131264,5.22773799 L8.63920622,11.4156439 L8.63859238,11.4173088 C8.61531779,11.4596186 8.59792579,11.5056599 8.58703022,11.5538827 C8.58186377,11.5952165 8.57664617,11.636493 8.57142857,11.6778268 C8.57142857,11.6854621 8.57388391,11.6924659 8.57424198,11.7000437 C8.57864114,11.7491277 8.58754175,11.7975801 8.60084151,11.8445974 C8.60677525,11.8623365 8.61362975,11.8796737 8.62140499,11.8965517 C8.63424438,11.9249687 8.64959026,11.9518357 8.66713572,11.9768657 C8.67337638,11.9858788 8.67644556,11.9966715 8.68335121,12.0052827 C8.68764805,12.0106791 8.69353064,12.0133772 8.69798095,12.0184866 C8.71915826,12.0419091 8.74243285,12.062863 8.76744664,12.081004 C8.77946758,12.0912801 8.79200005,12.1008098 8.80489059,12.1096506 C8.8084713,12.1117747 8.81113125,12.1152192 8.81481426,12.1172859 L12.3068721,14.0511931 C12.4286161,14.1184754 12.5713328,14.1184754 12.6930768,14.0511931 L16.1851346,12.1172859 C16.2298934,12.0913375 16.2702019,12.0568352 16.3043721,12.0153291 C16.3080039,12.0111383 16.3131704,12.0097031 16.3166488,12.0053401 C16.3235544,11.9967289 16.3265725,11.9858788 16.3328643,11.9769231 C16.3504609,11.9518931 16.3657556,11.9250261 16.378595,11.8966091 C16.3863703,11.8797886 16.3932247,11.8624513 16.3991585,11.8446548 C16.4124583,11.7976375 16.4213589,11.7491851 16.425758,11.7001012 C16.4260649,11.6925233 16.4285714,11.6855195 16.4285714,11.6778842 C16.4271903,11.6527395 16.4240188,11.6277669 16.4191593,11.6031963 C16.4177782,11.5866053 16.415732,11.5701292 16.4129186,11.5538827 Z M12.9364625,7.17903984 L14.7920354,10.4669748 L12.9364625,9.43948438 L12.9364625,7.17903984 Z M12.0634352,7.17903984 L12.0634352,9.43948438 L10.2078623,10.4669748 L12.0634352,7.17903984 Z M12.4999744,13.0654384 L9.99445223,11.6778842 L12.4999744,10.2904449 L15.0054966,11.6778842 L12.4999744,13.0654384 Z" id="Shape" fill="#FF901D" fill-rule="nonzero"></path>
        </g>
      </g>
    </g>
  </g>
</svg>
