<?xml version="1.0" encoding="UTF-8"?>
<svg width="25px" height="25px" viewBox="0 0 25 25" version="1.1" xmlns="http://www.w3.org/2000/svg" xmlns:xlink="http://www.w3.org/1999/xlink">
  <g stroke="none" stroke-width="1" fill="none" fill-rule="evenodd">
    <g transform="translate(-709.000000, -20.000000)">
      <g transform="translate(557.000000, 20.000000)">
        <g transform="translate(152.000000, 0.000000)">
          <g>
            <circle id="Oval" fill="#FFB125" cx="12.5" cy="12.5" r="12.5"></circle>
            <path d="M12.5792385,0 C12.1911868,0 11.8075502,0.0188476563 11.4285714,0.0538574219 C17.7487983,0.63828125 22.6986658,5.98696289 22.6986658,12.5 C22.6986658,19.0130371 17.7487983,24.3617188 11.4285714,24.9461426 C11.8075502,24.9811523 12.1911868,25 12.5792385,25 C19.4390407,25 25,19.4035645 25,12.5 C25,5.59643555 19.4390407,0 12.5792385,0 Z" id="Path" fill="#FF901D"></path>
            <g transform="translate(0.714286, 0.714286)" fill="#FEE570">
              <circle id="Oval" cx="11.7857143" cy="11.7857143" r="9.73733766"></circle>
              <path d="M11.7857143,1.35248377 C11.5839935,1.35248377 11.4204545,1.18899351 11.4204545,0.987224026 L11.4204545,0.400227273 C11.4204545,0.198457792 11.5839935,0.0349675325 11.7857143,0.0349675325 C11.9874351,0.0349675325 12.150974,0.198457792 12.150974,0.400227273 L12.150974,0.987224026 C12.150974,1.18894481 11.9874351,1.35248377 11.7857143,1.35248377 Z" id="Path"></path>
              <path d="M11.7857143,23.536461 C11.5839935,23.536461 11.4204545,23.3729708 11.4204545,23.1712013 L11.4204545,22.5842045 C11.4204545,22.3824351 11.5839935,22.2189448 11.7857143,22.2189448 C11.9874351,22.2189448 12.150974,22.3824351 12.150974,22.5842045 L12.150974,23.1712013 C12.150974,23.3729708 11.9874351,23.536461 11.7857143,23.536461 Z" id="Path"></path>
              <path d="M23.1712013,12.150974 L22.5842532,12.150974 C22.3825325,12.150974 22.2189935,11.9874838 22.2189935,11.7857143 C22.2189935,11.5839448 22.3825325,11.4204545 22.5842532,11.4204545 L23.1712013,11.4204545 C23.3729221,11.4204545 23.536461,11.5839448 23.536461,11.7857143 C23.536461,11.9874838 23.3729221,12.150974 23.1712013,12.150974 Z" id="Path"></path>
              <path d="M0.987175325,12.150974 L0.400227273,12.150974 C0.198506494,12.150974 0.0349675325,11.9874838 0.0349675325,11.7857143 C0.0349675325,11.5839448 0.198506494,11.4204545 0.400227273,11.4204545 L0.987175325,11.4204545 C1.1888961,11.4204545 1.35243506,11.5839448 1.35243506,11.7857143 C1.35243506,11.9874838 1.1888961,12.150974 0.987175325,12.150974 Z" id="Path"></path>
              <path d="M19.4214448,4.51524351 C19.327987,4.51524351 19.2344805,4.47959416 19.1631331,4.40824675 C19.020487,4.26560065 19.0205357,4.03431818 19.1631331,3.89172078 L19.5781656,3.47673701 C19.7208604,3.33413961 19.9520942,3.33409091 20.0947403,3.47678571 C20.2373864,3.61943182 20.2373377,3.85071429 20.0947403,3.99331169 L19.6797078,4.40829545 C19.6083604,4.47954545 19.5149026,4.51524351 19.4214448,4.51524351 Z" id="Path"></path>
              <path d="M3.7349513,20.201737 C3.64149351,20.201737 3.54798701,20.1660877 3.47663961,20.0947403 C3.33399351,19.9520942 3.33404221,19.7208117 3.47663961,19.5782143 L3.89167208,19.1632305 C4.03436688,19.0206331 4.26560065,19.0205844 4.40824675,19.1632792 C4.55089286,19.3059253 4.55084416,19.5372078 4.40824675,19.6798052 L3.99321429,20.094789 C3.92186688,20.166039 3.82840909,20.201737 3.7349513,20.201737 Z" id="Path"></path>
              <path d="M19.8364773,20.201737 C19.7430195,20.201737 19.6495617,20.1660877 19.5782143,20.094789 L19.1631818,19.6798052 C19.0205357,19.5371591 19.0205357,19.3058766 19.1631818,19.1632792 C19.3058279,19.0205844 19.5370617,19.0206331 19.6797565,19.1632305 L20.094789,19.5782143 C20.2374351,19.7208604 20.2374351,19.9521429 20.094789,20.0947403 C20.0234416,20.166039 19.9299838,20.201737 19.8364773,20.201737 Z" id="Path"></path>
              <path d="M4.14998377,4.51524351 C4.05652597,4.51524351 3.96306818,4.47959416 3.89172078,4.40829545 L3.47668831,3.99331169 C3.33404221,3.85066558 3.33404221,3.61938312 3.47668831,3.47678571 C3.61933442,3.33409091 3.85056818,3.33413961 3.99326299,3.47673701 L4.40829545,3.89172078 C4.55094156,4.03436688 4.55094156,4.26564935 4.40829545,4.40824675 C4.33699675,4.47954545 4.24349026,4.51524351 4.14998377,4.51524351 Z" id="Path"></path>
              <path d="M16.1237825,2.26227273 C16.074789,2.26227273 16.0249675,2.25233766 15.9772403,2.2313961 C15.7925162,2.15035714 15.7084578,1.9349026 15.7894968,1.75017857 L16.0253084,1.21266234 C16.1063474,1.02784091 16.3218019,0.943977273 16.506526,1.02491883 C16.69125,1.10595779 16.7753084,1.32141234 16.6942695,1.50613636 L16.4584578,2.0436526 C16.3983604,2.18064935 16.2643344,2.26227273 16.1237825,2.26227273 Z" id="Path"></path>
              <path d="M7.21149351,22.5773864 C7.1625,22.5773864 7.11267857,22.5674513 7.0649513,22.5465097 C6.88022727,22.4654708 6.79616883,22.2500162 6.87720779,22.0652922 L7.11301948,21.527776 C7.19405844,21.3430032 7.40956169,21.2590422 7.59423701,21.3400325 C7.77896104,21.4210714 7.86301948,21.636526 7.78198052,21.82125 L7.54616883,22.3587662 C7.48607143,22.495763 7.35204545,22.5773864 7.21149351,22.5773864 Z" id="Path"></path>
              <path d="M22.2118344,16.7251461 C22.1628409,16.7251461 22.1130195,16.715211 22.0652922,16.6942695 L21.527776,16.4584578 C21.3430519,16.3774188 21.2589935,16.1619643 21.3400325,15.9772403 C21.4210714,15.7924675 21.6364773,15.7084578 21.82125,15.7894968 L22.3587662,16.0253084 C22.5434903,16.1063474 22.6275487,16.3218019 22.5465097,16.506526 C22.4864123,16.6435227 22.3523864,16.7251461 22.2118344,16.7251461 Z" id="Path"></path>
              <path d="M1.89672078,7.81280844 C1.84772727,7.81280844 1.79790584,7.80287338 1.75017857,7.78193182 L1.21266234,7.54612013 C1.02793831,7.46508117 0.94387987,7.24962662 1.02491883,7.0649026 C1.10595779,6.88012987 1.32141234,6.79616883 1.50613636,6.87715909 L2.0436526,7.11297078 C2.22837662,7.19400974 2.31243506,7.40946429 2.2313961,7.59418831 C2.1712987,7.73118506 2.03732143,7.81280844 1.89672078,7.81280844 Z" id="Path"></path>
              <path d="M21.8458442,8.22623377 C21.6997403,8.22623377 21.5617695,8.13793831 21.5054708,7.99363636 C21.4321753,7.80569805 21.5250974,7.59394481 21.7130357,7.52060065 L22.2598539,7.30728896 C22.4477435,7.23394481 22.6595455,7.32691558 22.7328896,7.5148539 C22.8061851,7.70279221 22.713263,7.91454545 22.5253247,7.98788961 L21.9785065,8.2012013 C21.9348701,8.21819805 21.8899675,8.22623377 21.8458442,8.22623377 Z" id="Path"></path>
              <path d="M1.17896104,16.2892208 C1.03285714,16.2892208 0.894886364,16.2009253 0.838587662,16.0566234 C0.765292208,15.8686851 0.858214286,15.6569318 1.0461526,15.5835877 L1.59297078,15.370276 C1.78090909,15.2968831 1.99271104,15.3899026 2.06600649,15.5778409 C2.13930195,15.7657792 2.04637987,15.9775325 1.85844156,16.0508766 L1.31162338,16.2641883 C1.26803571,16.2811851 1.22308442,16.2892208 1.17896104,16.2892208 Z" id="Path"></path>
              <path d="M15.923961,22.7579221 C15.7778571,22.7579221 15.6398864,22.6696266 15.5835877,22.5253247 L15.370276,21.9785065 C15.2969805,21.7906169 15.3898539,21.5788149 15.5777922,21.5054708 C15.7657792,21.4322727 15.9775325,21.5250487 16.0508279,21.7130357 L16.2641396,22.2598539 C16.3374838,22.4477435 16.2445617,22.6595455 16.0566234,22.7328896 C16.0130357,22.7498864 15.9680844,22.7579221 15.923961,22.7579221 Z" id="Path"></path>
              <path d="M7.86097403,2.09103896 C7.71487013,2.09103896 7.57689935,2.00274351 7.52060065,1.85844156 L7.30728896,1.31162338 C7.23394481,1.12373377 7.32686688,0.911931818 7.51480519,0.838587662 C7.70284091,0.765146104 7.91454545,0.858165584 7.98784091,1.0461526 L8.2011526,1.59297078 C8.27444805,1.78086039 8.18157468,1.99266234 7.99363636,2.06600649 C7.9500487,2.08295455 7.9050974,2.09103896 7.86097403,2.09103896 Z" id="Path"></path>
            </g>
            <path d="M19.3241609,19.3241808 C23.0824466,15.5658896 23.0823985,9.47257697 19.3241609,5.71428571 L5.71428571,19.3241327 C9.47252333,23.0824239 15.5658751,23.0824239 19.3241609,19.3241808 Z" id="Path" fill="#F4D451"></path>
          </g>
          <path d="M14.7289843,18.0689655 C13.2824139,18.0689655 11.9429202,17.6754228 10.8553545,16.9308857 C9.81100785,16.2159196 9.04121156,15.2130787 8.62923823,14.0306826 C8.60311268,13.9558713 8.53001179,13.9056891 8.44733013,13.9056891 L7.63781794,13.9056891 C7.28611486,13.9056891 7,13.633323 7,13.2985204 C7,12.9637177 7.28611486,12.6913516 7.63781794,12.6913516 L8.12158377,12.6913516 C8.17455238,12.6913516 8.22566391,12.670218 8.26175009,12.6333749 C8.29787848,12.5964915 8.31644914,12.54647 8.31277721,12.4961673 C8.30142379,12.3421653 8.29564156,12.1868374 8.29564156,12.0344828 C8.29564156,11.8821281 8.30142379,11.7268002 8.31277721,11.5728786 C8.31644914,11.5224955 8.29787848,11.472474 8.26175009,11.4355907 C8.22566391,11.3987475 8.17455238,11.3776139 8.12158377,11.3776139 L7.63781794,11.3776139 C7.28611486,11.3776139 7,11.1052478 7,10.7704452 C7,10.4356425 7.28611486,10.1632764 7.63781794,10.1632764 L8.44733013,10.1632764 C8.52996959,10.1632764 8.60307048,10.1130942 8.62919603,10.0384034 C9.04121156,8.85588685 9.81100785,7.85304592 10.8553545,7.13807981 C11.9429202,6.39354274 13.2824139,6 14.7289843,6 C14.7534638,6 14.7779433,6.00012053 14.8023806,6.0003616 C15.0629608,6.00277228 15.2982174,6.12069448 15.4478379,6.32399476 C15.5976694,6.52749593 15.63384,6.77860794 15.5471065,7.01292558 L15.5254548,7.07138446 C15.4131445,7.3748483 15.1065175,7.57871107 14.7624537,7.57871107 L14.7537592,7.57871107 C13.1319071,7.57871107 11.6397119,8.4667235 10.8595329,9.89621377 C10.8283427,9.95338695 10.8307484,10.0203234 10.865906,10.0753671 C10.9010637,10.1304109 10.9623891,10.1632764 11.0300032,10.1632764 L14.4690372,10.1632764 C14.6663505,10.1632764 14.849356,10.2480518 14.9710782,10.3959066 C15.0928005,10.5438015 15.1355552,10.7332002 15.0883689,10.915608 C15.0180536,11.1876527 14.7633822,11.3776541 14.4690372,11.3776541 L10.5341242,11.3776541 C10.4355309,11.3776541 10.3534401,11.4480056 10.3431418,11.5413389 C10.3250776,11.7059077 10.3158767,11.8718425 10.3158767,12.0345229 C10.3158767,12.1972033 10.3250354,12.3631783 10.3430996,12.5276667 C10.3533979,12.6210402 10.4354887,12.6913918 10.534082,12.6913918 L13.8263233,12.6913918 C14.0236367,12.6913918 14.2066421,12.7761672 14.3283644,12.9240219 C14.4500867,13.0719169 14.4928414,13.2613156 14.4456972,13.4437234 C14.3753397,13.7157681 14.1206262,13.9057695 13.8263655,13.9057695 L11.0300454,13.9057695 C10.9624313,13.9057695 10.9011059,13.938635 10.8659483,13.9936788 C10.8307906,14.0487225 10.8283849,14.1156589 10.8595329,14.1727517 C11.6397963,15.6023224 13.1319493,16.4903348 14.7538015,16.4903348 L14.7833879,16.4902544 C15.1503274,16.4902544 15.4707558,16.7110321 15.5807869,17.0397277 C15.6616115,17.2811167 15.6184347,17.5373313 15.4623145,17.7426404 C15.306532,17.947588 15.0649023,18.0664343 14.7994684,18.0687244 C14.7760018,18.068845 14.7524931,18.0689655 14.7289843,18.0689655 Z" id="Path" fill="#FF901D"></path>
        </g>
      </g>
    </g>
  </g>
</svg>
