<svg width="20" height="20" viewBox="0 0 20 20" fill="none" xmlns="http://www.w3.org/2000/svg">
<path d="M4.99927 14.9985V9.99854" stroke="#142431" stroke-linecap="round" stroke-linejoin="round"/>
<path d="M4.99994 9.99988H5.49994C5.89776 9.99988 6.27929 10.1579 6.5606 10.4392C6.8419 10.7205 6.99994 11.1021 6.99994 11.4999C6.99994 11.8977 6.8419 12.2792 6.5606 12.5605C6.27929 12.8418 5.89776 12.9999 5.49994 12.9999H4.99994" stroke="#142431" stroke-linecap="round" stroke-linejoin="round"/>
<path d="M8.99994 14.9999C9.53037 14.9999 10.0391 14.7892 10.4142 14.4141C10.7892 14.039 10.9999 13.5303 10.9999 12.9999V11.9999C10.9999 11.4694 10.7892 10.9607 10.4142 10.5857C10.0391 10.2106 9.53037 9.99988 8.99994 9.99988V14.9999Z" stroke="#142431" stroke-linecap="round" stroke-linejoin="round"/>
<path d="M12.9999 14.9999V10.9999C12.9999 10.7347 13.1053 10.4803 13.2928 10.2928C13.4804 10.1052 13.7347 9.99988 13.9999 9.99988H14.9999" stroke="#142431" stroke-linecap="round" stroke-linejoin="round"/>
<path d="M12.9993 12.9985H14.4993" stroke="#142431" stroke-linecap="round" stroke-linejoin="round"/>
<path d="M17.2059 5.70587C17.3935 5.89323 17.499 6.14741 17.4993 6.41254V15.9999C17.4989 16.3973 17.3408 16.7784 17.0597 17.0594C16.7786 17.3404 16.3974 17.4984 15.9999 17.4985H3.99993C3.60223 17.4987 3.22073 17.3409 2.93931 17.0599C2.6579 16.7789 2.49962 16.3976 2.49927 15.9999V3.99987C2.49909 3.80272 2.53778 3.60747 2.61313 3.42528C2.68847 3.24309 2.799 3.07755 2.93837 2.93811C3.07775 2.79867 3.24324 2.68808 3.4254 2.61265C3.60755 2.53723 3.80278 2.49845 3.99993 2.49854H13.5846C13.7159 2.49848 13.846 2.52429 13.9674 2.57451C14.0887 2.62472 14.199 2.69836 14.2919 2.7912L17.2059 5.70587Z" stroke="#142431" stroke-linecap="round" stroke-linejoin="round"/>
<path d="M13.4993 2.49854V5.49854C13.4993 5.76375 13.6046 6.01811 13.7922 6.20564C13.9797 6.39318 14.2341 6.49854 14.4993 6.49854H17.4993" stroke="#142431" stroke-linecap="round" stroke-linejoin="round"/>
</svg>
