<svg width="48" height="48" viewBox="0 0 48 48" fill="none" xmlns="http://www.w3.org/2000/svg">
<path d="M1.5 24.0081H33" stroke="#142431" stroke-width="3" stroke-linecap="round" stroke-linejoin="round"/>
<path d="M25.5 31.5081L33 24.0081L25.5 16.5081" stroke="#142431" stroke-width="3" stroke-linecap="round" stroke-linejoin="round"/>
<path d="M6.61206 33.2C8.67615 37.4403 12.1075 40.8625 16.3534 42.9152C20.5992 44.9679 25.4125 45.5317 30.0178 44.5157C34.6231 43.4998 38.7524 40.9632 41.7405 37.3147C44.7287 33.6661 46.4017 29.1179 46.4902 24.4027C46.5786 19.6875 45.0773 15.0797 42.2281 11.3216C39.3789 7.56356 35.3477 4.87393 30.7837 3.68597C26.2197 2.49801 21.3887 2.88088 17.0689 4.77291C12.749 6.66494 9.19173 9.95599 6.97006 14.116" stroke="#142431" stroke-width="3" stroke-linecap="round" stroke-linejoin="round"/>
</svg>
