<svg width="48" height="48" viewBox="0 0 48 48" fill="none" xmlns="http://www.w3.org/2000/svg">
<path d="M27 1.5V19.5H45C45 14.7261 43.1036 10.1477 39.7279 6.77208C36.3523 3.39642 31.7739 1.5 27 1.5V1.5Z" stroke="#142431" stroke-width="3" stroke-linecap="round" stroke-linejoin="round"/>
<path d="M20.9999 28.5V10.5C18.1308 10.5002 15.3033 11.1864 12.7531 12.5011C10.2029 13.8159 8.00399 15.7212 6.33961 18.0583C4.67523 20.3953 3.59363 23.0964 3.18498 25.9363C2.77633 28.7762 3.05247 31.6726 3.99037 34.3841C4.92828 37.0956 6.50078 39.5436 8.57678 41.5241C10.6528 43.5045 13.1721 44.96 15.9248 45.7693C18.6774 46.5785 21.5837 46.7179 24.4012 46.176C27.2187 45.6341 29.8658 44.4266 32.1219 42.654L20.9999 28.5Z" stroke="#142431" stroke-width="3" stroke-linecap="round" stroke-linejoin="round"/>
<path d="M45 25.5H27L38.122 39.654C40.267 37.971 42.0009 35.822 43.1925 33.3698C44.3842 30.9176 45.0023 28.2264 45 25.5V25.5Z" stroke="#142431" stroke-width="3" stroke-linecap="round" stroke-linejoin="round"/>
</svg>
