<svg width="48" height="48" viewBox="0 0 48 48" fill="none" xmlns="http://www.w3.org/2000/svg">
<path d="M1.5 24C1.5 29.9674 3.87053 35.6903 8.0901 39.9099C12.3097 44.1295 18.0326 46.5 24 46.5C29.9674 46.5 35.6903 44.1295 39.9099 39.9099C44.1295 35.6903 46.5 29.9674 46.5 24C46.5 18.0326 44.1295 12.3097 39.9099 8.0901C35.6903 3.87053 29.9674 1.5 24 1.5C18.0326 1.5 12.3097 3.87053 8.0901 8.0901C3.87053 12.3097 1.5 18.0326 1.5 24V24Z" stroke="#142431" stroke-width="3" stroke-linecap="round" stroke-linejoin="round"/>
<path d="M15 32.8C15.6147 32.8082 16.2257 32.8956 16.818 33.06L21.058 34.236C21.6838 34.4101 22.3304 34.4982 22.98 34.498H28.678C30.3908 34.519 32.0506 33.9047 33.337 32.7737C34.6235 31.6428 35.4453 30.0754 35.644 28.374L36 22.6C36.0486 21.4063 35.6783 20.2332 34.9534 19.2836C34.2284 18.334 33.1943 17.6677 32.03 17.4L30.332 17.038C29.958 16.9522 29.6238 16.743 29.3832 16.444C29.1426 16.145 29.0098 15.7737 29.006 15.39V11.544C28.9871 10.8604 28.7023 10.211 28.2121 9.73417C27.7218 9.25729 27.0649 8.99048 26.381 8.99048C25.6971 8.99048 25.0402 9.25729 24.5499 9.73417C24.0597 10.211 23.7749 10.8604 23.756 11.544V13.304C23.7213 15.5917 22.7793 17.7719 21.1373 19.3651C19.4953 20.9584 17.2877 21.8342 15 21.8V32.8Z" stroke="#142431" stroke-width="3" stroke-linecap="round" stroke-linejoin="round"/>
<path d="M11.6001 19.5H15.0001V34.5H11.6001" stroke="#142431" stroke-width="3" stroke-linecap="round" stroke-linejoin="round"/>
</svg>
