<svg width="48" height="48" viewBox="0 0 48 48" fill="none" xmlns="http://www.w3.org/2000/svg">
<path d="M34.5 1.5H7.5C5.9087 1.5 4.38258 2.13214 3.25736 3.25736C2.13214 4.38258 1.5 5.9087 1.5 7.5V43.5C1.5 44.2956 1.81607 45.0587 2.37868 45.6213C2.94129 46.1839 3.70435 46.5 4.5 46.5H7.37" stroke="#142431" stroke-width="3" stroke-linecap="round" stroke-linejoin="round"/>
<path d="M7.5 9H21" stroke="#142431" stroke-width="3" stroke-linecap="round" stroke-linejoin="round"/>
<path d="M7.5 15H21" stroke="#142431" stroke-width="3" stroke-linecap="round" stroke-linejoin="round"/>
<path d="M7.5 21H14.218" stroke="#142431" stroke-width="3" stroke-linecap="round" stroke-linejoin="round"/>
<path d="M30 19.5V6C30.0037 4.80766 30.479 3.66521 31.3221 2.8221C32.1652 1.97898 33.3077 1.50369 34.5 1.5C35.6925 1.50317 36.8353 1.97829 37.6785 2.82152C38.5217 3.66475 38.9968 4.8075 39 6V9H30" stroke="#142431" stroke-width="3" stroke-linecap="round" stroke-linejoin="round"/>
<path d="M43.5 39.22L33.926 41.136" stroke="#142431" stroke-width="3" stroke-linecap="round" stroke-linejoin="round"/>
<path d="M34.876 30.276L30.356 32.184C29.9995 32.3317 29.6167 32.4052 29.2309 32.4C28.8451 32.3949 28.4643 32.3112 28.112 32.154C27.7548 31.9937 27.4329 31.7644 27.1648 31.4791C26.8967 31.1939 26.6878 30.8584 26.55 30.492C26.2789 29.7956 26.273 29.0239 26.5333 28.3235C26.7936 27.623 27.3019 27.0424 27.962 26.692L32.48 24.436C32.9689 24.1841 33.505 24.0373 34.0541 24.0049C34.6031 23.9725 35.1528 24.0553 35.668 24.248L44.946 27.904" stroke="#142431" stroke-width="3" stroke-linecap="round" stroke-linejoin="round"/>
<path d="M16.3999 41.2119H19.5999L25.6979 45.8639C25.9831 46.1862 26.3824 46.3852 26.8115 46.4188C27.2406 46.4523 27.666 46.3179 27.9979 46.0439L36.5179 39.0079C36.8546 38.7292 37.0698 38.3305 37.1179 37.8961C37.1661 37.4617 37.0434 37.0256 36.7759 36.6799L32.0819 31.4619" stroke="#142431" stroke-width="3" stroke-linecap="round" stroke-linejoin="round"/>
<path d="M27.4719 27.0119L26.9779 26.6119C26.4877 26.2514 25.9136 26.0218 25.31 25.9448C24.7063 25.8678 24.093 25.946 23.5279 26.1719L16.3879 29.1999" stroke="#142431" stroke-width="3" stroke-linecap="round" stroke-linejoin="round"/>
<path d="M13.5 42.712H14.1C14.7018 42.7443 15.292 42.5371 15.7416 42.1358C16.1913 41.7345 16.4639 41.1716 16.5 40.57V29.854C16.4639 29.2524 16.1913 28.6895 15.7416 28.2882C15.292 27.8869 14.7018 27.6798 14.1 27.712H13.5" stroke="#142431" stroke-width="3" stroke-linecap="round" stroke-linejoin="round"/>
<path d="M46.5 42.712H45.9C45.2982 42.7443 44.708 42.5371 44.2584 42.1358C43.8087 41.7345 43.5361 41.1716 43.5 40.57V29.854C43.5361 29.2524 43.8087 28.6895 44.2584 28.2882C44.708 27.8869 45.2982 27.6798 45.9 27.712H46.5" stroke="#142431" stroke-width="3" stroke-linecap="round" stroke-linejoin="round"/>
</svg>
