<svg width="18" height="15" xmlns="http://www.w3.org/2000/svg">
  <path d="M17.266 1.953H.234c-.052 0-.104-.026-.156-.078C.026 1.823 0 1.771 0 1.719V.78C0 .73.026.677.078.625.13.573.182.547.234.547h17.032c.052 0 .104.026.156.078.052.052.078.104.078.156v.938c0 .052-.026.104-.078.156-.052.052-.104.078-.156.078zm0 6.25H.234c-.052 0-.104-.026-.156-.078C.026 8.073 0 8.021 0 7.969V7.03c0-.052.026-.104.078-.156.052-.052.104-.078.156-.078h17.032c.052 0 .104.026.156.078.052.052.078.104.078.156v.938c0 .052-.026.104-.078.156-.052.052-.104.078-.156.078zm0 6.25H.234c-.052 0-.104-.026-.156-.078-.052-.052-.078-.104-.078-.156v-.938c0-.052.026-.104.078-.156.052-.052.104-.078.156-.078h17.032c.052 0 .104.026.156.078.052.052.078.104.078.156v.938c0 .052-.026.104-.078.156-.052.052-.104.078-.156.078z" fill="#142431" fill-rule="nonzero"/>
</svg>
