<svg width="16" height="16" xmlns="http://www.w3.org/2000/svg"><path d="M15.375.25c.104 0 .193.036.266.11.073.072.109.16.109.265v5a.362.362 0 0 1-.11.266.362.362 0 0 1-.265.109h-5a.362.362 0 0 1-.266-.11.362.362 0 0 1-.109-.265v-.312c0-.105.036-.193.11-.266a.362.362 0 0 1 .265-.11h3.562a6.54 6.54 0 0 0-2.437-2.64A6.532 6.532 0 0 0 8 1.313a6.52 6.52 0 0 0-3.25.843 6.737 6.737 0 0 0-2.422 2.297 6.532 6.532 0 0 0-1.015 3.203.328.328 0 0 1-.11.235A.362.362 0 0 1 .937 8H.625a.362.362 0 0 1-.266-.11.401.401 0 0 1-.109-.296 7.813 7.813 0 0 1 1.172-3.688 7.65 7.65 0 0 1 2.797-2.672A7.646 7.646 0 0 1 8.03.25c1.375 0 2.656.349 3.844 1.047a7.785 7.785 0 0 1 2.812 2.797V.625c0-.104.037-.193.11-.266a.362.362 0 0 1 .265-.109h.313zm0 7.75c.104 0 .193.036.266.11.073.072.109.171.109.296a7.813 7.813 0 0 1-1.172 3.688 7.65 7.65 0 0 1-2.797 2.672 7.646 7.646 0 0 1-3.812.984 7.456 7.456 0 0 1-3.844-1.047 7.785 7.785 0 0 1-2.813-2.797v3.469a.362.362 0 0 1-.109.266.362.362 0 0 1-.266.109H.625a.362.362 0 0 1-.266-.11.362.362 0 0 1-.109-.265v-5c0-.104.036-.193.11-.266A.362.362 0 0 1 .624 10h5c.104 0 .193.036.266.11.073.072.109.16.109.265v.313a.362.362 0 0 1-.11.265.362.362 0 0 1-.265.11H2.062a6.54 6.54 0 0 0 2.438 2.64 6.532 6.532 0 0 0 3.5.984 6.52 6.52 0 0 0 3.25-.843 6.737 6.737 0 0 0 2.422-2.297 6.532 6.532 0 0 0 1.015-3.203c0-.084.037-.162.11-.235A.362.362 0 0 1 15.062 8h.313z" fill="#142431" fill-rule="nonzero"/></svg>
