
<svg width="16" height="16" xmlns="http://www.w3.org/2000/svg"><path d="M15.75 8a7.513 7.513 0 0 1-1.047 3.875 7.831 7.831 0 0 1-2.828 2.828A7.513 7.513 0 0 1 8 15.75a7.513 7.513 0 0 1-3.875-1.047 7.831 7.831 0 0 1-2.828-2.828A7.513 7.513 0 0 1 .25 8c0-1.396.349-2.687 1.047-3.875a7.831 7.831 0 0 1 2.828-2.828A7.513 7.513 0 0 1 8 .25c1.396 0 2.687.349 3.875 1.047a7.831 7.831 0 0 1 2.828 2.828A7.513 7.513 0 0 1 15.75 8zm-8.656 4.094l5.75-5.75A.416.416 0 0 0 13 6a.416.416 0 0 0-.156-.344l-.688-.718a.494.494 0 0 0-.719 0L6.75 9.625 4.562 7.438a.494.494 0 0 0-.718 0l-.688.718A.416.416 0 0 0 3 8.5c0 .146.052.26.156.344l3.25 3.25a.416.416 0 0 0 .344.156c.146 0 .26-.052.344-.156z" fill="#CFD7DD" fill-rule="nonzero"/></svg>
