<svg width="16" height="16" xmlns="http://www.w3.org/2000/svg"><path d="M15.75 8a7.513 7.513 0 0 1-1.047 3.875 7.831 7.831 0 0 1-2.828 2.828A7.513 7.513 0 0 1 8 15.75a7.513 7.513 0 0 1-3.875-1.047 7.831 7.831 0 0 1-2.828-2.828A7.513 7.513 0 0 1 .25 8c0-1.396.349-2.687 1.047-3.875a7.831 7.831 0 0 1 2.828-2.828A7.513 7.513 0 0 1 8 .25c1.396 0 2.687.349 3.875 1.047a7.831 7.831 0 0 1 2.828 2.828A7.513 7.513 0 0 1 15.75 8zM8 9.563c-.396 0-.734.14-1.016.421-.28.282-.422.62-.422 1.016s.141.734.422 1.016c.282.28.62.422 1.016.422s.734-.141 1.016-.422c.28-.282.421-.62.421-1.016s-.14-.734-.421-1.016A1.384 1.384 0 0 0 8 9.563zM6.625 4.406l.25 4.25c0 .084.036.162.11.235.072.073.16.109.265.109h1.5a.362.362 0 0 0 .266-.11.328.328 0 0 0 .109-.234l.25-4.25a.401.401 0 0 0-.11-.297A.362.362 0 0 0 9 4H7a.362.362 0 0 0-.266.11.401.401 0 0 0-.109.296z" fill="#EC5C39" fill-rule="nonzero"/></svg>
