<svg width="142" height="25" xmlns="http://www.w3.org/2000/svg">
  <g fill="none" fill-rule="evenodd">
    <path d="M0-4h142v32H0z"/>
    <g fill="#142431" fill-rule="nonzero">
      <path d="M44.347 15.415c0 .71.124 1.886.124 1.886s-.691-.98-1.16-1.543L33.296 4H33v16.829h1.678V9.585c0-.71-.149-1.886-.149-1.886s.691.98 1.16 1.543L45.704 21H46V4.171h-1.653v11.244zM132.902 19.375h-2.146V5.625h2.146c4.903 0 7.244 2.825 7.244 6.875s-2.341 6.875-7.244 6.875M133.024 4H129v17h4.024c5.561 0 8.976-3.35 8.976-8.5S138.56 4 133.024 4M81 21h1.76v-5.775h7.482v-1.65H82.76V5.6H91V4H81zM104.23 14.946c0 2.99-1.648 4.473-4.23 4.473-2.607 0-4.23-1.483-4.23-4.473V4H94v11.07c0 3.929 2.582 5.93 6 5.93 3.394 0 6-2.001 6-5.93V4h-1.77v10.946zM122.347 15.415c0 .71.124 1.886.124 1.886s-.691-.98-1.16-1.543L111.296 4H111v16.829h1.678V9.585c0-.71-.148-1.883-.149-1.886.002.002.692.98 1.16 1.543L123.704 21H124V4.171h-1.653v11.244zM51.682 15.15h7.126v-1.575h-7.126V5.6h7.99V4H50v17h10v-1.6h-8.318zM74.23 14.946c0 2.99-1.648 4.473-4.23 4.473-2.606 0-4.23-1.483-4.23-4.473V4H64v11.07c0 3.929 2.582 5.93 6 5.93 3.394 0 6-2.001 6-5.93V4h-1.77v10.946z"/>
    </g>
    <path d="M20.877 18.028l-3.816 2.16V4.642l3.816 2.16v11.226zm-4.742 1.722L5.785 4.12l.222-.125 4.956-2.806 4.957 2.806.215.122V19.75zm-5.172 3.89l-4.956-2.806-.333-.188V5.62l10.122 15.284-4.833 2.737zm-6.215-3.518L1.05 18.028V6.802l3.698-2.094v15.414zM16.445 3.104L10.963 0 5.482 3.104 0 6.207v12.415l5.482 3.104 5.481 3.103 5.482-3.103 5.481-3.104V6.207l-5.481-3.103z" fill="#142431" fill-rule="nonzero"/>
  </g>
</svg>
