<?xml version="1.0" encoding="UTF-8"?>
<svg width="25px" height="25px" viewBox="0 0 25 25" version="1.1" xmlns="http://www.w3.org/2000/svg" xmlns:xlink="http://www.w3.org/1999/xlink">
  <g stroke="none" stroke-width="1" fill="none" fill-rule="evenodd">
    <g transform="translate(-578.000000, -177.000000)">
      <g transform="translate(557.000000, 82.000000)">
        <g transform="translate(21.000000, 95.000000)">
          <g>
            <circle id="Oval" fill="#FFB125" cx="12.5" cy="12.5" r="12.5"></circle>
            <path d="M12.5792385,0 C12.1911868,0 11.8075502,0.0188476563 11.4285714,0.0538574219 C17.7487983,0.63828125 22.6986658,5.98696289 22.6986658,12.5 C22.6986658,19.0130371 17.7487983,24.3617188 11.4285714,24.9461426 C11.8075502,24.9811523 12.1911868,25 12.5792385,25 C19.4390407,25 25,19.4035645 25,12.5 C25,5.59643555 19.4390407,0 12.5792385,0 Z" id="Path" fill="#FF901D"></path>
            <g id="Group" transform="translate(0.714286, 0.714286)" fill="#FEE570">
              <circle id="Oval" cx="11.7857143" cy="11.7857143" r="9.73733766"></circle>
              <path d="M11.7857143,1.35248377 C11.5839935,1.35248377 11.4204545,1.18899351 11.4204545,0.987224026 L11.4204545,0.400227273 C11.4204545,0.198457792 11.5839935,0.0349675325 11.7857143,0.0349675325 C11.9874351,0.0349675325 12.150974,0.198457792 12.150974,0.400227273 L12.150974,0.987224026 C12.150974,1.18894481 11.9874351,1.35248377 11.7857143,1.35248377 Z" id="Path"></path>
              <path d="M11.7857143,23.536461 C11.5839935,23.536461 11.4204545,23.3729708 11.4204545,23.1712013 L11.4204545,22.5842045 C11.4204545,22.3824351 11.5839935,22.2189448 11.7857143,22.2189448 C11.9874351,22.2189448 12.150974,22.3824351 12.150974,22.5842045 L12.150974,23.1712013 C12.150974,23.3729708 11.9874351,23.536461 11.7857143,23.536461 Z" id="Path"></path>
              <path d="M23.1712013,12.150974 L22.5842532,12.150974 C22.3825325,12.150974 22.2189935,11.9874838 22.2189935,11.7857143 C22.2189935,11.5839448 22.3825325,11.4204545 22.5842532,11.4204545 L23.1712013,11.4204545 C23.3729221,11.4204545 23.536461,11.5839448 23.536461,11.7857143 C23.536461,11.9874838 23.3729221,12.150974 23.1712013,12.150974 Z" id="Path"></path>
              <path d="M0.987175325,12.150974 L0.400227273,12.150974 C0.198506494,12.150974 0.0349675325,11.9874838 0.0349675325,11.7857143 C0.0349675325,11.5839448 0.198506494,11.4204545 0.400227273,11.4204545 L0.987175325,11.4204545 C1.1888961,11.4204545 1.35243506,11.5839448 1.35243506,11.7857143 C1.35243506,11.9874838 1.1888961,12.150974 0.987175325,12.150974 Z" id="Path"></path>
              <path d="M19.4214448,4.51524351 C19.327987,4.51524351 19.2344805,4.47959416 19.1631331,4.40824675 C19.020487,4.26560065 19.0205357,4.03431818 19.1631331,3.89172078 L19.5781656,3.47673701 C19.7208604,3.33413961 19.9520942,3.33409091 20.0947403,3.47678571 C20.2373864,3.61943182 20.2373377,3.85071429 20.0947403,3.99331169 L19.6797078,4.40829545 C19.6083604,4.47954545 19.5149026,4.51524351 19.4214448,4.51524351 Z" id="Path"></path>
              <path d="M3.7349513,20.201737 C3.64149351,20.201737 3.54798701,20.1660877 3.47663961,20.0947403 C3.33399351,19.9520942 3.33404221,19.7208117 3.47663961,19.5782143 L3.89167208,19.1632305 C4.03436688,19.0206331 4.26560065,19.0205844 4.40824675,19.1632792 C4.55089286,19.3059253 4.55084416,19.5372078 4.40824675,19.6798052 L3.99321429,20.094789 C3.92186688,20.166039 3.82840909,20.201737 3.7349513,20.201737 Z" id="Path"></path>
              <path d="M19.8364773,20.201737 C19.7430195,20.201737 19.6495617,20.1660877 19.5782143,20.094789 L19.1631818,19.6798052 C19.0205357,19.5371591 19.0205357,19.3058766 19.1631818,19.1632792 C19.3058279,19.0205844 19.5370617,19.0206331 19.6797565,19.1632305 L20.094789,19.5782143 C20.2374351,19.7208604 20.2374351,19.9521429 20.094789,20.0947403 C20.0234416,20.166039 19.9299838,20.201737 19.8364773,20.201737 Z" id="Path"></path>
              <path d="M4.14998377,4.51524351 C4.05652597,4.51524351 3.96306818,4.47959416 3.89172078,4.40829545 L3.47668831,3.99331169 C3.33404221,3.85066558 3.33404221,3.61938312 3.47668831,3.47678571 C3.61933442,3.33409091 3.85056818,3.33413961 3.99326299,3.47673701 L4.40829545,3.89172078 C4.55094156,4.03436688 4.55094156,4.26564935 4.40829545,4.40824675 C4.33699675,4.47954545 4.24349026,4.51524351 4.14998377,4.51524351 Z" id="Path"></path>
              <path d="M16.1237825,2.26227273 C16.074789,2.26227273 16.0249675,2.25233766 15.9772403,2.2313961 C15.7925162,2.15035714 15.7084578,1.9349026 15.7894968,1.75017857 L16.0253084,1.21266234 C16.1063474,1.02784091 16.3218019,0.943977273 16.506526,1.02491883 C16.69125,1.10595779 16.7753084,1.32141234 16.6942695,1.50613636 L16.4584578,2.0436526 C16.3983604,2.18064935 16.2643344,2.26227273 16.1237825,2.26227273 Z" id="Path"></path>
              <path d="M7.21149351,22.5773864 C7.1625,22.5773864 7.11267857,22.5674513 7.0649513,22.5465097 C6.88022727,22.4654708 6.79616883,22.2500162 6.87720779,22.0652922 L7.11301948,21.527776 C7.19405844,21.3430032 7.40956169,21.2590422 7.59423701,21.3400325 C7.77896104,21.4210714 7.86301948,21.636526 7.78198052,21.82125 L7.54616883,22.3587662 C7.48607143,22.495763 7.35204545,22.5773864 7.21149351,22.5773864 Z" id="Path"></path>
              <path d="M22.2118344,16.7251461 C22.1628409,16.7251461 22.1130195,16.715211 22.0652922,16.6942695 L21.527776,16.4584578 C21.3430519,16.3774188 21.2589935,16.1619643 21.3400325,15.9772403 C21.4210714,15.7924675 21.6364773,15.7084578 21.82125,15.7894968 L22.3587662,16.0253084 C22.5434903,16.1063474 22.6275487,16.3218019 22.5465097,16.506526 C22.4864123,16.6435227 22.3523864,16.7251461 22.2118344,16.7251461 Z" id="Path"></path>
              <path d="M1.89672078,7.81280844 C1.84772727,7.81280844 1.79790584,7.80287338 1.75017857,7.78193182 L1.21266234,7.54612013 C1.02793831,7.46508117 0.94387987,7.24962662 1.02491883,7.0649026 C1.10595779,6.88012987 1.32141234,6.79616883 1.50613636,6.87715909 L2.0436526,7.11297078 C2.22837662,7.19400974 2.31243506,7.40946429 2.2313961,7.59418831 C2.1712987,7.73118506 2.03732143,7.81280844 1.89672078,7.81280844 Z" id="Path"></path>
              <path d="M21.8458442,8.22623377 C21.6997403,8.22623377 21.5617695,8.13793831 21.5054708,7.99363636 C21.4321753,7.80569805 21.5250974,7.59394481 21.7130357,7.52060065 L22.2598539,7.30728896 C22.4477435,7.23394481 22.6595455,7.32691558 22.7328896,7.5148539 C22.8061851,7.70279221 22.713263,7.91454545 22.5253247,7.98788961 L21.9785065,8.2012013 C21.9348701,8.21819805 21.8899675,8.22623377 21.8458442,8.22623377 Z" id="Path"></path>
              <path d="M1.17896104,16.2892208 C1.03285714,16.2892208 0.894886364,16.2009253 0.838587662,16.0566234 C0.765292208,15.8686851 0.858214286,15.6569318 1.0461526,15.5835877 L1.59297078,15.370276 C1.78090909,15.2968831 1.99271104,15.3899026 2.06600649,15.5778409 C2.13930195,15.7657792 2.04637987,15.9775325 1.85844156,16.0508766 L1.31162338,16.2641883 C1.26803571,16.2811851 1.22308442,16.2892208 1.17896104,16.2892208 Z" id="Path"></path>
              <path d="M15.923961,22.7579221 C15.7778571,22.7579221 15.6398864,22.6696266 15.5835877,22.5253247 L15.370276,21.9785065 C15.2969805,21.7906169 15.3898539,21.5788149 15.5777922,21.5054708 C15.7657792,21.4322727 15.9775325,21.5250487 16.0508279,21.7130357 L16.2641396,22.2598539 C16.3374838,22.4477435 16.2445617,22.6595455 16.0566234,22.7328896 C16.0130357,22.7498864 15.9680844,22.7579221 15.923961,22.7579221 Z" id="Path"></path>
              <path d="M7.86097403,2.09103896 C7.71487013,2.09103896 7.57689935,2.00274351 7.52060065,1.85844156 L7.30728896,1.31162338 C7.23394481,1.12373377 7.32686688,0.911931818 7.51480519,0.838587662 C7.70284091,0.765146104 7.91454545,0.858165584 7.98784091,1.0461526 L8.2011526,1.59297078 C8.27444805,1.78086039 8.18157468,1.99266234 7.99363636,2.06600649 C7.9500487,2.08295455 7.9050974,2.09103896 7.86097403,2.09103896 Z" id="Path"></path>
            </g>
            <path d="M19.3241609,19.3241808 C23.0824466,15.5658896 23.0823985,9.47257697 19.3241609,5.71428571 L5.71428571,19.3241327 C9.47252333,23.0824239 15.5658751,23.0824239 19.3241609,19.3241808 Z" id="Path" fill="#F4D451"></path>
          </g>
          <path d="M18.0738119,18.9655172 C16.6272415,18.9655172 15.2877478,18.5719745 14.2001821,17.8274374 C13.1558354,17.1124713 12.3860391,16.1096304 11.9740658,14.9272343 C11.9479403,14.8524231 11.8748394,14.8022408 11.7921577,14.8022408 L10.9826455,14.8022408 C10.6309425,14.8022408 10.3448276,14.5298747 10.3448276,14.1950721 C10.3448276,13.8602695 10.6309425,13.5879033 10.9826455,13.5879033 L11.4664114,13.5879033 C11.51938,13.5879033 11.5704915,13.5667697 11.6065777,13.5299266 C11.6427061,13.4930433 11.6612767,13.4430217 11.6576048,13.392719 C11.6462514,13.238717 11.6404691,13.0833892 11.6404691,12.9310345 C11.6404691,12.7786798 11.6462514,12.623352 11.6576048,12.4694303 C11.6612767,12.4190472 11.6427061,12.3690257 11.6065777,12.3321424 C11.5704915,12.2952992 11.51938,12.2741656 11.4664114,12.2741656 L10.9826455,12.2741656 C10.6309425,12.2741656 10.3448276,12.0017995 10.3448276,11.6669969 C10.3448276,11.3321943 10.6309425,11.0598281 10.9826455,11.0598281 L11.7921577,11.0598281 C11.8747972,11.0598281 11.9478981,11.0096459 11.9740236,10.9349552 C12.3860391,9.75243857 13.1558354,8.74959765 14.2001821,8.03463153 C15.2877478,7.29009447 16.6272415,6.89655172 18.0738119,6.89655172 C18.0982914,6.89655172 18.1227709,6.89667226 18.1472082,6.89691333 C18.4077884,6.899324 18.643045,7.0172462 18.7926655,7.22054648 C18.942497,7.42404766 18.9786675,7.67515967 18.8919341,7.90947731 L18.8702824,7.96793618 C18.7579721,8.27140002 18.4513451,8.4752628 18.1072813,8.4752628 L18.0985868,8.4752628 C16.4767347,8.4752628 14.9845395,9.36327522 14.2043605,10.7927655 C14.1731702,10.8499387 14.175576,10.9168751 14.2107336,10.9719188 C14.2458913,11.0269626 14.3072167,11.0598281 14.3748308,11.0598281 L17.8138648,11.0598281 C18.0111781,11.0598281 18.1941836,11.1446036 18.3159058,11.2924583 C18.4376281,11.4403532 18.4803828,11.629752 18.4331965,11.8121597 C18.3628812,12.0842044 18.1082098,12.2742058 17.8138648,12.2742058 L13.8789518,12.2742058 C13.7803585,12.2742058 13.6982677,12.3445574 13.6879694,12.4378907 C13.6699052,12.6024594 13.6607043,12.7683943 13.6607043,12.9310747 C13.6607043,13.0937551 13.669863,13.2597301 13.6879272,13.4242185 C13.6982255,13.517592 13.7803163,13.5879435 13.8789096,13.5879435 L17.1711509,13.5879435 C17.3684642,13.5879435 17.5514697,13.6727189 17.673192,13.8205737 C17.7949143,13.9684686 17.837669,14.1578673 17.7905248,14.3402751 C17.7201673,14.6123198 17.4654538,14.8023212 17.1711931,14.8023212 L14.374873,14.8023212 C14.3072589,14.8023212 14.2459335,14.8351867 14.2107758,14.8902305 C14.1756182,14.9452742 14.1732125,15.0122106 14.2043605,15.0693035 C14.9846239,16.4988741 16.4767769,17.3868865 18.098629,17.3868865 L18.1282155,17.3868062 C18.495155,17.3868062 18.8155833,17.6075838 18.9256145,17.9362794 C19.0064391,18.1776684 18.9632623,18.433883 18.8071421,18.6391922 C18.6513596,18.8441397 18.4097299,18.962986 18.144296,18.9652762 C18.1208294,18.9653967 18.0973207,18.9655172 18.0738119,18.9655172 Z" id="Path" fill="#FF901D"></path>
          <text id="n" font-family="ChalkboardSE-Bold, Chalkboard SE" font-size="10" font-weight="bold" letter-spacing="-0.16" fill="#FF901D">
            <tspan x="6.03448276" y="16.9310345">n</tspan>
          </text>
        </g>
      </g>
    </g>
  </g>
</svg>
