<svg width="20" height="21" xmlns="http://www.w3.org/2000/svg">
  <path d="M10 1.75c-.781 0-1.51.195-2.188.586-.677.39-1.21.924-1.601 1.602a4.304 4.304 0 0 0-.586 2.187c0 .781.195 1.51.586 2.188.39.677.924 1.21 1.601 1.601.678.39 1.407.586 2.188.586.781 0 1.51-.195 2.187-.586a4.297 4.297 0 0 0 1.602-1.601c.39-.678.586-1.407.586-2.188 0-.781-.195-1.51-.586-2.187a4.297 4.297 0 0 0-1.602-1.602A4.304 4.304 0 0 0 10 1.75zm5 12.5c-.807 0-1.458.04-1.953.117-.313.052-.651.13-1.016.235-.338.104-.599.169-.781.195a8.411 8.411 0 0 1-1.25.078c-.495 0-.911-.026-1.25-.078a4.543 4.543 0 0 1-.742-.195c-.39-.105-.742-.183-1.055-.235-.495-.078-1.146-.117-1.953-.117-1.042 0-1.927.365-2.656 1.094-.73.729-1.094 1.614-1.094 2.656v1.25h17.5V18c0-1.042-.365-1.927-1.094-2.656-.729-.73-1.614-1.094-2.656-1.094zM10 .5a5.43 5.43 0 0 1 2.812.762 5.733 5.733 0 0 1 2.051 2.05 5.43 5.43 0 0 1 .762 2.813 5.43 5.43 0 0 1-.762 2.813 5.733 5.733 0 0 1-2.05 2.05A5.43 5.43 0 0 1 10 11.75a5.43 5.43 0 0 1-2.813-.762 5.733 5.733 0 0 1-2.05-2.05 5.43 5.43 0 0 1-.762-2.813 5.43 5.43 0 0 1 .762-2.812 5.733 5.733 0 0 1 2.05-2.051A5.43 5.43 0 0 1 10 .5zM15 13c.911 0 1.751.221 2.52.664a4.864 4.864 0 0 1 1.816 1.816c.443.769.664 1.609.664 2.52v1.25c0 .339-.124.632-.371.879-.248.247-.54.371-.879.371H1.25c-.339 0-.632-.124-.879-.371A1.201 1.201 0 0 1 0 19.25V18c0-.911.221-1.751.664-2.52a4.864 4.864 0 0 1 1.816-1.816A4.921 4.921 0 0 1 4.98 13c.899 0 1.622.04 2.168.117.313.052.664.13 1.055.235.287.104.52.169.703.195.287.052.651.078 1.094.078.443 0 .807-.026 1.094-.078.182-.026.416-.091.703-.195.39-.105.742-.183 1.055-.235C13.398 13.04 14.115 13 15 13z" fill="#142431" fill-rule="nonzero"/>
</svg>
