<svg xmlns="http://www.w3.org/2000/svg" width="375" height="318" fill="none" viewBox="0 0 375 318">
    <path stroke="#394651" stroke-linecap="round" stroke-linejoin="round" stroke-width="4" d="M34.23 40.23L22 28M74.23 40.23L62 28M114.229 40.23L102 28M154.229 40.23L142 28M194.229 40.23L182 28M234.229 40.23L222 28M274.229 40.23L262 28M314.229 40.23L302 28M34.23 90.23L22 78M74.23 90.23L62 78M114.229 90.23L102 78M154.229 90.23L142 78M194.229 90.23L182 78M234.229 90.23L222 78M274.229 90.23L262 78M314.229 90.23L302 78M34.23 140.229L22 128M74.23 140.229L62 128M114.229 140.229L102 128M154.229 140.229L142 128M194.229 140.229L182 128M234.229 140.229L222 128M274.229 140.229L262 128M314.229 140.229L302 128M34.23 190.229L22 178M74.23 190.229L62 178M114.229 190.229L102 178M154.229 190.229L142 178M194.229 190.229L182 178M234.229 190.229L222 178M274.229 190.229L262 178M314.229 190.229L302 178M34.23 240.229L22 228M74.23 240.229L62 228M114.229 240.229L102 228M154.229 240.229L142 228M194.229 240.229L182 228M234.229 240.229L222 228M274.229 240.229L262 228M314.229 240.229L302 228M34.23 290.229L22 278M74.23 290.229L62 278M114.229 290.229L102 278M154.229 290.229L142 278M194.229 290.229L182 278M234.229 290.229L222 278M274.229 290.229L262 278M314.229 290.229L302 278M354.229 40.23L342 28M354.229 90.23L342 78M354.229 140.229L342 128M354.229 190.229L342 178M354.229 240.229L342 228M354.229 290.229L342 278"/>
    <path stroke="#F9FAFB" stroke-linecap="round" stroke-linejoin="round" stroke-width="4" d="M188.996 115.287c-4.865-2.809-10.383-4.287-16.001-4.287-5.617 0-11.135 1.479-16 4.289-4.864 2.809-8.903 6.849-11.711 11.715-2.808 4.865-4.285 10.384-4.284 16.001M204.995 143.005c.005-4.404-.901-8.762-2.662-12.799M172.997 207c2.15 0 4.293-.214 6.4-.64M141 162.204v12.799c-.002 6.227 1.814 12.32 5.224 17.531 3.41 5.211 8.267 9.313 13.974 11.804"/>
    <path stroke="#F9FAFB" stroke-linecap="round" stroke-linejoin="round" stroke-width="4" d="M192.196 149.405v-6.4c.001-3.37-.886-6.681-2.571-9.6-1.685-2.92-4.108-5.344-7.027-7.029-2.918-1.686-6.229-2.573-9.6-2.573-3.37 0-6.681.887-9.6 2.572M153.799 143.005v31.998c0 5.091 2.023 9.975 5.623 13.575 3.6 3.6 8.484 5.623 13.575 5.623M179.397 159.004v-15.999c0-1.697-.674-3.325-1.874-4.525-1.201-1.2-2.828-1.874-4.526-1.874-1.697 0-3.325.674-4.525 1.874-1.2 1.2-1.874 2.828-1.874 4.525v12.799M166.598 175.003c0 1.697.674 3.325 1.874 4.525 1.2 1.2 2.828 1.874 4.525 1.874"/>
    <path stroke="#E4F22C" stroke-linecap="round" stroke-linejoin="round" stroke-width="4" d="M185.796 181.402c0 6.789 2.697 13.3 7.498 18.101 4.8 4.8 11.311 7.497 18.1 7.497 6.789 0 13.3-2.697 18.101-7.497 4.8-4.801 7.497-11.312 7.497-18.101s-2.697-13.3-7.497-18.1c-4.801-4.801-11.312-7.498-18.101-7.498s-13.3 2.697-18.1 7.498c-4.801 4.8-7.498 11.311-7.498 18.1z"/>
    <path stroke="#C6D30D" stroke-linecap="round" stroke-linejoin="round" stroke-width="4" d="M220.994 171.798l-19.199 19.199M201.795 171.798l19.199 19.199"/>
</svg>
