<svg xmlns="http://www.w3.org/2000/svg" width="375" height="318" fill="none" viewBox="0 0 375 318">
    <path stroke="#394651" stroke-linecap="round" stroke-linejoin="round" stroke-width="4" d="M33.23 46.23L21 34M73.23 46.23L61 34M113.229 46.23L101 34M153.229 46.23L141 34M193.229 46.23L181 34M233.229 46.23L221 34M273.229 46.23L261 34M313.229 46.23L301 34M33.23 96.23L21 84M73.23 96.23L61 84M113.229 96.23L101 84M153.229 96.23L141 84M193.229 96.23L181 84M233.229 96.23L221 84M273.229 96.23L261 84M313.229 96.23L301 84M33.23 146.229L21 134M73.23 146.229L61 134M113.229 146.229L101 134M153.229 146.229L141 134M193.229 146.229L181 134M233.229 146.229L221 134M273.229 146.229L261 134M313.229 146.229L301 134M33.23 196.229L21 184M73.23 196.229L61 184M113.229 196.229L101 184M153.229 196.229L141 184M193.229 196.229L181 184M233.229 196.229L221 184M273.229 196.229L261 184M313.229 196.229L301 184M33.23 246.229L21 234M73.23 246.229L61 234M113.229 246.229L101 234M153.229 246.229L141 234M193.229 246.229L181 234M233.229 246.229L221 234M273.229 246.229L261 234M313.229 246.229L301 234M33.23 296.229L21 284M73.23 296.229L61 284M113.229 296.229L101 284M153.229 296.229L141 284M193.229 296.229L181 284M233.229 296.229L221 284M273.229 296.229L261 284M313.229 296.229L301 284M353.229 46.23L341 34M353.229 96.23L341 84M353.229 146.229L341 134M353.229 196.229L341 184M353.229 246.229L341 234M353.229 296.229L341 284"/>
    <path fill="#fff" d="M200.075 197.991H165.5c-2.737 0-5.344-.488-7.688-1.35-1.762-.656-3.374-1.538-4.818-2.606-2.156-1.594-3.9-3.619-5.1-5.982-1.2-2.343-1.894-5.043-1.894-8.062 0-2.269.337-4.275.956-6.056.45-1.332 1.069-2.55 1.8-3.657 1.107-1.65 2.494-3.075 4.163-4.256 1.65-1.181 3.543-2.137 5.625-2.831 1.575-.525 2.418-2.231 1.894-3.806-.544-1.557-2.25-2.4-3.826-1.875-2.306.768-4.481 1.818-6.487 3.131-1.5.994-2.887 2.156-4.125 3.469-1.856 1.968-3.375 4.312-4.406 6.993-1.032 2.663-1.594 5.644-1.594 8.888 0 3.506.712 6.787 2.044 9.731.993 2.194 2.306 4.2 3.881 5.963 2.381 2.643 5.344 4.706 8.663 6.131 3.337 1.425 7.031 2.175 10.912 2.175h34.575c1.65 0 3-1.35 3-3s-1.35-3-3-3zM235.475 179.897c-.6-2.531-1.706-4.743-3.131-6.618-1.069-1.407-2.325-2.588-3.675-3.6-2.044-1.519-4.294-2.625-6.6-3.375-1.463-.469-2.925-.825-4.388-1.032-.562-3.562-1.575-6.843-2.944-9.825-2.531-5.456-6.356-9.843-10.968-12.843-4.632-3-10.05-4.594-15.75-4.594-2.719 0-5.288.356-7.65 1.031-2.382.656-4.575 1.613-6.563 2.794-1.425.844-1.894 2.681-1.05 4.106.844 1.425 2.681 1.894 4.106 1.05 1.538-.919 3.244-1.669 5.082-2.175 1.856-.506 3.862-.806 6.056-.806 3.056 0 5.962.562 8.644 1.65 4.031 1.612 7.556 4.369 10.237 8.175 2.681 3.806 4.556 8.662 5.138 14.475.15 1.481 1.35 2.625 2.831 2.7 1.744.094 3.619.431 5.419 1.031 1.35.45 2.643 1.05 3.806 1.781.881.544 1.687 1.182 2.4 1.894 1.069 1.05 1.931 2.288 2.55 3.713.619 1.443.975 3.093.975 5.1 0 1.2-.113 2.306-.3 3.3-.3 1.5-.788 2.775-1.444 3.862-.656 1.106-1.462 2.044-2.437 2.85-1.275 1.05-1.444 2.944-.394 4.219 1.031 1.256 2.925 1.425 4.2.375.975-.806 1.875-1.744 2.681-2.775 1.181-1.556 2.119-3.338 2.738-5.325.618-1.988.956-4.181.956-6.525 0-1.631-.188-3.169-.525-4.613zM154.119 135.872c-1.163-1.163-3.075-1.163-4.238 0-1.162 1.162-1.162 3.075 0 4.237l72 72c1.163 1.163 3.075 1.163 4.238 0 1.162-1.162 1.181-3.075 0-4.237l-72-72z"/>
    <path fill="#E4F22C" d="M154.119 135.872c-1.163-1.163-3.075-1.163-4.238 0-1.162 1.162-1.162 3.075 0 4.237l72 72c1.163 1.163 3.075 1.163 4.238 0 1.162-1.162 1.181-3.075 0-4.237l-72-72z"/>
</svg>
