<svg xmlns="http://www.w3.org/2000/svg" width="24" height="24" fill="none" viewBox="0 0 24 24">
    <path stroke="currentColor" stroke-linecap="round" stroke-linejoin="round" stroke-width="1.5" d="M10.625 12.482c0 .495-.399.897-.894.899h-7.15c-.495-.001-.894-.403-.893-.898v0V2.59c-.001-.495.4-.897.894-.898l7.15.012c.494.002.894.404.893.898v9.88zM22.309 6.999c-.004.49-.404.884-.894.882h-7.15c-.49.003-.89-.391-.894-.881V2.587c.003-.49.402-.885.892-.882l7.15-.012c.49-.004.892.391.896.882v4.424zM10.625 21.433c-.003.492-.404.888-.896.885l-7.15-.012c-.49.002-.889-.393-.892-.884v-4.408c.003-.49.403-.886.893-.883H9.731c.49-.003.891.393.894.883v4.42zM14.266 22.318c-.495 0-.896-.403-.895-.898v-9.891c-.002-.494.399-.897.894-.899h7.15c.495.002.895.405.894.9v9.877c0 .495-.398.896-.893.9l-7.15.011z"/>
</svg>
