<svg xmlns="http://www.w3.org/2000/svg" width="24" height="24" fill="none" viewBox="0 0 24 24">
    <path stroke="currentColor" stroke-linecap="round" stroke-linejoin="round" stroke-width="1.5" d="M5.25 9.75h13.5c.828 0 1.5.672 1.5 1.5v10.5c0 .828-.672 1.5-1.5 1.5H5.25c-.828 0-1.5-.672-1.5-1.5v-10.5c0-.828.672-1.5 1.5-1.5zM6.75 9.75V6C6.75 3.101 9.101.75 12 .75S17.25 3.101 17.25 6v3.75"/>
    <path stroke="currentColor" stroke-linecap="round" stroke-linejoin="round" stroke-width="1.5" d="M12 14.25c1.243 0 2.25 1.007 2.25 2.25s-1.007 2.25-2.25 2.25-2.25-1.007-2.25-2.25 1.007-2.25 2.25-2.25z"/>
</svg>
