<svg xmlns="http://www.w3.org/2000/svg" width="132" height="33" fill="none" viewBox="0 0 132 33">
    <path fill="#142431" fill-rule="evenodd" d="M112.573 9.266h3.407c4.68 0 7.598 2.742 7.598 6.99 0 4.25-2.898 7.01-7.598 7.01h-3.407v-14zm1.489 12.669h1.821c4.151 0 6.128-2.33 6.128-5.678 0-3.33-1.977-5.66-6.128-5.66h-1.821v11.338z" clip-rule="evenodd"/>
    <path fill="#142431" d="M107.345 9.266v10.75l-1.272-1.488-7.97-9.399h-.254v14.137h1.41v-10.71l1.586 1.86 7.636 9.007h.255V9.266h-1.391zM92.504 18.39c0 2.488-1.39 3.721-3.545 3.721-2.193 0-3.544-1.233-3.544-3.72V9.266h-1.488v9.223c0 3.27 2.174 4.934 5.032 4.934 2.86 0 5.033-1.664 5.033-4.934V9.266h-1.489v9.125zM72.473 23.266h1.488v-4.758h6.324v-1.35h-6.324v-6.58h6.97V9.266h-8.458v14zM67.206 18.39c0 2.488-1.39 3.721-3.545 3.721-2.193 0-3.544-1.233-3.544-3.72V9.266H58.63v9.223c0 3.27 2.174 4.934 5.032 4.934 2.86 0 5.033-1.664 5.033-4.934V9.266h-1.488v9.125zM48.271 18.45h6.305v-1.293h-6.305v-6.579h7.069V9.266h-8.557v14h8.85v-1.312h-7.362V18.45zM41.496 9.266v10.75l-1.272-1.488-7.97-9.399H32v14.137h1.41v-10.71l1.586 1.86 7.636 9.007h.255V9.266h-1.39z"/>
    <path fill="#142431" fill-rule="evenodd" d="M24.24 9.227L12.219 2.296l-.059-.02-6.03 3.466L.098 9.227V23.168l6.03 3.486 6.031 3.485 6.05-3.485 6.032-3.486V9.228zM5.19 24.597l-3.78-2.192V9.99l3.78-2.193v16.8zm11.69 1.313L6.48 7.896v17.446l5.698 3.29 4.7-2.722zm6.05-3.486l-3.819 2.193V7.778l3.819 2.193v12.453zM7.245 6.604L17.818 24.91V7.015l-5.639-3.25-4.934 2.838z" clip-rule="evenodd"/>
</svg>
