<svg xmlns="http://www.w3.org/2000/svg" width="24" height="24" fill="none" viewBox="0 0 24 24">
    <g stroke="currentColor" stroke-linecap="round" stroke-linejoin="round" stroke-width="1.5" clip-path="url(#wallet-icon__clip0)">
        <path d="M21.75 18v3c0 .828-.672 1.5-1.5 1.5H3c-1.243 0-2.25-1.007-2.25-2.25V3.75C.75 2.507 1.757 1.5 3 1.5h15.75c.828 0 1.5.672 1.5 1.5v2.25"/>
        <path d="M21.75 18c.828 0 1.5-.672 1.5-1.5V12c0-.828-.672-1.5-1.5-1.5H18c-2.071 0-3.75 1.679-3.75 3.75 0 2.071 1.679 3.75 3.75 3.75h3.75z"/>
        <path fill="currentColor" d="M18 13.875c.207 0 .375.168.375.375s-.168.375-.375.375-.375-.168-.375-.375.168-.375.375-.375z"/>
        <path d="M21.75 10.5V6.75c0-.828-.672-1.5-1.5-1.5H5.625c-.664.031-1.289-.315-1.614-.895"/>
    </g>
    <defs>
        <clipPath id="wallet-icon__clip0">
            <path fill="#fff" d="M0 0h24v24H0V0z"/>
        </clipPath>
    </defs>
</svg>
