<?xml version="1.0" encoding="UTF-8"?>
<svg width="65px" height="74px" viewBox="0 0 65 74" version="1.1" xmlns="http://www.w3.org/2000/svg" xmlns:xlink="http://www.w3.org/1999/xlink">
    <!-- Generator: Sketch 48.2 (47327) - http://www.bohemiancoding.com/sketch -->
    <title>Group 6</title>
    <desc>Created with Sketch.</desc>
    <defs></defs>
    <g id="regstrationexsting-wallet_Start2" stroke="none" stroke-width="1" fill="none" fill-rule="evenodd" transform="translate(-395.000000, -407.000000)">
        <g id="Group-6" transform="translate(395.000000, 407.000000)">
            <polygon id="Page-1" fill="#EFEFEF" points="32.0146951 0 0 18.4833813 0 55.450144 32.0146951 73.9335253 64.0286509 55.450144 64.0286509 18.4833813"></polygon>
            <g id="Group-4" transform="translate(16.000000, 24.000000)" fill="#C4C5C6" fill-rule="nonzero">
                <g id="Group-8">
                    <g id="005-wallet" transform="translate(0.416499, 0.099598)">
                        <path d="M28.249497,13.0382294 C27.0499799,13.0382294 26.0764588,14.0117505 26.0764588,15.2112676 C26.0764588,16.4107847 27.0499799,17.3843058 28.249497,17.3843058 L34.7686117,17.3843058 L34.7686117,13.0382294 L28.249497,13.0382294 Z" id="Shape"></path>
                        <path d="M28.249497,10.8651911 L32.5955734,10.8651911 L32.5955734,5.43259557 C32.5955734,4.83283702 32.1088129,4.34607646 31.5090543,4.34607646 L28.249497,4.34607646 L28.249497,1.08651911 C28.249497,0.486760563 27.7627364,0 27.1629779,0 L3.25955734,0 C1.46245473,0 0,1.46245473 0,3.25955734 L0,22.8169014 C0,24.614004 1.46245473,26.0764588 3.25955734,26.0764588 L31.5090543,26.0764588 C32.1088129,26.0764588 32.5955734,25.5896982 32.5955734,24.9899396 L32.5955734,19.5573441 L28.249497,19.5573441 C25.8526358,19.5573441 23.9034205,17.6081288 23.9034205,15.2112676 C23.9034205,12.8144064 25.8526358,10.8651911 28.249497,10.8651911 Z M3.25955734,4.34607646 C2.65979879,4.34607646 2.17303823,3.8593159 2.17303823,3.25955734 C2.17303823,2.65979879 2.65979879,2.17303823 3.25955734,2.17303823 L26.0764588,2.17303823 L26.0764588,4.34607646 L3.25955734,4.34607646 Z" id="Shape"></path>
                    </g>
                </g>
            </g>
        </g>
    </g>
</svg>